<svg width="303" height="16" viewBox="0 0 303 16" fill="none" xmlns="http://www.w3.org/2000/svg">
<path d="M302.308 1.82251C302.228 1.6898 302.13 1.57479 302.028 1.45977H302.308V0H0V1.45977H1.6537C0.563953 2.47277 0.398583 4.21565 1.30176 5.44097C1.92083 6.27703 2.88337 6.65745 3.81198 6.52917C3.31163 6.88748 2.91729 7.42715 2.72648 8.09069C2.28549 9.63008 3.10386 11.2535 4.55402 11.7224C5.51232 12.0321 6.50878 11.7534 7.19994 11.0899C6.98368 11.6915 6.94976 12.3683 7.15329 13.0274C7.62396 14.5579 9.17589 15.3896 10.6176 14.8941C11.5716 14.5623 12.2373 13.7351 12.4409 12.7664C12.5893 13.3901 12.9285 13.9652 13.4543 14.381C14.667 15.3453 16.3885 15.0888 17.3002 13.8015C17.9023 12.9522 17.9956 11.8684 17.6437 10.9483C18.1016 11.3685 18.6952 11.634 19.3482 11.6561C20.8662 11.7092 22.1341 10.4529 22.185 8.84269C22.2189 7.78104 21.7101 6.83439 20.9214 6.29914C21.5235 6.3655 22.151 6.22394 22.698 5.84352C23.9701 4.96765 24.3305 3.16284 23.4994 1.81366C23.4189 1.68095 23.3214 1.56594 23.2196 1.45093H24.8818C23.792 2.46392 23.6266 4.2068 24.5298 5.43213C25.1489 6.26818 26.1114 6.64861 27.04 6.52032C26.5397 6.87863 26.1454 7.4183 25.9545 8.08184C25.5136 9.62124 26.3319 11.2447 27.7821 11.7136C28.7404 12.0232 29.7368 11.7445 30.428 11.081C30.2118 11.6826 30.1778 12.3594 30.3814 13.0185C30.852 14.5491 32.404 15.3807 33.8456 14.8853C34.7997 14.5535 35.4654 13.7263 35.6689 12.7575C35.8174 13.3813 36.1566 13.9563 36.6824 14.3721C37.8951 15.3365 39.6166 15.0799 40.5283 13.7926C41.1304 12.9433 41.2237 11.8596 40.8717 10.9395C41.3297 11.3597 41.9233 11.6251 42.5763 11.6472C44.0943 11.7003 45.3621 10.444 45.413 8.83384C45.4469 7.77219 44.9381 6.82555 44.1494 6.2903C44.7516 6.35665 45.3791 6.2151 45.9261 5.83467C47.1982 4.95881 47.5586 3.154 46.7275 1.80481C46.6469 1.6721 46.5494 1.55709 46.4477 1.44208H48.1098C47.0201 2.45507 46.8547 4.19796 47.7579 5.42328C48.377 6.25933 49.3395 6.63976 50.2681 6.51148C49.7678 6.86978 49.3734 7.40946 49.1826 8.07299C48.7416 9.61239 49.56 11.2358 51.0102 11.7047C51.9684 12.0144 52.9649 11.7357 53.6561 11.0722C53.4398 11.6738 53.4059 12.3506 53.6094 13.0097C54.0801 14.5402 55.632 15.3719 57.0737 14.8764C58.0278 14.5447 58.6935 13.7174 58.897 12.7487C59.0454 13.3724 59.3846 13.9475 59.9104 14.3633C61.1231 15.3276 62.8447 15.0711 63.7563 13.7838C64.3584 12.9345 64.4517 11.8507 64.0998 10.9306C64.5577 11.3508 65.1514 11.6163 65.8044 11.6384C67.3224 11.6915 68.5902 10.4352 68.6411 8.825C68.675 7.76334 68.1662 6.8167 67.3775 6.28145C67.9796 6.3478 68.6072 6.20625 69.1542 5.82582C70.4262 4.94996 70.7867 3.14515 69.9556 1.79596C69.875 1.66326 69.7775 1.54824 69.6757 1.43323H71.3379C70.2482 2.44623 70.0828 4.18911 70.986 5.41443C71.605 6.25049 72.5676 6.63091 73.4962 6.50263C72.9958 6.86094 72.6015 7.40061 72.4107 8.06414C71.9697 9.60354 72.7881 11.227 74.2382 11.6959C75.1965 12.0055 76.193 11.7268 76.8841 11.0633C76.6679 11.6649 76.634 12.3417 76.8375 13.0008C77.3082 14.5314 78.8601 15.363 80.3018 14.8676C81.2558 14.5358 81.9215 13.7086 82.1251 12.7398C82.2735 13.3636 82.6127 13.9386 83.1385 14.3544C84.3512 15.3188 86.0727 15.0622 86.9844 13.775C87.5865 12.9256 87.6798 11.8419 87.3279 10.9218C87.7858 11.342 88.3794 11.6074 89.0324 11.6295C90.5504 11.6826 91.8183 10.4263 91.8692 8.81615C91.9031 7.75449 91.3942 6.80785 90.6056 6.2726C91.2077 6.33896 91.8352 6.1974 92.3822 5.81698C93.6543 4.94111 94.0147 3.1363 93.1836 1.78712C93.1031 1.65441 93.0055 1.5394 92.9038 1.42439H94.566C93.4762 2.43738 93.3108 4.18026 94.214 5.40559C94.8331 6.24164 95.7956 6.62206 96.7242 6.49378C96.2239 6.85209 95.8296 7.39176 95.6387 8.0553C95.1978 9.59469 96.0161 11.2181 97.4663 11.687C98.4246 11.9967 99.421 11.718 100.112 11.0545C99.896 11.6561 99.862 12.3329 100.066 12.992C100.536 14.5225 102.088 15.3542 103.53 14.8587C104.484 14.527 105.15 13.6998 105.353 12.731C105.502 13.3547 105.841 13.9298 106.367 14.3456C107.579 15.3099 109.301 15.0534 110.212 13.7661C110.815 12.9168 110.908 11.833 110.556 10.9129C111.014 11.3332 111.608 11.5986 112.26 11.6207C113.779 11.6738 115.046 10.4175 115.097 8.8073C115.131 7.74565 114.622 6.79901 113.834 6.26376C114.436 6.33011 115.063 6.18856 115.61 5.80813C116.882 4.93227 117.243 3.12745 116.412 1.77827C116.331 1.64556 116.234 1.53055 116.132 1.41554H117.794C116.704 2.42853 116.539 4.17141 117.442 5.39674C118.061 6.23279 119.024 6.61322 119.952 6.48493C119.452 6.84324 119.058 7.38292 118.867 8.04645C118.426 9.58585 119.244 11.2093 120.694 11.6782C121.653 11.9878 122.649 11.7092 123.34 11.0456C123.124 11.6472 123.09 12.324 123.294 12.9831C123.764 14.5137 125.316 15.3453 126.758 14.8499C127.712 14.5181 128.378 13.6909 128.581 12.7221C128.73 13.3459 129.069 13.9209 129.595 14.3367C130.807 15.3011 132.529 15.0445 133.441 13.7573C134.043 12.9079 134.136 11.8242 133.784 10.9041C134.242 11.3243 134.836 11.5897 135.489 11.6118C137.007 11.6649 138.274 10.4086 138.325 8.79845C138.359 7.7368 137.85 6.79016 137.062 6.25491C137.664 6.32126 138.291 6.17971 138.838 5.79928C140.11 4.92342 140.471 3.11861 139.64 1.76942C139.559 1.63672 139.462 1.5217 139.36 1.40669H141.022C139.932 2.41969 139.767 4.16257 140.67 5.38789C141.289 6.22394 142.252 6.60437 143.18 6.47609C142.68 6.83439 142.286 7.37407 142.095 8.0376C141.654 9.577 142.472 11.2004 143.922 11.6693C144.881 11.979 145.877 11.7003 146.568 11.0368C146.352 11.6384 146.318 12.3152 146.522 12.9743C146.992 14.5048 148.544 15.3365 149.986 14.841C150.94 14.5093 151.606 13.6821 151.809 12.7133C151.958 13.337 152.297 13.9121 152.823 14.3279C154.035 15.2922 155.757 15.0357 156.669 13.7484C157.271 12.8991 157.364 11.8153 157.012 10.8952C157.47 11.3155 158.064 11.5809 158.717 11.603C160.235 11.6561 161.502 10.3998 161.553 8.78961C161.587 7.72795 161.078 6.78131 160.29 6.24606C160.892 6.31242 161.519 6.17086 162.066 5.79044C163.339 4.91457 163.699 3.10976 162.868 1.76058C162.787 1.62787 162.69 1.51286 162.588 1.39784H164.25C163.16 2.41084 162.995 4.15372 163.898 5.37905C164.517 6.2151 165.48 6.59552 166.408 6.46724C165.908 6.82555 165.514 7.36522 165.323 8.02876C164.882 9.56815 165.7 11.1916 167.15 11.6605C168.109 11.9701 169.105 11.6915 169.796 11.0279C169.58 11.6295 169.546 12.3063 169.75 12.9654C170.22 14.496 171.772 15.3276 173.214 14.8322C174.168 14.5004 174.834 13.6732 175.037 12.7045C175.186 13.3282 175.525 13.9032 176.051 14.3191C177.263 15.2834 178.985 15.0268 179.897 13.7396C180.499 12.8902 180.592 11.8065 180.24 10.8864C180.698 11.3066 181.292 11.572 181.945 11.5941C183.463 11.6472 184.731 10.3909 184.781 8.78076C184.815 7.71911 184.307 6.77247 183.518 6.23722C184.12 6.30357 184.747 6.16201 185.294 5.78159C186.567 4.90572 186.927 3.10091 186.096 1.75173C186.015 1.61902 185.918 1.50401 185.816 1.389H187.478C186.388 2.40199 186.223 4.14487 187.126 5.3702C187.745 6.20625 188.708 6.58668 189.637 6.45839C189.136 6.8167 188.742 7.35637 188.551 8.01991C188.11 9.55931 188.928 11.1828 190.379 11.6516C191.337 11.9613 192.333 11.6826 193.024 11.0191C192.808 11.6207 192.774 12.2975 192.978 12.9566C193.448 14.4871 195 15.3188 196.442 14.8233C197.396 14.4916 198.062 13.6644 198.265 12.6956C198.414 13.3193 198.753 13.8944 199.279 14.3102C200.492 15.2745 202.213 15.018 203.125 13.7307C203.727 12.8814 203.82 11.7976 203.468 10.8775C203.926 11.2978 204.52 11.5632 205.173 11.5853C206.691 11.6384 207.959 10.3821 208.009 8.77191C208.043 7.71026 207.535 6.76362 206.746 6.22837C207.348 6.29472 207.976 6.15317 208.523 5.77274C209.795 4.89688 210.155 3.09207 209.324 1.74288C209.243 1.61017 209.146 1.49516 209.044 1.38015H210.706C209.617 2.39314 209.451 4.13603 210.354 5.36135C210.973 6.1974 211.936 6.57783 212.865 6.44955C212.364 6.80785 211.97 7.34753 211.779 8.01106C211.338 9.55046 212.156 11.1739 213.607 11.6428C214.565 11.9524 215.561 11.6738 216.253 11.0102C216.036 11.6118 216.002 12.2886 216.206 12.9478C216.677 14.4783 218.228 15.3099 219.67 14.8145C220.624 14.4827 221.29 13.6555 221.493 12.6868C221.642 13.3105 221.981 13.8855 222.507 14.3014C223.72 15.2657 225.441 15.0091 226.353 13.7219C226.955 12.8726 227.048 11.7888 226.696 10.8687C227.154 11.2889 227.748 11.5543 228.401 11.5764C229.919 11.6295 231.187 10.3732 231.238 8.76307C231.271 7.70141 230.763 6.75477 229.974 6.21952C230.576 6.28587 231.204 6.14432 231.751 5.76389C233.023 4.88803 233.383 3.08322 232.552 1.73403C232.471 1.60133 232.374 1.48632 232.272 1.3713H233.934C232.845 2.3843 232.679 4.12718 233.582 5.3525C234.201 6.18856 235.164 6.56898 236.093 6.4407C235.592 6.79901 235.198 7.33868 235.007 8.00221C234.566 9.54161 235.385 11.1651 236.835 11.634C237.793 11.9436 238.789 11.6649 239.481 11.0014C239.264 11.603 239.23 12.2798 239.434 12.9389C239.905 14.4695 241.457 15.3011 242.898 14.8056C243.852 14.4739 244.518 13.6467 244.722 12.6779C244.87 13.3016 245.209 13.8767 245.735 14.2925C246.948 15.2568 248.669 15.0003 249.581 13.713C250.183 12.8637 250.276 11.7799 249.924 10.8598C250.382 11.2801 250.976 11.5455 251.629 11.5676C253.147 11.6207 254.415 10.3644 254.466 8.75422C254.5 7.69257 253.991 6.74592 253.202 6.21067C253.804 6.27703 254.432 6.13547 254.979 5.75505C256.251 4.87918 256.611 3.07437 255.78 1.72519C255.7 1.59248 255.602 1.47747 255.5 1.36246H257.162C256.073 2.37545 255.907 4.11833 256.81 5.34366C257.43 6.17971 258.392 6.56013 259.321 6.43185C258.82 6.79016 258.426 7.32983 258.235 7.99337C257.794 9.53276 258.613 11.1562 260.063 11.6251C261.021 11.9348 262.017 11.6561 262.709 10.9925C262.492 11.5941 262.458 12.2709 262.662 12.9301C263.133 14.4606 264.685 15.2922 266.126 14.7968C267.08 14.465 267.746 13.6378 267.95 12.6691C268.098 13.2928 268.437 13.8679 268.963 14.2837C270.176 15.248 271.897 14.9914 272.809 13.7042C273.411 12.8549 273.504 11.7711 273.152 10.851C273.61 11.2712 274.204 11.5366 274.857 11.5588C276.375 11.6118 277.643 10.3555 277.694 8.74537C277.728 7.68372 277.219 6.73708 276.43 6.20183C277.032 6.26818 277.66 6.12663 278.207 5.7462C279.479 4.87034 279.839 3.06552 279.008 1.71634C278.928 1.58363 278.83 1.46862 278.728 1.35361H280.39C279.301 2.3666 279.135 4.10948 280.039 5.33481C280.658 6.17086 281.62 6.55129 282.549 6.423C282.048 6.78131 281.654 7.32099 281.463 7.98452C281.022 9.52392 281.841 11.1474 283.291 11.6163C284.249 11.9259 285.246 11.6472 285.937 10.9837C285.72 11.5853 285.687 12.2621 285.89 12.9212C286.361 14.4518 287.913 15.2834 289.354 14.7879C290.308 14.4562 290.974 13.629 291.178 12.6602C291.326 13.2839 291.665 13.859 292.191 14.2748C293.404 15.2392 295.125 14.9826 296.037 13.6953C296.639 12.846 296.732 11.7622 296.38 10.8421C296.838 11.2624 297.432 11.5278 298.085 11.5499C299.603 11.603 300.871 10.3467 300.922 8.73652C300.956 7.67487 300.447 6.72823 299.658 6.19298C300.26 6.25933 300.888 6.11778 301.435 5.73735C302.775 4.9765 303.135 3.17169 302.308 1.82251ZM293.985 9.24966C293.565 9.83799 292.776 9.95743 292.221 9.51507C291.809 9.18773 291.644 8.64805 291.75 8.14819C292.488 8.05972 293.183 7.812 293.798 7.436C294.298 7.89162 294.388 8.68344 293.985 9.24966ZM291.135 7.44042C288.523 7.44042 286.407 5.19768 286.407 2.42853C286.407 2.09677 286.45 1.77827 286.509 1.4642H295.766C295.825 1.77827 295.867 2.09677 295.867 2.42853C295.867 5.19326 293.747 7.44042 291.135 7.44042ZM288.231 8.90904C288.074 8.39149 288.226 7.84739 288.583 7.50678C289.206 7.86508 289.906 8.09511 290.648 8.16588C290.813 8.84269 290.457 9.54603 289.821 9.76721C289.159 9.99281 288.447 9.61239 288.231 8.90904ZM284.152 4.41029C284.533 4.71109 285.012 4.83937 285.475 4.77744C285.14 5.01631 284.881 5.37462 284.754 5.81255C284.72 5.92757 284.703 6.047 284.69 6.16201C284.444 5.60907 284.262 5.02516 284.152 4.41029ZM284.465 1.80481C284.864 1.47304 285.394 1.43766 285.818 1.66768C285.78 1.93752 285.763 2.20735 285.763 2.48604C285.763 2.99475 285.826 3.49019 285.945 3.95908C285.402 4.34836 284.66 4.22892 284.249 3.67598C284.147 3.53442 284.075 3.3796 284.033 3.22035C284.029 3.14515 284.02 3.06552 284.02 2.99032C284.02 2.80896 284.029 2.62759 284.041 2.45065C284.113 2.20735 284.258 1.97733 284.465 1.80481ZM285.292 5.98507C285.441 5.46752 285.86 5.11363 286.335 5.0517C286.666 5.74178 287.12 6.35223 287.675 6.84767C287.442 7.50235 286.768 7.86066 286.132 7.65275C285.466 7.44042 285.089 6.69284 285.292 5.98507ZM297.483 1.45977C297.72 1.55709 297.937 1.72961 298.089 1.97291C298.14 2.05695 298.178 2.14543 298.212 2.2339C298.238 2.48604 298.255 2.73818 298.255 2.99475C298.255 3.00359 298.255 3.01244 298.255 3.02129C298.183 3.33979 298 3.62732 297.72 3.81753C297.296 4.10948 296.766 4.09621 296.363 3.82638C296.461 3.39729 296.516 2.94609 296.516 2.48604C296.516 2.1587 296.486 1.83578 296.44 1.5217C296.486 1.49516 296.537 1.47304 296.588 1.45535H297.483V1.45977ZM295.995 4.92784C296.643 5.00304 297.139 5.5958 297.118 6.29914C297.093 7.03788 296.512 7.61294 295.816 7.59082C295.303 7.57313 294.875 7.23251 294.693 6.76362C295.236 6.25049 295.681 5.62676 295.995 4.92784ZM297.665 5.99392C297.593 5.42328 297.284 4.92784 296.847 4.62704C297.25 4.67128 297.665 4.57396 298.03 4.32624C298.077 4.29527 298.11 4.25546 298.153 4.22007C298.055 4.83937 297.894 5.43213 297.665 5.99392ZM270.752 9.24966C270.333 9.83799 269.544 9.95743 268.988 9.51507C268.577 9.18773 268.412 8.64805 268.518 8.14819C269.256 8.05972 269.951 7.812 270.566 7.436C271.066 7.89162 271.151 8.68344 270.752 9.24966ZM267.903 7.44042C265.291 7.44042 263.175 5.19768 263.175 2.42853C263.175 2.09677 263.217 1.77827 263.277 1.4642H272.533C272.593 1.77827 272.635 2.09677 272.635 2.42853C272.631 5.19326 270.515 7.44042 267.903 7.44042ZM264.998 8.90904C264.841 8.39149 264.994 7.84739 265.35 7.50678C265.974 7.86508 266.673 8.09511 267.415 8.16588C267.581 8.84269 267.225 9.54603 266.588 9.76721C265.923 9.99281 265.215 9.61239 264.998 8.90904ZM260.915 4.41029C261.297 4.71109 261.776 4.83937 262.238 4.77744C261.903 5.01631 261.644 5.37462 261.517 5.81255C261.483 5.92757 261.466 6.047 261.454 6.16201C261.208 5.60907 261.025 5.02516 260.915 4.41029ZM261.233 1.80481C261.632 1.47304 262.162 1.43766 262.586 1.66768C262.548 1.93752 262.531 2.20735 262.531 2.48604C262.531 2.99475 262.594 3.49019 262.713 3.95908C262.17 4.34836 261.428 4.22892 261.017 3.67598C260.915 3.53442 260.843 3.3796 260.801 3.22035C260.796 3.14515 260.788 3.06552 260.788 2.99032C260.788 2.80896 260.796 2.62759 260.809 2.45065C260.881 2.20735 261.021 1.97733 261.233 1.80481ZM262.056 5.98507C262.204 5.46752 262.624 5.11363 263.099 5.0517C263.429 5.74178 263.883 6.35223 264.439 6.84767C264.205 7.50235 263.531 7.86066 262.895 7.65275C262.229 7.44042 261.856 6.69284 262.056 5.98507ZM274.251 1.45977C274.488 1.55709 274.704 1.72961 274.857 1.97291C274.908 2.05695 274.946 2.14543 274.98 2.2339C275.005 2.48604 275.022 2.73818 275.022 2.99475C275.022 3.00359 275.022 3.01244 275.022 3.02129C274.95 3.33979 274.768 3.62732 274.492 3.81753C274.068 4.10948 273.538 4.09621 273.135 3.82638C273.233 3.39729 273.288 2.94609 273.288 2.48604C273.288 2.1587 273.258 1.83578 273.212 1.5217C273.258 1.49516 273.309 1.47304 273.36 1.45535H274.251V1.45977ZM272.762 4.92784C273.411 5.00304 273.907 5.5958 273.886 6.29914C273.861 7.03788 273.28 7.61294 272.584 7.59082C272.071 7.57313 271.643 7.23251 271.461 6.76362C272.003 6.25049 272.449 5.62676 272.762 4.92784ZM274.433 5.99392C274.361 5.42328 274.051 4.92784 273.615 4.62704C274.017 4.67128 274.433 4.57396 274.798 4.32624C274.844 4.29527 274.878 4.25546 274.921 4.22007C274.823 4.83937 274.662 5.43213 274.433 5.99392ZM247.516 9.24966C247.096 9.83799 246.307 9.95743 245.752 9.51507C245.341 9.18773 245.175 8.64805 245.281 8.14819C246.019 8.05972 246.714 7.812 247.329 7.436C247.83 7.89162 247.919 8.68344 247.516 9.24966ZM244.671 7.44042C242.059 7.44042 239.943 5.19768 239.943 2.42853C239.943 2.09677 239.985 1.77827 240.045 1.4642H249.301C249.36 1.77827 249.403 2.09677 249.403 2.42853C249.399 5.19326 247.283 7.44042 244.671 7.44042ZM241.762 8.90904C241.605 8.39149 241.758 7.84739 242.114 7.50678C242.737 7.86508 243.437 8.09511 244.179 8.16588C244.344 8.84269 243.988 9.54603 243.352 9.76721C242.69 9.99281 241.978 9.61239 241.762 8.90904ZM237.683 4.41029C238.064 4.71109 238.543 4.83937 239.006 4.77744C238.671 5.01631 238.412 5.37462 238.285 5.81255C238.251 5.92757 238.234 6.047 238.221 6.16201C237.975 5.60907 237.793 5.02516 237.683 4.41029ZM237.997 1.80481C238.395 1.47304 238.925 1.43766 239.349 1.66768C239.311 1.93752 239.294 2.20735 239.294 2.48604C239.294 2.99475 239.358 3.49019 239.476 3.95908C238.934 4.34836 238.192 4.22892 237.78 3.67598C237.678 3.53442 237.606 3.3796 237.564 3.22035C237.56 3.14515 237.551 3.06552 237.551 2.99032C237.551 2.80896 237.56 2.62759 237.572 2.45065C237.649 2.20735 237.789 1.97733 237.997 1.80481ZM238.823 5.98507C238.972 5.46752 239.392 5.11363 239.866 5.0517C240.197 5.74178 240.651 6.35223 241.206 6.84767C240.973 7.50235 240.299 7.86066 239.663 7.65275C238.997 7.44042 238.62 6.69284 238.823 5.98507ZM251.014 1.45977C251.251 1.55709 251.468 1.72961 251.62 1.97291C251.671 2.05695 251.709 2.14543 251.743 2.2339C251.769 2.48604 251.786 2.73818 251.786 2.99475C251.786 3.00359 251.786 3.01244 251.786 3.02129C251.714 3.33979 251.531 3.62732 251.256 3.81753C250.832 4.10948 250.302 4.09621 249.899 3.82638C249.996 3.39729 250.052 2.94609 250.052 2.48604C250.052 2.1587 250.022 1.83578 249.975 1.5217C250.022 1.49516 250.073 1.47304 250.124 1.45535H251.014V1.45977ZM249.53 4.92784C250.179 5.00304 250.675 5.5958 250.654 6.29914C250.628 7.03788 250.047 7.61294 249.352 7.59082C248.839 7.57313 248.411 7.23251 248.228 6.76362C248.771 6.25049 249.216 5.62676 249.53 4.92784ZM251.196 5.99392C251.124 5.42328 250.815 4.92784 250.378 4.62704C250.781 4.67128 251.196 4.57396 251.561 4.32624C251.608 4.29527 251.642 4.25546 251.684 4.22007C251.586 4.83937 251.425 5.43213 251.196 5.99392ZM224.284 9.24966C223.864 9.83799 223.075 9.95743 222.52 9.51507C222.108 9.18773 221.943 8.64805 222.049 8.14819C222.787 8.05972 223.482 7.812 224.097 7.436C224.597 7.89162 224.686 8.68344 224.284 9.24966ZM221.434 7.44042C218.822 7.44042 216.706 5.19768 216.706 2.42853C216.706 2.09677 216.749 1.77827 216.808 1.4642H226.064C226.124 1.77827 226.166 2.09677 226.166 2.42853C226.166 5.19326 224.046 7.44042 221.434 7.44042ZM218.53 8.90904C218.368 8.39149 218.525 7.84739 218.881 7.50678C219.505 7.86508 220.204 8.09511 220.946 8.16588C221.112 8.84269 220.756 9.54603 220.12 9.76721C219.458 9.99281 218.746 9.61239 218.53 8.90904ZM214.45 4.41029C214.832 4.71109 215.311 4.83937 215.773 4.77744C215.438 5.01631 215.18 5.37462 215.053 5.81255C215.019 5.92757 215.002 6.047 214.989 6.16201C214.743 5.60907 214.561 5.02516 214.45 4.41029ZM214.764 1.80481C215.163 1.47304 215.693 1.43766 216.117 1.66768C216.079 1.93752 216.062 2.20735 216.062 2.48604C216.062 2.99475 216.125 3.49019 216.244 3.95908C215.701 4.34836 214.959 4.22892 214.548 3.67598C214.446 3.53442 214.374 3.3796 214.332 3.22035C214.327 3.14515 214.319 3.06552 214.319 2.99032C214.319 2.80896 214.327 2.62759 214.34 2.45065C214.412 2.20735 214.556 1.97733 214.764 1.80481ZM215.591 5.98507C215.739 5.46752 216.159 5.11363 216.634 5.0517C216.965 5.74178 217.419 6.35223 217.974 6.84767C217.741 7.50235 217.067 7.86066 216.431 7.65275C215.765 7.44042 215.388 6.69284 215.591 5.98507ZM227.782 1.45977C228.019 1.55709 228.235 1.72961 228.388 1.97291C228.439 2.05695 228.477 2.14543 228.511 2.2339C228.536 2.48604 228.553 2.73818 228.553 2.99475C228.553 3.00359 228.553 3.01244 228.553 3.02129C228.481 3.33979 228.299 3.62732 228.019 3.81753C227.595 4.10948 227.065 4.09621 226.662 3.82638C226.76 3.39729 226.815 2.94609 226.815 2.48604C226.815 2.1587 226.785 1.83578 226.739 1.5217C226.785 1.49516 226.836 1.47304 226.887 1.45535H227.782V1.45977ZM226.293 4.92784C226.942 5.00304 227.438 5.5958 227.417 6.29914C227.392 7.03788 226.811 7.61294 226.115 7.59082C225.602 7.57313 225.174 7.23251 224.992 6.76362C225.534 6.25049 225.98 5.62676 226.293 4.92784ZM227.964 5.99392C227.892 5.42328 227.582 4.92784 227.146 4.62704C227.549 4.67128 227.964 4.57396 228.329 4.32624C228.375 4.29527 228.409 4.25546 228.452 4.22007C228.354 4.83937 228.193 5.43213 227.964 5.99392ZM201.051 9.24966C200.631 9.83799 199.843 9.95743 199.287 9.51507C198.876 9.18773 198.711 8.64805 198.817 8.14819C199.554 8.05972 200.25 7.812 200.865 7.436C201.365 7.89162 201.45 8.68344 201.051 9.24966ZM198.202 7.44042C195.59 7.44042 193.474 5.19768 193.474 2.42853C193.474 2.09677 193.516 1.77827 193.576 1.4642H202.832C202.892 1.77827 202.934 2.09677 202.934 2.42853C202.93 5.19326 200.814 7.44042 198.202 7.44042ZM195.297 8.90904C195.136 8.39149 195.293 7.84739 195.649 7.50678C196.272 7.86508 196.972 8.09511 197.714 8.16588C197.88 8.84269 197.523 9.54603 196.887 9.76721C196.222 9.99281 195.513 9.61239 195.297 8.90904ZM191.214 4.41029C191.596 4.71109 192.075 4.83937 192.537 4.77744C192.202 5.01631 191.943 5.37462 191.816 5.81255C191.782 5.92757 191.765 6.047 191.752 6.16201C191.506 5.60907 191.324 5.02516 191.214 4.41029ZM191.532 1.80481C191.93 1.47304 192.461 1.43766 192.885 1.66768C192.846 1.93752 192.829 2.20735 192.829 2.48604C192.829 2.99475 192.893 3.49019 193.012 3.95908C192.469 4.34836 191.727 4.22892 191.316 3.67598C191.214 3.53442 191.142 3.3796 191.099 3.22035C191.095 3.14515 191.087 3.06552 191.087 2.99032C191.087 2.80896 191.095 2.62759 191.108 2.45065C191.18 2.20735 191.32 1.97733 191.532 1.80481ZM192.355 5.98507C192.503 5.46752 192.923 5.11363 193.398 5.0517C193.728 5.74178 194.182 6.35223 194.738 6.84767C194.504 7.50235 193.83 7.86066 193.194 7.65275C192.528 7.44042 192.155 6.69284 192.355 5.98507ZM204.549 1.45977C204.787 1.55709 205.003 1.72961 205.156 1.97291C205.207 2.05695 205.245 2.14543 205.279 2.2339C205.304 2.48604 205.321 2.73818 205.321 2.99475C205.321 3.00359 205.321 3.01244 205.321 3.02129C205.249 3.33979 205.067 3.62732 204.791 3.81753C204.367 4.10948 203.837 4.09621 203.434 3.82638C203.532 3.39729 203.587 2.94609 203.587 2.48604C203.587 2.1587 203.557 1.83578 203.511 1.5217C203.557 1.49516 203.608 1.47304 203.659 1.45535H204.549V1.45977ZM203.061 4.92784C203.71 5.00304 204.206 5.5958 204.185 6.29914C204.159 7.03788 203.578 7.61294 202.883 7.59082C202.37 7.57313 201.942 7.23251 201.759 6.76362C202.302 6.25049 202.747 5.62676 203.061 4.92784ZM204.732 5.99392C204.66 5.42328 204.35 4.92784 203.913 4.62704C204.316 4.67128 204.732 4.57396 205.096 4.32624C205.143 4.29527 205.177 4.25546 205.219 4.22007C205.122 4.83937 204.961 5.43213 204.732 5.99392ZM177.815 9.24966C177.395 9.83799 176.606 9.95743 176.051 9.51507C175.639 9.18773 175.474 8.64805 175.58 8.14819C176.318 8.05972 177.013 7.812 177.628 7.436C178.128 7.89162 178.218 8.68344 177.815 9.24966ZM174.969 7.44042C172.358 7.44042 170.242 5.19768 170.242 2.42853C170.242 2.09677 170.284 1.77827 170.343 1.4642H179.6C179.659 1.77827 179.702 2.09677 179.702 2.42853C179.697 5.19326 177.581 7.44042 174.969 7.44042ZM172.061 8.90904C171.9 8.39149 172.056 7.84739 172.413 7.50678C173.036 7.86508 173.736 8.09511 174.478 8.16588C174.643 8.84269 174.287 9.54603 173.651 9.76721C172.989 9.99281 172.277 9.61239 172.061 8.90904ZM167.982 4.41029C168.363 4.71109 168.842 4.83937 169.305 4.77744C168.97 5.01631 168.711 5.37462 168.584 5.81255C168.55 5.92757 168.533 6.047 168.52 6.16201C168.274 5.60907 168.092 5.02516 167.982 4.41029ZM168.295 1.80481C168.694 1.47304 169.224 1.43766 169.648 1.66768C169.61 1.93752 169.593 2.20735 169.593 2.48604C169.593 2.99475 169.656 3.49019 169.775 3.95908C169.232 4.34836 168.49 4.22892 168.079 3.67598C167.977 3.53442 167.905 3.3796 167.863 3.22035C167.859 3.14515 167.85 3.06552 167.85 2.99032C167.85 2.80896 167.859 2.62759 167.871 2.45065C167.948 2.20735 168.088 1.97733 168.295 1.80481ZM169.122 5.98507C169.271 5.46752 169.69 5.11363 170.165 5.0517C170.496 5.74178 170.95 6.35223 171.505 6.84767C171.272 7.50235 170.598 7.86066 169.962 7.65275C169.296 7.44042 168.919 6.69284 169.122 5.98507ZM181.313 1.45977C181.55 1.55709 181.767 1.72961 181.919 1.97291C181.97 2.05695 182.008 2.14543 182.042 2.2339C182.068 2.48604 182.085 2.73818 182.085 2.99475C182.085 3.00359 182.085 3.01244 182.085 3.02129C182.013 3.33979 181.83 3.62732 181.555 3.81753C181.131 4.10948 180.601 4.09621 180.198 3.82638C180.295 3.39729 180.35 2.94609 180.35 2.48604C180.35 2.1587 180.321 1.83578 180.274 1.5217C180.321 1.49516 180.372 1.47304 180.422 1.45535H181.313V1.45977ZM179.829 4.92784C180.478 5.00304 180.974 5.5958 180.952 6.29914C180.927 7.03788 180.346 7.61294 179.651 7.59082C179.138 7.57313 178.709 7.23251 178.527 6.76362C179.07 6.25049 179.515 5.62676 179.829 4.92784ZM181.495 5.99392C181.423 5.42328 181.114 4.92784 180.677 4.62704C181.08 4.67128 181.495 4.57396 181.86 4.32624C181.907 4.29527 181.94 4.25546 181.983 4.22007C181.885 4.83937 181.724 5.43213 181.495 5.99392ZM154.582 9.24966C154.163 9.83799 153.374 9.95743 152.818 9.51507C152.407 9.18773 152.242 8.64805 152.348 8.14819C153.086 8.05972 153.781 7.812 154.396 7.436C154.896 7.89162 154.985 8.68344 154.582 9.24966ZM151.733 7.44042C149.121 7.44042 147.005 5.19768 147.005 2.42853C147.005 2.09677 147.047 1.77827 147.107 1.4642H156.363C156.423 1.77385 156.465 2.09234 156.465 2.42411C156.465 5.19326 154.345 7.44042 151.733 7.44042ZM148.828 8.90904C148.667 8.39149 148.824 7.84739 149.18 7.50678C149.804 7.86508 150.503 8.09511 151.245 8.16588C151.411 8.84269 151.055 9.54603 150.418 9.76721C149.757 9.99281 149.045 9.61239 148.828 8.90904ZM144.749 4.41029C145.131 4.71109 145.61 4.83937 146.072 4.77744C145.737 5.01631 145.479 5.37462 145.351 5.81255C145.317 5.92757 145.301 6.047 145.288 6.16201C145.042 5.60907 144.86 5.02516 144.749 4.41029ZM145.063 1.80481C145.462 1.47304 145.992 1.43766 146.416 1.66768C146.378 1.93752 146.361 2.20735 146.361 2.48604C146.361 2.99475 146.424 3.49019 146.543 3.95908C146 4.34836 145.258 4.22892 144.847 3.67598C144.745 3.53442 144.673 3.3796 144.631 3.22035C144.626 3.14515 144.618 3.06552 144.618 2.99032C144.618 2.80896 144.626 2.62759 144.639 2.45065C144.711 2.20735 144.855 1.97733 145.063 1.80481ZM145.89 5.98507C146.038 5.46752 146.458 5.11363 146.933 5.0517C147.264 5.74178 147.717 6.35223 148.273 6.84767C148.04 7.50235 147.365 7.86066 146.729 7.65275C146.064 7.44042 145.686 6.69284 145.89 5.98507ZM158.081 1.45977C158.318 1.55709 158.534 1.72961 158.687 1.97291C158.738 2.05695 158.776 2.14543 158.81 2.2339C158.835 2.48604 158.852 2.73818 158.852 2.99475C158.852 3.00359 158.852 3.01244 158.852 3.02129C158.78 3.33979 158.598 3.62732 158.318 3.81753C157.894 4.10948 157.364 4.09621 156.961 3.82638C157.059 3.39729 157.114 2.94609 157.114 2.48604C157.114 2.1587 157.084 1.83578 157.037 1.5217C157.084 1.49516 157.135 1.47304 157.186 1.45535H158.081V1.45977ZM156.592 4.92784C157.241 5.00304 157.737 5.5958 157.716 6.29914C157.69 7.03788 157.11 7.61294 156.414 7.59082C155.901 7.57313 155.473 7.23251 155.291 6.76362C155.833 6.25049 156.278 5.62676 156.592 4.92784ZM158.263 5.99392C158.191 5.42328 157.881 4.92784 157.445 4.62704C157.847 4.67128 158.263 4.57396 158.628 4.32624C158.674 4.29527 158.708 4.25546 158.751 4.22007C158.653 4.83937 158.492 5.43213 158.263 5.99392ZM131.35 9.24966C130.93 9.83799 130.142 9.95743 129.586 9.51507C129.175 9.18773 129.009 8.64805 129.115 8.14819C129.853 8.05972 130.549 7.812 131.164 7.436C131.664 7.89162 131.749 8.68344 131.35 9.24966ZM128.501 7.44042C125.889 7.44042 123.773 5.19768 123.773 2.42853C123.773 2.09677 123.815 1.77827 123.875 1.4642H133.131C133.19 1.77827 133.233 2.09677 133.233 2.42853C133.229 5.19326 131.113 7.44042 128.501 7.44042ZM125.596 8.90904C125.435 8.39149 125.592 7.84739 125.948 7.50678C126.571 7.86508 127.271 8.09511 128.013 8.16588C128.178 8.84269 127.822 9.54603 127.186 9.76721C126.52 9.99281 125.812 9.61239 125.596 8.90904ZM121.513 4.41029C121.894 4.71109 122.373 4.83937 122.836 4.77744C122.501 5.01631 122.242 5.37462 122.115 5.81255C122.081 5.92757 122.064 6.047 122.051 6.16201C121.805 5.60907 121.623 5.02516 121.513 4.41029ZM121.831 1.80481C122.229 1.47304 122.759 1.43766 123.183 1.66768C123.145 1.93752 123.128 2.20735 123.128 2.48604C123.128 2.99475 123.192 3.49019 123.311 3.95908C122.768 4.34836 122.026 4.22892 121.614 3.67598C121.513 3.53442 121.441 3.3796 121.398 3.22035C121.394 3.14515 121.386 3.06552 121.386 2.99032C121.386 2.80896 121.394 2.62759 121.407 2.45065C121.479 2.20735 121.619 1.97733 121.831 1.80481ZM122.653 5.98507C122.802 5.46752 123.222 5.11363 123.696 5.0517C124.027 5.74178 124.481 6.35223 125.036 6.84767C124.803 7.50235 124.129 7.86066 123.493 7.65275C122.827 7.44042 122.454 6.69284 122.653 5.98507ZM134.848 1.45977C135.086 1.55709 135.302 1.72961 135.455 1.97291C135.506 2.05695 135.544 2.14543 135.578 2.2339C135.603 2.48604 135.62 2.73818 135.62 2.99475C135.62 3.00359 135.62 3.01244 135.62 3.02129C135.548 3.33979 135.366 3.62732 135.09 3.81753C134.666 4.10948 134.136 4.09621 133.733 3.82638C133.831 3.39729 133.886 2.94609 133.886 2.48604C133.886 2.1587 133.856 1.83578 133.809 1.5217C133.856 1.49516 133.907 1.47304 133.958 1.45535H134.848V1.45977ZM133.36 4.92784C134.009 5.00304 134.505 5.5958 134.484 6.29914C134.458 7.03788 133.877 7.61294 133.182 7.59082C132.669 7.57313 132.241 7.23251 132.058 6.76362C132.601 6.25049 133.046 5.62676 133.36 4.92784ZM135.031 5.99392C134.959 5.42328 134.649 4.92784 134.212 4.62704C134.615 4.67128 135.031 4.57396 135.395 4.32624C135.442 4.29527 135.476 4.25546 135.518 4.22007C135.421 4.83937 135.26 5.43213 135.031 5.99392ZM108.114 9.24966C107.694 9.83799 106.905 9.95743 106.35 9.51507C105.938 9.18773 105.773 8.64805 105.879 8.14819C106.617 8.05972 107.312 7.812 107.927 7.436C108.427 7.89162 108.516 8.68344 108.114 9.24966ZM105.268 7.44042C102.656 7.44042 100.54 5.19768 100.54 2.42853C100.54 2.09677 100.583 1.77827 100.642 1.4642H109.899C109.958 1.77827 110 2.09677 110 2.42853C109.996 5.19326 107.88 7.44042 105.268 7.44042ZM102.36 8.90904C102.198 8.39149 102.355 7.84739 102.711 7.50678C103.335 7.86508 104.034 8.09511 104.776 8.16588C104.942 8.84269 104.586 9.54603 103.95 9.76721C103.288 9.99281 102.576 9.61239 102.36 8.90904ZM98.2804 4.41029C98.662 4.71109 99.1412 4.83937 99.6034 4.77744C99.2684 5.01631 99.0097 5.37462 98.8825 5.81255C98.8486 5.92757 98.8316 6.047 98.8189 6.16201C98.573 5.60907 98.3907 5.02516 98.2804 4.41029ZM98.5942 1.80481C98.9928 1.47304 99.5228 1.43766 99.9468 1.66768C99.9087 1.93752 99.8917 2.20735 99.8917 2.48604C99.8917 2.99475 99.9553 3.49019 100.074 3.95908C99.5313 4.34836 98.7892 4.22892 98.3779 3.67598C98.2762 3.53442 98.2041 3.3796 98.1617 3.22035C98.1574 3.14515 98.149 3.06552 98.149 2.99032C98.149 2.80896 98.1574 2.62759 98.1702 2.45065C98.2465 2.20735 98.3864 1.97733 98.5942 1.80481ZM99.421 5.98507C99.5694 5.46752 99.9892 5.11363 100.464 5.0517C100.795 5.74178 101.249 6.35223 101.804 6.84767C101.571 7.50235 100.897 7.86066 100.261 7.65275C99.5949 7.44042 99.2175 6.69284 99.421 5.98507ZM111.612 1.45977C111.849 1.55709 112.065 1.72961 112.218 1.97291C112.269 2.05695 112.307 2.14543 112.341 2.2339C112.367 2.48604 112.383 2.73818 112.383 2.99475C112.383 3.00359 112.383 3.01244 112.383 3.02129C112.311 3.33979 112.129 3.62732 111.853 3.81753C111.429 4.10948 110.899 4.09621 110.497 3.82638C110.594 3.39729 110.649 2.94609 110.649 2.48604C110.649 2.1587 110.62 1.83578 110.573 1.5217C110.62 1.49516 110.67 1.47304 110.721 1.45535H111.612V1.45977ZM110.128 4.92784C110.776 5.00304 111.273 5.5958 111.251 6.29914C111.226 7.03788 110.645 7.61294 109.95 7.59082C109.436 7.57313 109.008 7.23251 108.826 6.76362C109.369 6.25049 109.814 5.62676 110.128 4.92784ZM111.794 5.99392C111.722 5.42328 111.412 4.92784 110.976 4.62704C111.379 4.67128 111.794 4.57396 112.159 4.32624C112.205 4.29527 112.239 4.25546 112.282 4.22007C112.184 4.83937 112.023 5.43213 111.794 5.99392ZM84.8812 9.24966C84.4614 9.83799 83.6728 9.95743 83.1173 9.51507C82.706 9.18773 82.5406 8.64805 82.6466 8.14819C83.3844 8.05972 84.0798 7.812 84.6947 7.436C85.195 7.89162 85.2841 8.68344 84.8812 9.24966ZM82.0318 7.44042C79.4198 7.44042 77.3039 5.19768 77.3039 2.42853C77.3039 2.09677 77.3463 1.77827 77.4057 1.4642H86.6621C86.7215 1.77827 86.7639 2.09677 86.7639 2.42853C86.7639 5.19326 84.6438 7.44042 82.0318 7.44042ZM79.1272 8.90904C78.9703 8.39149 79.123 7.84739 79.4792 7.50678C80.1025 7.86508 80.8021 8.09511 81.5442 8.16588C81.7095 8.84269 81.3533 9.54603 80.7173 9.76721C80.0558 9.99281 79.3435 9.61239 79.1272 8.90904ZM75.0481 4.41029C75.4297 4.71109 75.9089 4.83937 76.3711 4.77744C76.0361 5.01631 75.7774 5.37462 75.6502 5.81255C75.6163 5.92757 75.5993 6.047 75.5866 6.16201C75.3407 5.60907 75.1584 5.02516 75.0481 4.41029ZM75.3619 1.80481C75.7605 1.47304 76.2905 1.43766 76.7145 1.66768C76.6764 1.93752 76.6594 2.20735 76.6594 2.48604C76.6594 2.99475 76.723 3.49019 76.8417 3.95908C76.299 4.34836 75.5569 4.22892 75.1456 3.67598C75.0439 3.53442 74.9718 3.3796 74.9294 3.22035C74.9251 3.14515 74.9167 3.06552 74.9167 2.99032C74.9167 2.80896 74.9251 2.62759 74.9379 2.45065C75.0099 2.20735 75.1541 1.97733 75.3619 1.80481ZM76.1887 5.98507C76.3371 5.46752 76.7569 5.11363 77.2318 5.0517C77.5626 5.74178 78.0163 6.35223 78.5718 6.84767C78.3385 7.50235 77.6643 7.86066 77.0283 7.65275C76.3626 7.44042 75.9852 6.69284 76.1887 5.98507ZM88.3794 1.45977C88.6169 1.55709 88.8331 1.72961 88.9858 1.97291C89.0367 2.05695 89.0748 2.14543 89.1088 2.2339C89.1342 2.48604 89.1512 2.73818 89.1512 2.99475C89.1512 3.00359 89.1512 3.01244 89.1512 3.02129C89.0791 3.33979 88.8967 3.62732 88.6211 3.81753C88.1971 4.10948 87.6671 4.09621 87.2643 3.82638C87.3618 3.39729 87.4169 2.94609 87.4169 2.48604C87.4169 2.1587 87.3872 1.83578 87.3406 1.5217C87.3872 1.49516 87.4381 1.47304 87.489 1.45535H88.3794V1.45977ZM86.8911 4.92784C87.5399 5.00304 88.036 5.5958 88.0148 6.29914C87.9893 7.03788 87.4084 7.61294 86.713 7.59082C86.2 7.57313 85.7717 7.23251 85.5894 6.76362C86.1321 6.25049 86.5773 5.62676 86.8911 4.92784ZM88.5618 5.99392C88.4897 5.42328 88.1801 4.92784 87.7434 4.62704C88.1462 4.67128 88.5618 4.57396 88.9264 4.32624C88.9731 4.29527 89.007 4.25546 89.0494 4.22007C88.9519 4.83937 88.7907 5.43213 88.5618 5.99392ZM61.6489 9.24966C61.2291 9.83799 60.4405 9.95743 59.885 9.51507C59.4737 9.18773 59.3083 8.64805 59.4143 8.14819C60.1521 8.05972 60.8475 7.812 61.4624 7.436C61.9627 7.89162 62.0475 8.68344 61.6489 9.24966ZM58.7995 7.44042C56.1875 7.44042 54.0716 5.19768 54.0716 2.42853C54.0716 2.09677 54.114 1.77827 54.1734 1.4642H63.4298C63.4892 1.77827 63.5316 2.09677 63.5316 2.42853C63.5274 5.19326 61.4115 7.44042 58.7995 7.44042ZM55.8949 8.90904C55.7338 8.39149 55.8907 7.84739 56.2469 7.50678C56.8702 7.86508 57.5698 8.09511 58.3119 8.16588C58.4772 8.84269 58.121 9.54603 57.485 9.76721C56.8193 9.99281 56.1112 9.61239 55.8949 8.90904ZM51.8116 4.41029C52.1932 4.71109 52.6723 4.83937 53.1345 4.77744C52.7995 5.01631 52.5409 5.37462 52.4137 5.81255C52.3798 5.92757 52.3628 6.047 52.3501 6.16201C52.1041 5.60907 51.9218 5.02516 51.8116 4.41029ZM52.1253 1.80481C52.5239 1.47304 53.054 1.43766 53.478 1.66768C53.4398 1.93752 53.4229 2.20735 53.4229 2.48604C53.4229 2.99475 53.4865 3.49019 53.6052 3.95908C53.0624 4.34836 52.3204 4.22892 51.9091 3.67598C51.8073 3.53442 51.7352 3.3796 51.6928 3.22035C51.6886 3.14515 51.6801 3.06552 51.6801 2.99032C51.6801 2.80896 51.6886 2.62759 51.7013 2.45065C51.7776 2.20735 51.9176 1.97733 52.1253 1.80481ZM52.9522 5.98507C53.1006 5.46752 53.5204 5.11363 53.9953 5.0517C54.326 5.74178 54.7797 6.35223 55.3352 6.84767C55.102 7.50235 54.4278 7.86066 53.7918 7.65275C53.126 7.44042 52.7529 6.69284 52.9522 5.98507ZM65.1471 1.45977C65.3846 1.55709 65.6008 1.72961 65.7535 1.97291C65.8044 2.05695 65.8425 2.14543 65.8765 2.2339C65.9019 2.48604 65.9189 2.73818 65.9189 2.99475C65.9189 3.00359 65.9189 3.01244 65.9189 3.02129C65.8468 3.33979 65.6644 3.62732 65.3846 3.81753C64.9606 4.10948 64.4305 4.09621 64.0277 3.82638C64.1252 3.39729 64.1804 2.94609 64.1804 2.48604C64.1804 2.1587 64.1507 1.83578 64.104 1.5217C64.1507 1.49516 64.2016 1.47304 64.2524 1.45535H65.1471V1.45977ZM63.6588 4.92784C64.3076 5.00304 64.8037 5.5958 64.7825 6.29914C64.757 7.03788 64.1761 7.61294 63.4807 7.59082C62.9676 7.57313 62.5394 7.23251 62.357 6.76362C62.8998 6.25049 63.345 5.62676 63.6588 4.92784ZM65.3295 5.99392C65.2574 5.42328 64.9478 4.92784 64.5111 4.62704C64.9139 4.67128 65.3295 4.57396 65.6941 4.32624C65.7408 4.29527 65.7747 4.25546 65.8171 4.22007C65.7196 4.83937 65.5584 5.43213 65.3295 5.99392ZM38.4124 9.24966C37.9926 9.83799 37.2039 9.95743 36.6484 9.51507C36.2371 9.18773 36.0718 8.64805 36.1778 8.14819C36.9156 8.05972 37.611 7.812 38.2258 7.436C38.7262 7.89162 38.8152 8.68344 38.4124 9.24966ZM35.5672 7.44042C32.9552 7.44042 30.8393 5.19768 30.8393 2.42853C30.8393 2.09677 30.8817 1.77827 30.9411 1.4642H40.1975C40.2569 1.77827 40.2993 2.09677 40.2993 2.42853C40.2951 5.19326 38.1792 7.44042 35.5672 7.44042ZM32.6584 8.90904C32.4972 8.39149 32.6541 7.84739 33.0103 7.50678C33.6336 7.86508 34.3333 8.09511 35.0753 8.16588C35.2407 8.84269 34.8845 9.54603 34.2485 9.76721C33.587 9.99281 32.8746 9.61239 32.6584 8.90904ZM28.5793 4.41029C28.9609 4.71109 29.44 4.83937 29.9022 4.77744C29.5672 5.01631 29.3086 5.37462 29.1814 5.81255C29.1474 5.92757 29.1305 6.047 29.1178 6.16201C28.8718 5.60907 28.6895 5.02516 28.5793 4.41029ZM28.893 1.80481C29.2916 1.47304 29.8216 1.43766 30.2457 1.66768C30.2118 1.93752 30.1905 2.21178 30.1905 2.49046C30.1905 2.99917 30.2542 3.49461 30.3729 3.96351C29.8301 4.35278 29.0881 4.23334 28.6768 3.6804C28.575 3.53885 28.5029 3.38402 28.4605 3.22477C28.4563 3.14957 28.4478 3.06995 28.4478 2.99475C28.4478 2.81338 28.4563 2.63202 28.469 2.45507C28.5453 2.20735 28.6853 1.97733 28.893 1.80481ZM29.7199 5.98507C29.8683 5.46752 30.2881 5.11363 30.763 5.0517C31.0937 5.74178 31.5474 6.35223 32.1029 6.84767C31.8697 7.50235 31.1955 7.86066 30.5595 7.65275C29.8937 7.44042 29.5163 6.69284 29.7199 5.98507ZM41.9106 1.45977C42.148 1.55709 42.3643 1.72961 42.5169 1.97291C42.5678 2.05695 42.606 2.14543 42.6399 2.2339C42.6653 2.48604 42.6823 2.73818 42.6823 2.99475C42.6823 3.00359 42.6823 3.01244 42.6823 3.02129C42.6102 3.33979 42.4279 3.62732 42.1523 3.81753C41.7283 4.10948 41.1982 4.09621 40.7954 3.82638C40.8929 3.39729 40.9481 2.94609 40.9481 2.48604C40.9481 2.1587 40.9184 1.83578 40.8717 1.5217C40.9184 1.49516 40.9692 1.47304 41.0201 1.45535H41.9106V1.45977ZM40.4265 4.92784C41.0753 5.00304 41.5714 5.5958 41.5502 6.29914C41.5247 7.03788 40.9438 7.61294 40.2484 7.59082C39.7353 7.57313 39.3071 7.23251 39.1247 6.76362C39.6675 6.25049 40.1127 5.62676 40.4265 4.92784ZM42.0929 5.99392C42.0208 5.42328 41.7113 4.92784 41.2745 4.62704C41.6774 4.67128 42.0929 4.57396 42.4576 4.32624C42.5042 4.29527 42.5381 4.25546 42.5805 4.22007C42.483 4.83937 42.3219 5.43213 42.0929 5.99392ZM15.1801 9.24966C14.7603 9.83799 13.9716 9.95743 13.4161 9.51507C13.0048 9.18773 12.8395 8.64805 12.9455 8.14819C13.6833 8.05972 14.3787 7.812 14.9935 7.436C15.4939 7.89162 15.5829 8.68344 15.1801 9.24966ZM12.3306 7.44042C9.71864 7.44042 7.60276 5.19768 7.60276 2.42853C7.60276 2.09677 7.64516 1.77827 7.70453 1.4642H16.961C17.0203 1.77827 17.0627 2.09677 17.0627 2.42853C17.0627 5.19326 14.9426 7.44042 12.3306 7.44042ZM9.42607 8.90904C9.26494 8.39149 9.42183 7.84739 9.77801 7.50678C10.4013 7.86508 11.101 8.09511 11.843 8.16588C12.0084 8.84269 11.6522 9.54603 11.0162 9.76721C10.3547 9.99281 9.64232 9.61239 9.42607 8.90904ZM5.34695 4.41029C5.72857 4.71109 6.20772 4.83937 6.66991 4.77744C6.33493 5.01631 6.07627 5.37462 5.94906 5.81255C5.91514 5.92757 5.89818 6.047 5.88546 6.16201C5.63953 5.60907 5.4572 5.02516 5.34695 4.41029ZM5.66073 1.80481C6.05931 1.47304 6.58934 1.43766 7.01337 1.66768C6.9752 1.93752 6.95824 2.21178 6.95824 2.49046C6.95824 2.99917 7.02185 3.49461 7.14057 3.96351C6.59782 4.35278 5.85578 4.23334 5.44448 3.6804C5.34271 3.53885 5.27063 3.38402 5.22822 3.22477C5.22398 3.14957 5.2155 3.07437 5.2155 2.99475C5.2155 2.81338 5.22398 2.63202 5.2367 2.45507C5.30879 2.20735 5.45296 1.97733 5.66073 1.80481ZM6.48758 5.98507C6.63598 5.46752 7.05577 5.11363 7.53068 5.0517C7.86142 5.74178 8.31512 6.35223 8.87059 6.84767C8.63738 7.50235 7.96318 7.86066 7.32714 7.65275C6.65719 7.44042 6.28404 6.69284 6.48758 5.98507ZM18.6783 1.45977C18.9157 1.55709 19.132 1.72961 19.2846 1.97291C19.3355 2.05695 19.3737 2.14543 19.4076 2.2339C19.433 2.48604 19.45 2.73818 19.45 2.99475C19.45 3.00359 19.45 3.01244 19.45 3.02129C19.3779 3.33979 19.1956 3.62732 18.92 3.81753C18.496 4.10948 17.9659 4.09621 17.5631 3.82638C17.6606 3.39729 17.7157 2.94609 17.7157 2.48604C17.7157 2.1587 17.6861 1.83578 17.6394 1.5217C17.6861 1.49516 17.7369 1.47304 17.7878 1.45535H18.6783V1.45977ZM17.19 4.92784C17.8387 5.00304 18.3348 5.5958 18.3136 6.29914C18.2882 7.03788 17.7073 7.61294 17.0119 7.59082C16.4988 7.57313 16.0705 7.23251 15.8882 6.76362C16.431 6.25049 16.8762 5.62676 17.19 4.92784ZM18.8606 5.99392C18.7885 5.42328 18.479 4.92784 18.0422 4.62704C18.4451 4.67128 18.8606 4.57396 19.2253 4.32624C19.2719 4.29527 19.3058 4.25546 19.3482 4.22007C19.2507 4.83937 19.0896 5.43213 18.8606 5.99392ZM1.96747 4.88361C1.32296 4.01217 1.46712 2.74703 2.29397 2.0658C2.89609 1.56594 3.69325 1.51728 4.32929 1.86232C4.27417 2.26486 4.24449 2.67625 4.24449 3.09649C4.24449 3.86176 4.34201 4.60935 4.5201 5.31712C3.70173 5.8966 2.58655 5.71966 1.96747 4.88361ZM4.79996 10.8643C3.79926 10.5413 3.23531 9.41775 3.53636 8.3561C3.7611 7.57755 4.39289 7.04673 5.1095 6.94941C5.6056 7.98894 6.29252 8.90462 7.12361 9.6522C6.77167 10.6298 5.75825 11.1739 4.79996 10.8643ZM7.22538 8.24551C7.84021 8.41803 8.47201 8.23666 8.91724 7.80758C8.77307 8.2057 8.75187 8.6569 8.88755 9.09483C8.97236 9.36909 9.11229 9.60354 9.2819 9.8026C8.51441 9.41333 7.81477 8.88692 7.22538 8.24551ZM10.3504 14.0404C9.35398 14.3854 8.28544 13.8059 7.95894 12.7531C7.72149 11.9746 7.9547 11.1562 8.48897 10.6387C9.42607 11.1783 10.4776 11.5234 11.5928 11.6295C11.843 12.6469 11.3087 13.7086 10.3504 14.0404ZM12.3306 10.5369C11.8557 10.5369 11.3935 10.4838 10.9441 10.3909C11.0246 10.3732 11.1094 10.36 11.19 10.3334C11.8218 10.1123 12.267 9.56373 12.4027 8.91789C12.5002 9.3337 12.7292 9.71413 13.0769 9.99281C13.3229 10.1919 13.6027 10.3025 13.891 10.3467C13.3865 10.4706 12.8691 10.5369 12.3306 10.5369ZM16.6175 13.2662C15.99 14.1554 14.7985 14.3323 13.9631 13.6644C13.3441 13.1734 13.0939 12.3594 13.255 11.6074C14.366 11.4747 15.4091 11.0987 16.3377 10.5369C17.0882 11.2226 17.2196 12.4125 16.6175 13.2662ZM15.532 9.72298C15.5659 9.68317 15.5999 9.6522 15.6295 9.60796C16.0281 9.04175 16.0917 8.32071 15.8585 7.71468C16.1638 7.99337 16.5582 8.17031 16.9907 8.18358C17.1857 8.19243 17.3765 8.15704 17.5546 8.09953C16.9822 8.76307 16.2995 9.31601 15.532 9.72298ZM21.3327 8.82057C21.2988 9.93089 20.421 10.7979 19.3737 10.7625C18.6062 10.736 17.9574 10.2228 17.6861 9.51507C18.5044 8.74979 19.1744 7.812 19.6451 6.75477C20.6203 6.86978 21.3666 7.76334 21.3327 8.82057ZM22.7913 2.31352C23.3638 3.24247 23.1136 4.48991 22.2358 5.09594C21.5956 5.53829 20.7984 5.51618 20.192 5.10921C20.3405 4.46337 20.421 3.78656 20.421 3.09207C20.421 2.59663 20.3786 2.11446 20.3023 1.64114C20.4592 1.55267 20.6203 1.49516 20.7857 1.45977H21.6465C22.1002 1.57479 22.5157 1.86674 22.7913 2.31352ZM25.204 4.88361C24.5595 4.00774 24.7037 2.74703 25.5263 2.06138C26.1284 1.56152 26.9256 1.51286 27.5616 1.85789C27.5065 2.26044 27.4768 2.67183 27.4768 3.09207C27.4768 3.85734 27.5743 4.60492 27.7524 5.31269C26.934 5.8966 25.8189 5.71966 25.204 4.88361ZM28.0323 10.8643C27.0316 10.5413 26.4676 9.41775 26.7687 8.3561C26.9934 7.57755 27.6252 7.04673 28.3418 6.94941C28.8379 7.98894 29.5248 8.90462 30.3559 9.6522C30.0082 10.6298 28.9948 11.1739 28.0323 10.8643ZM30.4619 8.24551C31.0768 8.41803 31.7086 8.23666 32.1538 7.80758C32.0096 8.2057 31.9884 8.6569 32.1241 9.09483C32.2089 9.36909 32.3488 9.60354 32.5184 9.8026C31.7467 9.41333 31.0513 8.88692 30.4619 8.24551ZM33.5827 14.0404C32.5863 14.3854 31.5177 13.8059 31.1912 12.7531C30.9538 11.9746 31.187 11.1562 31.7213 10.6387C32.6584 11.1783 33.7099 11.5234 34.8251 11.6295C35.0796 12.6469 34.541 13.7086 33.5827 14.0404ZM35.5672 10.5369C35.0923 10.5369 34.6301 10.4838 34.1806 10.3909C34.2612 10.3732 34.346 10.36 34.4266 10.3334C35.0583 10.1123 35.5036 9.56373 35.6393 8.91789C35.7368 9.3337 35.9658 9.71413 36.3135 9.99281C36.5594 10.1919 36.8393 10.3025 37.1276 10.3467C36.623 10.4706 36.1014 10.5369 35.5672 10.5369ZM39.8498 13.2662C39.2223 14.1554 38.0308 14.3323 37.1954 13.6644C36.5764 13.1734 36.3262 12.3594 36.4873 11.6074C37.5983 11.4747 38.6414 11.0987 39.57 10.5369C40.3247 11.2226 40.4562 12.4125 39.8498 13.2662ZM38.7686 9.72298C38.8025 9.68317 38.8364 9.6522 38.8661 9.60796C39.2647 9.04175 39.3283 8.32071 39.0951 7.71468C39.4004 7.99337 39.7947 8.17031 40.2272 8.18358C40.4223 8.19243 40.6131 8.15704 40.7912 8.09953C40.2145 8.76307 39.5318 9.31601 38.7686 9.72298ZM44.565 8.82057C44.5311 9.93089 43.6533 10.7979 42.606 10.7625C41.8385 10.736 41.194 10.2228 40.9184 9.51507C41.7367 8.74979 42.4067 7.812 42.8774 6.75477C43.8569 6.86978 44.5989 7.76334 44.565 8.82057ZM46.0236 2.31352C46.5961 3.24247 46.3459 4.48991 45.4682 5.09594C44.8279 5.53829 44.0307 5.51618 43.4244 5.10921C43.5728 4.46337 43.6533 3.78656 43.6533 3.09207C43.6533 2.59663 43.6109 2.11446 43.5346 1.64114C43.6915 1.55267 43.8526 1.49516 44.018 1.45977H44.8788C45.3325 1.57479 45.748 1.86674 46.0236 2.31352ZM48.4363 4.88361C47.7918 4.00774 47.936 2.74703 48.7586 2.06138C49.3607 1.56152 50.1579 1.51286 50.7939 1.85789C50.7388 2.26044 50.7091 2.67183 50.7091 3.09207C50.7091 3.85734 50.8066 4.60492 50.9847 5.31269C50.1706 5.8966 49.0554 5.71966 48.4363 4.88361ZM51.2646 10.8643C50.2639 10.5413 49.6999 9.41775 50.001 8.3561C50.2257 7.57755 50.8575 7.04673 51.5741 6.94941C52.0702 7.98894 52.7571 8.90462 53.5882 9.6522C53.2405 10.6298 52.2271 11.1739 51.2646 10.8643ZM53.6942 8.24551C54.3091 8.41803 54.9409 8.23666 55.3861 7.80758C55.2419 8.2057 55.2207 8.6569 55.3564 9.09483C55.4412 9.36909 55.5811 9.60354 55.7507 9.8026C54.979 9.41333 54.2836 8.88692 53.6942 8.24551ZM56.8193 14.0404C55.8228 14.3854 54.7543 13.8059 54.4278 12.7531C54.1903 11.9746 54.4235 11.1562 54.9578 10.6387C55.8949 11.1783 56.9465 11.5234 58.0659 11.6295C58.3119 12.6469 57.7733 13.7086 56.8193 14.0404ZM58.7995 10.5369C58.3246 10.5369 57.8624 10.4838 57.4129 10.3909C57.4935 10.3732 57.5783 10.36 57.6589 10.3334C58.2907 10.1123 58.7359 9.56373 58.8716 8.91789C58.9691 9.3337 59.1981 9.71413 59.5458 9.99281C59.7917 10.1919 60.0716 10.3025 60.3599 10.3467C59.8553 10.4706 59.3338 10.5369 58.7995 10.5369ZM63.0864 13.2662C62.4588 14.1554 61.2673 14.3323 60.432 13.6644C59.8129 13.1734 59.5627 12.3594 59.7239 11.6074C60.8348 11.4747 61.8779 11.0987 62.8065 10.5369C63.557 11.2226 63.6885 12.4125 63.0864 13.2662ZM62.0009 9.72298C62.0348 9.68317 62.0687 9.6522 62.0984 9.60796C62.497 9.04175 62.5606 8.32071 62.3274 7.71468C62.6327 7.99337 63.027 8.17031 63.4595 8.18358C63.6546 8.19243 63.8454 8.15704 64.0235 8.09953C63.4468 8.76307 62.7641 9.31601 62.0009 9.72298ZM67.8015 8.82057C67.7676 9.93089 66.8899 10.7979 65.8425 10.7625C65.0751 10.736 64.4263 10.2228 64.1549 9.51507C64.9733 8.74979 65.6432 7.812 66.1139 6.75477C67.0892 6.86978 67.8354 7.76334 67.8015 8.82057ZM69.2602 2.31352C69.8326 3.24247 69.5824 4.48991 68.7047 5.09594C68.0644 5.53829 67.2673 5.51618 66.6609 5.10921C66.8093 4.46337 66.8899 3.78656 66.8899 3.09207C66.8899 2.59663 66.8475 2.11446 66.7711 1.64114C66.928 1.55267 67.0892 1.49516 67.2545 1.45977H68.1153C68.569 1.57479 68.9846 1.86674 69.2602 2.31352ZM71.6686 4.88361C71.0241 4.00774 71.1683 2.74703 71.9909 2.06138C72.593 1.56152 73.3902 1.51286 74.0262 1.85789C73.9711 2.26044 73.9414 2.67183 73.9414 3.09207C73.9414 3.85734 74.0389 4.60492 74.217 5.31269C73.4029 5.8966 72.2877 5.71966 71.6686 4.88361ZM74.5011 10.8643C73.5004 10.5413 72.9365 9.41775 73.2375 8.3561C73.4623 7.57755 74.094 7.04673 74.8106 6.94941C75.3068 7.98894 75.9937 8.90462 76.8248 9.6522C76.4728 10.6298 75.4594 11.1739 74.5011 10.8643ZM76.9308 8.24551C77.5456 8.41803 78.1774 8.23666 78.6226 7.80758C78.4785 8.2057 78.4573 8.6569 78.593 9.09483C78.6778 9.36909 78.8177 9.60354 78.9873 9.8026C78.2156 9.41333 77.5159 8.88692 76.9308 8.24551ZM80.0516 14.0404C79.0551 14.3854 77.9866 13.8059 77.6601 12.7531C77.4226 11.9746 77.6559 11.1562 78.1901 10.6387C79.1272 11.1783 80.1788 11.5234 81.294 11.6295C81.5442 12.6469 81.0099 13.7086 80.0516 14.0404ZM82.0318 10.5369C81.5569 10.5369 81.0947 10.4838 80.6452 10.3909C80.7258 10.3732 80.8106 10.36 80.8912 10.3334C81.523 10.1123 81.9682 9.56373 82.1039 8.91789C82.2014 9.3337 82.4304 9.71413 82.7781 9.99281C83.024 10.1919 83.3039 10.3025 83.5922 10.3467C83.0876 10.4706 82.5703 10.5369 82.0318 10.5369ZM86.3187 13.2662C85.6911 14.1554 84.4996 14.3323 83.6643 13.6644C83.0452 13.1734 82.795 12.3594 82.9562 11.6074C84.0671 11.4747 85.1102 11.0987 86.0388 10.5369C86.7893 11.2226 86.9208 12.4125 86.3187 13.2662ZM85.2332 9.72298C85.2671 9.68317 85.301 9.6522 85.3307 9.60796C85.7293 9.04175 85.7929 8.32071 85.5597 7.71468C85.865 7.99337 86.2593 8.17031 86.6918 8.18358C86.8869 8.19243 87.0777 8.15704 87.2558 8.09953C86.6833 8.76307 86.0007 9.31601 85.2332 9.72298ZM91.0338 8.82057C90.9999 9.93089 90.1222 10.7979 89.0748 10.7625C88.3074 10.736 87.6586 10.2228 87.3872 9.51507C88.2056 8.74979 88.8755 7.812 89.3462 6.75477C90.3215 6.86978 91.0678 7.76334 91.0338 8.82057ZM92.4925 2.31352C93.0649 3.24247 92.8147 4.48991 91.937 5.09594C91.2967 5.53829 90.4996 5.51618 89.8932 5.10921C90.0416 4.46337 90.1222 3.78656 90.1222 3.09207C90.1222 2.59663 90.0798 2.11446 90.0034 1.64114C90.1603 1.55267 90.3215 1.49516 90.4868 1.45977H91.3476C91.8013 1.57479 92.2169 1.86674 92.4925 2.31352ZM94.9052 4.88361C94.2607 4.00774 94.4048 2.74703 95.2274 2.06138C95.8296 1.56152 96.6267 1.51286 97.2628 1.85789C97.2076 2.26044 97.1779 2.67183 97.1779 3.09207C97.1779 3.85734 97.2755 4.60492 97.4536 5.31269C96.6352 5.8966 95.52 5.71966 94.9052 4.88361ZM97.7334 10.8643C96.7327 10.5413 96.1688 9.41775 96.4698 8.3561C96.6946 7.57755 97.3264 7.04673 98.043 6.94941C98.5391 7.98894 99.226 8.90462 100.057 9.6522C99.7094 10.6298 98.696 11.1739 97.7334 10.8643ZM100.163 8.24551C100.778 8.41803 101.41 8.23666 101.855 7.80758C101.711 8.2057 101.69 8.6569 101.825 9.09483C101.91 9.36909 102.05 9.60354 102.22 9.8026C101.448 9.41333 100.752 8.88692 100.163 8.24551ZM103.284 14.0404C102.287 14.3854 101.219 13.8059 100.892 12.7531C100.655 11.9746 100.888 11.1562 101.422 10.6387C102.36 11.1783 103.411 11.5234 104.526 11.6295C104.781 12.6469 104.242 13.7086 103.284 14.0404ZM105.268 10.5369C104.793 10.5369 104.331 10.4838 103.882 10.3909C103.962 10.3732 104.047 10.36 104.128 10.3334C104.76 10.1123 105.205 9.56373 105.34 8.91789C105.438 9.3337 105.667 9.71413 106.015 9.99281C106.261 10.1919 106.54 10.3025 106.829 10.3467C106.324 10.4706 105.803 10.5369 105.268 10.5369ZM109.551 13.2662C108.923 14.1554 107.732 14.3323 106.897 13.6644C106.278 13.1734 106.027 12.3594 106.188 11.6074C107.299 11.4747 108.343 11.0987 109.271 10.5369C110.026 11.2226 110.157 12.4125 109.551 13.2662ZM108.47 9.72298C108.504 9.68317 108.538 9.6522 108.567 9.60796C108.966 9.04175 109.029 8.32071 108.796 7.71468C109.102 7.99337 109.496 8.17031 109.928 8.18358C110.123 8.19243 110.314 8.15704 110.492 8.09953C109.916 8.76307 109.233 9.31601 108.47 9.72298ZM114.266 8.82057C114.232 9.93089 113.354 10.7979 112.307 10.7625C111.54 10.736 110.891 10.2228 110.62 9.51507C111.438 8.74979 112.108 7.812 112.579 6.75477C113.558 6.86978 114.3 7.76334 114.266 8.82057ZM115.725 2.31352C116.297 3.24247 116.047 4.48991 115.169 5.09594C114.529 5.53829 113.732 5.51618 113.126 5.10921C113.274 4.46337 113.354 3.78656 113.354 3.09207C113.354 2.59663 113.312 2.11446 113.236 1.64114C113.393 1.55267 113.554 1.49516 113.719 1.45977H114.58C115.034 1.57479 115.449 1.86674 115.725 2.31352ZM118.137 4.88361C117.493 4.00774 117.637 2.74703 118.46 2.06138C119.062 1.56152 119.859 1.51286 120.495 1.85789C120.44 2.26044 120.41 2.67183 120.41 3.09207C120.41 3.85734 120.508 4.60492 120.686 5.31269C119.872 5.8966 118.757 5.71966 118.137 4.88361ZM120.966 10.8643C119.965 10.5413 119.401 9.41775 119.702 8.3561C119.927 7.57755 120.559 7.04673 121.275 6.94941C121.771 7.98894 122.458 8.90462 123.289 9.6522C122.942 10.6298 121.928 11.1739 120.966 10.8643ZM123.395 8.24551C124.01 8.41803 124.642 8.23666 125.087 7.80758C124.943 8.2057 124.922 8.6569 125.058 9.09483C125.142 9.36909 125.282 9.60354 125.452 9.8026C124.68 9.41333 123.985 8.88692 123.395 8.24551ZM126.52 14.0404C125.524 14.3854 124.455 13.8059 124.129 12.7531C123.891 11.9746 124.125 11.1562 124.659 10.6387C125.596 11.1783 126.648 11.5234 127.767 11.6295C128.013 12.6469 127.475 13.7086 126.52 14.0404ZM128.501 10.5369C128.026 10.5369 127.564 10.4838 127.114 10.3909C127.195 10.3732 127.279 10.36 127.36 10.3334C127.992 10.1123 128.437 9.56373 128.573 8.91789C128.67 9.3337 128.899 9.71413 129.247 9.99281C129.493 10.1919 129.773 10.3025 130.061 10.3467C129.556 10.4706 129.035 10.5369 128.501 10.5369ZM132.788 13.2662C132.16 14.1554 130.968 14.3323 130.133 13.6644C129.514 13.1734 129.264 12.3594 129.425 11.6074C130.536 11.4747 131.579 11.0987 132.508 10.5369C133.258 11.2226 133.39 12.4125 132.788 13.2662ZM131.702 9.72298C131.736 9.68317 131.77 9.6522 131.8 9.60796C132.198 9.04175 132.262 8.32071 132.029 7.71468C132.334 7.99337 132.728 8.17031 133.161 8.18358C133.356 8.19243 133.547 8.15704 133.725 8.09953C133.148 8.76307 132.465 9.31601 131.702 9.72298ZM137.503 8.82057C137.469 9.93089 136.591 10.7979 135.544 10.7625C134.776 10.736 134.127 10.2228 133.856 9.51507C134.674 8.74979 135.344 7.812 135.815 6.75477C136.79 6.86978 137.537 7.76334 137.503 8.82057ZM138.961 2.31352C139.534 3.24247 139.284 4.48991 138.406 5.09594C137.766 5.53829 136.968 5.51618 136.362 5.10921C136.51 4.46337 136.591 3.78656 136.591 3.09207C136.591 2.59663 136.549 2.11446 136.472 1.64114C136.629 1.55267 136.79 1.49516 136.956 1.45977H137.816C138.27 1.57479 138.686 1.86674 138.961 2.31352ZM141.37 4.88361C140.725 4.00774 140.869 2.74703 141.692 2.06138C142.294 1.56152 143.091 1.51286 143.727 1.85789C143.672 2.26044 143.643 2.67183 143.643 3.09207C143.643 3.85734 143.74 4.60492 143.918 5.31269C143.104 5.8966 141.989 5.71966 141.37 4.88361ZM144.202 10.8643C143.202 10.5413 142.638 9.41775 142.939 8.3561C143.163 7.57755 143.795 7.04673 144.512 6.94941C145.008 7.98894 145.695 8.90462 146.526 9.6522C146.174 10.6298 145.165 11.1739 144.202 10.8643ZM146.632 8.24551C147.247 8.41803 147.879 8.23666 148.324 7.80758C148.18 8.2057 148.158 8.6569 148.294 9.09483C148.379 9.36909 148.519 9.60354 148.688 9.8026C147.917 9.41333 147.217 8.88692 146.632 8.24551ZM149.753 14.0404C148.756 14.3854 147.688 13.8059 147.361 12.7531C147.124 11.9746 147.357 11.1562 147.891 10.6387C148.828 11.1783 149.88 11.5234 150.995 11.6295C151.245 12.6469 150.711 13.7086 149.753 14.0404ZM151.733 10.5369C151.258 10.5369 150.796 10.4838 150.346 10.3909C150.427 10.3732 150.512 10.36 150.592 10.3334C151.224 10.1123 151.669 9.56373 151.805 8.91789C151.903 9.3337 152.132 9.71413 152.479 9.99281C152.725 10.1919 153.005 10.3025 153.293 10.3467C152.789 10.4706 152.271 10.5369 151.733 10.5369ZM156.02 13.2662C155.392 14.1554 154.201 14.3323 153.365 13.6644C152.746 13.1734 152.496 12.3594 152.657 11.6074C153.768 11.4747 154.811 11.0987 155.74 10.5369C156.491 11.2226 156.622 12.4125 156.02 13.2662ZM154.934 9.72298C154.968 9.68317 155.002 9.6522 155.032 9.60796C155.43 9.04175 155.494 8.32071 155.261 7.71468C155.566 7.99337 155.96 8.17031 156.393 8.18358C156.588 8.19243 156.779 8.15704 156.957 8.09953C156.384 8.76307 155.702 9.31601 154.934 9.72298ZM160.735 8.82057C160.701 9.93089 159.823 10.7979 158.776 10.7625C158.009 10.736 157.36 10.2228 157.088 9.51507C157.907 8.74979 158.577 7.812 159.047 6.75477C160.023 6.86978 160.769 7.76334 160.735 8.82057ZM162.194 2.31352C162.766 3.24247 162.516 4.48991 161.638 5.09594C160.998 5.53829 160.201 5.51618 159.594 5.10921C159.743 4.46337 159.823 3.78656 159.823 3.09207C159.823 2.59663 159.781 2.11446 159.705 1.64114C159.861 1.55267 160.023 1.49516 160.188 1.45977H161.049C161.502 1.57479 161.918 1.86674 162.194 2.31352ZM164.606 4.88361C163.962 4.00774 164.106 2.74703 164.929 2.06138C165.531 1.56152 166.328 1.51286 166.964 1.85789C166.909 2.26044 166.879 2.67183 166.879 3.09207C166.879 3.85734 166.977 4.60492 167.155 5.31269C166.336 5.8966 165.221 5.71966 164.606 4.88361ZM167.435 10.8643C166.434 10.5413 165.87 9.41775 166.171 8.3561C166.396 7.57755 167.028 7.04673 167.744 6.94941C168.24 7.98894 168.927 8.90462 169.758 9.6522C169.411 10.6298 168.397 11.1739 167.435 10.8643ZM169.864 8.24551C170.479 8.41803 171.111 8.23666 171.556 7.80758C171.412 8.2057 171.391 8.6569 171.526 9.09483C171.611 9.36909 171.751 9.60354 171.921 9.8026C171.149 9.41333 170.454 8.88692 169.864 8.24551ZM172.985 14.0404C171.989 14.3854 170.92 13.8059 170.594 12.7531C170.356 11.9746 170.589 11.1562 171.124 10.6387C172.061 11.1783 173.112 11.5234 174.227 11.6295C174.482 12.6469 173.943 13.7086 172.985 14.0404ZM174.969 10.5369C174.495 10.5369 174.032 10.4838 173.583 10.3909C173.663 10.3732 173.748 10.36 173.829 10.3334C174.461 10.1123 174.906 9.56373 175.042 8.91789C175.139 9.3337 175.368 9.71413 175.716 9.99281C175.962 10.1919 176.242 10.3025 176.53 10.3467C176.025 10.4706 175.504 10.5369 174.969 10.5369ZM179.252 13.2662C178.625 14.1554 177.433 14.3323 176.598 13.6644C175.979 13.1734 175.729 12.3594 175.89 11.6074C177.001 11.4747 178.044 11.0987 178.972 10.5369C179.727 11.2226 179.858 12.4125 179.252 13.2662ZM178.171 9.72298C178.205 9.68317 178.239 9.6522 178.268 9.60796C178.667 9.04175 178.731 8.32071 178.497 7.71468C178.803 7.99337 179.197 8.17031 179.63 8.18358C179.825 8.19243 180.015 8.15704 180.193 8.09953C179.617 8.76307 178.934 9.31601 178.171 9.72298ZM183.967 8.82057C183.933 9.93089 183.056 10.7979 182.008 10.7625C181.241 10.736 180.592 10.2228 180.321 9.51507C181.139 8.74979 181.809 7.812 182.28 6.75477C183.259 6.86978 184.001 7.76334 183.967 8.82057ZM185.426 2.31352C185.998 3.24247 185.748 4.48991 184.87 5.09594C184.23 5.53829 183.433 5.51618 182.827 5.10921C182.975 4.46337 183.056 3.78656 183.056 3.09207C183.056 2.59663 183.013 2.11446 182.937 1.64114C183.094 1.55267 183.255 1.49516 183.42 1.45977H184.281C184.735 1.57479 185.15 1.86674 185.426 2.31352ZM187.839 4.88361C187.194 4.00774 187.338 2.74703 188.161 2.06138C188.763 1.56152 189.56 1.51286 190.196 1.85789C190.141 2.26044 190.111 2.67183 190.111 3.09207C190.111 3.85734 190.209 4.60492 190.387 5.31269C189.573 5.8966 188.458 5.71966 187.839 4.88361ZM190.667 10.8643C189.666 10.5413 189.102 9.41775 189.403 8.3561C189.628 7.57755 190.26 7.04673 190.976 6.94941C191.473 7.98894 192.159 8.90462 192.991 9.6522C192.643 10.6298 191.629 11.1739 190.667 10.8643ZM193.097 8.24551C193.711 8.41803 194.343 8.23666 194.788 7.80758C194.644 8.2057 194.623 8.6569 194.759 9.09483C194.844 9.36909 194.983 9.60354 195.153 9.8026C194.381 9.41333 193.686 8.88692 193.097 8.24551ZM196.222 14.0404C195.225 14.3854 194.157 13.8059 193.83 12.7531C193.593 11.9746 193.826 11.1562 194.36 10.6387C195.297 11.1783 196.349 11.5234 197.464 11.6295C197.714 12.6469 197.176 13.7086 196.222 14.0404ZM198.202 10.5369C197.727 10.5369 197.265 10.4838 196.815 10.3909C196.896 10.3732 196.981 10.36 197.061 10.3334C197.693 10.1123 198.138 9.56373 198.274 8.91789C198.371 9.3337 198.6 9.71413 198.948 9.99281C199.194 10.1919 199.474 10.3025 199.762 10.3467C199.258 10.4706 198.736 10.5369 198.202 10.5369ZM202.489 13.2662C201.861 14.1554 200.67 14.3323 199.834 13.6644C199.215 13.1734 198.965 12.3594 199.126 11.6074C200.237 11.4747 201.28 11.0987 202.209 10.5369C202.959 11.2226 203.091 12.4125 202.489 13.2662ZM201.403 9.72298C201.437 9.68317 201.471 9.6522 201.501 9.60796C201.899 9.04175 201.963 8.32071 201.73 7.71468C202.035 7.99337 202.429 8.17031 202.862 8.18358C203.057 8.19243 203.248 8.15704 203.426 8.09953C202.849 8.76307 202.166 9.31601 201.403 9.72298ZM207.204 8.82057C207.17 9.93089 206.292 10.7979 205.245 10.7625C204.477 10.736 203.829 10.2228 203.557 9.51507C204.376 8.74979 205.046 7.812 205.516 6.75477C206.491 6.86978 207.238 7.76334 207.204 8.82057ZM208.662 2.31352C209.235 3.24247 208.985 4.48991 208.107 5.09594C207.467 5.53829 206.67 5.51618 206.063 5.10921C206.212 4.46337 206.292 3.78656 206.292 3.09207C206.292 2.59663 206.25 2.11446 206.173 1.64114C206.33 1.55267 206.491 1.49516 206.657 1.45977H207.518C207.971 1.57479 208.387 1.86674 208.662 2.31352ZM211.071 4.88361C210.426 4.00774 210.571 2.74703 211.393 2.06138C211.995 1.56152 212.792 1.51286 213.429 1.85789C213.373 2.26044 213.344 2.67183 213.344 3.09207C213.344 3.85734 213.441 4.60492 213.619 5.31269C212.805 5.8966 211.69 5.71966 211.071 4.88361ZM213.903 10.8643C212.903 10.5413 212.339 9.41775 212.64 8.3561C212.865 7.57755 213.496 7.04673 214.213 6.94941C214.709 7.98894 215.396 8.90462 216.227 9.6522C215.875 10.6298 214.866 11.1739 213.903 10.8643ZM216.333 8.24551C216.948 8.41803 217.58 8.23666 218.025 7.80758C217.881 8.2057 217.86 8.6569 217.995 9.09483C218.08 9.36909 218.22 9.60354 218.39 9.8026C217.618 9.41333 216.918 8.88692 216.333 8.24551ZM219.454 14.0404C218.457 14.3854 217.389 13.8059 217.062 12.7531C216.825 11.9746 217.058 11.1562 217.592 10.6387C218.53 11.1783 219.581 11.5234 220.701 11.6295C220.946 12.6469 220.412 13.7086 219.454 14.0404ZM221.434 10.5369C220.959 10.5369 220.497 10.4838 220.048 10.3909C220.128 10.3732 220.213 10.36 220.293 10.3334C220.925 10.1123 221.37 9.56373 221.506 8.91789C221.604 9.3337 221.833 9.71413 222.18 9.99281C222.426 10.1919 222.706 10.3025 222.995 10.3467C222.49 10.4706 221.973 10.5369 221.434 10.5369ZM225.721 13.2662C225.093 14.1554 223.902 14.3323 223.067 13.6644C222.448 13.1734 222.197 12.3594 222.358 11.6074C223.469 11.4747 224.513 11.0987 225.441 10.5369C226.192 11.2226 226.323 12.4125 225.721 13.2662ZM224.635 9.72298C224.669 9.68317 224.703 9.6522 224.733 9.60796C225.132 9.04175 225.195 8.32071 224.962 7.71468C225.267 7.99337 225.662 8.17031 226.094 8.18358C226.289 8.19243 226.48 8.15704 226.658 8.09953C226.086 8.76307 225.403 9.31601 224.635 9.72298ZM230.436 8.82057C230.402 9.93089 229.524 10.7979 228.477 10.7625C227.71 10.736 227.061 10.2228 226.79 9.51507C227.608 8.74979 228.278 7.812 228.749 6.75477C229.724 6.86978 230.47 7.76334 230.436 8.82057ZM231.895 2.31352C232.467 3.24247 232.217 4.48991 231.339 5.09594C230.699 5.53829 229.902 5.51618 229.296 5.10921C229.444 4.46337 229.524 3.78656 229.524 3.09207C229.524 2.59663 229.482 2.11446 229.406 1.64114C229.563 1.55267 229.724 1.49516 229.889 1.45977H230.75C231.204 1.57479 231.619 1.86674 231.895 2.31352ZM234.307 4.88361C233.663 4.00774 233.807 2.74703 234.63 2.06138C235.232 1.56152 236.029 1.51286 236.665 1.85789C236.61 2.26044 236.58 2.67183 236.58 3.09207C236.58 3.85734 236.678 4.60492 236.856 5.31269C236.038 5.8966 234.922 5.71966 234.307 4.88361ZM237.136 10.8643C236.135 10.5413 235.571 9.41775 235.872 8.3561C236.097 7.57755 236.729 7.04673 237.445 6.94941C237.941 7.98894 238.628 8.90462 239.459 9.6522C239.112 10.6298 238.098 11.1739 237.136 10.8643ZM239.565 8.24551C240.18 8.41803 240.812 8.23666 241.257 7.80758C241.113 8.2057 241.092 8.6569 241.228 9.09483C241.312 9.36909 241.452 9.60354 241.622 9.8026C240.85 9.41333 240.155 8.88692 239.565 8.24551ZM242.686 14.0404C241.69 14.3854 240.621 13.8059 240.295 12.7531C240.057 11.9746 240.29 11.1562 240.825 10.6387C241.762 11.1783 242.813 11.5234 243.929 11.6295C244.183 12.6469 243.645 13.7086 242.686 14.0404ZM244.671 10.5369C244.196 10.5369 243.734 10.4838 243.284 10.3909C243.365 10.3732 243.449 10.36 243.53 10.3334C244.162 10.1123 244.607 9.56373 244.743 8.91789C244.84 9.3337 245.069 9.71413 245.417 9.99281C245.663 10.1919 245.943 10.3025 246.231 10.3467C245.726 10.4706 245.205 10.5369 244.671 10.5369ZM248.953 13.2662C248.326 14.1554 247.134 14.3323 246.299 13.6644C245.68 13.1734 245.43 12.3594 245.591 11.6074C246.702 11.4747 247.745 11.0987 248.673 10.5369C249.428 11.2226 249.56 12.4125 248.953 13.2662ZM247.872 9.72298C247.906 9.68317 247.94 9.6522 247.97 9.60796C248.368 9.04175 248.432 8.32071 248.199 7.71468C248.504 7.99337 248.898 8.17031 249.331 8.18358C249.526 8.19243 249.717 8.15704 249.895 8.09953C249.318 8.76307 248.635 9.31601 247.872 9.72298ZM253.668 8.82057C253.635 9.93089 252.757 10.7979 251.709 10.7625C250.942 10.736 250.293 10.2228 250.022 9.51507C250.84 8.74979 251.51 7.812 251.981 6.75477C252.96 6.86978 253.702 7.76334 253.668 8.82057ZM255.127 2.31352C255.7 3.24247 255.449 4.48991 254.572 5.09594C253.931 5.53829 253.134 5.51618 252.528 5.10921C252.676 4.46337 252.757 3.78656 252.757 3.09207C252.757 2.59663 252.714 2.11446 252.638 1.64114C252.795 1.55267 252.956 1.49516 253.121 1.45977H253.982C254.436 1.57479 254.851 1.86674 255.127 2.31352ZM257.54 4.88361C256.895 4.00774 257.039 2.74703 257.862 2.06138C258.464 1.56152 259.261 1.51286 259.897 1.85789C259.842 2.26044 259.813 2.67183 259.813 3.09207C259.813 3.85734 259.91 4.60492 260.088 5.31269C259.274 5.8966 258.159 5.71966 257.54 4.88361ZM260.368 10.8643C259.367 10.5413 258.803 9.41775 259.104 8.3561C259.329 7.57755 259.961 7.04673 260.678 6.94941C261.174 7.98894 261.861 8.90462 262.692 9.6522C262.344 10.6298 261.331 11.1739 260.368 10.8643ZM262.798 8.24551C263.413 8.41803 264.044 8.23666 264.49 7.80758C264.345 8.2057 264.324 8.6569 264.46 9.09483C264.545 9.36909 264.685 9.60354 264.854 9.8026C264.082 9.41333 263.387 8.88692 262.798 8.24551ZM265.923 14.0404C264.926 14.3854 263.858 13.8059 263.531 12.7531C263.294 11.9746 263.527 11.1562 264.061 10.6387C264.998 11.1783 266.05 11.5234 267.165 11.6295C267.415 12.6469 266.877 13.7086 265.923 14.0404ZM267.903 10.5369C267.428 10.5369 266.966 10.4838 266.516 10.3909C266.597 10.3732 266.682 10.36 266.762 10.3334C267.394 10.1123 267.839 9.56373 267.975 8.91789C268.073 9.3337 268.302 9.71413 268.649 9.99281C268.895 10.1919 269.175 10.3025 269.463 10.3467C268.959 10.4706 268.437 10.5369 267.903 10.5369ZM272.19 13.2662C271.562 14.1554 270.371 14.3323 269.535 13.6644C268.916 13.1734 268.666 12.3594 268.827 11.6074C269.938 11.4747 270.981 11.0987 271.91 10.5369C272.661 11.2226 272.792 12.4125 272.19 13.2662ZM271.104 9.72298C271.138 9.68317 271.172 9.6522 271.202 9.60796C271.6 9.04175 271.664 8.32071 271.431 7.71468C271.736 7.99337 272.13 8.17031 272.563 8.18358C272.758 8.19243 272.949 8.15704 273.127 8.09953C272.55 8.76307 271.868 9.31601 271.104 9.72298ZM276.905 8.82057C276.871 9.93089 275.993 10.7979 274.946 10.7625C274.178 10.736 273.534 10.2228 273.258 9.51507C274.077 8.74979 274.747 7.812 275.217 6.75477C276.193 6.86978 276.939 7.76334 276.905 8.82057ZM278.364 2.31352C278.936 3.24247 278.686 4.48991 277.808 5.09594C277.168 5.53829 276.371 5.51618 275.764 5.10921C275.913 4.46337 275.993 3.78656 275.993 3.09207C275.993 2.59663 275.951 2.11446 275.875 1.64114C276.031 1.55267 276.193 1.49516 276.358 1.45977H277.219C277.672 1.57479 278.088 1.86674 278.364 2.31352ZM280.772 4.88361C280.128 4.00774 280.272 2.74703 281.094 2.06138C281.696 1.56152 282.494 1.51286 283.13 1.85789C283.075 2.26044 283.045 2.67183 283.045 3.09207C283.045 3.85734 283.142 4.60492 283.32 5.31269C282.506 5.8966 281.391 5.71966 280.772 4.88361ZM283.605 10.8643C282.604 10.5413 282.04 9.41775 282.341 8.3561C282.566 7.57755 283.198 7.04673 283.914 6.94941C284.41 7.98894 285.097 8.90462 285.928 9.6522C285.576 10.6298 284.567 11.1739 283.605 10.8643ZM286.034 8.24551C286.649 8.41803 287.281 8.23666 287.726 7.80758C287.582 8.2057 287.561 8.6569 287.696 9.09483C287.781 9.36909 287.921 9.60354 288.091 9.8026C287.319 9.41333 286.619 8.88692 286.034 8.24551ZM289.155 14.0404C288.159 14.3854 287.09 13.8059 286.764 12.7531C286.526 11.9746 286.759 11.1562 287.294 10.6387C288.231 11.1783 289.282 11.5234 290.402 11.6295C290.648 12.6469 290.113 13.7086 289.155 14.0404ZM291.135 10.5369C290.66 10.5369 290.198 10.4838 289.749 10.3909C289.829 10.3732 289.914 10.36 289.995 10.3334C290.626 10.1123 291.072 9.56373 291.207 8.91789C291.305 9.3337 291.534 9.71413 291.882 9.99281C292.127 10.1919 292.407 10.3025 292.696 10.3467C292.191 10.4706 291.674 10.5369 291.135 10.5369ZM295.422 13.2662C294.795 14.1554 293.603 14.3323 292.768 13.6644C292.149 13.1734 291.899 12.3594 292.06 11.6074C293.171 11.4747 294.214 11.0987 295.142 10.5369C295.893 11.2226 296.024 12.4125 295.422 13.2662ZM294.337 9.72298C294.371 9.68317 294.404 9.6522 294.434 9.60796C294.833 9.04175 294.896 8.32071 294.663 7.71468C294.968 7.99337 295.363 8.17031 295.795 8.18358C295.99 8.19243 296.181 8.15704 296.359 8.09953C295.787 8.76307 295.104 9.31601 294.337 9.72298ZM300.137 8.82057C300.103 9.93089 299.226 10.7979 298.178 10.7625C297.411 10.736 296.762 10.2228 296.491 9.51507C297.309 8.74979 297.979 7.812 298.45 6.75477C299.425 6.86978 300.171 7.76334 300.137 8.82057ZM301.04 5.09594C300.4 5.53829 299.603 5.51618 298.997 5.10921C299.145 4.46337 299.226 3.78656 299.226 3.09207C299.226 2.59663 299.183 2.11446 299.107 1.64114C299.264 1.55267 299.425 1.49516 299.59 1.45977H300.451C300.905 1.57479 301.32 1.86674 301.596 2.31352C302.168 3.24689 301.918 4.48991 301.04 5.09594Z" fill="#CEDCD1"/>
</svg>
