<svg width="1211" height="60" viewBox="0 0 1211 60" fill="none" xmlns="http://www.w3.org/2000/svg">
<rect x="14.9503" width="14.9507" height="60" fill="#F4F3EE"/>
<rect x="44.8518" width="14.9507" height="60" fill="#F4F3EE"/>
<rect x="74.7531" width="14.9507" height="60" fill="#F4F3EE"/>
<rect x="104.655" width="14.9507" height="60" fill="#F4F3EE"/>
<rect x="134.556" width="14.9507" height="60" fill="#F4F3EE"/>
<rect x="164.458" width="14.9507" height="60" fill="#F4F3EE"/>
<rect x="194.359" width="14.9507" height="60" fill="#F4F3EE"/>
<rect x="224.26" width="14.9507" height="60" fill="#F4F3EE"/>
<rect x="254.16" width="14.9507" height="60" fill="#F4F3EE"/>
<rect x="284.062" width="14.9507" height="60" fill="#F4F3EE"/>
<rect x="313.963" width="14.9507" height="60" fill="#F4F3EE"/>
<rect x="343.864" width="14.9507" height="60" fill="#F4F3EE"/>
<rect x="373.765" width="14.9507" height="60" fill="#F4F3EE"/>
<rect x="403.667" width="14.9507" height="60" fill="#F4F3EE"/>
<rect x="433.568" width="14.9507" height="60" fill="#F4F3EE"/>
<rect x="463.469" width="14.9507" height="60" fill="#F4F3EE"/>
<rect x="493.37" width="14.9507" height="60" fill="#F4F3EE"/>
<rect x="553.173" width="14.9507" height="60" fill="#F4F3EE"/>
<rect x="523.271" width="14.9507" height="60" fill="#F4F3EE"/>
<rect x="583.074" width="14.9507" height="60" fill="#F4F3EE"/>
<rect x="612.975" width="14.9507" height="60" fill="#F4F3EE"/>
<rect x="642.876" width="14.9507" height="60" fill="#F4F3EE"/>
<rect x="672.778" width="14.9507" height="60" fill="#F4F3EE"/>
<rect x="702.679" width="14.9507" height="60" fill="#F4F3EE"/>
<rect x="732.58" width="14.9507" height="60" fill="#F4F3EE"/>
<rect x="762.481" width="14.9507" height="60" fill="#F4F3EE"/>
<rect x="792.383" width="14.9507" height="60" fill="#F4F3EE"/>
<rect x="822.284" width="14.9507" height="60" fill="#F4F3EE"/>
<rect x="852.185" width="14.9507" height="60" fill="#F4F3EE"/>
<rect x="882.086" width="14.9507" height="60" fill="#F4F3EE"/>
<rect x="911.988" width="14.9507" height="60" fill="#F4F3EE"/>
<rect x="941.889" width="14.9507" height="60" fill="#F4F3EE"/>
<rect x="971.79" width="14.9507" height="60" fill="#F4F3EE"/>
<rect x="1001.69" width="14.9507" height="60" fill="#F4F3EE"/>
<rect x="1031.59" width="14.9507" height="60" fill="#F4F3EE"/>
<rect x="1091.4" width="14.9507" height="60" fill="#F4F3EE"/>
<rect x="1061.49" width="14.9507" height="60" fill="#F4F3EE"/>
<rect x="1121.3" width="14.9507" height="60" fill="#F4F3EE"/>
<rect x="1151.2" width="14.9507" height="60" fill="#F4F3EE"/>
<rect x="1181.1" width="14.9507" height="60" fill="#F4F3EE"/>
<rect width="14.9507" height="60" fill="#CEDCD1"/>
<rect x="29.9012" width="14.9507" height="60" fill="#CEDCD1"/>
<rect x="59.8025" width="14.9507" height="60" fill="#CEDCD1"/>
<rect x="89.7042" width="14.9507" height="60" fill="#CEDCD1"/>
<rect x="119.605" width="14.9507" height="60" fill="#CEDCD1"/>
<rect x="149.507" width="14.9507" height="60" fill="#CEDCD1"/>
<rect x="179.408" width="14.9507" height="60" fill="#CEDCD1"/>
<rect x="209.31" width="14.9507" height="60" fill="#CEDCD1"/>
<rect x="239.211" width="14.9507" height="60" fill="#CEDCD1"/>
<rect x="269.112" width="14.9507" height="60" fill="#CEDCD1"/>
<rect x="299.012" width="14.9507" height="60" fill="#CEDCD1"/>
<rect x="328.914" width="14.9507" height="60" fill="#CEDCD1"/>
<rect x="358.815" width="14.9507" height="60" fill="#CEDCD1"/>
<rect x="388.716" width="14.9507" height="60" fill="#CEDCD1"/>
<rect x="418.617" width="14.9507" height="60" fill="#CEDCD1"/>
<rect x="448.518" width="14.9507" height="60" fill="#CEDCD1"/>
<rect x="478.42" width="14.9507" height="60" fill="#CEDCD1"/>
<rect x="508.321" width="14.9507" height="60" fill="#CEDCD1"/>
<rect x="538.222" width="14.9507" height="60" fill="#CEDCD1"/>
<rect x="568.123" width="14.9507" height="60" fill="#CEDCD1"/>
<rect x="598.025" width="14.9507" height="60" fill="#CEDCD1"/>
<rect x="627.926" width="14.9507" height="60" fill="#CEDCD1"/>
<rect x="657.827" width="14.9507" height="60" fill="#CEDCD1"/>
<rect x="687.728" width="14.9507" height="60" fill="#CEDCD1"/>
<rect x="717.63" width="14.9507" height="60" fill="#CEDCD1"/>
<rect x="747.531" width="14.9507" height="60" fill="#CEDCD1"/>
<rect x="777.432" width="14.9507" height="60" fill="#CEDCD1"/>
<rect x="807.333" width="14.9507" height="60" fill="#CEDCD1"/>
<rect x="837.234" width="14.9507" height="60" fill="#CEDCD1"/>
<rect x="867.136" width="14.9507" height="60" fill="#CEDCD1"/>
<rect x="897.037" width="14.9507" height="60" fill="#CEDCD1"/>
<rect x="926.938" width="14.9507" height="60" fill="#CEDCD1"/>
<rect x="956.839" width="14.9507" height="60" fill="#CEDCD1"/>
<rect x="986.741" width="14.9507" height="60" fill="#CEDCD1"/>
<rect x="1016.64" width="14.9507" height="60" fill="#CEDCD1"/>
<rect x="1046.54" width="14.9507" height="60" fill="#CEDCD1"/>
<rect x="1076.44" width="14.9507" height="60" fill="#CEDCD1"/>
<rect x="1106.35" width="14.9507" height="60" fill="#CEDCD1"/>
<rect x="1136.25" width="14.9507" height="60" fill="#CEDCD1"/>
<rect x="1166.15" width="14.9507" height="60" fill="#CEDCD1"/>
<rect x="1196.05" width="14.9507" height="60" fill="#CEDCD1"/>
</svg>
