<svg width="110" height="95" viewBox="0 0 110 95" fill="none" xmlns="http://www.w3.org/2000/svg">
<path d="M81.1935 44.7978C81.0635 44.7878 81.0535 44.9978 81.1835 45.0078C81.3135 45.0078 81.3235 44.7978 81.1935 44.7978Z" fill="#896C61"/>
<path d="M6.13361 6.64789C6.16361 6.60789 6.09361 6.55788 6.06361 6.60788C-2.77639 20.0679 16.1436 32.0279 25.5836 37.9579C25.6036 37.9679 25.6136 37.9379 25.6036 37.9279C16.6636 32.0779 -1.63639 19.5779 6.13361 6.64789Z" fill="#896C61"/>
<path d="M50.9332 45.8379C35.5232 42.5579 21.9532 35.2979 11.8832 22.9479C11.8432 22.8979 11.7732 22.9679 11.8132 23.0179C21.1232 35.4579 35.2232 44.5079 50.8732 46.1879C51.0632 46.2079 51.1332 45.8779 50.9332 45.8379Z" fill="#896C61"/>
<path d="M31.1635 35.3179C31.1235 35.2979 31.0935 35.3479 31.1235 35.3679C40.7235 41.0179 50.6335 45.8879 61.0435 49.8679C61.0835 49.8879 61.1035 49.8279 61.0635 49.8079C50.9335 45.3279 40.9335 40.5379 31.1635 35.3179Z" fill="#896C61"/>
<path d="M95.5935 59.5278C81.7535 48.0178 61.6635 50.2878 47.1435 39.6378C47.1035 39.6078 47.0435 39.6778 47.0835 39.7078C60.1735 51.9878 80.9035 49.6978 95.5135 59.6478C95.5935 59.6978 95.6635 59.5778 95.5935 59.5278Z" fill="#896C61"/>
<path d="M139.253 76.8878C133.393 72.7978 126.573 70.7178 119.553 69.6678C119.463 69.6578 119.443 69.7978 119.523 69.8278C123.253 70.9078 126.993 71.7678 130.613 72.9678C116.413 71.6478 104.773 65.4778 91.8434 59.8978C91.8134 59.8878 91.8034 59.9278 91.8234 59.9378C103.573 66.8478 117.383 73.0078 131.213 73.1678C133.973 74.1178 136.663 75.2878 139.203 76.9478C139.243 76.9878 139.293 76.9178 139.253 76.8878Z" fill="#896C61"/>
<path d="M151.734 78.9079C139.564 69.0079 122.674 68.9679 108.184 64.7679C108.084 64.7379 108.034 64.8879 108.134 64.9179C122.754 70.0279 138.464 70.0779 151.694 78.9779C151.734 79.0079 151.774 78.9379 151.734 78.9079Z" fill="#896C61"/>
<path d="M79.7733 48.3279C64.2033 41.1179 52.3733 30.5079 46.2333 14.1379C46.2133 14.0979 46.1433 14.1179 46.1533 14.1679C51.6133 29.2279 64.1833 43.4279 79.7333 48.4379C79.8033 48.4579 79.8333 48.3579 79.7733 48.3279Z" fill="#896C61"/>
<path d="M106.783 63.0578C99.3834 59.6578 93.6034 53.3778 85.7934 50.9578C85.6734 50.9178 85.6134 51.0978 85.7334 51.1378C93.3134 54.0378 98.7234 61.4578 106.723 63.2378C106.853 63.2778 106.903 63.1178 106.783 63.0578Z" fill="#896C61"/>
<path d="M115.803 63.3378C110.763 61.6078 105.893 59.7478 101.123 57.3678C101.033 57.3178 100.943 57.4478 101.033 57.5078C105.623 60.1678 110.583 62.2878 115.773 63.4478C115.833 63.4578 115.873 63.3578 115.803 63.3378Z" fill="#896C61"/>
<path d="M9.08343 6.07783C9.09343 6.04783 9.04343 6.01783 9.02343 6.04783C6.85343 10.5678 6.47343 16.4178 9.36343 20.7378C9.43343 20.8378 9.58341 20.7678 9.53341 20.6478C7.56341 15.7178 6.87343 11.1178 9.08343 6.07783Z" fill="#896C61"/>
<path d="M29.9337 33.5279C26.8037 31.1279 23.0837 29.3779 20.2437 26.6279C17.4137 23.8879 15.8136 20.3479 15.0736 16.5279C15.0636 16.4779 14.9937 16.4979 14.9937 16.5479C15.7737 25.1579 22.7836 29.9179 29.8436 33.6679C29.9336 33.7079 30.0137 33.5879 29.9337 33.5279Z" fill="#896C61"/>
<path d="M44.7934 39.9878C38.8434 35.5878 31.6334 33.2178 27.0434 27.1278C27.0034 27.0778 26.9134 27.1378 26.9534 27.1878C31.0034 33.5978 38.2734 36.6478 44.7134 40.1178C44.8034 40.1678 44.8834 40.0478 44.7934 39.9878Z" fill="#896C61"/>
<path d="M66.3736 46.0079C62.9336 45.4079 59.6236 44.6278 56.4336 43.1678C56.3836 43.1478 56.3436 43.2279 56.3936 43.2579C59.5036 44.8979 62.8336 46.0378 66.3636 46.1678C66.4736 46.1778 66.4736 46.0279 66.3736 46.0079Z" fill="#896C61"/>
<path d="M111.833 36.3178C108.603 30.8578 104.263 25.9278 100.413 20.9078C100.303 20.7678 100.113 20.9478 100.213 21.0978C103.873 26.2578 107.303 31.8378 111.553 36.5278C111.673 36.6678 111.933 36.4978 111.833 36.3178Z" fill="#896C61"/>
<path d="M113.584 20.6279C113.014 19.1479 111.644 18.1879 110.284 17.5079C110.014 17.3679 109.654 17.6979 109.914 17.9479C110.974 18.9679 111.954 20.1779 113.214 20.9679C113.454 21.1079 113.674 20.8579 113.584 20.6279Z" fill="#896C61"/>
<path d="M64.1833 5.70778C63.6733 5.75778 63.5833 6.53777 63.9933 6.77777C64.4933 7.06777 64.8633 7.38778 65.4333 7.51778C65.6233 7.55778 65.8133 7.48778 65.8833 7.28778C66.2433 6.17778 65.1433 5.60778 64.1833 5.70778Z" fill="#896C61"/>
<path d="M69.1735 12.2278C68.8235 11.5878 67.8635 12.0978 68.1735 12.7578C68.2035 12.8078 68.2235 12.8578 68.2435 12.9178C68.2035 13.4078 68.1735 13.8978 68.3335 14.3578C68.4335 14.6278 68.7536 14.6478 68.8836 14.3878C68.9336 14.2778 68.9635 14.1678 68.9935 14.0578C69.0435 14.0978 69.0835 14.1478 69.1435 14.1778C69.4035 14.3378 69.7235 14.1678 69.7535 13.8678C69.8035 13.2078 69.4735 12.8078 69.1735 12.2278Z" fill="#896C61"/>
<path d="M63.5334 8.98782C63.1134 8.88782 62.8533 9.40782 63.2133 9.66782C64.2433 10.4378 65.0234 11.3378 65.8434 12.3178C65.9834 12.4878 66.3234 12.3778 66.3034 12.1478C66.2134 10.5978 65.0534 9.34782 63.5334 8.98782Z" fill="#896C61"/>
<path d="M67.5933 17.0078C67.4833 16.8078 67.1633 16.9778 67.2833 17.1778C67.7033 17.8778 68.1234 18.5778 68.5734 19.2478C68.6234 19.3178 68.7234 19.2678 68.6834 19.1878C68.3434 18.4478 67.9733 17.7278 67.5933 17.0078Z" fill="#896C61"/>
<path d="M71.4734 22.3278C71.2934 22.1678 71.0234 22.4178 71.2034 22.5778C71.5234 22.8678 71.7434 23.2078 71.9634 23.5778C72.0334 23.6978 72.2334 23.6378 72.2034 23.4878C72.0934 22.9678 71.8634 22.6778 71.4734 22.3278Z" fill="#896C61"/>
<path d="M71.2132 16.2678C70.9832 15.7578 70.2133 16.1578 70.4433 16.6778C70.7533 17.3778 70.9933 18.2478 71.5533 18.7878C71.7233 18.9478 72.0633 18.8778 72.0633 18.6078C72.0333 17.7678 71.5432 17.0178 71.2132 16.2678Z" fill="#896C61"/>
<path d="M70.4633 12.4578C70.1133 12.1678 69.6134 12.7578 69.9434 13.0678C70.6134 13.7078 71.2133 14.6778 72.1633 14.8278C72.3633 14.8578 72.5433 14.6178 72.4933 14.4378C72.2433 13.5178 71.1633 13.0278 70.4633 12.4578Z" fill="#896C61"/>
<path d="M70.7535 9.67781C70.3535 9.09781 69.8535 8.6678 69.3235 8.1978C69.0535 7.9578 68.6334 8.3278 68.9034 8.5778C69.4234 9.0678 69.8835 9.54781 70.5035 9.89781C70.6435 9.96781 70.8635 9.82781 70.7535 9.67781Z" fill="#896C61"/>
<path d="M72.9133 10.4678C72.7033 10.1678 72.1933 10.4178 72.3933 10.7378C72.7733 11.3378 72.9833 11.9078 73.5633 12.3278C73.7133 12.4378 73.9033 12.2778 73.8733 12.1178C73.7133 11.4278 73.3133 11.0478 72.9133 10.4678Z" fill="#896C61"/>
<path d="M76.3936 16.4678C76.4736 16.0078 75.7336 15.9778 75.6636 16.4378C75.5536 17.1478 75.7036 17.8178 76.3736 18.1678C76.5536 18.2678 76.7436 18.0978 76.6636 17.9078C76.4736 17.4278 76.3036 16.9778 76.3936 16.4678Z" fill="#896C61"/>
<path d="M74.6035 10.4879C74.0335 10.3779 73.7435 11.1679 74.3135 11.3679C74.8035 11.5279 75.1435 11.8979 75.6135 12.0879C75.7935 12.1579 76.0534 11.9979 76.0334 11.7979C75.9634 10.9879 75.3635 10.6279 74.6035 10.4879Z" fill="#896C61"/>
<path d="M79.4935 12.5179C79.2235 12.1279 78.8636 11.8579 78.5036 11.5579C78.1436 11.2479 77.7235 11.8779 78.1035 12.1779C78.4735 12.4779 78.7935 12.7379 79.2235 12.9379C79.4935 13.0579 79.6235 12.7079 79.4935 12.5179Z" fill="#896C61"/>
<path d="M82.2332 15.8178C82.0832 15.4678 81.5332 15.7478 81.7032 16.0978C81.8432 16.3978 81.8432 16.3778 82.0532 16.6178C82.2032 16.7778 82.4232 16.6278 82.4032 16.4378C82.3632 16.1078 82.3532 16.1278 82.2332 15.8178Z" fill="#896C61"/>
<path d="M77.9834 14.4078C77.6634 14.0378 77.0134 14.4778 77.2734 14.9078C77.6934 15.6078 78.0934 16.4478 78.6734 17.0678C78.6634 17.1578 78.7034 17.2678 78.8334 17.2678C78.8534 17.2678 78.8634 17.2578 78.8834 17.2478C79.0534 17.3978 79.2234 17.5478 79.4234 17.6578C79.6834 17.7878 79.9734 17.6078 79.9234 17.3078C79.7334 16.1478 78.7134 15.2578 77.9834 14.4078Z" fill="#896C61"/>
<path d="M77.3733 22.1379C77.5233 22.1179 77.6633 21.9979 77.6133 21.8479C77.4933 21.4479 77.4632 21.3979 77.1632 21.0879C76.9532 20.8779 76.7033 20.9579 76.5633 21.1279C76.4533 21.2079 76.3632 21.3279 76.4032 21.4979C76.5932 22.5079 76.6132 23.7879 77.1632 24.6679C77.2632 24.8279 77.5833 24.8579 77.6233 24.6279C77.7833 23.8379 77.5733 22.9579 77.3733 22.1379Z" fill="#896C61"/>
<path d="M79.2832 26.9879C79.0032 26.7979 78.7532 27.2179 79.0032 27.4179C79.4432 27.7779 79.6032 28.1979 79.8432 28.6779C80.0032 28.9979 80.4832 28.8079 80.4132 28.4679C80.2832 27.8279 79.8232 27.3479 79.2832 26.9879Z" fill="#896C61"/>
<path d="M75.2836 27.0178C75.2736 26.9978 75.2436 27.0278 75.2636 27.0378L75.5136 27.3078C75.5236 27.3278 75.5536 27.2978 75.5336 27.2878C75.4436 27.1978 75.3636 27.1078 75.2836 27.0178Z" fill="#896C61"/>
<path d="M77.2932 28.3879C76.9932 28.0279 76.6232 27.7479 76.2632 27.4479C75.8332 27.0879 75.3632 27.8279 75.7932 28.1779C76.1232 28.4579 76.4432 28.7379 76.8232 28.9479C77.1832 29.1579 77.5732 28.7179 77.2932 28.3879Z" fill="#896C61"/>
<path d="M80.4635 29.5079C80.4035 29.4079 80.2935 29.3979 80.2135 29.4679C79.9735 29.6579 79.7735 29.8779 79.5435 30.0879C79.2235 30.3879 79.5934 30.8179 79.9534 30.6779C80.4634 30.4879 80.7535 30.0079 80.4635 29.5079Z" fill="#896C61"/>
<path d="M81.8232 27.6979C81.7332 27.7779 81.6432 27.8579 81.5432 27.9379C81.3332 28.1179 81.6332 28.4579 81.8332 28.2579C81.9232 28.1779 82.0132 28.0879 82.0932 28.0079C82.3032 27.8179 82.0232 27.5179 81.8232 27.6979Z" fill="#896C61"/>
<path d="M81.6337 22.9778C81.5437 23.0078 81.4336 23.0678 81.4136 23.1778C81.3436 23.5278 81.2736 23.7478 81.5236 24.0178C81.5836 24.0878 81.6636 24.0778 81.7236 24.0478C81.7636 24.1078 81.8336 24.1578 81.9136 24.1278C82.6736 23.8778 82.4237 22.7278 81.6337 22.9778Z" fill="#896C61"/>
<path d="M83.7236 27.6678C83.7036 28.0178 83.6836 28.3478 83.6836 28.6978C83.6836 28.7678 83.7936 28.7778 83.7936 28.7078C83.8336 28.3578 83.8436 28.0278 83.8536 27.6778C83.8536 27.5978 83.7236 27.5878 83.7236 27.6678Z" fill="#896C61"/>
<path d="M83.2035 30.7578C83.1835 30.4178 82.6536 30.2478 82.5536 30.6378C82.4036 31.2878 82.5136 31.9978 83.3236 32.0078C83.4536 32.0078 83.5735 31.8878 83.5335 31.7478C83.4535 31.4378 83.2235 31.0778 83.2035 30.7578Z" fill="#896C61"/>
<path d="M84.6935 34.5179C84.4835 34.3079 84.1534 34.6079 84.3434 34.8379C84.8034 35.3679 85.0335 35.9679 85.6935 36.2179C85.8335 36.2779 86.0134 36.1179 85.9634 35.9679C85.7634 35.2979 85.1835 35.0179 84.6935 34.5179Z" fill="#896C61"/>
<path d="M81.1137 33.5078C81.0737 33.8178 81.0937 33.8678 81.2237 34.1478C81.2937 34.2978 81.5237 34.3078 81.6137 34.1678C81.7737 33.9078 81.7836 33.8578 81.7736 33.5478C81.7636 33.1078 81.1637 33.0778 81.1137 33.5078Z" fill="#896C61"/>
<path d="M85.5235 19.6478C85.1135 19.2978 84.5435 19.6678 84.7535 20.1878C85.0835 21.0178 85.0435 21.9978 85.4835 22.7678C85.6035 22.9778 85.9035 23.0578 86.0935 22.8778C87.0035 21.9478 86.3935 20.3878 85.5235 19.6478Z" fill="#896C61"/>
<path d="M29.7435 3.05778C29.3235 2.84778 28.7535 3.35778 29.1635 3.73778C30.0835 4.59778 30.8835 5.86779 32.0035 6.45779C32.2835 6.60779 32.5635 6.39778 32.5335 6.08778C32.3735 4.66778 30.9235 3.65778 29.7435 3.05778Z" fill="#896C61"/>
<path d="M36.0636 6.94777C35.7436 6.14777 35.1035 5.48777 34.5435 4.82777C34.6135 4.73777 34.6435 4.61777 34.5435 4.52777C34.2135 4.22777 34.1435 4.18778 33.7235 4.00778C33.2535 3.80778 32.9835 4.59777 33.4735 4.77777C33.5935 4.81777 33.6836 4.84778 33.7436 4.87778C33.7236 4.97778 33.7336 5.08777 33.8236 5.19777C34.4036 5.91777 34.9335 6.75777 35.7135 7.27777C35.9335 7.40777 36.1436 7.15777 36.0636 6.94777Z" fill="#896C61"/>
<path d="M37.3832 11.3178C36.8132 10.5978 36.0832 10.2678 35.8132 9.31783C35.6732 8.80783 34.9032 8.97782 35.0132 9.49782C35.2132 10.5178 35.9432 11.8878 37.1532 11.8178C37.4132 11.8078 37.5532 11.5378 37.3832 11.3178Z" fill="#896C61"/>
<path d="M37.9536 6.36783C37.5736 5.94783 36.9336 6.53784 37.3136 6.95784C37.6036 7.26784 37.6636 7.31783 38.0436 7.46783C38.2336 7.53783 38.4536 7.33784 38.3936 7.14784C38.2736 6.74784 38.2436 6.67783 37.9536 6.36783Z" fill="#896C61"/>
<path d="M39.2332 4.19785C38.8832 3.77785 38.4432 3.52786 37.9832 3.23786C37.6232 2.99786 37.2732 3.54786 37.6232 3.79786C37.6832 3.83786 37.7432 3.87786 37.8032 3.92786C37.7432 4.00786 37.7132 4.10785 37.7732 4.22785C38.0232 4.70785 38.2532 5.13786 38.6032 5.54786C38.7232 5.68786 38.9632 5.55786 38.9232 5.37786C38.8432 5.02786 38.7032 4.71787 38.5632 4.39787C38.6932 4.46787 38.8232 4.54786 38.9732 4.59786C39.2232 4.66786 39.3832 4.37785 39.2332 4.19785Z" fill="#896C61"/>
<path d="M39.1133 10.0478C39.0333 10.3078 38.9633 10.5678 38.8833 10.8378C38.8733 10.8878 38.9433 10.9278 38.9733 10.8778C39.0933 10.6378 39.2132 10.3978 39.3332 10.1578C39.4132 9.9878 39.1633 9.8778 39.1133 10.0478Z" fill="#896C61"/>
<path d="M41.6434 13.8378C41.6434 13.6678 41.4334 13.5978 41.3334 13.7378C41.1434 14.0778 40.8134 14.1778 40.3234 14.0278C40.0734 13.8378 39.8134 14.2478 40.0634 14.4378C40.1034 14.4678 40.1634 14.4778 40.2134 14.4978C40.1834 14.5578 40.1734 14.6278 40.2334 14.6978C40.3734 14.8978 40.5434 15.0778 40.7434 15.2178C40.9134 15.3578 41.1234 15.1678 40.9934 14.9878C40.9134 14.8478 40.7934 14.7378 40.6834 14.6178C41.1534 14.6478 41.6334 14.3978 41.6434 13.8378Z" fill="#896C61"/>
<path d="M41.2732 8.75779C41.0632 8.66779 40.8833 8.79778 40.8133 8.97778C40.3633 8.97778 40.2232 9.62778 40.5832 9.86778C40.9532 10.1078 41.1232 10.1678 41.4532 10.1478C41.4932 10.2178 41.5333 10.2978 41.5733 10.3578C41.7233 10.5978 42.0233 10.5478 42.1333 10.3078C42.4633 9.59778 41.8932 9.03779 41.2732 8.75779Z" fill="#896C61"/>
<path d="M43.2533 17.5378C43.2933 17.0878 42.5432 16.9278 42.4532 17.3878C42.2632 18.2878 42.2733 19.0678 43.1333 19.5578C43.3333 19.6678 43.5632 19.5078 43.5232 19.2878C43.4232 18.7078 43.2033 18.1178 43.2533 17.5378Z" fill="#896C61"/>
<path d="M47.4132 25.6179C47.2032 25.4479 46.9932 25.2779 46.7932 25.1179C46.7132 24.9579 46.4332 25.0479 46.4932 25.2279C46.6432 25.6979 46.9132 25.9479 47.4032 25.8879C47.5432 25.8679 47.5332 25.6579 47.4132 25.6179Z" fill="#896C61"/>
<path d="M45.6635 18.9778C45.4835 18.9178 45.2735 19.0978 45.3335 19.2778C45.4335 19.5978 45.3035 19.8278 45.1735 20.1178C45.0135 20.4778 45.4735 20.7778 45.7835 20.6278C46.5135 20.2778 46.4135 19.2578 45.6635 18.9778Z" fill="#896C61"/>
<path d="M44.2436 14.8378C44.1636 14.6478 43.8436 14.6278 43.7436 14.8178C43.5336 15.1978 43.5136 15.2878 43.4836 15.7278C43.4436 16.3278 44.4036 16.3778 44.4236 15.7678C44.4236 15.3278 44.4136 15.2378 44.2436 14.8378Z" fill="#896C61"/>
<path d="M44.4535 10.3678C44.1535 10.3578 44.1335 10.8178 44.4335 10.8378C44.7335 10.8478 44.7535 10.3778 44.4535 10.3678Z" fill="#896C61"/>
<path d="M16.1635 4.71779C16.1335 4.67779 16.1035 4.64779 16.0835 4.60779C15.8435 4.28779 15.2635 4.42778 15.1635 4.80778C15.1435 4.87778 15.1235 4.94779 15.1135 5.01779C15.0535 5.25779 15.1935 5.44779 15.4335 5.48779C15.6735 5.52779 15.9435 5.53778 16.1335 5.36778C16.3335 5.18778 16.3135 4.90779 16.1635 4.71779Z" fill="#896C61"/>
<path d="M20.4633 8.64777C20.1733 7.83777 19.5133 7.26776 18.9633 6.61776C18.7033 6.30776 18.2833 6.71776 18.5133 7.02776C18.9833 7.68776 19.3733 8.46777 20.0633 8.92777C20.2333 9.04777 20.5433 8.86777 20.4633 8.64777Z" fill="#896C61"/>
<path d="M19.1636 9.01785C18.9436 8.67785 18.7936 8.43784 18.4736 8.19784C18.3036 8.06784 18.0836 8.25784 18.1136 8.44784C18.1836 8.80784 18.3236 9.03784 18.5136 9.35784C18.7536 9.76784 19.4136 9.40785 19.1636 9.01785Z" fill="#896C61"/>
<path d="M12.8733 5.73787C12.8633 5.72787 12.8933 5.70786 12.8733 5.69786C12.8133 5.65786 12.7433 5.61786 12.6833 5.58786C12.2733 5.34786 12.2333 6.18786 12.6633 5.97786C12.7333 5.94786 12.7933 5.91787 12.8633 5.87787C12.8833 5.86787 12.8533 5.84786 12.8633 5.83786C12.9033 5.79786 12.9033 5.77787 12.8733 5.73787Z" fill="#896C61"/>
<path d="M35.2035 2.40787C34.6735 1.73787 33.7835 1.65788 32.9735 1.59788C32.6335 1.56788 32.4835 2.05788 32.7735 2.23788C33.4635 2.66788 34.2235 3.11788 35.0535 2.89788C35.2635 2.82788 35.3335 2.58787 35.2035 2.40787Z" fill="#896C61"/>
<path d="M41.3035 5.8978C41.1235 5.5978 40.6335 5.84779 40.8135 6.15779C41.1935 6.80779 41.5335 7.51779 42.0335 8.07779C42.1535 8.20779 42.4135 8.09779 42.3535 7.90779C42.1135 7.17779 41.6835 6.5478 41.3035 5.8978Z" fill="#896C61"/>
<path d="M97.7836 30.3878C96.0936 26.1778 95.1736 22.0178 92.2536 18.4678C92.2236 18.4278 92.1436 18.4778 92.1736 18.5278C94.8736 22.9578 95.7636 28.3878 97.9336 33.0978C100.014 37.6078 102.764 41.8078 106.464 45.1478C106.554 45.2278 106.684 45.1178 106.604 45.0178C102.894 40.5278 99.9536 35.7878 97.7836 30.3878Z" fill="#896C61"/>
<path d="M218.303 72.7178C217.613 70.0078 216.413 67.3078 214.923 64.7078C213.663 61.9278 212.183 59.2878 210.163 57.2478C209.453 56.5378 208.693 55.8978 207.913 55.2778C206.573 53.8378 205.213 52.5078 203.883 51.3478C199.943 47.9078 188.843 39.3578 185.493 47.6078C185.433 47.5878 185.373 47.5878 185.303 47.5678C184.333 47.2778 183.453 46.7878 182.643 46.1978C182.593 46.1578 182.553 46.1278 182.503 46.0878C181.903 44.7878 181.133 43.5678 180.083 42.4978C178.063 40.4378 176.103 40.3478 173.503 39.3678C169.783 37.9678 167.343 34.4278 164.103 32.2478C158.423 28.4078 150.963 26.4078 144.203 27.8578C144.033 27.8978 143.933 28.0078 143.873 28.1378C143.703 28.1778 143.533 28.2178 143.373 28.2678C141.503 27.7578 139.543 28.2078 138.443 29.8478C138.393 29.8278 138.343 29.8278 138.303 29.8078C136.773 29.2478 135.313 28.5478 133.843 27.8478C129.873 22.6278 124.853 18.6478 118.363 18.6878C118.303 18.6878 118.293 18.7378 118.253 18.7778C114.343 16.0278 109.863 14.2278 105.203 15.0478C104.533 14.7778 103.863 14.8378 103.203 15.2378C102.263 15.6278 101.383 16.4178 101.523 17.3578C101.163 17.3878 100.793 17.4278 100.433 17.4578C93.6234 18.0678 89.1234 15.9078 83.7434 12.0378C83.5834 11.9178 83.4334 12.0378 83.3934 12.1878C80.4034 9.51782 76.8434 7.63782 72.1834 5.96782C67.7334 4.36782 59.9534 1.25782 55.3034 4.22782C55.2434 4.22782 55.1934 4.19783 55.1434 4.20783C53.2834 4.28783 52.3434 5.62782 52.7834 7.32782C52.7934 7.38782 52.8535 7.40783 52.8835 7.45783C49.7235 6.85783 46.9934 4.70782 43.9534 3.49782C43.2234 2.62782 42.4134 1.90783 41.4834 1.39783C37.1634 -0.952171 29.8034 0.277817 25.1234 0.697817C24.7934 0.727817 24.6334 1.12782 24.6834 1.40782C24.8034 2.22782 25.0534 2.97782 25.3534 3.71782C23.8134 3.57782 22.3334 3.19782 20.7934 2.94782C20.7534 2.93782 20.7334 2.96782 20.7034 2.96782C19.4334 2.17782 18.0334 1.59783 16.4334 1.34783C16.1934 1.30783 16.0434 1.47782 15.9934 1.66782C10.5434 -1.43218 2.13342 6.44782 0.633423 11.2778C-2.36658 20.9278 5.88342 30.4078 12.9134 35.8878C22.8334 43.6178 36.0535 46.3378 47.9435 49.5578C51.9235 50.6378 55.9234 51.6578 59.9334 52.6278C65.1434 55.5778 71.2634 56.8878 76.9534 58.5278C85.0134 60.8478 92.6534 64.1278 100.313 67.5178C107.873 70.8578 115.453 74.0678 123.313 76.6478C130.023 78.8478 137.173 81.4478 144.263 82.4878C146.653 83.5878 149.013 84.7978 151.463 85.7578C156.153 87.5878 161.103 88.5778 166.053 89.3978C172.083 90.3978 178.173 91.0678 184.143 92.3878C189.083 93.4778 193.803 94.7378 198.903 94.6978C203.553 94.6578 208.243 93.9578 212.803 93.0778C216.113 92.4378 219.563 91.4078 221.423 88.3678C224.463 83.3278 221.683 77.5078 218.303 72.7178ZM144.943 31.0678C144.933 31.0678 144.933 31.0578 144.923 31.0478C143.193 30.5778 141.463 30.5578 139.723 30.1678C141.833 28.7278 143.553 29.3978 144.943 31.0678ZM136.673 30.9378C139.413 35.2078 141.713 39.5778 144.173 44.0278C144.283 44.2278 144.623 44.1178 144.563 43.8878C143.433 39.4978 140.853 35.0678 137.823 31.5278C139.013 32.0878 140.223 32.5278 141.363 32.6778C144.233 34.7978 146.143 37.7578 147.653 40.9678C146.503 38.9478 145.153 37.0478 143.553 35.2878C143.543 35.2778 143.533 35.2878 143.543 35.2978C145.673 37.8678 147.403 40.7178 148.843 43.7278C149.483 45.3278 150.083 46.9378 150.683 48.5078C148.813 45.0278 146.923 41.4878 144.173 38.6178C144.053 38.4978 143.833 38.6378 143.923 38.7878C146.433 43.3678 148.863 47.9778 151.343 52.5778C153.153 55.9378 155.093 59.3578 158.023 61.8378C158.543 62.4578 159.083 63.0478 159.653 63.5978C160.533 65.0878 161.443 66.5678 162.423 67.9778C160.513 67.0078 158.603 66.0678 157.023 64.9178C150.293 60.0078 146.563 52.2478 143.193 44.8778C141.263 40.6378 138.833 35.1778 135.643 30.3378C135.963 30.5478 136.323 30.7478 136.673 30.9378ZM110.503 25.8578C109.573 24.4578 108.583 23.0978 107.603 21.7778C106.933 20.8778 106.213 19.8778 105.363 19.1178C105.743 19.1478 106.123 19.2278 106.503 19.2778C106.763 19.5478 107.003 19.8378 107.243 20.1178C107.833 20.9978 108.423 21.8678 108.983 22.7678C109.323 23.3078 109.643 23.8678 109.953 24.4278C110.143 24.9278 110.333 25.4078 110.503 25.8578ZM88.9234 16.9878C91.3634 23.1578 94.4334 29.1578 97.7234 34.9078C97.8234 35.0878 98.0834 34.9478 98.0134 34.7578C95.5834 28.8178 92.8334 22.8878 89.6034 17.3178C90.8434 17.9278 92.1334 18.4178 93.4634 18.7278C93.8734 18.8278 94.2934 18.8678 94.7034 18.9278C96.3934 24.0978 98.6034 29.0678 100.933 33.9678C100.963 34.0378 101.093 33.9978 101.073 33.9178C99.2235 28.8778 97.3434 23.8378 95.0534 18.9778C95.3934 19.0178 95.7335 19.0378 96.0735 19.0678C96.4135 20.1578 97.0034 21.1978 97.5034 22.2178C98.2335 23.7178 99.0334 25.1678 99.7834 26.6578C99.8634 26.8278 100.153 26.7278 100.103 26.5378C99.3934 24.1978 98.6235 21.2278 97.0735 19.1278C97.3735 19.1378 97.6734 19.1278 97.9734 19.1278C98.1634 19.9378 98.4735 20.7878 99.0735 21.3678C99.3135 21.5978 99.6434 21.3978 99.6134 21.0878C99.5334 20.3678 99.1634 19.7078 98.7334 19.1278C99.7934 19.1078 100.853 19.0778 101.913 19.0478C101.973 19.1178 102.033 19.1978 102.133 19.2378C106.033 20.7178 108.723 24.6878 111.313 28.0278C111.383 28.2278 111.453 28.4178 111.503 28.5378C112.853 31.7978 114.263 35.0378 115.573 38.3078C115.193 37.5978 114.803 36.8978 114.383 36.1978C112.083 29.5578 107.243 23.7578 102.013 19.2578C101.963 19.2078 101.873 19.2878 101.933 19.3378C105.873 22.8978 108.713 26.9378 111.163 31.3378C108.343 27.4678 105.163 23.9878 102.083 21.1778C102.023 21.1178 101.933 21.1978 101.983 21.2678C106.343 26.2078 110.203 31.6878 113.193 37.5578C115.983 43.0378 117.103 49.0378 119.543 54.5978C119.583 54.6878 119.653 54.7278 119.733 54.7478C119.833 55.4978 119.933 56.2478 120.063 56.9878C116.193 52.2178 110.583 48.9078 105.773 45.0678C97.8234 38.6978 94.2834 28.9978 89.6034 20.2878C89.3534 19.8178 89.0935 19.3778 88.8235 18.9378C88.3735 18.0578 87.9334 17.1678 87.5534 16.2578C87.5534 16.2278 87.5434 16.2078 87.5434 16.1778C87.9834 16.4578 88.4434 16.7378 88.9234 16.9878ZM47.6134 7.26782C48.3134 10.2778 49.8734 13.3978 51.5434 15.9278C51.6734 16.1278 52.0734 16.0378 51.9834 15.7678C51.0634 13.1178 49.9734 10.2678 48.6134 7.74782C48.9034 7.87782 49.2034 7.98783 49.5034 8.09783C49.8634 8.99783 50.2934 9.85783 50.7634 10.7078C50.8334 10.8378 51.0734 10.7678 51.0234 10.6178C50.7734 9.83782 50.4934 9.06783 50.1634 8.31783C50.4034 8.38783 50.6334 8.44783 50.8734 8.50783C51.7834 11.8878 53.4634 15.2278 54.8434 18.3978C54.9234 18.5778 55.2234 18.4678 55.1734 18.2778C54.3234 15.1178 53.2834 11.5678 51.5934 8.65782C52.0634 8.73782 52.5334 8.77783 52.9834 8.78783C53.7234 11.7978 55.0734 14.6778 56.4734 17.4178C56.5534 17.5678 56.7634 17.4478 56.7034 17.2978C55.6334 14.4778 54.8134 11.5678 53.7834 8.73783C54.1834 8.69783 54.5634 8.59783 54.9435 8.48783C55.8235 11.2278 57.1234 13.8678 58.2734 16.4878C58.3334 16.6278 58.5834 16.5378 58.5334 16.3978C57.6734 13.8478 56.8834 11.2078 55.8034 8.72782C60.1634 12.4578 62.2934 19.8978 65.3634 24.4278C68.4034 28.9278 71.5634 33.4478 74.9134 37.7778C74.6434 37.4878 74.3834 37.2178 74.1134 36.9478C73.9534 36.7278 73.7935 36.5178 73.6335 36.2978C68.8935 29.6478 63.7334 23.3178 59.9734 15.9978C59.9234 15.9078 59.7934 15.9778 59.8334 16.0778C63.5634 24.5278 68.9834 32.2478 74.8934 39.3678C75.4134 40.0978 75.9734 40.7978 76.5534 41.4478C76.5734 41.4778 76.5934 41.5078 76.6234 41.5478C75.4734 40.7078 74.2834 39.9078 73.1434 39.0378C68.4934 33.1278 63.6435 27.4978 59.5735 21.1078C59.4935 20.9878 59.3034 21.0878 59.3734 21.2178C63.2934 28.0078 67.8334 34.9878 73.6834 40.3078C72.0334 38.9878 70.4034 37.6478 68.9134 36.1278C65.7134 32.8378 62.6935 29.1178 60.1935 25.2578C60.1735 25.2278 60.1334 25.2478 60.1534 25.2778C62.2434 28.9778 64.8434 32.9578 67.9134 36.4778C60.9534 31.0778 54.9934 24.5178 50.5534 16.6578C49.0034 13.9078 47.6934 9.61782 45.7634 6.16782C46.3234 6.55782 46.9634 6.92782 47.6134 7.26782ZM26.0334 5.49782C26.1134 5.50782 26.1734 5.47782 26.2434 5.46782C28.0634 8.42782 30.9834 10.8278 33.1834 13.4278C33.6134 13.9378 34.0734 14.4778 34.5534 15.0378C33.0134 13.3078 31.4234 11.6478 29.8334 10.0478C29.7334 9.94782 29.5834 10.0878 29.6734 10.1878C32.7934 13.6678 35.9434 17.2878 38.2834 21.3478C39.9134 24.1778 40.8834 27.3878 42.2034 30.3778C37.8934 24.3278 33.5934 18.2678 29.1734 12.2978C28.0834 10.8278 26.9834 9.27782 25.8034 7.79782C25.9534 7.94782 26.0934 8.08783 26.2234 8.23783C27.5734 9.76783 28.8534 11.3678 30.0534 13.0178C30.2134 13.2378 30.5234 12.9778 30.4234 12.7578C30.3934 12.6978 30.3634 12.6378 30.3334 12.5778C33.4934 17.2078 36.4134 22.0178 39.9634 26.3278C40.0734 26.4678 40.2834 26.3078 40.2134 26.1578C37.2334 20.0578 32.9934 14.4378 28.4734 9.28783C27.9934 8.57783 27.4734 7.89782 26.8934 7.24782C26.3934 6.69782 25.8134 6.00783 25.1734 5.39783C25.4634 5.44783 25.7534 5.47782 26.0334 5.49782ZM217.883 88.2778C216.313 90.1578 211.983 90.6178 209.653 91.0378C200.143 92.7678 192.353 91.5878 183.033 89.7778C175.103 88.2378 167.003 87.7978 159.123 85.9978C154.503 84.9378 150.053 82.5478 145.503 80.9978C143.503 80.1478 141.433 79.4278 139.333 78.7678C136.393 77.0278 133.103 75.2978 130.013 75.5078C129.883 75.5178 129.863 75.7078 130.003 75.7178C132.073 75.8478 133.913 76.7878 135.743 77.7078C131.503 76.5178 127.193 75.4778 123.093 74.1878C115.513 71.8078 108.133 69.0278 100.853 65.8578C93.7434 62.7678 86.6334 59.6778 79.1634 57.5478C76.2834 56.7278 73.4434 55.9278 70.6134 55.0978C76.6034 56.4778 82.8135 58.0978 88.9435 58.1178C89.4535 58.1178 89.5834 57.4178 89.1034 57.2378C79.9534 53.8078 69.6634 52.7678 60.1634 50.4378C50.5134 48.0678 40.9534 45.3978 31.4634 42.4378C27.6334 41.2478 23.9734 39.8478 20.5334 38.1178C20.5334 38.0978 20.5434 38.0878 20.5234 38.0678C14.6634 33.5878 9.94342 28.5278 5.50342 22.6578C5.47342 22.6178 5.41344 22.6678 5.43344 22.7078C8.94344 28.7178 14.1534 33.9278 19.9334 37.8078C15.0534 35.2778 10.6434 32.0278 6.94342 27.4978C3.25342 22.9778 0.0534337 16.8678 2.36343 10.9278C4.26343 6.04783 11.4034 0.39782 16.7234 2.63782C16.8334 2.68782 16.9334 2.59782 16.9734 2.49782C23.2834 5.04782 26.9834 12.2878 30.7734 17.5578C35.2234 23.7378 39.8334 29.7878 44.3734 35.8978C44.7934 36.4678 45.5435 35.9878 45.6335 35.4378C46.9835 27.3378 39.6234 19.0278 34.7634 13.2078C33.2534 11.3978 31.6534 9.68782 30.0334 7.97782C28.1934 6.03782 24.6834 3.10782 28.1534 1.63782C30.0634 0.82782 33.9534 1.59782 36.0034 1.74782C40.6134 2.08782 43.4934 5.36782 45.4634 9.35782C53.2034 25.0578 63.6534 38.1478 79.8534 45.6878C79.9534 45.8478 80.0434 46.0078 80.1434 46.1578C80.5934 46.8678 81.7234 46.3078 81.3134 45.5378C81.2534 45.4178 81.1834 45.2978 81.1134 45.1878C81.1134 44.9878 81.0435 44.7878 80.8235 44.6678C74.6435 33.2078 67.7934 22.0678 61.2234 10.8378C60.2734 9.21782 59.0634 6.14783 57.1734 4.81783C64.3234 3.28783 74.2335 7.60782 79.8235 10.7978C86.9935 14.8878 89.7934 23.9878 93.3034 31.0078C96.1634 36.7378 99.4634 42.4678 104.603 46.4578C108.243 49.2878 112.423 51.2478 115.793 54.4578C118.683 57.2178 120.603 60.6678 122.993 63.8178C123.233 64.1278 123.813 63.8378 123.683 63.4578C123.593 63.1878 123.483 62.9378 123.383 62.6778C123.383 62.6378 123.403 62.6178 123.393 62.5778C122.593 59.7278 121.583 57.1178 121.223 54.1578C120.853 51.1178 120.613 48.1178 119.793 45.1478C118.233 39.4878 115.603 34.0778 113.373 28.6678C112.923 27.5678 110.733 21.3778 108.063 17.6578C107.923 17.1878 107.683 16.7578 107.353 16.3778C112.273 16.8378 116.153 18.9278 120.393 22.4578C124.093 25.5378 127.363 29.1078 131.093 32.1278C131.423 32.3978 131.873 31.9278 131.683 31.5878C129.003 26.7378 123.773 22.7378 119.253 19.4478C126.203 22.5178 131.263 26.1778 135.433 32.8978C139.173 38.9278 141.513 45.6778 144.733 51.9778C147.283 56.9678 150.413 61.8178 154.803 65.3878C158.413 68.3278 162.473 69.9878 166.123 72.5378C167.063 73.5178 168.023 74.4478 169.043 75.2078C169.153 75.2878 169.263 75.2878 169.363 75.2578C169.543 75.4378 169.733 75.5978 169.913 75.7878C170.343 76.2578 171.003 75.7178 170.783 75.1778C170.093 73.4978 168.933 72.2078 167.563 71.1178C164.833 66.9578 161.433 63.0878 158.933 58.7878C155.803 53.4078 153.183 47.7478 151.083 41.8878C151.163 40.0178 150.403 38.2578 149.383 36.6778C148.563 33.7878 147.563 30.6078 145.073 29.0078C154.123 29.4078 160.653 31.8678 167.653 37.8278C169.523 39.4178 171.223 40.6578 173.623 41.3178C179.043 42.8078 180.883 46.2478 181.993 51.3878C183.273 57.2878 184.213 62.7278 188.203 67.5078C192.413 72.5478 198.343 73.2978 203.183 77.2578C203.993 77.9178 204.913 76.6578 204.313 75.9278C202.213 73.3478 199.463 72.4578 196.573 70.9778C192.373 68.8178 188.953 65.4978 186.863 61.2178C184.983 57.3678 184.733 52.7078 183.473 48.5578C184.093 48.8578 184.693 49.0978 185.083 49.2078C186.943 49.7378 190.213 49.9578 191.323 47.9878C191.433 47.7878 191.313 47.5778 191.103 47.5478C189.813 47.3878 188.603 47.6778 187.343 47.7378C187.803 47.0778 192.023 46.7078 192.393 46.7478C194.143 46.9278 195.313 47.9178 196.843 48.5678C199.523 51.3378 203.083 53.3178 206.213 55.6678C206.863 56.3578 207.503 57.0678 208.113 57.7978C210.113 60.1778 211.603 62.6278 212.893 65.1578C213.193 65.9778 213.473 66.7878 213.783 67.5978C213.713 67.6978 213.673 67.8178 213.723 67.9478C215.233 71.6378 217.453 75.0178 218.923 78.7178C220.173 81.9778 220.263 85.4178 217.883 88.2778Z" fill="#896C61"/>
<path d="M107.403 34.3579C107.353 34.2879 107.243 34.3679 107.283 34.4379C110.323 38.9179 111.954 43.7079 114.114 48.6079C114.174 48.7479 114.383 48.6579 114.353 48.5179C113.443 43.4079 110.393 38.5079 107.403 34.3579Z" fill="#896C61"/>
<path d="M103.354 31.8578C103.284 31.7778 103.164 31.8878 103.234 31.9678C107.174 36.7678 109.824 42.2678 112.224 47.9578C112.274 48.0778 112.464 48.0078 112.434 47.8778C110.904 41.7478 107.484 36.5278 103.354 31.8578Z" fill="#896C61"/>
<path d="M106.413 38.4978C106.403 38.4778 106.373 38.4978 106.383 38.5178L108.653 43.3378C108.663 43.3578 108.693 43.3378 108.683 43.3178L106.413 38.4978Z" fill="#896C61"/>
<path d="M102.374 33.7278C102.324 33.6578 102.234 33.7478 102.274 33.8178C105.124 37.6778 107.314 41.8578 109.304 46.2178C109.334 46.2878 109.454 46.2478 109.424 46.1778C107.774 41.6478 105.274 37.5478 102.374 33.7278Z" fill="#896C61"/>
</svg>
