<svg width="328" height="285" viewBox="0 0 328 285" fill="none" xmlns="http://www.w3.org/2000/svg">
<path d="M42.6286 217.792C40.3798 205.305 37.6575 192.818 34.9057 180.39C32.6864 167.844 28.248 155.89 25.0523 143.491C24.5788 141.213 23.7799 136.804 23.6615 132.869C23.4248 130.945 23.7799 129.081 23.8391 127.779C23.9574 126.477 24.0758 125.649 24.1646 125.649C24.3717 125.678 24.49 128.341 24.8451 131.774C25.141 133.49 25.4665 135.443 25.8216 137.396C26.295 139.319 26.7389 141.272 27.094 143.018C29.6387 155.387 33.8109 167.548 36.0301 180.153C38.782 192.611 41.8001 204.95 44.6704 217.348C45.6764 222.053 47.7477 235.782 47.363 235.841C47.2151 235.871 46.357 232.823 45.3805 229.036C44.3449 225.248 43.25 220.721 42.6286 217.792Z" fill="#C8BBB6"/>
<path d="M155.81 276.586C152.319 279.013 148.768 281.439 144.773 283.037C140.867 285.019 136.103 285.167 131.961 284.013C127.789 282.859 124.001 280.818 120.302 278.776C116.633 276.645 112.875 274.811 109.265 272.592L103.791 269.366L98.4947 265.904L87.9311 258.951C84.4395 256.613 80.7703 254.571 77.1899 252.352C73.5208 250.31 69.8221 248.387 66.0641 246.464C64.703 245.754 62.7501 244.659 60.59 243.416C58.4595 242.084 56.1219 240.635 53.9323 239.273C51.8018 237.853 49.9672 236.255 48.6061 235.22C47.245 234.125 46.4164 233.415 46.4756 233.355C46.594 233.207 49.6121 235.012 53.518 237.528C57.631 239.747 62.7796 242.499 67.0406 244.688C70.7097 246.73 74.4085 248.801 78.048 250.961C81.5988 253.269 85.2384 255.429 88.7004 257.826L99.1752 264.898L104.442 268.39L109.857 271.586C113.408 273.775 117.255 275.639 120.924 277.711C124.623 279.723 128.351 281.646 132.345 282.682C136.34 283.658 140.542 283.481 144.152 281.498C147.939 279.841 151.313 277.385 154.627 274.9C157.112 272.947 161.995 269.189 166.226 265.875C168.356 264.218 170.398 262.768 171.907 261.762C173.446 260.785 174.274 259.986 174.363 260.075C174.422 260.075 173.771 261.052 172.469 262.087C171.197 263.182 169.422 264.721 167.528 266.466C163.652 269.988 159.036 274.16 155.81 276.586Z" fill="#C8BBB6"/>
<path d="M320.389 117.51C321.602 132.453 320.359 147.278 321.158 162.132C321.247 163.996 320.981 166.215 319.62 167.784C318.377 169.382 316.897 170.506 315.477 171.719L311.039 175.181L308.819 176.927C308.08 177.489 307.222 177.933 306.452 178.436C300.09 182.401 293.64 186.129 287.248 189.976L268.074 201.457C264.908 203.41 261.624 205.185 258.576 207.316L249.403 213.648C237.212 222.199 225.11 230.869 212.386 238.681C207.711 241.315 198.893 246.818 190.992 251.257C187.057 253.476 183.27 255.34 180.458 256.553C179.068 257.204 177.825 257.5 177.026 257.796C176.198 258.062 175.724 258.181 175.724 258.151C175.694 258.062 177.115 257.411 179.423 256.376C180.547 255.754 181.908 255.044 183.447 254.216C184.956 253.328 186.613 252.352 188.389 251.316C195.431 247.025 204.012 241.196 211.38 236.935C224.163 229.449 236.383 221.016 248.663 212.583L257.925 206.31C261.002 204.209 264.316 202.463 267.482 200.51L286.716 189.059C293.107 185.212 299.558 181.454 305.831 177.519C306.6 177.016 307.429 176.572 308.168 176.01L310.329 174.293L314.678 170.831C316.099 169.648 317.548 168.435 318.614 167.073C319.709 165.742 319.916 164.026 319.827 162.221C318.88 147.367 319.856 132.394 318.347 117.777C317.963 112.243 316.276 101.443 315.951 91.8856C315.803 89.5184 315.921 87.2104 315.921 85.1095C316.039 83.0086 316.217 81.1149 316.365 79.517C316.661 77.9191 316.897 76.6468 317.045 75.7591C317.223 74.8714 317.341 74.3684 317.4 74.398C317.43 74.398 317.4 74.8714 317.341 75.6999C317.253 76.5284 317.164 77.712 317.016 79.1915C316.927 80.671 316.927 82.4464 316.868 84.3993C316.927 86.3523 316.986 88.5123 317.134 90.7907C317.785 99.7269 319.797 110.438 320.389 117.51Z" fill="#C8BBB6"/>
<path d="M105.951 181.632L97.37 176.483L88.9369 171.098C83.2853 167.547 77.752 163.819 72.1891 160.12C61.1816 152.456 51.4761 143.135 40.2912 136.152C39.2851 135.531 37.8944 134.436 36.2373 133.43C34.5507 132.453 32.7161 131.359 30.9703 130.352C27.3604 128.695 24.1942 127.364 24.2238 127.157C24.283 126.979 26.9461 127.689 30.5561 128.755C34.0181 130.175 38.3086 132.187 41.4156 134.436C52.4526 142.07 61.8918 151.628 72.8104 159.203C78.3733 162.872 83.9362 166.541 89.6471 169.944L98.2282 175.063L106.987 179.827C108.082 180.448 109.65 181.395 111.396 182.49C113.171 183.526 115.154 184.65 116.988 185.715C120.657 187.875 123.735 189.799 123.646 189.976C123.616 190.035 122.847 189.739 121.604 189.207C120.391 188.645 118.675 187.905 116.811 187.047C114.946 186.159 112.905 185.212 110.981 184.295C109.088 183.407 107.342 182.401 105.951 181.632Z" fill="#C8BBB6"/>
<path d="M281.567 90.4665C258.901 101.711 237.094 114.878 215.404 128.134C204.515 134.733 193.833 141.568 183.684 149.202C178.535 152.901 173.535 156.837 168.268 160.417L160.426 165.862C157.674 167.519 154.923 169.116 152.112 170.625C148.058 172.845 140.068 176.662 133.766 180.982C132.198 182.077 130.629 183.083 129.416 184.237C128.203 185.391 126.871 186.249 126.102 187.255C125.244 188.231 124.563 189.001 124.06 189.563C123.557 190.096 123.261 190.392 123.232 190.392C123.143 190.332 123.883 189.267 125.155 187.462C125.481 187.018 125.836 186.515 126.25 185.983C126.723 185.509 127.226 185.006 127.729 184.474C128.795 183.438 129.919 182.166 131.369 181.13C136.873 176.543 144.744 172.223 151.076 168.85C153.887 167.4 156.639 165.891 159.361 164.352L167.262 159.085C172.558 155.623 177.618 151.777 182.826 148.137C193.064 140.621 203.894 133.786 214.753 127.188C236.472 113.931 258.073 100.497 280.591 88.6615C282.721 87.5371 285.858 85.9392 289.379 84.1934C292.9 82.5068 296.777 80.5243 300.386 78.6601C304.056 76.9143 307.399 75.1389 310.062 74.34C312.666 73.4227 314.294 72.8901 314.323 72.9788C314.323 73.0084 313.998 73.186 313.347 73.5115C312.696 73.8074 311.779 74.2512 310.625 74.7838C308.257 75.7011 305.239 77.5061 301.836 79.3703C295.179 83.3353 286.805 87.6258 281.567 90.4665Z" fill="#C8BBB6"/>
<path d="M295.563 61.7928C291.746 59.1297 287.87 56.5258 284.082 53.8035L272.956 45.3112L250.586 28.445C246.799 25.6931 243.337 22.527 239.638 19.7751C235.939 16.9937 231.945 14.5377 227.506 13.5909C223.068 12.5848 218.481 13.3541 214.191 15.0408C209.841 16.4907 205.699 18.6211 201.674 20.8404C198.715 22.4382 193.093 25.6339 188.27 28.5633C185.844 30.0132 183.595 31.3448 181.908 32.2916C180.251 33.2385 179.156 33.8008 179.127 33.712C179.038 33.5344 182.145 31.2856 186.376 28.2674C190.608 25.2788 195.993 21.5801 200.698 19.0354C204.87 16.9049 209.131 14.8632 213.658 13.4725C218.038 11.8746 223.097 11.1053 227.773 12.2889C232.477 13.3837 236.59 16.0172 240.319 18.8578C244.077 21.6985 247.479 24.8646 251.267 27.6165L273.755 44.246L285.029 52.472C288.876 55.0759 292.811 57.5614 296.687 60.0765C298.137 61.0826 300.238 62.5621 302.605 64.1896C303.789 65.0181 304.973 65.9353 306.304 66.6455C307.636 67.3853 309.026 68.0954 310.328 68.8352C312.932 70.3443 315.27 72.0901 316.217 74.0134C316.72 74.9307 316.809 75.7888 316.809 76.351C316.749 76.9132 316.69 77.2091 316.631 77.2091C316.483 77.2091 316.749 76.0255 315.832 74.5164C314.915 73.0073 312.844 71.5279 310.328 70.2851C307.872 69.0127 304.766 67.9179 302.31 66.1425C299.794 64.5446 297.427 63.0059 295.563 61.7928Z" fill="#C8BBB6"/>
<path d="M59.8206 104.225C49.7897 109.551 39.7291 115.173 31.3256 122.719C29.639 123.873 25.0229 127.453 24.7566 127.187C24.5199 126.98 27.4493 123.133 30.0532 121.15C39.4036 114.493 49.405 108.93 58.785 102.509C60.6492 101.443 66.2417 98.7804 66.4784 99.1059C66.5967 99.313 62.1287 102.864 59.8206 104.225Z" fill="#C8BBB6"/>
<path d="M133.766 268.33C131.843 257.707 131.014 246.966 129.623 236.314C128.647 225.573 125.658 215.305 123.557 204.712C123.262 202.759 122.847 199.001 122.936 195.687C122.877 194.03 123.143 192.521 123.262 191.396C123.409 190.302 123.557 189.621 123.617 189.621C123.824 189.651 123.883 191.87 124.149 194.799C124.475 197.729 125.067 201.398 125.54 204.386C126.99 214.891 129.712 225.454 130.689 236.195C132.079 246.848 133.233 257.559 135.748 267.916C136.074 269.869 136.725 273.804 137.169 277.207C137.701 280.58 138.086 283.51 137.879 283.539C137.731 283.569 136.932 281.024 136.015 277.828C135.157 274.633 134.21 270.875 133.766 268.33Z" fill="#C8BBB6"/>
<path d="M60.3827 105.763L49.5232 111.711C45.9133 113.693 42.2145 115.558 38.7525 117.747C35.3201 119.967 31.4438 121.801 28.9583 124.819C26.4431 127.867 25.1708 131.862 25.3779 135.738C25.3779 137.129 25.4371 139.881 26.0881 142.218C26.6799 144.556 27.6267 146.479 27.4492 146.568C27.3308 146.657 26.2656 145.295 25.082 143.254C24.6677 142.159 24.1055 140.916 23.78 139.614C23.6025 138.283 23.277 136.922 23.3362 135.708C23.4546 131.388 25.1116 127.157 27.9522 123.961C30.8816 120.706 34.7283 119.049 38.1903 116.8C41.6819 114.581 45.3215 112.658 48.8723 110.527C52.4231 108.456 55.8555 106.207 59.2879 104.018C61.8622 102.361 69.5556 97.8037 69.8219 98.0996C70.029 98.3363 63.6968 103.603 60.3827 105.763Z" fill="#C8BBB6"/>
<path d="M317.223 110.972C316.927 106.534 316.365 102.095 316.039 97.6272L315.477 90.9104C315.359 88.6615 315.388 86.4127 315.329 84.1639C315.24 81.915 315.359 79.607 314.915 77.6245C314.471 75.5532 312.932 73.9849 311.157 72.7717C309.382 71.4994 307.37 70.4933 305.505 69.1618C303.671 67.8598 301.836 66.4691 300.061 65.1376C299.439 64.6049 298.552 63.8356 297.575 62.9775C296.569 62.149 295.445 61.2317 294.409 60.4032C292.22 58.9237 290.237 57.7105 290.296 57.5625C290.355 57.385 292.101 57.9768 294.498 58.9828C296.717 60.196 299.41 61.9418 301.363 63.5989C303.049 65.0784 304.736 66.4987 306.452 67.8894C308.169 69.2506 310.121 70.3454 311.956 71.7657C313.791 73.0972 315.596 74.991 316.039 77.4173C316.513 79.7845 316.335 82.0334 316.424 84.2526C316.483 86.4719 316.483 88.6911 316.631 90.9104L317.371 97.5681C317.874 102.007 318.673 106.415 319.265 110.854C319.413 112.541 319.531 115.855 319.531 118.725C319.501 121.565 319.294 123.992 319.117 124.051C318.969 124.081 318.643 121.861 318.288 119.11C317.844 116.269 317.401 113.073 317.223 110.972Z" fill="#C8BBB6"/>
<path d="M111.011 214.329C105.656 211.251 100.3 208.174 94.9441 205.097L79.0839 195.421C73.8169 192.166 68.757 188.586 63.5492 185.272L55.7967 180.241L47.837 175.596C46.8901 175.004 45.529 174.116 43.9903 173.14C42.4221 172.252 40.6762 171.275 39.0488 170.358C35.8235 168.494 33.0716 166.837 33.1308 166.689C33.19 166.512 35.5868 167.429 38.7825 168.79C41.9782 170.121 45.9728 171.867 48.9022 173.85L56.714 178.88L64.3186 184.177C69.4376 187.639 74.4383 191.249 79.7053 194.504L95.6247 203.943C101.099 206.813 106.573 209.683 112.017 212.524C114.059 213.619 117.965 216.015 121.279 218.087C124.593 220.158 127.759 221.371 127.671 221.637C127.641 221.697 126.901 221.519 125.688 221.164C124.445 220.868 122.847 220.217 121.102 219.418C117.551 217.82 113.586 215.749 111.011 214.329Z" fill="#C8BBB6"/>
<path d="M287.337 127.897C276.596 134.258 265.855 140.591 255.113 146.982C244.431 153.492 233.75 160.031 223.068 166.541C212.504 173.258 201.526 179.324 190.696 185.597C179.837 191.781 168.741 197.61 158.147 204.09C154.301 206.458 146.933 210.955 140.63 215.275C137.434 217.347 134.357 219.093 131.99 220.158C130.777 220.661 129.8 221.045 129.06 221.164C128.35 221.341 127.936 221.401 127.936 221.371C127.906 221.223 129.179 220.957 131.073 219.891C132.996 218.915 135.511 217.288 138.322 215.275C141.163 213.293 144.21 210.867 147.495 208.618C150.779 206.428 154.064 204.179 157.112 202.345C167.971 196.072 179.097 190.479 190.075 184.443C200.964 178.318 211.942 172.341 222.505 165.624C243.78 152.456 265.085 139.318 286.301 126.18C290.355 123.784 298.255 119.167 305.12 115.114C308.523 113.042 311.837 111.297 314.175 109.995C316.542 108.722 318.051 107.953 318.11 108.012C318.14 108.042 317.814 108.278 317.223 108.693C316.631 109.077 315.802 109.64 314.767 110.35C312.666 111.74 309.766 113.545 306.57 115.705C300.179 119.996 292.397 124.819 287.337 127.897Z" fill="#C8BBB6"/>
<path d="M219.576 191.249C207.621 198.528 194.986 204.742 183.269 212.406L165.456 223.62C159.538 227.467 153.501 230.87 147.524 234.568C145.335 235.841 141.014 238.06 137.582 240.486C135.866 241.67 134.386 242.942 133.351 243.919C132.374 244.955 131.723 245.576 131.664 245.546C131.546 245.487 132.966 242.854 135.925 240.191C138.825 237.498 143.027 234.805 146.489 232.823C152.555 229.449 158.828 226.135 164.746 222.496L182.647 211.488C194.424 203.795 206.882 197.344 218.451 189.533C220.67 188.112 225.079 185.508 229.104 183.496C233.098 181.425 236.501 179.738 236.619 179.916C236.649 179.975 235.939 180.508 234.785 181.307C233.601 182.076 232.003 183.141 230.198 184.325C226.648 186.633 222.357 189.444 219.576 191.249Z" fill="#C8BBB6"/>
<path d="M307.517 134.999C298.226 140.592 289.231 146.894 279.644 152.309C270.205 157.783 261.298 164.057 252.569 170.655C250.971 171.809 247.687 173.821 244.787 175.478C241.917 177.135 239.431 178.496 239.342 178.348C239.135 177.993 246.325 172.549 251.415 168.968C260.469 162.932 269.642 156.866 279.141 151.333C288.639 145.977 297.427 139.438 306.452 133.283C308.228 132.247 311.838 130.383 314.974 128.845C318.229 127.424 320.981 126.418 321.099 126.537C321.217 126.655 318.762 128.134 315.95 129.762C313.11 131.567 309.737 133.697 307.517 134.999Z" fill="#C8BBB6"/>
<path d="M114.917 237.232C104.265 231.669 94.293 224.982 84.1437 218.649L80.3266 216.282L76.4207 214.092L68.5794 209.743C63.2532 207.02 57.8974 204.269 52.5417 201.753C50.5887 200.836 46.89 198.854 43.783 196.871C42.1852 195.954 40.9424 194.741 39.966 194.001C39.0191 193.202 38.4569 192.699 38.4865 192.64C38.6048 192.492 40.7945 193.705 43.6055 195.362C45.085 196.072 46.7716 196.871 48.4583 197.67C50.1745 198.439 51.8907 199.209 53.4294 199.948C58.6668 202.819 63.9338 205.689 69.2008 208.589L76.9829 213.116L80.8888 215.365L84.7059 217.762C94.8552 224.123 105.005 230.515 115.834 235.456C117.817 236.522 121.664 238.593 125.037 240.398C128.469 242.203 130.925 244.481 130.777 244.6C130.659 244.748 128.262 243.091 124.889 241.729C121.486 240.398 117.432 238.563 114.917 237.232Z" fill="#C8BBB6"/>
<path d="M194.75 238.416C189.69 241.197 184.838 244.186 179.955 247.263L172.735 252.057C170.339 253.654 167.676 254.868 165.16 256.318C160.071 259.158 155.011 261.792 150.099 264.78C147.762 266.378 145.601 268.331 143.086 269.929C140.63 271.527 137.612 272.829 134.417 272.533C131.931 272.385 128.439 270.373 125.214 269.071C123.616 268.361 122.137 267.739 121.042 267.384C119.917 266.97 119.326 267.029 119.296 267.029C119.178 266.94 119.829 266.556 120.864 266.733C121.9 266.822 123.291 267.147 124.829 267.591C126.398 268.035 128.114 268.597 129.83 269.189C130.688 269.485 131.517 269.781 132.345 270.047C133.144 270.343 133.913 270.343 134.653 270.521C137.228 270.905 139.861 269.988 142.258 268.538C144.684 267.148 146.903 265.283 149.359 263.685C154.39 260.815 159.597 258.152 164.598 255.371C167.084 253.95 169.717 252.737 172.084 251.08L179.186 246.168C183.98 242.973 188.803 239.718 193.685 236.67C197.532 234.599 208.391 228.503 208.658 228.799C208.746 228.917 206.468 230.634 203.568 232.705C200.727 234.835 197.118 237.025 194.75 238.416Z" fill="#C8BBB6"/>
<path d="M302.547 168.377C300.889 169.176 299.292 170.063 297.694 170.921L293.048 173.821L283.609 179.68L264.819 191.457C252.303 199.357 239.875 207.258 227.684 215.661C225.406 217.111 220.908 219.567 217.239 222.053C215.404 223.296 213.866 224.627 212.771 225.633C211.853 226.758 211.203 227.497 211.143 227.438C211.055 227.409 211.41 226.728 212.061 225.574C212.357 224.953 212.948 224.45 213.511 223.769C214.073 223.088 214.783 222.378 215.582 221.727C218.689 218.946 223.068 216.105 226.619 213.886C239.135 206.104 251.681 198.292 264.257 190.48C270.53 186.545 276.744 182.55 282.928 178.496L292.16 172.43L296.806 169.324C298.404 168.377 300.031 167.4 301.629 166.542C304.115 165.211 309.056 163.08 313.021 160.624C317.046 158.257 319.709 155.18 319.916 155.328C319.975 155.357 319.442 156.097 318.495 157.31C318.052 157.931 317.46 158.612 316.69 159.233C315.921 159.884 315.181 160.713 314.235 161.364C310.506 164.264 305.624 166.749 302.547 168.377Z" fill="#C8BBB6"/>
<path d="M107.46 260.134C103.052 257.738 98.6723 255.163 94.2634 252.678L81.4806 244.452C77.2492 241.7 73.0179 238.978 68.5498 236.61L61.9512 232.941C59.7912 231.58 57.4832 230.337 55.4415 228.887C53.9916 227.822 51.1509 225.603 48.9909 223.384C47.9256 222.289 46.89 221.401 46.0615 220.809C45.2329 220.277 44.6707 219.892 44.7003 219.833C44.7003 219.685 46.9196 220.158 49.2276 221.904C50.352 222.733 51.5948 223.68 52.8671 224.597C54.1987 225.485 55.5006 226.402 56.6547 227.23C58.6076 228.828 60.7085 230.071 62.7502 231.491L69.2304 235.427C73.6097 237.942 77.841 240.753 82.102 243.505C86.3629 246.257 90.5943 248.92 94.9144 251.494C99.3825 253.832 103.821 256.169 108.407 258.3C111.81 259.986 121.101 265.993 120.894 266.319C120.746 266.615 111.751 262.294 107.46 260.134Z" fill="#C8BBB6"/>
<path d="M170.221 67.2079C170.516 68.717 172.676 69.2792 174.511 69.0129C176.405 68.7466 178.269 68.0069 179.926 67.0008C180.577 66.7641 182.678 66.4978 182.826 66.7937C182.974 67.1191 181.761 68.4803 180.666 68.8946C178.654 69.3384 176.671 69.8119 174.629 70.1078C173.594 70.1965 172.529 70.3149 171.434 70.0781C170.368 69.871 169.096 69.3088 168.416 68.1844C168.12 67.7701 168.12 66.8232 168.238 66.1427C168.445 65.4325 168.711 64.8999 168.889 64.8999C169.037 64.8999 169.274 65.3733 169.481 65.9059C169.747 66.409 170.043 66.9416 170.221 67.2079Z" fill="#C8BBB6"/>
<path d="M193.773 41.6133C184.246 44.1285 178.002 53.3901 175.339 62.3558C175.043 63.1548 174.51 64.6935 174.274 66.0842C174.007 67.4749 174.155 68.7177 173.978 68.7768C173.83 68.836 173.209 67.9188 172.972 66.4393C172.705 64.9894 172.913 63.1252 173.356 61.7345C175.25 56.9409 178.032 52.8279 181.079 48.8629C182.588 46.8507 184.453 45.1049 186.435 43.5367C188.477 42.0572 190.696 40.7552 192.945 39.69C194.72 38.9206 200.047 37.9442 200.165 38.2993C200.342 38.6248 195.874 40.7256 193.773 41.6133Z" fill="#C8BBB6"/>
<path d="M164.362 91.3243C162.705 90.407 161.521 89.0755 160.456 87.6847C159.243 86.3828 158.533 84.8145 157.704 83.3054C156.254 80.1985 155.159 76.914 154.863 73.4816C154.627 70.0788 154.893 66.5576 156.343 63.3323C157.142 61.764 158.237 60.2845 159.657 59.1601C161.018 57.9765 163.089 57.2367 165.042 57.5918C166.492 57.8285 168.593 59.1897 170.221 60.2845C171.878 61.4089 173.446 61.9711 173.446 62.1487C173.446 62.2966 171.937 62.3558 170.102 61.6752C168.268 61.0243 166.196 59.8998 164.628 59.6039C161.935 58.805 158.976 61.2906 157.527 63.9537C156.106 66.7943 155.722 70.1675 155.958 73.4224C156.225 76.6773 157.379 79.8434 158.888 82.7136C159.746 84.1044 160.515 85.5543 161.699 86.6491C162.734 87.8327 163.948 88.9571 165.309 89.5489C166.256 90.1407 168.297 90.7917 170.457 90.6733C172.588 90.6142 174.452 90.5845 174.482 90.7917C174.482 90.9396 172.913 91.4131 170.872 91.9161C169.836 92.1232 168.652 92.36 167.439 92.2416C166.847 92.212 166.256 92.1232 165.752 91.9457C165.22 91.7385 164.717 91.561 164.362 91.3243Z" fill="#C8BBB6"/>
<path d="M184.927 59.84C188.714 60.846 192.739 62.7694 194.632 66.5569C195.697 68.3323 195.964 70.4036 195.964 72.3861C195.845 74.3686 195.402 76.3215 194.751 78.1561C193.449 81.8548 191.762 85.3169 189.454 88.5422C188.27 90.1696 186.525 91.4716 184.601 92.1817L183.122 92.6552L181.613 92.8623C180.577 93.0694 179.601 92.9806 178.624 93.0102C177.174 92.9511 174.274 92.2409 172.262 90.9389C172.174 90.9094 172.351 90.9686 172.233 90.9094C171.079 90.288 170.339 89.6666 169.688 89.2227C169.392 89.0156 169.096 88.8381 169.007 88.7789C169.126 88.6901 169.096 88.9268 169.067 88.8677C169.037 88.8677 169.007 88.8381 168.978 88.7789C168.978 88.7197 168.741 88.6309 169.007 88.5126C169.303 88.483 169.599 88.5718 169.954 88.6901C170.664 88.8973 171.73 89.4003 172.706 89.7258C172.647 89.6962 172.854 89.785 172.825 89.7554C174.718 90.4655 176.878 90.9094 178.772 90.9981C179.689 91.0277 180.636 91.2052 181.494 91.0573L182.826 90.9685L184.098 90.643C185.785 90.14 187.294 89.134 188.418 87.7137C190.697 84.7843 192.502 81.3518 193.715 77.801C194.366 76.0256 194.751 74.1911 194.81 72.3565C194.751 70.5515 194.484 68.6874 193.478 67.1783C191.762 63.9826 188.034 62.4439 184.542 61.8225C183.211 61.5562 180.547 60.994 178.18 61.0236C175.783 61.0827 173.801 61.7633 173.683 61.5266C173.653 61.4674 174.067 61.2307 174.777 60.846C175.488 60.4318 176.523 60.1063 177.736 59.8104C180.104 59.3073 183.063 59.4553 184.927 59.84Z" fill="#C8BBB6"/>
<path d="M249.077 35.6357C245.348 31.4931 241.235 27.6761 236.708 24.4212C232.181 21.255 227.091 18.4144 221.765 17.8226C220.818 17.6746 219.013 17.3788 217.386 17.5267C215.788 17.6451 214.427 18.1777 214.338 18.0002C214.249 17.8818 215.137 16.9941 216.676 16.3431C218.214 15.6921 220.404 15.5146 222.061 15.7809C227.861 17.1125 232.684 20.2786 237.329 23.5039C241.916 26.818 246.295 30.4279 250.497 34.1858C252.065 35.6653 255.616 40.7548 255.261 41.0211C255.083 41.169 250.97 37.4407 249.077 35.6357Z" fill="#C8BBB6"/>
<path d="M252.391 45.8738C247.923 41.8496 242.774 38.8018 237.685 35.3102C237.271 34.9551 236.561 34.0674 236.087 33.1797C235.584 32.292 235.614 31.286 235.762 31.3156C235.998 31.3156 236.294 31.789 236.975 32.2329C237.596 32.7063 238.425 33.2685 239.046 33.8011C243.1 38.0917 248.367 41.1986 253.604 44.2463C254.581 44.8677 256.652 47.6788 256.267 47.9747C256.06 48.093 253.545 46.6727 252.391 45.8738Z" fill="#C8BBB6"/>
<path d="M58.2813 72.7707C58.8435 68.8648 59.3762 64.9293 59.82 61.0827L60.5302 55.0759L60.6781 53.8035C60.9444 53.6556 61.4474 53.8627 61.8321 53.8627L63.5483 54.0994L66.5073 54.5137C74.319 55.7861 82.042 57.3543 89.7946 58.893C93.6708 59.6327 97.5471 60.4613 101.394 61.4081C103.317 61.8816 105.27 62.2663 107.164 62.7989L112.875 64.4855C120.42 66.7639 127.966 69.0423 135.511 71.2912C136.872 71.7054 138.914 72.5043 141.015 73.5104C143.145 74.5165 145.394 75.7296 147.554 76.6765C149.685 77.6826 151.756 78.3335 153.324 78.7182C154.892 78.9549 155.898 79.0733 155.898 79.1621C155.898 79.2508 155.099 79.31 153.679 79.3692C152.288 79.31 150.365 78.9845 148.205 78.3336C143.944 77.002 139.032 74.4573 134.83 73.2441C119.917 68.1842 105.093 62.7988 89.5578 59.9878C81.8349 58.4787 74.0527 56.9696 66.3002 55.8452L63.4004 55.4902C62.2464 55.431 61.8025 55.1351 61.9505 55.5197L61.4474 61.2306L60.323 72.9482C59.9384 75.8776 59.1986 81.618 58.5772 86.5891C57.5712 91.5602 56.6539 95.7324 56.4763 95.7028C56.4172 95.6732 56.4763 94.6968 56.5947 93.1285C56.7427 91.5602 56.9794 89.4002 57.2161 87.033C57.5712 82.2394 57.7487 76.5286 58.2813 72.7707Z" fill="#C8BBB6"/>
<path d="M137.227 114.818C126.545 111.327 115.686 108.249 104.59 106.355C99.0268 105.527 93.4639 104.61 87.8418 103.663C82.3085 102.509 76.8048 101.355 71.2715 100.171C67.336 99.0468 56.0623 96.4133 56.0919 96.0582C56.1214 95.8806 58.459 96.0286 61.5956 96.4133C64.7617 96.7092 68.638 97.4193 71.7449 98.1887C77.1894 99.6386 82.634 101.088 88.1081 102.331C93.6118 103.426 99.1451 104.432 104.767 105.261C115.923 107.154 126.9 109.965 137.79 112.836C139.89 113.457 143.648 114.729 147.17 115.588C150.72 116.505 153.413 118.221 153.295 118.339C153.176 118.517 150.72 117.392 147.317 116.919C143.944 116.534 139.742 115.587 137.227 114.818Z" fill="#C8BBB6"/>
<path d="M160.159 91.8274C159.479 93.5436 158.976 95.3486 158.473 97.1832C157.97 98.9882 157.407 100.852 157.082 102.657C156.401 106.326 156.342 110.114 155.721 113.961C155.632 114.316 155.484 114.789 155.247 115.351C154.981 115.884 154.655 116.476 154.36 116.979C153.62 117.985 152.821 118.665 152.732 118.547C152.614 118.429 152.791 117.6 153.117 116.683C153.265 115.647 153.561 114.464 153.768 113.458C154.951 109.996 155.366 106.208 156.046 102.45L157.2 96.8873C157.555 95.0231 157.822 93.159 158.236 91.2652C158.473 89.7857 160.988 86.2349 161.284 86.442C161.52 86.6492 160.455 90.0816 160.159 91.8274Z" fill="#C8BBB6"/>
<path d="M174.274 32.4396C174.066 31.5519 174.155 31.907 174.155 31.7886C174.155 31.7294 174.155 31.759 174.096 31.759C174.066 31.7886 174.155 31.6703 173.859 31.9958L173.534 32.3213L172.942 32.7947L170.516 34.7772C170.249 35.1323 170.309 34.5405 170.249 34.363L170.131 33.564L169.924 31.9662C169.835 31.3448 169.776 31.1377 169.717 30.8418L169.539 29.9541C169.273 28.8001 168.918 27.646 168.474 26.5216C167.645 24.2728 166.432 22.1423 164.805 20.4853C164.598 20.2782 164.42 20.0414 164.183 19.8639L163.651 19.4496L163.414 19.2721C163.355 19.2721 163.325 19.4201 163.296 19.5088L163.029 20.1006C162.911 20.3965 162.763 20.6628 162.556 21.0179C162.29 21.4322 162.023 21.8464 161.698 22.2311C161.402 22.5566 161.076 23.2963 160.81 22.5566L158.325 18.917C157.614 17.911 156.875 16.9345 156.105 15.9876C154.537 14.1531 152.85 12.2889 150.838 11.1349C149.803 10.6023 148.797 10.2176 147.85 10.7798C146.903 11.2829 146.134 12.2297 145.483 13.2062C144.832 14.2122 144.269 15.3071 143.707 16.4019L142.879 18.0589C142.553 18.6803 142.08 19.6864 141.606 20.3669C140.512 18.7099 139.269 18.1181 139.15 17.9998L137.405 20.219C136.754 21.1067 135.984 21.9056 135.452 22.8821L133.824 25.7523C132.611 27.6165 131.99 29.7469 131.191 31.759L130.599 33.2977C130.451 33.8303 130.362 34.3629 130.244 34.8956L129.474 38.6239L129.179 40.0146L129.119 40.3697C129.09 40.4585 129.09 40.6952 129.001 40.5177L128.528 40.0146L126.723 38.0913L126.22 37.5587C126.072 37.2924 126.072 37.7066 126.012 37.8546C125.924 37.9433 125.894 39.334 125.835 40.3401C125.805 41.4053 125.924 42.5002 125.983 43.595C126.397 47.9447 127.403 52.2648 128.557 56.4962C128.764 57.3247 129.031 58.3012 129.415 59.3664C129.711 60.4612 130.273 61.5857 130.865 62.7989C132.138 65.1365 133.824 67.6516 135.866 69.5749C137.789 71.587 139.979 73.037 141.577 74.0726C143.263 74.9603 144.329 75.5521 144.299 75.6409C144.269 75.7296 143.352 75.4337 141.784 74.8419C140.275 74.2205 138.203 73.0961 136.073 71.4982C134.031 69.8116 131.753 67.7108 130.125 65.1069C129.208 63.8641 128.587 62.4438 127.936 61.1122C127.403 59.6919 126.871 58.3012 126.575 56.9992C125.539 52.6495 124.651 48.2406 124.326 43.7133C124.326 42.5593 124.178 41.435 124.267 40.2809C124.385 39.0974 124.296 38.2097 124.888 36.168C125.154 35.4874 125.125 33.6824 125.953 35.1027L127.729 37.026C128.143 37.4403 128.32 37.8842 128.38 37.322L129.001 34.5405C129.119 33.9783 129.238 33.4161 129.386 32.8835L130.007 31.3152C130.865 29.2143 131.546 27.0543 132.789 25.1605L134.475 22.2311C135.008 21.225 135.836 20.4261 136.487 19.5088L138.884 16.4611C140.334 17.408 141.281 18.0885 141.37 18.3844C141.518 18.266 141.636 17.9701 141.843 17.5559L142.672 15.8989C143.234 14.7744 143.796 13.65 144.506 12.5848C145.216 11.5196 146.015 10.4543 147.288 9.77373C147.939 9.47783 148.678 9.27073 149.418 9.38909C150.158 9.44827 150.69 9.8625 151.341 10.0992C153.649 11.4012 155.366 13.2949 156.993 15.1887C157.792 16.1356 158.561 17.1416 159.301 18.1477L161.017 20.5741C161.106 20.7812 161.165 20.6036 161.224 20.5149C161.284 20.4261 161.343 20.3373 161.402 20.2486C161.491 20.071 161.668 19.7751 161.757 19.5088L162.23 18.3844L162.526 17.6447L162.674 17.2896C162.734 17.1712 162.763 16.9937 162.881 17.1416L164.154 18.1181L165.101 18.7987C165.367 19.0058 165.574 19.2425 165.811 19.4793C167.675 21.3138 169.007 23.5626 169.953 25.9298C170.456 27.1134 170.841 28.3266 171.167 29.5398L171.551 31.1376C171.581 31.256 171.581 31.4927 171.67 31.4927C172.143 31.0489 171.64 31.5815 173.563 29.5694C174.333 28.9184 175.487 26.9063 175.516 28.9776L176.256 31.9366C176.966 35.2802 179.245 42.1451 178.327 48.359C177.824 51.4067 176.907 54.0402 176.286 55.9636C175.753 57.9165 175.368 59.1593 175.28 59.1297C175.22 59.1297 175.368 57.9461 175.664 56.0819C176.019 54.2178 176.641 51.673 177.025 48.8916C177.706 43.3287 175.309 36.8189 174.274 32.4396Z" fill="#C8BBB6"/>
<path d="M151.164 26.3149C150.868 33.5348 149.448 40.5476 149.803 47.6491C150.069 51.1703 150.099 54.7507 150.868 58.2128C151.223 59.929 151.401 61.7044 151.934 63.391L153.531 68.4213C154.153 70.8772 156.49 77.8012 156.135 77.9788C155.869 78.1267 152.792 72.9485 151.578 69.0131L150.336 63.7461C149.892 62.0002 149.803 60.1953 149.537 58.4199C148.886 54.8691 148.945 51.2591 148.679 47.7083C148.324 40.518 149.448 33.3572 149.093 26.3444C149.093 25.6934 149.123 24.717 149.182 23.6222C149.182 22.5273 149.182 21.3438 149.182 20.2193C149.063 18.0001 148.886 16.0176 149.093 15.9584C149.211 15.9288 149.833 17.6154 150.424 19.7755C150.602 20.8703 150.809 22.0835 150.987 23.2375C151.135 24.3619 151.135 25.4567 151.164 26.3149Z" fill="#C8BBB6"/>
<path d="M132.701 55.1052C136.843 60.1059 143.028 63.3016 149.182 65.6392C150.247 66.1719 153.088 68.2431 152.94 68.5095C152.792 68.8349 149.981 68.3023 148.265 67.4442C142.554 63.8934 136.577 60.9049 131.221 56.496C130.097 55.697 128.706 51.9983 129.032 51.9095C129.15 51.8503 129.83 52.383 130.541 53.0635C130.896 53.4186 131.28 53.8033 131.635 54.1583C132.05 54.543 132.405 54.8389 132.701 55.1052Z" fill="#C8BBB6"/>
<path d="M170.279 48.4487C164.687 53.0056 159.213 57.8879 155.07 63.6875C154.685 64.1906 153.768 65.0191 153.117 65.818C152.762 66.2027 152.525 66.5578 152.377 66.8241C152.229 67.0904 152.318 67.2383 152.229 67.3271C152.2 67.3863 151.874 67.3271 151.786 66.9129C151.638 66.4986 151.726 65.9956 151.845 65.4334C152.141 64.3681 152.821 63.1845 153.502 62.3856C158.739 57.237 164.154 52.4434 168.859 46.9693C169.865 46.052 173.09 43.8623 173.357 43.9807C173.652 44.2174 171.522 47.2652 170.279 48.4487Z" fill="#C8BBB6"/>
<path d="M134.505 40.1924C136.458 45.8145 141.104 50.7855 146.489 53.3894C146.962 53.6558 147.791 54.3067 148.531 54.8097C149.27 55.3424 149.981 55.7566 149.951 55.9342C149.921 56.3188 147.022 56.2005 145.453 55.1352C140.305 51.1702 136.014 46.6134 132.641 41.0209C132.404 40.4291 132.108 39.2455 132.138 38.1802C132.138 37.115 132.375 36.2273 132.552 36.2273C132.7 36.2273 132.996 36.9375 133.351 37.766C133.706 38.6241 134.239 39.5414 134.505 40.1924Z" fill="#C8BBB6"/>
<path d="M165.692 36.3463C163.651 38.9798 161.461 41.4062 159.508 44.0692C157.614 46.8211 155.247 49.2475 153.501 51.9105C153.176 52.384 152.318 53.1238 151.726 53.8339C151.045 54.5145 150.72 55.2246 150.513 55.2246C150.365 55.2246 150.217 54.4553 150.483 53.4492C150.749 52.4728 151.312 51.4075 151.933 50.6382C154.3 48.2118 156.786 46.1109 158.65 43.4183C160.573 40.7552 162.556 38.0921 164.035 35.1923C164.716 34.1862 167.349 31.6415 167.705 31.8486C167.912 31.9966 166.58 35.0443 165.692 36.3463Z" fill="#C8BBB6"/>
<path d="M141.606 28.9487C141.961 31.2272 142.76 33.4464 143.944 35.4585C145.068 37.4706 146.903 38.9797 148.589 40.8438C148.856 41.2285 149.211 42.057 149.359 42.856C149.477 43.6549 149.418 44.3354 149.27 44.365C149.092 44.3946 148.678 44.01 148.264 43.5365C147.791 43.0631 147.287 42.5305 146.903 41.9979C145.897 39.9562 144.21 38.1512 142.997 36.0207C141.754 33.9494 140.63 31.7894 139.624 29.5405C139.298 28.6528 139.565 25.901 139.92 25.8418C140.245 25.7826 141.251 27.9131 141.606 28.9487Z" fill="#C8BBB6"/>
<path d="M159.005 26.9368C155.573 30.5468 152.436 34.6006 151.046 39.2758C150.602 40.0155 149.359 42.2052 149.004 42.146C148.679 42.0868 148.531 39.8084 149.182 38.4473C151.845 34.0088 154.892 30.0733 157.348 25.694C157.911 24.9543 160.1 23.2085 160.455 23.4452C160.692 23.6228 159.745 25.9899 159.005 26.9368Z" fill="#C8BBB6"/>
<path d="M141.282 123.784C134.831 123.488 128.38 122.867 121.989 122.512C118.793 122.364 115.568 122.157 112.343 122.098L102.667 121.979C96.2161 121.92 89.7655 121.92 83.2853 121.535C80.0305 121.506 76.8347 121.032 73.639 120.707L68.8455 120.204C68.017 120.056 67.2476 120.233 66.064 119.523C65.4426 119.05 65.2355 118.399 65.1172 117.896C65.058 117.422 64.9988 116.919 65.0284 116.535C65.058 115.321 65.2355 113.605 65.3835 111.682C65.6794 109.788 66.0344 107.687 66.4191 105.794C67.2476 101.976 67.7802 98.7216 67.9874 98.7216C68.1353 98.7216 68.1649 101.414 67.8394 104.995C67.6915 106.77 67.5139 108.782 67.3364 110.765C67.1884 112.747 67.1884 114.789 67.0701 116.535C67.0109 117.304 67.1293 117.985 67.218 117.985C67.3956 118.162 68.3425 118.31 69.0822 118.399L73.8462 119.079C77.0419 119.494 80.2376 120.085 83.4333 120.204C89.8247 120.707 96.2753 120.825 102.726 120.855L112.402 120.914L122.107 121.18C128.558 121.387 134.979 121.772 141.37 121.772C142.583 121.861 144.329 121.772 146.341 121.831C148.324 121.802 150.543 122.038 152.555 121.861C156.609 121.595 160.16 121.447 160.189 121.624C160.189 121.683 159.42 121.89 158.148 122.127C156.875 122.364 155.1 122.689 153.117 123.044C151.165 123.488 148.975 123.459 146.904 123.607C144.773 123.695 142.791 123.903 141.282 123.784Z" fill="#C8BBB6"/>
<path d="M162.882 93.3068C162.349 97.2126 161.787 100.971 161.521 104.876C161.136 108.782 160.426 112.629 160.544 116.387C160.544 116.712 160.485 117.215 160.396 117.778C160.367 118.31 160.308 118.902 160.248 119.494C160.219 120.589 160.308 121.595 160.13 121.654C159.982 121.713 159.509 121.062 159.006 119.938C158.68 118.843 158.414 117.393 158.503 116.269C159.006 112.303 160.012 108.546 160.396 104.758C160.663 100.941 160.929 96.9759 160.811 93.1884C161.018 91.7681 161.521 87.6255 161.965 87.5663C162.201 87.5367 163.119 91.4722 162.882 93.3068Z" fill="#C8BBB6"/>
<path d="M115.154 43.0034L109.532 39.1272C107.697 37.766 105.833 36.3457 104.028 34.955C100.477 32.0848 97.0446 29.037 93.198 26.6698L90.6828 25.1311C90.5941 25.1903 90.5053 25.3383 90.4165 25.427L89.9135 26.0484L88.8778 27.38C87.5167 29.1554 86.3627 31.1379 85.1791 33.0612C82.9007 36.9967 80.711 41.0209 78.2255 44.8972C77.2786 46.2583 75.2961 48.7734 73.6095 50.9335C71.982 53.1231 70.6801 55.0761 70.5025 55.0169C70.3546 54.9281 71.0351 53.1823 72.1595 50.8447C73.4023 48.5959 75.0594 45.8441 76.5389 43.7432C79.202 40.1332 81.5691 36.2273 84.0251 32.351C85.2975 30.4573 86.5106 28.4748 87.931 26.6698L89.0258 25.3086L89.588 24.5985C89.8543 24.273 90.1206 23.8587 90.4165 23.6516L93.7306 25.7229C97.666 28.1493 101.158 31.1675 104.797 33.8897C106.632 35.2213 108.496 36.4936 110.36 37.766L116.219 41.2872C119.178 43.033 126.753 49.6907 126.516 49.9275C126.339 50.1938 118.852 45.2818 115.154 43.0034Z" fill="#C8BBB6"/>
<path d="M115.39 106.385C108.259 104.728 101.276 102.686 93.9968 101.769C86.7473 100.585 79.5865 99.0168 72.4257 97.7444C71.1238 97.4485 68.6678 96.7384 66.567 95.8507C65.5313 95.4364 64.5844 94.9038 63.9335 94.4895C63.3121 93.9865 62.957 93.661 63.0162 93.6018C63.1641 93.4538 64.4957 94.0753 66.4486 94.4599C68.4311 94.8446 70.8871 95.3476 72.8992 95.7619C79.9416 97.6556 87.0136 99.5198 94.2039 100.703C101.453 101.621 108.644 103.366 115.834 104.402C117.166 104.639 119.799 105.467 122.018 106.266C124.208 107.213 125.983 108.101 125.924 108.278C125.865 108.426 124.09 108.071 121.93 107.568C119.71 107.154 117.077 106.681 115.39 106.385Z" fill="#C8BBB6"/>
<path d="M118.438 64.6333C116.042 63.5681 113.497 62.7395 110.982 61.911C108.437 61.1121 105.892 60.254 103.318 59.6622C98.1396 58.4194 92.8431 57.5909 87.6056 56.2002C86.6588 55.9338 84.9426 55.0758 83.4926 54.2473C82.1019 53.3004 81.0071 52.4423 81.0959 52.2943C81.1846 52.1464 82.3091 52.4127 83.6702 52.8861C85.0905 53.2708 86.8067 53.8034 88.2566 54.2473C93.139 56.1706 98.3764 57.3246 103.584 58.5674C106.218 59.1592 108.762 59.9581 111.366 60.6091C113.97 61.2896 116.574 61.8814 119.148 62.6804C121.19 63.1538 126.073 66.675 125.836 66.9413C125.629 67.2964 120.894 65.2547 118.438 64.6333Z" fill="#C8BBB6"/>
<path d="M124.593 63.1245C123.231 62.4143 121.752 61.8225 120.272 61.2603C118.823 60.6093 117.313 59.9583 115.893 59.3961C112.964 58.3013 109.857 57.6503 106.779 56.6443C106.217 56.4371 105.27 55.7566 104.501 55.1056C103.761 54.3658 103.258 53.6557 103.377 53.5373C103.495 53.419 104.205 53.5965 104.974 53.8924C105.833 54.0995 106.779 54.4546 107.608 54.7801C110.301 56.2892 113.319 57.2657 116.307 58.3605C117.846 58.9523 119.266 59.4849 120.746 59.9879L125.362 61.2307C126.575 61.5266 129.327 64.0122 129.09 64.2785C128.854 64.5448 126.042 63.5091 124.593 63.1245Z" fill="#C8BBB6"/>
<path d="M201.319 131.182C190.252 137.218 179.896 144.586 169.51 151.954L161.639 157.34L157.703 160.032L153.59 162.488C148.175 165.921 142.405 168.613 136.872 171.631C134.889 172.667 130.984 174.679 128.173 177.165C126.752 178.378 125.628 179.71 124.918 180.745C124.296 181.84 123.852 182.55 123.793 182.521C123.675 182.521 124.178 179.739 126.604 176.958C128.942 174.147 132.7 171.483 135.955 169.797C141.695 167.015 147.524 164.559 152.939 161.305L157.052 158.967L161.017 156.333L168.918 151.007C179.274 143.669 189.453 136.035 200.313 129.377C202.384 128.134 206.438 125.915 210.137 124.169C213.865 122.483 217.061 121.151 217.12 121.329C217.179 121.447 214.486 123.104 211.143 125.057C207.829 127.128 203.864 129.584 201.319 131.182Z" fill="#C8BBB6"/>
<path d="M202.03 123.607C190.194 130.205 177.707 136.656 168.504 146.628C167.646 147.515 165.693 149.025 163.977 150.208C162.113 151.273 160.456 152.013 160.397 151.865C160.308 151.717 161.373 150.682 162.764 149.498C164.095 148.166 165.753 146.48 167.084 145.119C177.411 135.857 189.72 129.525 201.024 121.802C203.184 120.352 210.315 117.778 210.433 118.103C210.552 118.458 204.752 121.891 202.03 123.607Z" fill="#C8BBB6"/>
<path d="M86.925 166.157C79.5571 160.476 71.775 155.061 65.206 148.225C58.7554 141.449 52.867 133.874 44.7594 129.554C43.3687 128.666 40.5872 127.187 37.9241 126.388C35.2906 125.559 32.8643 125.441 32.8643 125.234C32.8643 125.116 34.8172 124.701 37.5099 124.968C40.173 125.234 43.4574 126.358 45.795 127.779C53.9914 132.957 59.5839 140.769 66.0049 147.456C72.4851 154.173 80.356 159.292 88.1086 164.5C89.5585 165.506 92.2216 167.725 94.4704 169.708C96.6897 171.779 98.4946 173.584 98.3467 173.732C98.2579 173.85 96.305 172.578 93.9378 170.95C91.5706 169.323 88.73 167.429 86.925 166.157Z" fill="#C8BBB6"/>
<path d="M100.092 167.607C94.9138 164.53 90.2978 160.831 85.3267 157.665C80.3852 154.469 75.1182 151.717 70.2359 148.166C69.4074 147.456 67.8687 145.977 66.833 144.379C65.7678 142.84 65.3535 141.242 65.4423 141.242C65.6199 141.154 66.4484 142.13 67.5136 143.255C68.1054 143.787 68.786 144.379 69.4665 144.971C70.2063 145.503 70.9164 146.066 71.5378 146.628C75.7988 150.534 80.9178 153.581 85.9185 156.777C90.9192 159.973 95.7424 163.435 101.039 165.861C101.512 166.098 102.193 166.542 102.992 166.986C103.791 167.4 104.649 167.873 105.448 168.347C107.105 169.146 108.614 169.826 108.555 170.033C108.525 170.181 107.046 169.974 105.211 169.619C103.436 169.087 101.335 168.347 100.092 167.607Z" fill="#C8BBB6"/>
<path d="M299.173 68.9544C292.071 62.563 283.342 58.1245 274.909 53.3309C273.4 52.4136 269.76 48.8629 269.938 48.6557C270.204 48.3598 273.755 50.1944 276.033 51.6443C283.697 57.4439 292.367 61.8232 300.416 67.3861C301.984 68.4218 305.268 72.7123 305.002 72.949C304.765 73.1266 301.037 70.2563 299.173 68.9544Z" fill="#C8BBB6"/>
<path d="M146.46 179.857C141.488 181.928 136.577 184.532 132.937 188.497C128.824 192.403 130.185 198.41 131.132 203.529C131.369 205.452 132.168 210.986 131.931 211.104C131.576 211.252 129.593 207.021 129.12 203.854C128.824 201.103 128.646 198.321 128.794 195.51C128.942 194.09 129.09 192.669 129.712 191.279C129.919 190.569 130.451 190.065 130.836 189.444C131.28 188.882 131.576 188.201 132.108 187.757C135.926 183.615 140.778 180.715 145.601 178.022C147.466 177.046 153.354 175.537 153.472 175.951C153.561 176.188 148.738 178.703 146.46 179.857Z" fill="#C8BBB6"/>
<path d="M292.249 90.8507C273.311 100.911 253.338 109.196 235.466 121.18C226.352 126.891 217.239 132.632 208.273 138.52C203.805 141.509 199.189 144.26 194.869 147.427L182.027 157.073C178.92 159.381 172.706 163.642 167.291 167.311C164.569 169.116 162.053 170.803 160.219 172.016C158.384 173.229 157.201 173.939 157.142 173.88C157.082 173.791 157.94 173.051 159.361 171.868C160.811 170.714 162.852 169.086 165.19 167.222C169.895 163.553 175.842 159.055 180.784 155.416L193.922 146.065C198.331 142.988 203.006 140.295 207.504 137.366C216.617 131.655 225.731 125.944 234.845 120.233C252.806 108.19 272.69 99.6389 291.273 89.0161C293.077 88.0988 295.711 86.7377 298.7 85.199C300.209 84.4592 301.688 83.6307 303.464 82.9797C304.351 82.7134 305.298 82.4767 306.275 82.4471C307.251 82.5063 308.316 82.6838 309.086 83.3348C310.713 84.5184 311.187 86.3234 311.63 87.7733C312.045 89.2528 312.222 90.6139 312.429 91.7679C312.755 94.076 312.962 95.4963 312.873 95.5259C312.844 95.5259 312.725 95.23 312.548 94.6382C312.37 94.0464 312.163 93.2178 311.897 92.1822C311.63 91.1466 311.334 89.9038 310.891 88.5722C310.447 87.2703 309.885 85.7908 308.879 84.8143C307.902 83.7787 306.363 83.7491 304.825 84.2225C303.316 84.6664 301.807 85.5837 300.297 86.4122C297.309 88.0692 294.468 89.6375 292.249 90.8507Z" fill="#C8BBB6"/>
<path d="M75.7394 167.517L65.738 159.824C62.4535 157.22 59.0802 154.705 55.6478 152.338C52.245 149.941 48.7238 147.574 45.2322 145.236C41.7702 142.869 38.3081 140.502 34.8165 138.223C34.2247 137.868 33.337 137.188 32.4789 137.04C32.3014 137.069 32.0943 137.01 31.8871 137.069C31.7096 137.188 31.5025 137.188 31.2953 137.336C31.1178 137.513 30.9402 137.691 30.7331 137.868C30.6443 137.987 30.526 138.223 30.4372 138.519C29.8454 140.798 30.023 143.106 30.1117 142.899C29.7567 143.283 29.0465 141.36 29.0761 138.963C29.1057 138.371 29.0761 137.572 29.6383 136.862C29.875 136.566 30.1117 136.211 30.4076 135.945C30.7923 135.738 31.177 135.442 31.5912 135.324C33.5146 134.939 34.8757 135.915 35.9114 136.537L45.9719 144.171L56.21 151.45C59.7016 153.847 63.1045 156.273 66.5073 158.759C69.9397 161.185 73.3426 163.612 76.8638 165.86C78.1657 166.718 80.6217 168.553 82.7226 170.21C84.8826 171.778 86.806 173.051 86.6876 173.228C86.6284 173.347 84.6459 172.607 82.3083 171.453C80.1187 170.21 77.426 168.612 75.7394 167.517Z" fill="#C8BBB6"/>
<path d="M117.787 201.31L117.225 197.197C116.84 195.954 116.426 194.682 115.627 193.616C114.177 191.427 111.603 190.066 109.354 188.438L102.46 183.585C101.305 182.816 100.211 181.958 99.0567 181.277C97.9027 180.715 96.5415 180.242 95.2396 179.768C94.2927 179.354 92.5173 178.496 91.0674 177.401C90.3277 176.898 89.7359 176.247 89.3808 175.744C89.0553 175.182 88.9369 174.827 88.9961 174.797C89.2032 174.738 89.9726 175.537 91.3337 176.099C92.6948 176.691 94.5294 177.253 96.0089 177.904C97.2813 178.526 98.524 179.088 99.8556 179.887C101.039 180.715 102.104 181.662 103.229 182.52C105.478 184.325 107.697 185.893 109.946 187.551C112.195 189.178 114.828 190.45 116.692 192.847C117.669 194.001 118.231 195.392 118.764 196.783L119.77 200.925C120.125 203.085 120.716 209.003 120.332 209.21C120.095 209.329 118.231 203.855 117.787 201.31Z" fill="#C8BBB6"/>
<path d="M23.9573 175.005C22.9217 170.566 21.886 166.128 20.732 161.689L19.0158 155.031L17.4476 148.315C16.2936 143.876 15.3763 139.29 15.1987 134.644C15.0508 132.336 15.2579 129.939 15.7018 127.602C16.4415 125.294 17.7139 123.045 19.5484 121.447C20.8208 120.204 23.691 118.577 25.8807 117.068C28.1295 115.529 29.4611 113.606 29.6386 113.724C29.7274 113.754 29.5498 114.197 29.1652 114.937C28.958 115.292 28.7509 115.766 28.4254 116.209C28.0703 116.624 27.6561 117.097 27.2122 117.6C25.3777 119.494 22.685 121.329 20.88 122.986C19.1638 124.317 18.0098 126.152 17.2404 128.105C16.7374 130.176 16.4119 132.395 16.5007 134.674C16.5007 139.171 17.3292 143.669 18.4832 148.107L20.1107 154.765L22.0044 161.364C23.3064 165.773 24.6083 170.152 25.9103 174.531C26.8571 177.875 28.0112 187.876 27.6857 187.906C27.3602 187.935 25.0522 179.177 23.9573 175.005Z" fill="#C8BBB6"/>
<path d="M11.7959 155.06C10.9674 149.823 9.42875 144.615 8.33393 139.289C7.89008 136.596 7.35746 133.904 7.41664 131.152C7.41664 128.4 7.74213 125.53 9.01449 122.926C9.39916 121.92 10.7899 120.44 12.0623 119.316C13.5122 118.369 14.7253 117.659 14.8141 117.777C14.9029 117.925 14.2223 118.872 13.2754 119.967C12.7428 120.47 12.4469 121.269 11.9439 121.89C11.4409 122.512 11.1154 123.251 10.8195 123.873C9.45834 125.974 8.86654 128.578 8.74818 131.181C8.54105 133.815 8.9849 136.448 9.42875 139.082C10.494 144.349 12.299 149.409 13.7785 154.646C13.9856 155.652 14.1927 157.664 14.1335 159.44C14.0744 161.215 13.7489 162.695 13.5713 162.665C13.4234 162.665 13.2163 161.334 12.8908 159.765C12.5357 158.167 12.0918 156.274 11.7959 155.06Z" fill="#C8BBB6"/>
<path d="M1.35076 140.029C0.966093 137.218 0.522247 134.407 0.226349 131.566C-0.0103705 128.725 -0.247094 125.826 0.551834 122.837C0.670193 122.571 0.877324 122.216 1.11404 121.831C1.40994 121.476 1.79461 121.091 2.1201 120.766C2.88944 120.174 3.5996 119.878 3.68837 119.996C3.80673 120.144 3.57 120.766 3.24451 121.387C3.00779 122.068 2.68231 122.896 2.44559 123.577C1.2324 125.826 1.05486 128.725 1.32117 131.448C1.61707 134.199 2.35682 136.892 3.33329 139.526C3.59959 140.532 3.59959 143.698 3.21492 143.787C2.91902 143.875 1.67625 141.331 1.35076 140.029Z" fill="#C8BBB6"/>
<path d="M323.052 171.927C313.021 181.751 301.096 188.527 289.645 195.984C278.223 203.47 267.453 211.962 255.883 219.301C253.812 220.662 249.462 222.763 245.674 224.538C241.798 226.106 238.484 227.349 238.425 227.201C238.366 227.024 240.822 225.603 244.165 223.828C245.852 222.999 247.627 221.816 249.492 220.751C251.326 219.656 253.22 218.62 254.818 217.555C266.594 210.838 277.572 202.582 289.024 195.067C294.853 191.427 300.475 187.58 306.127 183.763C308.908 181.81 311.482 179.591 314.175 177.52L318.14 174.354C319.264 173.17 320.537 172.075 321.425 170.684C322.223 169.738 323.2 168.228 324.058 166.424C324.857 164.589 325.538 162.399 325.833 160.269C326.514 156.008 326.662 152.28 326.899 152.28C326.958 152.28 327.047 153.138 327.135 154.499C327.224 155.86 327.283 157.783 327.165 159.914C327.076 160.979 327.047 162.103 326.81 163.228L326.484 164.914C326.307 165.477 326.129 166.009 325.952 166.542C325.242 168.732 324.088 170.625 323.052 171.927Z" fill="#C8BBB6"/>
<path d="M317.874 185.45C309.618 192.255 301.008 198.44 292.338 204.653C287.899 207.672 283.224 210.246 278.638 212.909C276.389 214.3 274.111 215.661 271.921 217.111C269.761 218.59 267.69 220.247 265.589 221.875C264.02 222.999 260.884 225.07 257.895 226.461C254.907 227.852 252.125 228.385 252.125 228.266C252.066 228.029 254.108 227.26 256.593 225.692C259.079 224.183 262.008 221.993 264.435 220.218C266.624 218.738 268.784 217.17 271.063 215.75C273.341 214.359 275.708 213.087 277.987 211.725C282.662 209.181 287.367 206.695 291.717 203.707C300.298 197.552 308.819 191.042 316.513 183.881C317.963 182.52 320.922 180.064 323.378 177.727C325.834 175.419 327.816 173.288 327.994 173.436C328.053 173.466 327.698 174.028 327.106 174.916C326.485 175.774 325.656 177.046 324.591 178.289C323.526 179.532 322.372 180.922 321.159 182.165C319.975 183.467 318.821 184.591 317.874 185.45Z" fill="#C8BBB6"/>
<path d="M312.784 196.812C309.914 199.328 306.984 201.784 304.055 204.269C301.126 206.755 297.9 208.944 294.882 211.252C288.727 215.75 282.839 220.692 276.388 224.952C275.767 225.308 274.879 225.811 273.844 226.314C272.778 226.757 271.595 227.231 270.5 227.704C268.222 228.444 266.269 228.799 266.239 228.681C266.18 228.503 267.6 227.704 269.464 226.787C271.269 225.692 273.489 224.331 275.323 223.207C281.951 219.597 288.047 214.892 294.231 210.365C297.279 208.027 300.356 205.837 303.167 203.263C305.978 200.689 308.73 198.055 311.393 195.303C313.435 193.262 320.329 188.409 320.537 188.705C320.744 188.971 315.388 194.297 312.784 196.812Z" fill="#C8BBB6"/>
<path d="M272.542 39.4824C264.997 32.2033 256.859 25.4568 248.722 18.799L242.597 13.7983C240.555 12.1413 238.514 10.5139 236.265 9.24151C231.856 6.72637 226.441 5.57234 221.736 7.14061C219.99 7.55487 216.676 9.03438 213.54 10.07C210.403 11.1648 207.533 10.9281 207.563 10.8098C207.563 10.5731 209.752 10.3659 212.356 9.18232C214.96 8.0579 218.126 6.10498 221.174 5.21728C226.678 3.76738 232.359 5.36522 236.945 8.11708C239.253 9.5078 241.325 11.224 243.337 12.9107L249.432 17.9409C257.599 24.6283 265.884 31.1084 273.903 37.9437C276.892 40.5772 284.97 48.744 284.704 49.0103C284.615 49.1287 282.514 47.5604 279.969 45.5483C277.395 43.5658 274.406 41.1394 272.542 39.4824Z" fill="#C8BBB6"/>
<path d="M265.589 26.3149C260.765 21.7877 255.824 17.3492 250.764 13.029C248.19 10.8986 245.793 8.62015 243.011 6.93353C240.26 5.18773 237.241 4.00411 234.075 3.26437C231.826 2.5838 225.287 0.42376 225.376 0.0982714C225.465 -0.227217 230.968 0.275822 234.667 1.31147C237.863 2.40629 240.999 3.88578 243.781 5.83872C246.592 7.76206 248.989 10.1292 251.533 12.2301C256.564 16.5502 261.742 20.752 266.979 24.8058C268.873 26.4332 273.844 31.7299 273.578 31.9962C273.371 32.2033 267.985 28.3566 265.589 26.3149Z" fill="#C8BBB6"/>
<path d="M272.128 23.4451C267.867 17.9414 262.452 13.0591 256.297 9.86335C255.321 9.06442 252.362 7.08186 252.48 6.72678C252.539 6.54924 253.309 6.63802 254.315 6.87474C255.35 7.08187 256.534 7.55533 257.392 8.14713C263.132 12.556 268.311 17.2904 273.666 22.0839C274.643 23.0308 276.477 26.5816 276.152 26.7887C275.886 26.9367 273.311 24.5991 272.128 23.4451Z" fill="#C8BBB6"/>
</svg>
