<svg width="42" height="46" viewBox="0 0 42 46" fill="none" xmlns="http://www.w3.org/2000/svg">
<path d="M21.382 3.01999C21.312 5.06999 21.052 7.13 20.952 9.19C20.812 11.26 20.352 13.29 20.332 15.31C20.312 15.67 20.222 16.37 20.222 16.97C20.202 17.58 20.362 18.06 20.312 18.1C20.272 18.13 19.962 17.78 19.812 17.19C19.652 16.61 19.602 15.86 19.642 15.27C19.882 13.19 20.442 11.2 20.582 9.16C20.682 7.11 20.832 5.06001 20.692 3.01001C20.702 2.24001 20.982 0 21.112 0C21.212 0.01 21.392 2.04999 21.382 3.01999Z" fill="#C8BBB6"/>
<path d="M12.6819 10.9099C13.7019 12.6799 14.2119 14.6499 15.4819 16.0999C15.6319 16.4099 16.1819 17.2199 16.1019 17.3299C16.0519 17.4199 15.2319 16.9999 14.9219 16.4999C13.9519 14.7199 13.4419 12.7399 12.1319 11.3199C12.0819 11.2499 12.0219 11.1299 11.9619 10.9899C11.8819 10.8699 11.7919 10.7299 11.7219 10.5999C11.5719 10.3299 11.4419 10.0599 11.4819 10.0099C11.5119 9.96991 11.7319 10.0899 12.0019 10.2699C12.1319 10.3599 12.2819 10.4599 12.4119 10.5699C12.5219 10.6899 12.6119 10.8099 12.6819 10.9099Z" fill="#C8BBB6"/>
<path d="M2.93205 12.2801C4.38205 13.4201 5.98205 14.3901 7.55205 15.3801C9.16205 16.3701 10.492 17.7301 12.092 18.5801C12.232 18.6601 12.432 18.7901 12.652 18.9401C12.872 19.0901 13.132 19.2001 13.372 19.3401C13.852 19.5701 14.322 19.6801 14.312 19.7501C14.312 19.8101 13.922 19.8501 13.362 19.8001C13.102 19.7401 12.802 19.6501 12.512 19.5601C12.232 19.4401 11.962 19.2901 11.722 19.1601C10.152 18.0701 8.91205 16.6501 7.35205 15.6901C5.77205 14.7101 4.13205 13.8301 2.54205 12.8501C1.95205 12.4601 0.422045 11.1101 0.502045 11.0001C0.572045 10.9301 2.20205 11.7901 2.93205 12.2801Z" fill="#C8BBB6"/>
<path d="M6.4519 21.6C7.9719 22.09 9.6419 22.31 11.2019 22.06C11.3419 22.06 11.6119 22.09 11.8419 22.12C12.0819 22.16 12.2619 22.14 12.3019 22.19C12.3419 22.22 12.2119 22.42 11.9819 22.53C11.7519 22.66 11.4619 22.74 11.2219 22.75C9.55189 22.57 7.97189 22.36 6.31189 22.28C6.00189 22.23 5.1819 21.74 5.2419 21.61C5.2919 21.52 6.0819 21.54 6.4519 21.6Z" fill="#C8BBB6"/>
<path d="M1.97201 29.88C5.10201 28.5 8.45201 27.81 11.412 26.27C11.982 26.08 13.552 25.39 13.632 25.5C13.692 25.58 12.602 26.53 11.692 26.9C8.50201 28.07 5.14201 28.78 2.28201 30.49C2.14201 30.56 1.93201 30.64 1.69201 30.74C1.46201 30.86 1.21201 30.98 0.972008 31.09C0.482008 31.31 0.0420073 31.48 0.0020073 31.43C-0.0279927 31.39 0.282008 31.1 0.682008 30.76C0.882008 30.59 1.11201 30.41 1.33201 30.24C1.56201 30.09 1.79201 29.98 1.97201 29.88Z" fill="#C8BBB6"/>
<path d="M10.9019 31.17C12.0519 30.37 13.2019 29.54 13.9219 28.39C14.1019 28.23 14.6219 27.78 14.7319 27.83C14.8319 27.87 14.7319 28.54 14.4419 28.84C13.3519 29.78 12.2119 30.58 11.3719 31.67C11.1719 31.83 10.5019 32.19 10.3919 32.11C10.3219 32.06 10.6519 31.39 10.9019 31.17Z" fill="#C8BBB6"/>
<path d="M16.9321 42.44C17.0921 38.71 17.0021 34.96 17.4021 31.2C17.4321 31.03 17.4821 30.78 17.5421 30.51C17.6321 30.24 17.7421 29.95 17.8321 29.68C18.0321 29.14 18.2221 28.69 18.2821 28.71C18.3421 28.73 18.3321 29.13 18.2921 29.65C18.2421 30.17 18.1421 30.8 18.0821 31.32C17.2821 34.93 17.3621 38.73 17.6221 42.43C17.6321 43.13 17.3821 45.17 17.2521 45.17C17.1421 45.17 16.9421 43.33 16.9321 42.44Z" fill="#C8BBB6"/>
<path d="M23.082 33.84C22.732 32.63 21.762 31.72 21.112 30.48C20.982 30.24 21.162 29.47 21.252 29.5C21.392 29.52 21.642 29.98 21.762 30.27C21.822 30.86 22.162 31.43 22.512 31.96C22.872 32.5 23.312 32.97 23.702 33.55C23.862 33.77 23.782 34.6 23.662 34.59C23.542 34.59 23.252 34.07 23.082 33.84Z" fill="#C8BBB6"/>
<path d="M32.3719 36.06C31.1419 34.8 29.6419 33.75 28.3819 32.43C27.1019 31.18 25.8119 29.89 24.4519 28.78C24.2319 28.56 23.7319 28.19 23.3519 27.75C23.1519 27.56 23.0119 27.32 22.9219 27.14C22.8319 26.97 22.7819 26.86 22.8119 26.85C22.8819 26.81 23.1519 27.07 23.5419 27.34C23.9419 27.61 24.4919 27.9 24.9019 28.25C26.1819 29.57 27.3619 30.9 28.6519 32.16C29.8919 33.46 31.4219 34.39 32.8419 35.54C33.1019 35.77 33.5419 36.29 33.8519 36.79C34.1519 37.3 34.3419 37.76 34.2919 37.79C34.2519 37.82 33.9319 37.5 33.5619 37.11C33.3619 36.93 33.1419 36.73 32.9419 36.54C32.7319 36.37 32.5319 36.2 32.3719 36.06Z" fill="#C8BBB6"/>
<path d="M29.6418 26.84C28.5418 25.94 27.0818 25.55 25.6418 25.24C25.3818 25.16 24.7518 24.62 24.8218 24.54C24.8918 24.43 25.5018 24.48 25.8918 24.6C27.1718 25.3 28.6018 25.66 30.0118 26.25C30.2918 26.37 30.7618 27.14 30.6618 27.21C30.5618 27.29 29.9418 26.98 29.6418 26.84Z" fill="#C8BBB6"/>
<path d="M38.7418 16.32C37.8318 16.69 36.9518 17.16 36.0718 17.64C35.1918 18.11 34.3118 18.65 33.3318 18.96C32.3618 19.24 31.3918 19.61 30.4218 19.84L28.9718 20.23C28.7218 20.31 28.4918 20.34 28.2818 20.45L27.6018 20.74C27.2618 20.87 26.5918 21.08 25.9818 21.22C25.3918 21.39 24.8018 21.37 24.8218 21.33C24.8318 21.25 25.2118 21.13 25.6918 20.87C26.1818 20.62 26.8118 20.31 27.3418 20.1L28.0718 19.87C28.3218 19.77 28.6018 19.75 28.8318 19.7L30.3118 19.4C31.3118 19.22 32.2318 18.88 33.1918 18.61C34.1418 18.31 34.9718 17.76 35.8318 17.25C36.6818 16.72 37.5418 16.18 38.4418 15.69C38.7918 15.53 39.5218 15.29 40.1918 15.22C40.8618 15.15 41.4218 15.25 41.4118 15.3C41.4118 15.36 40.9218 15.45 40.3618 15.62C40.0818 15.73 39.7818 15.85 39.4918 15.96C39.2218 16.11 38.9618 16.23 38.7418 16.32Z" fill="#C8BBB6"/>
<path d="M28.4622 14.68C27.6722 15.03 26.9822 15.6 26.2822 16.12C25.6422 16.71 24.9922 17.31 24.4722 18.01C24.2622 18.23 23.4822 18.74 23.3922 18.67C23.2922 18.59 23.6222 17.9 23.9722 17.53C24.6622 16.95 25.3822 16.44 26.0322 15.83C26.7422 15.3 27.3522 14.65 28.0722 14.09C28.3622 13.9 29.3222 13.61 29.3722 13.73C29.4322 13.84 28.8022 14.47 28.4622 14.68Z" fill="#C8BBB6"/>
</svg>
