<svg width="84" height="84" viewBox="0 0 84 84" fill="none" xmlns="http://www.w3.org/2000/svg">
<circle cx="42" cy="42" r="41.25" fill="white" stroke="#6A374D" stroke-width="1.5"/>
<path d="M55.9679 49.8847C53.6345 47.8889 51.2664 46.6799 48.9616 48.6727L47.5853 49.8771C46.5784 50.7514 44.7062 54.8365 37.4676 46.5096C30.2306 38.1933 34.5373 36.8984 35.5457 36.0317L36.9295 34.8258C39.2223 32.8285 38.357 30.3141 36.7034 27.7259L35.7055 26.1582C34.0443 23.576 32.2355 21.8802 29.9367 23.8745L28.6946 24.9598C27.6786 25.7 24.8387 28.1058 24.1498 32.6762C23.3207 38.1601 25.9361 44.4399 31.928 51.3303C37.9123 58.2236 43.7716 61.6861 49.3218 61.6258C53.9345 61.576 56.7201 59.1009 57.5914 58.201L58.838 57.1141C61.1308 55.1214 59.7063 53.0924 57.3713 51.0921L55.9679 49.8847Z" fill="#6A374D"/>
</svg>
