<svg width="198" height="246" viewBox="0 0 198 246" fill="none" xmlns="http://www.w3.org/2000/svg">
<path d="M80.1363 147.089C77.8938 145.428 75.8515 143.467 73.8092 141.506C71.8104 139.542 70.1456 137.248 68.2146 135.134C67.8357 134.77 67.0413 134.133 66.266 133.704C65.4924 133.263 64.7412 133.073 64.7203 133.134C64.682 133.235 65.1409 133.633 65.6919 134.122C65.9561 134.402 66.2585 134.71 66.5731 135.01C66.8616 135.337 67.1623 135.655 67.4509 135.918C69.5628 137.719 71.3703 139.93 73.4073 141.922L76.4142 144.912L77.909 146.428L79.4403 147.917C79.8279 148.293 80.7215 148.85 81.5281 149.285C82.333 149.73 83.0389 150.063 83.0963 149.976C83.1398 149.908 82.6462 149.396 82.0257 148.81C81.3843 148.22 80.6299 147.537 80.1363 147.089Z" fill="#C8BBB6"/>
<path d="M49.0863 156.087C50.339 154.495 51.5431 152.873 52.6151 151.143C53.715 149.44 54.6496 147.633 55.367 145.716C56.0756 143.786 56.2783 141.739 56.9887 139.927C57.1524 139.461 57.403 139.053 57.6136 138.627C57.9024 138.246 58.12 137.843 58.4714 137.473C59.1326 136.725 59.792 135.988 60.5105 135.347C61.008 134.872 61.9562 133.883 63.0102 133.545C63.5319 133.375 64.0484 133.365 64.4326 133.439C64.8047 133.523 65.0586 133.608 65.0864 133.57C65.1438 133.548 64.5025 132.765 63.1966 132.815C62.5723 132.828 61.8905 133.057 61.2991 133.388C60.706 133.728 60.1858 134.145 59.7527 134.555C59.0359 135.315 58.4077 136.122 57.8022 136.921C57.4803 137.307 57.2262 137.801 56.9391 138.235C56.7302 138.715 56.4813 139.178 56.3332 139.678C55.6611 141.647 55.5053 143.669 54.8315 145.519C54.1368 147.365 53.1778 149.125 52.0276 150.745C50.9156 152.393 49.6211 153.914 48.2745 155.361C47.3489 156.537 44.5962 159.916 44.7214 160.065C44.8187 160.189 47.87 157.589 49.0863 156.087Z" fill="#C8BBB6"/>
<path d="M26.0795 209.874C23.7241 211.904 21.1496 213.704 18.2555 214.786C16.8067 215.305 15.3041 215.633 13.7686 215.709C12.2401 215.743 10.7012 215.518 9.21812 215.088C8.83386 215.013 8.48617 214.847 8.13498 214.703C7.78553 214.548 7.41865 214.433 7.0866 214.238L6.12527 213.638C5.80366 213.445 5.55338 213.145 5.26136 212.904C4.18198 211.854 3.44882 210.466 3.1087 208.973C2.49978 205.943 3.14991 202.759 4.1964 199.835C4.72226 198.357 5.38895 196.935 6.12344 195.556C6.93789 194.213 7.6828 192.836 8.65198 191.593C9.5238 190.291 10.5782 189.116 11.5838 187.911C12.6729 186.785 13.7256 185.62 14.9068 184.584C17.1962 182.436 19.6942 180.516 22.2426 178.679C24.7824 176.83 27.402 175.08 30.006 173.296C31.8778 171.978 35.4491 169.347 38.323 166.782C39.0588 166.165 39.706 165.501 40.3288 164.919C40.9499 164.347 41.4927 163.794 41.9277 163.309C42.8168 162.353 43.3578 161.747 43.3196 161.719C43.2275 161.628 41.3555 163.46 38.6226 165.631C35.888 167.812 32.3029 170.334 29.3735 172.396C26.8338 174.245 24.2471 176.054 21.7178 177.969C19.1902 179.874 16.7026 181.86 14.4149 184.063C13.2285 185.13 12.1723 186.315 11.0884 187.474C10.0775 188.71 9.03013 189.908 8.14264 191.24C7.18041 192.505 6.4181 193.922 5.60015 195.287C4.86043 196.697 4.1781 198.148 3.647 199.657C2.59005 202.644 1.89464 205.906 2.50347 209.129C2.84876 210.72 3.63403 212.245 4.80204 213.406C5.11144 213.672 5.3791 213.996 5.72852 214.215L6.76462 214.881C7.11404 215.101 7.50174 215.219 7.87032 215.388C8.24064 215.546 8.6179 215.727 9.01086 215.815C10.5513 216.287 12.1597 216.545 13.7908 216.538C15.4185 216.489 17.0167 216.166 18.5507 215.65C21.6048 214.574 24.3201 212.765 26.7799 210.752C28.6274 209.195 31.9503 205.933 34.3951 202.663C35.62 201.045 36.6884 199.529 37.5341 198.448C38.3762 197.387 38.9 196.692 38.8635 196.654C38.8548 196.641 38.7034 196.777 38.4477 197.024C38.2006 197.283 37.8388 197.651 37.3986 198.103C36.5165 199.017 35.4064 200.398 34.1537 201.861C31.69 204.795 28.3376 207.978 26.0795 209.874Z" fill="#C8BBB6"/>
<path d="M75.0863 157.087C73.7676 158.24 72.3742 159.326 70.8523 160.219C69.3615 161.182 67.7423 161.823 66.1055 162.632C62.7991 164.128 59.8541 166.349 57.3592 168.956C52.3416 174.209 48.9859 180.683 45.0879 186.616C44.4005 187.713 43.1613 189.865 41.9606 191.659C41.3881 192.582 40.8034 193.385 40.3806 193.99C39.9577 194.595 39.7106 194.983 39.7488 195.011C39.8044 195.063 40.897 194.044 42.1932 192.513C43.4895 190.982 44.9581 188.932 46.0318 187.192C49.6674 181.033 52.8562 174.531 57.8059 169.363C60.2608 166.803 63.171 164.662 66.4252 163.286C68.0184 162.544 69.7559 161.902 71.3144 160.983C72.9077 160.112 74.3915 159.063 75.8145 157.928C76.3468 157.502 77.0393 156.76 77.8361 155.971C78.5686 155.117 79.4072 154.206 80.0875 153.28C80.7975 152.369 81.4135 151.507 81.8433 150.86C82.2731 150.213 82.5254 149.794 82.4872 149.767C82.4107 149.711 81.2537 151.051 79.7435 152.643C79.0076 153.453 78.1499 154.286 77.3513 155.085C76.5076 155.834 75.723 156.55 75.0863 157.087Z" fill="#C8BBB6"/>
<path d="M70.7512 153.896C68.8843 152.362 67.1271 150.62 65.3994 148.894C63.6874 147.203 62.3598 145.137 60.7818 143.222C60.4602 142.9 59.8067 142.319 59.1217 141.925C58.8158 141.703 58.4367 141.596 58.1951 141.502C57.9412 141.417 57.7847 141.391 57.7673 141.431C57.729 141.532 58.1201 141.887 58.5581 142.346C58.7719 142.607 59.0169 142.873 59.2707 143.151C59.5105 143.449 59.7521 143.736 59.9919 143.969C61.7579 145.594 63.2403 147.568 64.9958 149.32C66.7217 151.057 68.3172 152.868 69.9979 154.682C70.6723 155.331 72.8695 156.878 73.0052 156.708C73.0888 156.593 71.5733 154.688 70.7512 153.896Z" fill="#C8BBB6"/>
<path d="M45.6589 182.11C47.7494 177.881 49.8764 173.625 52.9299 170.049C54.4315 168.252 56.1677 166.655 58.0534 165.254C59.9112 163.827 61.9185 162.597 63.9918 161.549C64.3693 161.344 64.9033 161.037 65.4877 160.684C66.1 160.357 66.7731 159.987 67.3976 159.652C68.6638 159.006 69.77 158.483 69.7318 158.391C69.704 158.3 68.7458 158.515 67.4518 158.878C66.1909 159.3 64.6395 159.92 63.4532 160.601C61.4129 161.837 59.4403 163.18 57.598 164.706C55.7401 166.197 53.9952 167.846 52.4658 169.682C49.3583 173.324 47.0766 177.543 44.6923 181.606C44.2711 182.393 43.5279 183.953 42.9116 185.33C42.2554 186.689 41.7158 187.864 41.8131 187.924C41.8809 187.967 42.5857 187.023 43.4192 185.822C44.2162 184.582 45.1298 183.094 45.6589 182.11Z" fill="#C8BBB6"/>
<path d="M55.5509 161.94C53.3849 164.12 51.2988 166.398 49.2406 168.703L47.7808 170.508C47.5372 170.81 47.2849 171.1 47.0517 171.404L46.3783 172.354C45.9398 172.988 45.4613 173.605 45.0315 174.252L43.8376 176.262C43.7192 176.521 43.5 176.87 43.3711 177.32C43.2318 177.769 43.0959 178.261 42.9757 178.723C42.7352 179.648 42.5732 180.426 42.6549 180.45C42.747 180.476 43.1177 179.927 43.5319 179.181C43.9566 178.437 44.3639 177.476 44.8077 176.745L45.772 174.697C46.1288 174.039 46.5569 173.402 46.9537 172.761L47.5645 171.801C47.7786 171.483 48.0204 171.191 48.2536 170.887L49.6699 169.086C51.7021 166.809 53.8941 164.666 56.2739 162.747C57.1038 161.953 59.3273 159.429 59.1726 159.264C59.0962 159.144 56.6104 160.927 55.5509 161.94Z" fill="#C8BBB6"/>
<path d="M50.2395 163.562C48.6526 165.613 46.7633 167.356 45.0356 169.416C44.7137 169.802 44.4626 171.24 44.6069 171.275C44.8208 171.343 45.5515 170.564 45.9569 169.999C47.024 167.722 48.9585 165.9 51.0094 164.345C51.3661 164.008 52.0467 162.695 51.8972 162.563C51.7772 162.446 50.6762 163.131 50.2395 163.562Z" fill="#C8BBB6"/>
<path d="M46.6906 162.465C45.9387 163.755 44.9766 164.827 43.8875 165.889C43.7413 166.122 43.6157 166.937 43.7618 167.026C43.9287 167.118 44.5792 166.82 44.7932 166.501C45.2686 165.133 46.2568 164.033 47.4762 163.218C47.6589 163.023 47.8888 162.161 47.7411 162.018C47.642 161.905 46.9255 162.214 46.6906 162.465Z" fill="#C8BBB6"/>
<path d="M16.9115 184.651C14.0324 187.248 12.0449 190.476 9.99672 193.619C8.03368 196.83 6.26186 200.18 5.23413 203.89C5.1086 204.577 4.93581 205.932 5.08306 207.104C5.21814 208.285 5.61067 209.208 5.6785 209.187C5.79155 209.153 5.69453 208.386 5.77848 207.37C5.85026 206.364 6.08909 205.127 6.29998 204.122C6.94161 200.54 8.55872 197.089 10.4922 193.927C10.9795 193.129 11.5137 192.371 12.0479 191.613C12.6012 190.869 13.0798 190.059 13.6992 189.369L15.5452 187.308C15.841 186.95 16.1906 186.654 16.5385 186.369C16.8865 186.084 17.217 185.775 17.5928 185.516C18.1442 185.104 19.1619 184.212 20.0769 183.422C20.9659 182.594 21.6445 181.807 21.5697 181.741C21.5159 181.678 20.7348 182.18 19.7851 182.794C18.7919 183.346 17.6369 184.097 16.9115 184.651Z" fill="#C8BBB6"/>
<path d="M8.42252 206.118C8.99087 203.038 10.1383 200.024 11.5568 197.183C13.0032 194.368 14.7365 191.634 16.9477 189.44C17.3288 189.021 18.0143 188.192 18.7188 187.57C19.406 186.924 20.1296 186.573 20.1018 186.482C20.0845 186.393 19.368 186.445 18.5348 186.874C17.6948 187.281 16.778 188.018 16.1482 188.706C14.0724 191.244 12.4974 194.059 11.0318 196.924C9.59582 199.804 8.28848 202.749 7.36015 205.865C7.21727 206.463 7.07061 207.661 7.12923 208.722C7.16524 209.79 7.47265 210.646 7.57352 210.619C7.65178 210.6 7.62954 209.835 7.79867 208.888C7.95562 207.949 8.24828 206.839 8.42252 206.118Z" fill="#C8BBB6"/>
<path d="M14.2759 197.917C12.7094 201.001 10.5327 203.758 9.33637 207.193C9.24058 207.51 9.22809 208.162 9.27652 208.706C9.35451 209.266 9.47256 209.715 9.55951 209.708C9.65689 209.703 9.81355 209.343 9.95288 208.894C10.1148 208.439 10.2803 207.898 10.4092 207.448C10.6099 205.797 11.3271 204.201 12.1851 202.725C13.0657 201.243 14.1184 199.885 15.2059 198.512C15.5853 197.975 16.1878 196.102 15.9896 196.005C15.8488 195.949 14.7405 197.254 14.2759 197.917Z" fill="#C8BBB6"/>
<path d="M83.4925 146.642C78.4658 141.813 73.7871 136.569 68.2959 132.145C68.0369 131.962 67.6284 131.711 67.1798 131.443C67.0616 131.381 66.9556 131.309 66.8391 131.236C66.674 131.134 66.5175 131.043 66.3523 130.94L66.0603 130.763C66.0394 130.759 66.0134 130.723 65.9908 130.73L65.9247 130.805L65.8046 130.945C65.6689 131.116 65.4583 131.349 65.4009 131.436C65.2356 131.655 65.0912 131.877 64.9607 132.08C64.8475 132.308 64.7396 132.505 64.6683 132.675C64.562 133.054 64.5254 133.273 64.5654 133.291C64.6697 133.308 65.0091 132.689 65.7415 132.093C65.818 132.02 65.9293 131.931 66.0163 131.86C66.0511 131.844 66.0859 131.829 66.1085 131.822C66.1867 131.867 66.1311 131.879 66.4162 132.099C66.842 132.438 67.2801 132.768 67.6729 133.049C73.4635 136.837 78.1978 142.133 82.7218 147.404C82.9408 147.633 83.3284 148.009 83.6743 148.314C83.7056 148.319 83.8272 148.361 83.7629 148.425L83.7316 148.484C83.7159 148.514 83.6515 148.578 83.6115 148.625L83.3349 148.932C83.0043 149.371 82.5538 149.628 82.2911 149.916C82.0127 150.17 81.8422 150.356 81.8665 150.403C81.8908 150.45 82.7239 150.149 83.6719 149.546C83.7833 149.458 83.8929 149.38 84.0146 149.293L84.1868 149.161L84.4217 148.975L85.0305 148.476C85.1227 148.438 85.0671 148.386 85.0219 148.335L84.8968 148.185L84.6343 147.895C84.4084 147.643 84.1929 147.392 83.9948 147.166C83.7914 146.971 83.628 146.794 83.4925 146.642Z" fill="#C8BBB6"/>
<path d="M74.81 120.182C72.701 123.24 70.6285 126.336 67.932 128.802C67.5144 129.311 66.392 130.829 66.5067 130.977C66.6232 131.114 68.0286 130.341 68.7315 129.536C70.9883 126.557 73.0487 123.469 75.6374 120.878C76.0498 120.336 77.101 118.602 76.9445 118.447C76.8541 118.347 75.3546 119.49 74.81 120.182Z" fill="#C8BBB6"/>
<path d="M93.4606 138.013C91.2196 140.641 88.6188 142.92 86.2613 145.539C85.8367 146.026 85.2082 147.798 85.349 147.854C85.5367 147.949 86.5649 146.931 87.1391 146.19C88.8916 143.277 91.5133 140.937 94.2183 138.805C94.7002 138.36 95.7166 136.707 95.5671 136.574C95.4471 136.458 94.0573 137.459 93.4606 138.013Z" fill="#C8BBB6"/>
<path d="M93.214 133.393C90.8639 131.413 88.5313 129.393 86.3117 127.274C84.0747 125.194 82.1473 122.803 80.1156 120.458C79.7472 120.031 78.8954 119.353 78.1201 118.794C77.3553 118.237 76.6895 117.794 76.6355 117.86C76.5799 117.936 76.95 118.481 77.494 119.14C78.0258 119.808 78.7575 120.563 79.3345 121.217C81.5732 123.286 83.6432 125.594 85.908 127.699C88.1363 129.831 90.342 131.969 92.459 134.189C93.3037 134.973 96.0294 136.952 96.1843 136.795C96.2973 136.696 94.2795 134.397 93.214 133.393Z" fill="#C8BBB6"/>
<path d="M78.341 115.163L78.1287 115.471C78.0782 115.58 78.0173 115.688 77.9581 115.785C77.838 115.991 77.711 116.173 77.5753 116.343C77.3525 116.714 77.0185 117.044 76.6793 117.341C76.6027 117.478 76.6911 118.04 76.8389 118.118C77.0058 118.211 77.5206 118.082 77.6302 117.875C77.6757 117.411 77.8341 117.041 78.0533 116.691C78.1769 116.53 78.3282 116.394 78.4883 116.271C78.5631 116.208 78.6483 116.147 78.7318 116.097C78.824 116.059 78.9249 116.033 79.0258 116.007C79.1232 115.937 79.2156 115.32 79.1288 115.134C79.0767 114.996 78.5376 115.014 78.341 115.163Z" fill="#C8BBB6"/>
<path d="M99.008 133.246L96.8264 131.541L94.7735 129.9C93.4003 128.813 92.1749 127.546 90.8835 126.354C88.3145 123.952 85.9647 121.328 83.5732 118.762C82.6624 117.859 79.8412 115.554 79.7246 115.674C79.5941 115.813 81.3928 118.14 82.8007 119.534C85.4254 121.86 87.9004 124.376 90.4799 126.78C91.7696 127.982 92.981 129.268 94.309 130.434L96.2749 132.21L97.2517 133.103L97.7349 133.548L97.9765 133.771L98.0964 133.887C98.1243 133.913 98.0947 133.898 98.1051 133.899C98.0704 133.915 98.2287 133.738 97.8684 134.353C97.5726 134.776 97.2733 135.283 96.9044 135.693C96.7287 135.911 96.5547 136.118 96.4051 136.307C96.2363 136.483 96.0797 136.649 95.9492 136.788C95.6883 137.067 95.5369 137.266 95.5612 137.313C95.5873 137.35 95.7856 137.254 96.1039 137.082C96.4326 136.912 96.8518 136.65 97.278 136.281C97.7407 135.951 98.1409 135.482 98.5532 135.068C98.6472 134.955 98.7325 134.83 98.816 134.715C98.9274 134.562 99.0265 134.418 99.1257 134.274C99.2562 134.07 99.4302 133.864 99.5155 133.674C99.3347 133.537 99.1661 133.39 99.008 133.246Z" fill="#C8BBB6"/>
<path d="M129.406 39.932C121.882 49.6559 116.051 60.478 109.303 70.6962L104.303 78.4077C102.64 80.9823 100.872 83.4751 99.1507 86.0079C95.7174 91.0857 92.1694 96.0156 88.5796 101.003C87.9566 101.907 87.0065 103.292 86.0459 104.74C85.0106 106.187 83.7613 107.758 82.6633 109.258C81.5653 110.758 80.5856 112.193 80.0095 113.33C79.7223 113.893 79.5308 114.397 79.4802 114.764C79.4174 115.139 79.5321 115.352 79.5338 115.341C79.5669 115.336 79.5304 115.169 79.6088 114.893C79.6767 114.614 79.8578 114.237 80.1258 113.789C80.6618 112.892 81.5544 111.722 82.6314 110.411C83.7189 109.102 84.9508 107.635 86.1844 106.158C86.809 105.436 87.3832 104.567 87.9262 103.821C88.4725 103.055 88.9946 102.306 89.4975 101.607C92.9116 96.5793 96.3971 91.5103 99.7505 86.3977C101.433 83.837 103.173 81.3182 104.827 78.7419L109.807 71.0164C116.555 60.7982 122.558 50.0371 130.277 40.6244C131.674 38.8097 134.503 35.3575 137.248 32.5991C137.915 31.8847 138.609 31.2608 139.233 30.6681C139.858 30.0754 140.43 29.5384 140.938 29.13C141.94 28.2679 142.56 27.7066 142.533 27.67C142.525 27.6579 142.36 27.7482 142.069 27.9463C141.789 28.1462 141.378 28.4207 140.869 28.7752C140.361 29.1193 139.762 29.5554 139.138 30.0838C138.513 30.6121 137.792 31.1456 137.104 31.7922C134.244 34.274 131.207 37.627 129.406 39.932Z" fill="#C8BBB6"/>
<path d="M184.482 51.7554C184.998 49.6968 185.301 47.5598 185.24 45.4261C185.178 43.2924 184.752 41.162 183.966 39.1862C182.415 35.2485 180.091 31.6426 177.191 28.5842C174.291 25.5362 170.75 22.9818 166.624 21.8095C162.503 20.8633 158.227 20.5239 154.015 21.3427C152.445 21.6271 149.736 22.8796 147.517 24.0958C146.404 24.7248 145.391 25.3277 144.692 25.8543C144.339 26.1062 144.066 26.3287 143.894 26.5251C143.714 26.6989 143.633 26.8032 143.652 26.8171C143.697 26.8676 144.033 26.5912 144.668 26.2577C145.294 25.9119 146.193 25.4724 147.257 25.0069C149.364 24.0828 152.039 22.8998 154.265 22.414C158.207 21.4751 162.454 21.6701 166.453 22.5102C170.409 23.5467 173.932 26.0125 176.769 28.9961C179.612 32.0023 181.878 35.5769 183.3 39.4502C184.768 43.3096 184.623 47.5751 183.434 51.4837C183.056 52.9755 182.114 55.8529 181.081 58.3078C180.059 60.7644 179.121 62.849 179.231 62.8995C179.271 62.9169 179.547 62.4805 179.979 61.7591C180.4 61.0359 180.978 60.0172 181.577 58.8732C182.783 56.5975 183.972 53.7184 184.482 51.7554Z" fill="#C8BBB6"/>
<path d="M112.033 121.857C121.329 114.424 130.519 106.92 140.202 99.9372L143.799 97.2784C145.006 96.4078 146.127 95.4154 147.299 94.496L154.254 88.8809L157.737 86.0742L161.04 83.0552C163.29 81.0826 165.334 78.9256 167.463 76.8364C168.986 75.2999 171.728 72.1763 174.131 69.4786C175.322 68.1228 176.413 66.8574 177.221 65.9414C178.019 65.0132 178.505 64.4187 178.466 64.3909C178.43 64.3526 177.964 64.768 177.214 65.4684C176.462 66.1793 175.425 67.1856 174.256 68.3415C171.895 70.6601 169.023 73.6653 166.678 76.083C164.627 78.2175 162.638 80.4267 160.449 82.4202L157.224 85.4844L153.799 88.3329L146.92 94.0037C145.756 94.9352 144.648 95.919 143.45 96.8018L139.863 99.4624C130.228 106.42 120.846 113.85 111.397 120.978C110.518 121.679 109.252 122.776 107.848 123.989C106.508 125.266 105.03 126.67 103.652 127.984C102.963 128.641 102.31 129.272 101.7 129.846C101.072 130.395 100.496 130.889 100.017 131.313C99.0502 132.159 98.4535 132.714 98.4796 132.75C98.4883 132.762 98.6431 132.67 98.9214 132.481C99.1997 132.291 99.5894 132.013 100.076 131.666C100.563 131.318 101.139 130.889 101.785 130.428C102.413 129.944 103.067 129.367 103.764 128.786C105.173 127.606 106.678 126.303 108.11 125.051C109.573 123.869 110.952 122.738 112.033 121.857Z" fill="#C8BBB6"/>
<path d="M142.706 38.7018C137.577 43.1423 133.544 48.538 129.168 53.6084C128.105 54.8999 126.965 56.1358 125.958 57.4795L122.907 61.4845L116.796 69.4929C112.893 74.9426 108.678 80.1469 104.479 85.3756C100.357 90.66 96.2454 95.9461 92.1355 101.222C91.4047 102.194 90.3398 103.624 89.1513 105.216C87.9733 106.81 86.7656 108.646 85.5998 110.296C85.0307 111.134 84.4582 111.928 83.9223 112.632C83.3846 113.347 82.9287 114.021 82.4694 114.524C82.0275 115.05 81.6777 115.474 81.4237 115.775C81.1801 116.077 81.0548 116.25 81.0618 116.272C81.0983 116.31 81.6045 115.848 82.4483 115.035C83.3286 114.26 84.3378 112.97 85.5418 111.541C86.6989 110.072 87.9847 108.41 89.2428 106.722C90.5391 105.062 91.8371 103.392 92.9994 101.892C95.0022 99.213 97.0067 96.5238 99.0095 93.8451C101.021 91.1785 102.947 88.4441 105.037 85.8228C109.157 80.5488 113.359 75.2993 117.274 69.8409C119.288 67.1639 121.358 64.5286 123.399 61.8778L126.476 57.9092C127.481 56.576 128.64 55.3541 129.722 54.0765C134.152 49.0687 138.291 43.7443 143.413 39.5386C145.283 37.9101 149.14 34.8549 153.168 33.5335C155.159 32.8475 157.102 32.5181 158.543 32.4909C159.987 32.389 160.891 32.3042 160.889 32.2503C160.893 32.2295 160.68 32.2155 160.308 32.1962C159.934 32.1873 159.39 32.1714 158.717 32.1554C157.389 32.0835 155.458 32.2112 153.439 32.7424C151.411 33.2613 149.293 34.1941 147.423 35.3079C145.555 36.4112 143.928 37.6729 142.706 38.7018Z" fill="#C8BBB6"/>
<path d="M174.839 61.5856C175.946 59.3899 176.832 57.0393 177.19 54.5789C177.599 52.1272 177.42 49.6091 176.877 47.2126C176.309 44.8335 175.538 42.4525 174.183 40.36C173.523 39.3058 172.73 38.3369 171.858 37.4618C171.428 37.0147 170.971 36.6058 170.504 36.1952C170.039 35.7637 169.443 35.4174 168.925 35.1163C168.129 34.6829 166.552 34.044 165.182 33.5147C164.497 33.2501 163.862 33.0046 163.398 32.8305C162.925 32.6442 162.711 32.5119 162.677 32.5275C162.529 32.6422 163.382 33.3104 164.547 33.977C165.719 34.6662 167.217 35.4528 168.41 36.0812C168.954 36.3544 169.441 36.586 169.884 36.9496C170.348 37.3167 170.823 37.6856 171.249 38.0892C172.135 38.8809 172.919 39.7733 173.581 40.7527C174.95 42.6974 175.744 45.0071 176.298 47.341C176.83 49.6714 176.958 52.1164 176.482 54.4499C176.048 56.7903 175.087 59.0104 173.876 61.06C173.463 61.8597 172.636 63.4053 171.885 64.7595C171.133 66.1138 170.478 67.2699 170.563 67.3377C170.685 67.4439 173.777 63.7032 174.839 61.5856Z" fill="#C8BBB6"/>
<path d="M157.711 78.3375C150.571 86.3453 141.315 92.1229 133.14 99.1321C128.948 102.528 124.768 105.915 120.586 109.313L114.292 114.374C112.234 116.099 110.198 117.882 108.107 119.549C106.594 120.776 103.873 123.324 101.232 125.263C99.9382 126.27 98.79 127.3 98.068 128.156C97.8922 128.373 97.7304 128.571 97.5947 128.741C97.4764 128.936 97.3841 129.103 97.3075 129.24C97.1544 129.515 97.0743 129.673 97.0934 129.687C97.1125 129.701 97.2169 129.59 97.377 129.402C97.5493 129.206 97.7494 128.907 98.1008 128.601C98.7271 127.933 99.7778 127.165 100.983 126.305C102.189 125.445 103.636 124.55 104.981 123.498C106.305 122.444 107.634 121.357 108.817 120.375C110.868 118.627 112.833 116.811 114.846 115.035C116.887 113.284 118.962 111.583 121.031 109.859C125.185 106.435 129.339 103.012 133.504 99.5896C141.668 92.5786 151.014 86.9663 158.495 79.1012C159.88 77.6168 162.575 74.7106 164.793 72.0894C165.903 70.7735 166.921 69.5602 167.671 68.6668C168.41 67.7716 168.863 67.1823 168.826 67.144C168.798 67.1179 168.315 67.5733 167.544 68.3346C166.784 69.0976 165.726 70.1648 164.566 71.3328C162.246 73.7228 159.458 76.4846 157.711 78.3375Z" fill="#C8BBB6"/>
<path d="M116.255 78.5718C111.919 83.9813 107.505 89.3455 103.024 94.6558C100.771 97.2927 98.5424 99.9766 96.4665 102.772C94.3924 105.557 92.3565 108.369 90.258 111.107C89.5011 112.107 88.1299 114.086 86.8545 115.75C85.579 117.414 84.4098 118.762 84.4933 118.841C84.5576 118.905 85.6466 117.972 87.0436 116.607C87.6978 115.902 88.4442 115.093 89.1732 114.261C89.8622 113.411 90.553 112.55 91.1463 111.759C98.5684 100.013 107.995 89.7492 117.074 79.3199C117.916 78.3239 119.475 76.311 120.802 74.5275C121.457 73.6288 122.17 72.89 122.568 72.2381C122.986 71.6001 123.225 71.2003 123.176 71.1707C123.106 71.1377 122.005 72.4013 120.46 73.8804C119.002 75.4169 117.313 77.3116 116.255 78.5718Z" fill="#C8BBB6"/>
<path d="M153.202 78.109C158.177 73.6215 163.36 69.1149 167.126 63.3956C169.005 60.5569 170.351 57.3179 170.895 53.9342C171.383 50.5626 170.997 46.9055 169.062 43.9866C168.115 42.5307 166.78 41.3423 165.279 40.5017C164.923 40.2598 164.523 40.0858 164.122 39.9221C163.72 39.7585 163.348 39.5461 162.925 39.4433L161.691 39.0654C161.265 38.9835 160.834 38.9328 160.406 38.8613C156.928 38.4945 153.507 39.7136 150.616 41.4825C147.675 43.2322 145.116 45.5176 142.713 47.8936C141.516 49.0877 140.375 50.334 139.261 51.6063L135.897 55.3765C134.31 57.2346 131.265 60.8223 128.61 63.939C127.296 65.5103 126.089 66.96 125.203 68.0238C124.77 68.5627 124.417 69.0077 124.173 69.3101C123.928 69.623 123.802 69.7951 123.822 69.8091C123.858 69.8473 124.368 69.3641 125.182 68.5351C126.007 67.7077 127.136 66.5345 128.435 65.1753C131.035 62.4568 134.22 58.9892 136.719 56.1037L139.988 52.264C141.072 50.976 142.173 49.7123 143.339 48.513C145.67 46.1144 148.153 43.8375 150.985 42.1017C153.778 40.338 157.053 39.1588 160.333 39.4925C160.74 39.5605 161.141 39.5955 161.546 39.674L162.73 40.0327C163.132 40.1321 163.495 40.3322 163.878 40.4819C164.259 40.6421 164.639 40.8023 164.977 41.0302C166.409 41.8273 167.669 42.9495 168.566 44.322C170.399 47.0843 170.778 50.5901 170.278 53.8417C169.73 57.1176 168.402 60.2522 166.526 63.0058C162.767 68.5547 157.574 72.9308 152.481 77.2914C151.533 78.1517 150.104 79.3179 148.535 80.6856C146.921 82.003 145.126 83.4402 143.433 84.7767C141.742 86.1027 140.182 87.3539 139.07 88.2942C137.948 89.2327 137.268 89.8375 137.294 89.874C137.303 89.8862 137.482 89.7767 137.795 89.5717C138.11 89.3562 138.559 89.0452 139.115 88.6663C140.221 87.8861 141.752 86.8122 143.441 85.6253C145.139 84.4506 146.966 83.0829 148.712 81.8091C150.389 80.4379 152.007 79.164 153.202 78.109Z" fill="#C8BBB6"/>
<path d="M128.705 95.1304C127.525 96.2202 126.29 97.2577 125.139 98.3736L121.645 101.693L118.136 104.978C116.966 106.08 115.788 107.159 114.546 108.174C109.649 112.321 104.731 116.464 99.9327 120.724C99.0541 121.489 97.5405 123.166 96.2373 124.611C94.9324 126.066 93.8537 127.322 93.9076 127.385C94.0658 127.529 98.0426 124.012 100.678 121.524C105.224 117.04 110.022 112.78 114.931 108.625C116.165 107.598 117.364 106.522 118.552 105.444L122.135 102.226L125.726 99.0294C126.913 97.9623 128.181 96.9839 129.412 95.9672C129.865 95.5709 130.521 94.9835 131.246 94.3004C131.989 93.6417 132.85 92.9813 133.628 92.307C135.188 90.9914 136.508 89.8287 136.448 89.7434C136.404 89.6825 135.061 90.5305 133.41 91.6165C132.589 92.1657 131.683 92.7756 130.834 93.3629C130.029 94.0112 129.283 94.6264 128.705 95.1304Z" fill="#C8BBB6"/>
<path d="M140.11 56.6708C136.254 60.745 132.698 65.0837 129.042 69.3093C125.403 73.5697 121.773 77.8318 118.133 82.0922C114.474 86.3386 110.815 90.5851 107.158 94.8211C103.549 99.0867 99.6175 103.105 96.3687 107.721C95.2376 109.355 92.76 112.372 90.7519 115.147C90.2404 115.833 89.8105 116.544 89.3859 117.16C88.9978 117.813 88.6619 118.411 88.3748 118.91C87.8874 119.966 87.6053 120.626 87.6436 120.654C87.6836 120.671 88.0125 120.18 88.5137 119.362C89.0357 118.549 89.8188 117.457 90.7827 116.246C92.7002 113.821 95.3725 110.986 97.2605 108.352C100.318 103.726 104.146 99.6261 107.702 95.2874C111.321 91.0236 114.952 86.751 118.582 82.4889C122.241 78.2424 125.851 73.9663 129.585 69.786C133.308 65.6039 136.957 61.3557 140.904 57.4363C142.365 55.9432 145.179 52.971 147.934 50.7291C148.618 50.1678 149.262 49.589 149.877 49.1128C150.521 48.6627 151.104 48.2561 151.591 47.9086C152.577 47.2048 153.191 46.739 153.156 46.6903C153.141 46.6555 152.529 46.9822 151.544 47.5468C151.057 47.8301 150.474 48.1723 149.822 48.5459C149.161 48.9073 148.535 49.4461 147.83 49.9396C147.133 50.4557 146.392 50.9753 145.675 51.5418C144.984 52.1449 144.283 52.7463 143.607 53.3302C142.232 54.4947 141.061 55.7252 140.11 56.6708Z" fill="#C8BBB6"/>
<path d="M105.999 111.186C108.657 108.949 111.317 106.702 113.977 104.455L121.847 97.5982C124.47 95.3128 127.122 93.0534 129.773 90.7941L133.748 87.4155C135.073 86.2858 136.399 85.1562 137.777 84.0995L145.967 77.6398C148.696 75.4901 151.511 73.4082 154.145 71.1245C156.798 68.8547 159.372 66.4753 161.617 63.7619C162.189 63.0962 162.762 62.4305 163.249 61.6969C163.747 60.965 164.302 60.2749 164.74 59.5117L166.011 57.1717C166.437 56.3529 166.667 55.4262 166.805 54.5376C166.992 53.2283 166.996 51.2772 166.409 49.2059C166.109 48.1798 165.643 47.1153 164.894 46.2073C164.719 45.9742 164.495 45.7758 164.283 45.5688C164.07 45.3617 163.768 45.1825 163.507 45.0746C162.97 44.8239 162.422 44.7002 161.883 44.5886C159.736 44.2189 157.739 44.3571 156.319 44.7094C155.611 44.9021 155.042 45.161 154.751 45.4877C154.438 45.8215 154.506 46.1223 154.518 46.1136C154.549 46.1189 154.553 45.905 154.783 45.686C155.014 45.4566 155.444 45.2603 156.012 45.1301C157.16 44.8716 158.854 44.8115 160.716 45.0906C161.634 45.2441 162.66 45.4585 163.444 45.9649C164.157 46.513 164.742 47.4366 165.098 48.3862C165.835 50.3324 165.961 52.5305 165.715 54.3876C165.608 55.217 165.434 56.0029 165.075 56.7366L163.913 59.0088C163.509 59.7563 162.976 60.4395 162.514 61.1557C162.059 61.8841 161.51 62.5429 160.96 63.2017C158.814 65.8995 156.3 68.2997 153.689 70.5765C151.094 72.888 148.323 74.9665 145.6 77.1389L137.403 83.6403C136.024 84.7073 134.689 85.8248 133.364 86.9545L129.37 90.3192L121.381 97.0485L113.414 103.781C110.712 105.957 108.009 108.143 105.318 110.321C104.319 111.162 102.835 112.405 101.188 113.792C100.363 114.49 99.4621 115.198 98.6131 115.978C97.7746 116.76 96.9325 117.563 96.1201 118.318C94.556 119.911 93.1103 121.375 92.1255 122.519C91.1234 123.638 90.5092 124.361 90.5457 124.399C90.5544 124.412 90.7283 124.269 91.0189 124.007C91.2989 123.742 91.7182 123.351 92.2262 122.879C93.2265 121.898 94.6548 120.604 96.2153 119.159C99.3729 116.309 103.482 113.349 105.999 111.186Z" fill="#C8BBB6"/>
<path d="M155.61 58.511C156.182 57.8453 156.767 57.1709 157.256 56.3625C157.718 55.582 158.175 54.5858 157.895 53.4988C157.756 52.9823 157.492 52.5091 157.07 52.149C156.649 51.7784 156.067 51.606 155.547 51.637C154.496 51.6974 153.675 52.1822 152.912 52.6443C152.529 52.8807 152.164 53.1413 151.811 53.3933C151.626 53.5341 151.473 53.6157 151.259 53.8052L150.769 54.2379L148.785 55.9655C147.475 57.1299 146.122 58.2335 144.857 59.4484C139.718 64.2089 134.798 69.199 129.955 74.2448C127.555 76.793 125.24 79.4194 122.868 81.9936L119.324 85.8732C118.151 87.1786 117.029 88.5031 115.876 89.8224L108.979 97.7208C106.731 100.391 104.432 103.042 102.233 105.741C100.667 107.731 97.6466 111.559 95.021 114.884C93.6551 116.511 92.4076 118.008 91.4837 119.108C91.0261 119.665 90.6607 120.118 90.405 120.429C90.1579 120.753 90.0204 120.933 90.0395 120.947C90.076 120.986 90.5997 120.483 91.4609 119.63C92.3116 118.775 93.5016 117.558 94.843 116.142C97.4493 113.253 100.625 109.526 103.094 106.432C105.229 103.668 107.445 100.993 109.645 98.2933L116.418 90.2992C117.551 88.9764 118.666 87.6292 119.83 86.3117L123.334 82.4147C125.686 79.8265 127.992 77.1984 130.389 74.6607C135.233 69.6149 140.177 64.6717 145.346 59.9912C146.617 58.7989 147.988 57.7197 149.305 56.5778C150.66 55.4638 151.902 54.2559 153.374 53.408C154.089 52.9805 154.861 52.5949 155.572 52.5743C155.927 52.5693 156.221 52.672 156.454 52.8825C156.699 53.0844 156.878 53.4253 156.954 53.7383C157.124 54.3888 156.814 55.152 156.381 55.8196C155.944 56.508 155.377 57.1424 154.798 57.7855C153.907 58.8163 152.706 60.2886 151.332 61.9677C150.655 62.8091 149.929 63.6851 149.211 64.5838C148.475 65.4582 147.69 66.3029 146.949 67.1442C145.479 68.8181 144.106 70.3581 143.128 71.5245C142.646 72.0981 142.21 72.5291 141.858 72.7707C141.498 73 141.293 73.1373 141.3 73.1599C141.307 73.1825 141.514 73.0992 141.886 72.9255C142.091 72.8525 142.286 72.7135 142.51 72.5258C142.752 72.3625 142.992 72.1452 143.239 71.8862C144.231 70.8938 145.588 69.512 147.098 67.9842C147.848 67.2194 148.638 66.4077 149.438 65.5977C150.211 64.7617 150.957 63.8891 151.698 63.0478C153.141 61.3478 154.522 59.7556 155.61 58.511Z" fill="#C8BBB6"/>
<path d="M101.322 109.589C103.862 106.968 106.403 104.336 108.954 101.717C111.579 99.1634 114.269 96.6746 116.95 94.1735C122.232 89.0723 128.108 84.7138 133.793 80.0875C134.796 79.2151 136.757 77.5588 138.267 75.9023C139.814 74.2841 141.096 72.9005 141.042 72.8379C140.968 72.7718 139.771 73.7085 138.212 75.0137C137.419 75.6532 136.591 76.4371 135.69 77.1444C134.787 77.8622 133.884 78.5799 133.096 79.2525C127.652 84.1015 121.844 88.6322 116.562 93.7334L108.473 101.197C105.826 103.746 103.192 106.287 100.559 108.828C100.07 109.315 99.3668 110.056 98.5943 110.892C97.8131 111.715 97.0806 112.762 96.3393 113.668C94.9021 115.529 93.7119 117.132 93.7971 117.2C93.8249 117.226 94.1572 116.906 94.6825 116.393C95.1888 115.867 95.9004 115.138 96.6694 114.323C97.4471 113.52 98.2561 112.594 99.0808 111.766C99.9106 110.972 100.714 110.206 101.322 109.589Z" fill="#C8BBB6"/>
<path d="M181.476 66.7921C184.652 61.6498 187.891 56.325 189.215 50.262C189.307 49.7091 189.393 48.6188 189.274 47.6658C189.177 46.7059 188.817 45.9701 188.77 45.9945C188.701 46.0257 188.834 46.6379 188.804 47.4587C188.795 48.2829 188.635 49.3071 188.495 50.1417C188.301 51.6214 187.918 53.0802 187.453 54.5146C187.216 55.2257 186.947 55.942 186.668 56.6461C186.379 57.3485 186.02 58.0179 185.693 58.6924C185.345 59.3635 185.046 60.0641 184.659 60.7073L183.448 62.6283C182.655 63.9112 181.741 65.142 180.88 66.3814C180.248 67.3375 178.742 70.3138 178.861 70.3765C178.935 70.4426 180.684 68.0003 181.476 66.7921Z" fill="#C8BBB6"/>
<path d="M186.983 63.2941C187.541 62.0041 188.326 60.7733 189.002 59.492C189.663 58.2299 190.491 57.0599 191.153 55.7335C191.259 55.4831 191.388 54.9684 191.393 54.4867C191.421 53.9981 191.195 53.6172 191.147 53.652C191.088 53.685 191.093 53.9754 190.959 54.3283C190.845 54.6847 190.635 55.1107 190.478 55.4706C190.064 56.7954 189.319 58.0436 188.643 59.3249C187.98 60.5975 187.128 61.7204 186.341 62.9616C186.017 63.4223 185.716 65.0341 185.831 65.0533C185.956 65.0742 186.621 63.8556 186.983 63.2941Z" fill="#C8BBB6"/>
<path d="M190.294 62.6034C190.812 61.2316 191.632 60.0496 192.44 58.7475C192.493 58.6171 192.541 58.3354 192.52 58.0745C192.511 57.805 192.365 57.5876 192.317 57.6223C192.226 57.7144 191.944 58.1177 191.767 58.4741C191.418 59.8529 190.578 61.0959 189.668 62.2414C189.522 62.4743 189.406 63.3559 189.561 63.3925C189.643 63.4169 190.116 62.8955 190.294 62.6034Z" fill="#C8BBB6"/>
<path d="M40.038 161.91C41.8873 160.149 43.4759 158.152 45.054 156.153C46.5453 154.097 47.9809 151.988 49.2601 149.789C49.7265 148.987 50.6336 146.512 50.545 146.465C50.4146 146.411 49.3026 148.187 48.6203 149.446C47.5532 151.723 46.2167 153.881 44.7394 155.918C43.1752 157.898 41.5153 159.808 39.5478 161.378C38.8971 162.062 36.8895 163.936 36.9851 164.07C37.0112 164.107 37.5487 163.778 38.201 163.34C38.855 162.892 39.6117 162.343 40.038 161.91Z" fill="#C8BBB6"/>
<path d="M40.713 157.551C41.6786 156.522 42.5173 155.354 43.309 154.21C44.1286 153.092 45.0733 152.06 45.912 150.892C46.0461 150.667 46.2428 150.196 46.3299 149.739C46.438 149.285 46.3043 148.866 46.2469 148.888C46.179 148.909 46.1233 149.179 45.9318 149.49C45.7508 149.803 45.4829 150.187 45.2897 150.509C44.6892 151.727 43.8279 152.838 42.9944 153.975C42.2009 155.129 41.3187 156.172 40.2124 157.017C39.8609 157.387 38.9074 158.6 39.0065 158.713C39.0586 158.786 40.2363 158.029 40.713 157.551Z" fill="#C8BBB6"/>
<path d="M40.2136 155.087C41.1411 153.837 42.2319 152.829 43.241 151.539C43.3072 151.4 43.3995 151.104 43.3649 150.798C43.3459 150.462 43.0625 150.297 43.0416 150.358C42.9999 150.415 43.0276 150.57 42.9197 150.702C42.831 150.848 42.6953 151.019 42.6013 151.196C42.0755 152.545 40.9203 153.682 39.7131 154.552C39.5078 154.754 39.1005 155.523 39.1909 155.623C39.2517 155.709 39.9457 155.342 40.2136 155.087Z" fill="#C8BBB6"/>
<path d="M18.1279 219.526C19.9715 218.826 21.7334 217.909 23.4485 216.951C25.1479 215.959 26.8369 214.965 28.406 213.726C28.5452 213.599 28.7365 213.417 28.9331 213.203C29.1228 212.967 29.3177 212.699 29.4882 212.449C29.8032 211.911 29.9721 211.414 29.9321 211.397C29.873 211.365 29.5651 211.668 29.2328 212.052C28.8309 212.403 28.3299 212.834 27.9281 213.185C26.578 214.525 24.9342 215.634 23.2591 216.609C21.5563 217.557 19.7822 218.355 17.9004 218.834C17.2343 219.098 15.2619 219.926 15.3019 220.072C15.3192 220.161 17.2461 219.861 18.1279 219.526Z" fill="#C8BBB6"/>
<path d="M21.031 221.341C23.3078 220.231 25.5064 219.011 27.4409 217.319C27.8131 217.016 28.3841 215.782 28.3059 215.737C28.179 215.662 27.41 216.348 26.9142 216.812C26.1939 217.786 25.1884 218.54 24.1638 219.216C23.0976 219.821 21.9688 220.35 20.7809 220.656C20.3618 220.854 19.1616 221.49 19.2015 221.636C19.2084 221.723 20.4762 221.581 21.031 221.341Z" fill="#C8BBB6"/>
<path d="M23.9117 222.648C24.9258 221.906 26.0233 221.436 27.2096 220.883C27.3087 220.803 27.4584 220.614 27.5593 220.395C27.6846 220.158 27.5595 219.88 27.5091 219.925C27.4465 219.979 27.3595 220.05 27.236 220.083C27.0986 220.135 26.916 220.201 26.7925 220.299C25.9643 221.147 24.7938 221.67 23.6146 221.987C23.4059 222.081 22.917 222.632 22.9813 222.761C23.0213 222.843 23.6456 222.765 23.9117 222.648Z" fill="#C8BBB6"/>
</svg>
