<svg width="244" height="84" viewBox="0 0 244 84" fill="none" xmlns="http://www.w3.org/2000/svg">
<g opacity="0.5">
<circle cx="122" cy="42" r="41.25" fill="white" stroke="#6A374D" stroke-width="1.5"/>
<path d="M114.524 53.9847H113.021V59.2481C113.021 59.6631 113.358 60 113.773 60H130.315C130.73 60 131.067 59.6632 131.067 59.2481V53.9847C131.066 53.9847 114.524 53.9847 114.524 53.9847ZM130.318 27.7595C129.618 27.7595 128.922 27.8829 128.269 28.1205C127.22 25.6572 124.771 24 122.047 24C119.323 24 116.875 25.6572 115.822 28.1205C115.168 27.8829 114.475 27.7595 113.776 27.7595C110.458 27.7595 107.759 30.4574 107.759 33.7748C107.759 36.8937 110.016 39.3871 113.021 39.7465V52.4809H117.532V47.2176C117.532 46.8025 117.869 46.4656 118.284 46.4656C118.699 46.4656 119.036 46.8025 119.036 47.2176V52.4809H121.292V45.7137C121.292 45.2986 121.629 44.9617 122.044 44.9617C122.459 44.9617 122.796 45.2986 122.796 45.7137V52.4809H125.051V47.2176C125.051 46.8025 125.388 46.4656 125.803 46.4656C126.218 46.4656 126.555 46.8025 126.555 47.2176V52.4809H131.067V39.745C134.073 39.3871 136.332 36.8938 136.332 33.7748C136.331 30.4574 133.634 27.7595 130.318 27.7595Z" fill="#6A374D"/>
<rect y="42" width="80" height="1.5" fill="#6A374D"/>
<rect x="164" y="42" width="80" height="1.5" fill="#6A374D"/>
</g>
</svg>
