<svg width="19" height="24" viewBox="0 0 19 24" fill="none" xmlns="http://www.w3.org/2000/svg">
<path d="M0 9.1533C0 11.9291 1.23978 14.4099 3.19247 16.0866C3.56585 16.4071 4.07249 16.8374 4.53704 17.269C5.0379 17.7344 5.6844 18.6305 6.03385 19.218L7.36769 21.4603C7.71714 22.0478 8.35126 23.0107 8.96805 23.0045C9.58526 22.9984 10.1897 22.0177 10.5148 21.4161L11.4117 19.756C11.7368 19.1544 12.3573 18.2406 12.8759 17.7954C13.3487 17.3899 13.8748 17.0025 14.2795 16.7277C16.7083 15.0836 18.307 12.3074 18.307 9.15371C18.307 4.09848 14.2089 0 9.1533 0C4.09889 0 0 4.09807 0 9.1533ZM9.15371 16.7099C5.00366 16.7099 1.63956 13.3458 1.63956 9.19621C1.63956 5.04615 5.00366 1.68205 9.15371 1.68205C13.3038 1.68205 16.6679 5.04615 16.6679 9.19621C16.6679 13.3458 13.3038 16.7099 9.15371 16.7099Z" fill="#47152B"/>
</svg>
