<svg width="42" height="42" viewBox="0 0 42 42" fill="none" xmlns="http://www.w3.org/2000/svg">
<path d="M21 0.00012207C9.42083 0.00012207 0 9.42106 0 21.0001C0 32.5793 9.42083 42.0001 21 42.0001C32.5798 42.0001 41.9999 32.5793 41.9999 21.0001C41.9999 9.42106 32.5798 0.00012207 21 0.00012207ZM21 38.5401C11.3283 38.5401 3.46016 30.6721 3.46016 21.0002C3.46016 11.3287 11.3283 3.4604 21 3.4604C30.6717 3.4604 38.5396 11.3287 38.5396 21.0002C38.5396 30.672 30.6716 38.5401 21 38.5401Z" fill="#896C61"/>
<path d="M22.7309 20.3128V8.42008C22.7309 7.46464 21.9563 6.68994 21.0009 6.68994C20.0456 6.68994 19.271 7.46464 19.271 8.42008V21.0002C19.271 21.5374 19.5208 22.0106 19.9041 22.3282C19.9204 22.3478 19.9313 22.3696 19.9482 22.3888L26.436 29.7555C26.7782 30.1429 27.2554 30.3415 27.7351 30.3415C28.1405 30.3415 28.5488 30.1999 28.8773 29.9099C29.5946 29.278 29.6638 28.185 29.0325 27.4677L22.7309 20.3128Z" fill="#896C61"/>
</svg>
