<svg width="36" height="28" viewBox="0 0 36 28" fill="none" xmlns="http://www.w3.org/2000/svg">
<path d="M29.564 15.7852C29.2995 15.4998 29.1252 15.1388 29.0733 14.7339C29.061 14.6532 29.0495 14.5754 29.0495 14.4932C29.0495 14.1142 29.1634 13.7604 29.3565 13.4621C29.5222 13.2078 29.7484 13.0002 30.0136 12.8496C30.0691 12.8187 30.121 12.7855 30.1786 12.7596C30.4135 12.6558 30.6715 12.5946 30.9438 12.5946C31.0159 12.5946 31.0822 12.6082 31.1542 12.6147C31.5787 12.6616 31.9605 12.8432 32.2538 13.1249C32.6141 13.4708 32.8389 13.9535 32.8389 14.4911C32.8389 14.5667 32.8238 14.6417 32.818 14.7151C32.7049 15.654 31.913 16.3868 30.9431 16.3868C30.3977 16.3883 29.9084 16.1563 29.564 15.7852ZM6.46807 12.8518C6.41403 12.8208 6.36071 12.7877 6.30307 12.7617C6.06817 12.6565 5.81093 12.5967 5.53856 12.5967C5.4665 12.5967 5.39877 12.6104 5.32888 12.6176C4.90375 12.6645 4.52114 12.846 4.22859 13.127C3.86832 13.4729 3.64206 13.9557 3.64206 14.4932C3.64206 14.5696 3.65719 14.6438 3.66512 14.7188C3.77825 15.6562 4.57014 16.3876 5.53928 16.3876C6.08474 16.3876 6.57328 16.1527 6.91914 15.7816C7.1843 15.4977 7.35796 15.1352 7.40984 14.731C7.42065 14.6525 7.43506 14.5718 7.43506 14.4903C7.43506 14.1135 7.31977 13.7583 7.12738 13.4607C6.95949 13.2092 6.73252 13.0024 6.46807 12.8518ZM1.56038 13.4693C1.32116 13.0759 1.17561 12.6183 1.17561 12.124C1.17561 10.706 2.3112 9.5567 3.7206 9.52284C3.87048 9.38449 4.02756 9.24903 4.18968 9.11717V3.12432C4.18968 1.37193 5.98242 0 8.27018 0H28.2101C30.4985 0 32.2898 1.37193 32.2898 3.12432V9.11645C32.452 9.24975 32.609 9.38305 32.7582 9.52212C34.1683 9.55598 35.3039 10.706 35.3039 12.1233C35.3039 12.6176 35.1562 13.0744 34.9184 13.4679C34.9372 13.6394 34.9624 13.8101 34.9624 13.9838V18.2848C34.9624 18.4937 34.7938 18.6623 34.5855 18.6623H27.3295V18.2848V17.9043V15.9675V14.829V13.6934V10.8904C27.3295 9.40179 25.5238 8.23593 23.2181 8.23593H13.2622C10.9557 8.23593 9.14998 9.40179 9.14998 10.8904V13.6934V14.829V15.966V17.9036V18.2833V18.6602H1.894C1.6836 18.6602 1.51499 18.4923 1.51499 18.2833V13.9823C1.51643 13.8101 1.54309 13.6401 1.56038 13.4693ZM28.7188 15.9293C29.1907 16.6614 30.01 17.1477 30.9431 17.1477C32.3828 17.1477 33.5515 15.9927 33.5904 14.5624C33.5904 14.5401 33.5991 14.5163 33.5991 14.4918C33.5991 13.5226 33.0702 12.6817 32.2913 12.2192C31.9512 12.0181 31.5657 11.8935 31.1542 11.861C31.0844 11.8546 31.0173 11.8401 30.9438 11.8401C30.6499 11.8401 30.3717 11.8992 30.1037 11.9886C30.0749 11.9994 30.0439 12.0051 30.0136 12.016C29.2614 12.2991 28.6791 12.9123 28.4291 13.6812C28.3462 13.9384 28.2886 14.2086 28.2886 14.4925C28.2886 14.6056 28.3095 14.7144 28.3225 14.8232C28.3729 15.226 28.5062 15.605 28.7188 15.9293ZM8.05041 13.6797C7.80038 12.9123 7.21745 12.2991 6.46519 12.0152C6.43637 12.0044 6.40611 11.9972 6.37584 11.9871C6.10996 11.8985 5.8311 11.8394 5.5364 11.8394C5.46434 11.8394 5.39661 11.8546 5.32672 11.8596C4.91384 11.892 4.52906 12.0167 4.18968 12.2177C3.41004 12.681 2.88188 13.5226 2.88188 14.4911C2.88188 14.5148 2.88836 14.5357 2.88836 14.5631C2.92727 15.9934 4.09745 17.1456 5.5364 17.1456C6.46952 17.1456 7.28806 16.6585 7.76075 15.9286C7.97259 15.6036 8.10517 15.226 8.15561 14.8232C8.17074 14.713 8.18948 14.6056 8.18948 14.4925C8.19092 14.2086 8.13399 13.9384 8.05041 13.6797ZM5.32816 4.9502C5.32816 5.58501 5.77922 6.14488 6.46519 6.50876C6.93571 6.75735 7.51576 6.91227 8.15345 6.92884C10.2712 6.14993 12.7563 5.69309 15.4217 5.69309H21.0586C23.7232 5.69309 26.2076 6.14993 28.3254 6.92884C28.963 6.91227 29.5424 6.75735 30.0136 6.50876C30.7017 6.14416 31.1506 5.58501 31.1506 4.9502V3.12432C31.1506 2.02692 29.8349 1.13703 28.2101 1.13703H8.27018C6.64605 1.13703 5.32816 2.0262 5.32816 3.12432V4.9502ZM9.90944 13.6934V14.829V15.966V17.9036V18.2833V18.6602V18.7567H10.8V18.6602V18.2833V17.9036V15.966V14.829V13.6934V9.62804C10.2546 9.9667 9.90944 10.4091 9.90944 10.8904V13.6934ZM25.6802 13.6934V14.829V15.966V17.9036V18.2833V18.6602V18.7567H26.5701V18.6602V18.2833V17.9036V15.966V14.829V13.6934V10.8904C26.5701 10.4091 26.2249 9.9667 25.6802 9.62804V13.6934ZM18.6188 14.8312V15.9682V17.905V18.2833V18.6631V18.7567H19.6247V18.6631V18.2833V17.905V15.9682V14.8312V13.6934V8.99467H18.6188V13.6934V14.8312ZM20.3856 14.8312V15.9682V17.905V18.2833V18.6631V18.7567H21.3915V18.6631V18.2833V17.905V15.9682V14.8312V13.6934V8.99467H20.3856V13.6934V14.8312ZM22.1495 14.8312V15.9682V17.905V18.2833V18.6631V18.7567H23.1561V18.6631V18.2833V17.905V15.9682V14.8312V13.6934V8.99467H22.1495V13.6934V14.8312ZM23.9148 14.8312V15.9682V17.905V18.2833V18.6631V18.7567H24.9207V18.6631V18.2833V17.905V15.9682V14.8312V13.6934V9.27569C24.6102 9.16833 24.2751 9.08402 23.9148 9.04079V13.6934V14.8312ZM13.3234 14.8312V15.9682V17.905V18.2833V18.6631V18.7567H14.3308V18.6631V18.2833V17.905V15.9682V14.8312V13.6934V8.99467H13.3234V13.6934V14.8312ZM16.8534 14.8312V15.9682V17.905V18.2833V18.6631V18.7567H17.86V18.6631V18.2833V17.905V15.9682V14.8312V13.6934V8.99467H16.8534V13.6934V14.8312ZM15.0888 14.8312V15.9682V17.905V18.2833V18.6631V18.7567H16.0954V18.6631V18.2833V17.905V15.9682V14.8312V13.6934V8.99467H15.0888V13.6934V14.8312ZM11.5588 14.8312V15.9682V17.905V18.2833V18.6631V18.7567H12.5654V18.6631V18.2833V17.905V15.9682V14.8312V13.6934V9.04079C12.2044 9.08618 11.8686 9.16833 11.5588 9.27569V13.6934V14.8312ZM35.5158 19.3281H0.965925C0.756244 19.3281 0.586914 19.4967 0.586914 19.7064V21.2232C0.586914 21.4321 0.756965 21.6 0.965925 21.6H35.5143C35.724 21.6 35.8933 21.4307 35.8933 21.2232V19.7064C35.8941 19.4967 35.7254 19.3281 35.5158 19.3281ZM7.85946 22.2204H2.55042C2.34074 22.2204 2.17213 22.3883 2.17213 22.5973V26.1042C2.17213 27.1469 3.02167 28 4.06791 28H6.34342C7.38966 28 8.23992 27.1512 8.23992 26.1042V22.5973C8.23992 22.389 8.06915 22.2204 7.85946 22.2204ZM33.9291 22.2204H28.6215C28.4118 22.2204 28.2418 22.3883 28.2418 22.5973V26.1042C28.2418 27.1469 29.0927 28 30.1397 28H32.4131C33.4579 28 34.311 27.1512 34.311 26.1042V22.5973C34.3088 22.389 34.1388 22.2204 33.9291 22.2204Z" fill="#839F89"/>
</svg>
