<svg width="244" height="84" viewBox="0 0 244 84" fill="none" xmlns="http://www.w3.org/2000/svg">
<g opacity="0.5">
<circle cx="122" cy="42" r="41.25" fill="white" stroke="#6A374D" stroke-width="1.5"/>
<path d="M134.523 37.3074C133.479 39.2157 131.452 40.5129 129.128 40.5129C126.582 40.5129 124.393 38.9569 123.462 36.7462L105.411 42.6396H139.447L134.523 37.3074Z" fill="#6A374D"/>
<path d="M103.783 57.1328C103.783 58.5567 104.937 59.7108 106.361 59.7108H137.259C138.683 59.7108 139.837 58.5567 139.837 57.1328V53.4088H103.783V57.1328Z" fill="#6A374D"/>
<path d="M139.837 44.6881H103.783V50.6972H139.837V44.6881Z" fill="#6A374D"/>
<path d="M129.128 38.4643C131.391 38.4643 133.225 36.6299 133.225 34.3672C133.225 32.7257 132.26 31.3104 130.866 30.6566C131.087 30.0531 131.371 29.4119 131.728 28.8004C132.654 27.2155 134.081 25.8316 136.239 25.8316C136.805 25.8316 137.263 25.3732 137.263 24.8074C137.263 24.2415 136.805 23.7831 136.239 23.7831C133.473 23.7831 131.214 25.3254 129.687 28.2481C129.342 28.9054 129.058 29.587 128.82 30.283C126.701 30.4406 125.031 32.2083 125.031 34.3672C125.031 36.6299 126.866 38.4643 129.128 38.4643ZM126.668 33.2034C126.959 32.6222 127.414 32.148 127.983 31.8326C128.469 31.5624 129.098 31.7316 129.375 32.2316C129.649 32.7262 129.471 33.3498 128.976 33.624C128.782 33.7319 128.62 33.8987 128.515 34.0942C128.51 34.1034 128.504 34.1119 128.499 34.1211C128.319 34.4796 127.958 34.6868 127.583 34.6868C126.826 34.687 126.325 33.8864 126.668 33.2034Z" fill="#6A374D"/>
<rect y="42" width="80" height="1.5" fill="#6A374D"/>
<rect x="164" y="42" width="80" height="1.5" fill="#6A374D"/>
</g>
</svg>
