<svg width="84" height="84" viewBox="0 0 84 84" fill="none" xmlns="http://www.w3.org/2000/svg">
<circle cx="42" cy="42" r="41.25" fill="white" stroke="#6A374D" stroke-width="1.5"/>
<path d="M56.498 24H27.502C25.571 24 24 25.5709 24 27.502V56.4978C24 58.429 25.571 59.9999 27.502 59.9999H56.498C58.429 59.9999 60 58.4289 60 56.4978V27.502C60 25.5709 58.429 24 56.498 24ZM57.116 56.4984C57.116 56.8391 56.8387 57.1164 56.498 57.1164H27.502C27.1613 57.1164 26.884 56.8391 26.884 56.4984V31.5153H57.116V56.4984Z" fill="#6A374D"/>
<path d="M37.7523 38.3381H51.6541C52.5662 38.3381 53.3087 37.5957 53.3087 36.6835C53.3087 35.7713 52.5666 35.0289 51.6541 35.0289H37.7523C36.8401 35.0289 36.0977 35.7709 36.0977 36.6835C36.0977 37.5961 36.8401 38.3381 37.7523 38.3381Z" fill="#6A374D"/>
<path d="M37.7523 43.7032H51.6541C52.5662 43.7032 53.3087 42.9608 53.3087 42.0487C53.3087 41.1365 52.5666 40.394 51.6541 40.394H37.7523C36.8401 40.394 36.0977 41.1361 36.0977 42.0487C36.0977 42.9608 36.8401 43.7032 37.7523 43.7032Z" fill="#6A374D"/>
<path d="M37.7523 49.0686H51.6541C52.5662 49.0686 53.3087 48.3263 53.3087 47.414C53.3087 46.5019 52.5666 45.7594 51.6541 45.7594H37.7523C36.8401 45.7594 36.0977 46.5019 36.0977 47.414C36.0977 48.3263 36.8401 49.0686 37.7523 49.0686Z" fill="#6A374D"/>
<path d="M37.7523 54.7391H51.6541C52.5662 54.7391 53.3087 53.9967 53.3087 53.0845C53.3087 52.1723 52.5666 51.4299 51.6541 51.4299H37.7523C36.8401 51.4299 36.0977 52.1723 36.0977 53.0845C36.0977 53.9967 36.8401 54.7391 37.7523 54.7391Z" fill="#6A374D"/>
<path d="M32.346 38.3381C33.2582 38.3381 34.0006 37.5957 34.0006 36.6835C34.0006 35.7713 33.2586 35.0289 32.346 35.0289C31.4334 35.0289 30.6914 35.7709 30.6914 36.6835C30.6914 37.5961 31.4338 38.3381 32.346 38.3381Z" fill="#6A374D"/>
<path d="M32.346 43.7032C33.2582 43.7032 34.0006 42.9608 34.0006 42.0487C34.0006 41.1365 33.2586 40.394 32.346 40.394C31.4334 40.394 30.6914 41.1361 30.6914 42.0487C30.6914 42.9608 31.4338 43.7032 32.346 43.7032Z" fill="#6A374D"/>
<path d="M32.346 49.0686C33.2582 49.0686 34.0006 48.3263 34.0006 47.414C34.0006 46.5019 33.2586 45.7594 32.346 45.7594C31.4334 45.7594 30.6914 46.5019 30.6914 47.414C30.6914 48.3263 31.4338 49.0686 32.346 49.0686Z" fill="#6A374D"/>
<path d="M32.346 54.7391C33.2582 54.7391 34.0006 53.9967 34.0006 53.0845C34.0006 52.1723 33.2586 51.4299 32.346 51.4299C31.4334 51.4299 30.6914 52.1723 30.6914 53.0845C30.6914 53.9967 31.4338 54.7391 32.346 54.7391Z" fill="#6A374D"/>
</svg>
