<svg width="206" height="245" viewBox="0 0 206 245" fill="none" xmlns="http://www.w3.org/2000/svg">
<path d="M88.3374 114.678C85.275 113.228 83.1561 110.592 81.0842 108.321C79.023 105.999 76.6587 103.874 73.6149 103.41C67.3405 101.941 62.2711 108.154 55.4612 107.625C52.165 107.462 49.124 105.912 46.5187 104.133C43.8528 102.392 41.3566 100.395 38.5017 99.2931C35.6519 98.1187 32.509 98.4584 29.6658 99.5932C28.2024 100.136 26.779 100.834 25.1431 101.256C23.5071 101.678 21.685 101.653 20.0526 101.084C18.853 100.64 17.3681 99.8202 15.8569 98.4418C14.4119 97.0463 13.3292 95.2271 12.3421 93.5955C11.3713 91.936 10.4848 90.4199 9.66888 89.4515C8.89146 88.4496 8.13049 88.1509 8.15759 88.0731C8.16828 88.0232 8.86148 88.1508 9.73087 88.8696C10.6224 89.5827 11.6009 90.8156 12.6308 92.2476C13.6607 93.6795 14.7641 95.3047 16.065 96.6903C16.7183 97.3941 17.4201 97.9204 18.2267 98.396C19.0226 98.9215 19.8121 99.3308 20.5895 99.6018C21.9281 100.129 23.3687 100.228 24.8171 99.9017C26.2712 99.5971 27.706 98.9437 29.2471 98.428C32.2622 97.3195 35.8593 97.004 38.8989 98.3652C41.9377 99.6323 44.4232 101.679 47.0228 103.437C49.606 105.222 52.4245 106.64 55.5103 106.811C58.6133 107.047 61.5271 105.729 64.3632 104.384C65.7924 103.708 67.2714 103.044 68.8688 102.655C70.4606 102.244 72.155 102.231 73.7903 102.445C77.1828 102.89 79.8644 105.24 82.0084 107.516C84.2022 109.803 86.2748 112.168 89.0526 113.338C90.0425 113.884 91.5922 114.498 93.4322 114.683C93.8922 114.729 94.3743 114.77 94.8564 114.811C95.3434 114.779 95.8527 114.742 96.3397 114.711C97.3531 114.708 98.3644 114.424 99.3435 114.289C103.241 113.401 106.612 112.483 106.657 112.66C106.669 112.705 105.946 113.009 104.764 113.456C103.582 113.902 101.926 114.518 100.053 115.12C98.1634 115.655 96.0132 116.186 93.8695 116.103C93.3431 116.074 92.8062 116.094 92.3127 116.01C91.8134 115.903 91.3142 115.796 90.8371 115.683C89.8166 115.475 89.0542 114.988 88.3374 114.678Z" fill="#C8BBB6"/>
<path d="M177.041 126.254C176.015 125.387 174.992 124.802 173.956 124.079C172.856 123.562 171.733 123.05 170.525 122.937C168.124 122.59 165.639 123.467 163.175 124.245C161.932 124.637 160.684 125.006 159.368 125.299C158.058 125.613 156.64 125.602 155.304 125.357C152.581 124.858 150.391 123.135 148.358 121.562C146.319 119.966 144.323 118.264 141.985 117.335C139.668 116.401 137.073 116.67 134.58 117.242C132.081 117.793 129.552 118.682 126.771 118.598C125.398 118.575 123.988 118.232 122.748 117.538C121.492 116.872 120.544 116.032 119.464 115.32C117.966 114.268 115.108 111.964 112.184 111.328C110.731 110.996 109.388 111.366 108.585 111.998C107.769 112.585 107.403 113.175 107.314 113.104C107.264 113.093 107.481 112.565 108.046 111.83C108.611 111.095 109.889 110.293 111.462 110.265C114.679 110.212 117.985 112.33 120.379 114.023C122.473 115.652 124.291 117.305 126.839 117.307C129.288 117.477 131.802 116.71 134.378 116.186C136.927 115.646 139.76 115.386 142.327 116.469C144.838 117.518 146.845 119.264 148.884 120.86C150.895 122.439 153.006 124.04 155.468 124.442C157.937 124.961 160.383 124.023 162.841 123.223C165.277 122.429 167.833 121.368 170.665 121.651C172.077 121.735 173.35 122.279 174.616 122.801C175.762 123.495 176.997 124.167 178 124.946C179.559 126.052 182.452 128.583 185.661 128.863C188.841 129.127 191.607 127.965 191.67 128.208C191.681 128.252 191.096 128.545 190.114 128.94C189.634 129.182 189.02 129.363 188.324 129.496C187.97 129.587 187.611 129.657 187.235 129.754C186.842 129.784 186.421 129.799 186.006 129.835C185.165 129.958 184.277 129.715 183.396 129.589C182.568 129.308 181.642 129.099 180.913 128.65C179.319 127.954 178.032 126.989 177.041 126.254Z" fill="#C8BBB6"/>
<path d="M216.612 41.9492C215.836 43.4227 214.655 44.6002 213.716 45.7149C212.75 46.8132 212.256 48.0962 212.09 49.5539L212.079 49.6038C211.463 52.3331 213.018 54.9738 213.787 57.8642C214.656 60.6818 215.233 63.7398 214.813 66.7721C214.405 69.8487 212.598 72.5317 210.41 74.5587C209.271 75.5365 208.082 76.5036 206.931 77.3431C206.336 77.7796 205.903 78.2924 205.641 78.8315C205.463 79.4199 205.446 80.0846 205.606 80.7977C206.187 83.5954 207.349 86.3609 207.925 89.3247C208.114 90.0543 208.103 90.8352 208.153 91.5768L208.212 92.7172C208.237 93.1822 208.129 93.4931 208.088 93.881C207.877 95.3502 207.579 96.8421 207.03 98.2806C206.504 99.7134 205.634 101.093 204.49 102.143C203.336 103.243 201.89 103.946 200.549 104.505C199.191 105.091 197.927 105.677 197.099 106.669C196.237 107.622 195.948 108.97 195.809 110.35C195.4 112.602 196.006 117.232 195.683 121.371C195.51 123.444 194.877 125.376 193.933 126.468C193.691 126.719 193.472 126.965 193.269 127.182C193.026 127.339 192.828 127.485 192.662 127.575C192.315 127.782 192.133 127.9 192.122 127.856C192.049 127.756 192.683 127.381 193.318 126.462C194.009 125.576 194.524 124.099 194.627 122.304C194.898 118.697 193.817 114.142 194.251 110.163C194.456 108.671 194.842 106.968 196.056 105.735C197.193 104.475 198.711 103.871 200.052 103.312C201.422 102.77 202.685 102.185 203.697 101.263C204.731 100.336 205.514 99.1672 206.047 97.8506C206.579 96.5341 206.873 95.1142 207.117 93.6836C207.148 93.3455 207.272 92.9127 207.225 92.6417L207.184 91.5676C207.162 90.8424 207.189 90.1278 206.985 89.4261C206.492 86.6056 205.358 83.8565 204.754 80.8762C204.588 80.141 204.581 79.2937 204.841 78.4722C205.206 77.6941 205.777 77.075 206.394 76.6328C207.622 75.7263 208.734 74.8263 209.806 73.8656C211.89 71.8892 213.532 69.3902 213.865 66.5689C214.248 63.7584 213.661 60.8445 212.743 58.1103C212.377 56.6954 211.742 55.4211 211.271 53.9627C210.994 53.256 210.927 52.448 210.733 51.6964C210.699 50.9269 210.771 50.1067 210.781 49.3258L210.771 49.3757C210.869 47.7469 211.504 46.0032 212.574 44.7601C213.572 43.512 214.566 42.43 215.182 41.1627C215.372 40.6185 215.699 39.9681 215.97 39.1908C216.114 38.3756 216.472 37.4813 216.548 36.495C216.843 34.5324 216.826 32.2731 216.616 30.1814C216.284 25.9753 214.802 22.6086 214.973 22.5408C215.018 22.5294 215.394 23.2575 215.991 24.4713C216.244 25.0896 216.494 25.874 216.805 26.7134C217.05 27.5698 217.301 28.5426 217.536 29.5431C218.387 33.6622 218.216 38.8469 216.612 41.9492Z" fill="#C8BBB6"/>
<path d="M212.831 21.2779C211.868 19.192 210.795 17.1346 209.628 15.1721C208.577 13.109 207.426 11.1187 206.149 9.18468C205.767 8.43447 205.117 6.10249 205.355 6.01761C205.609 5.90491 206.977 7.36749 207.556 8.51491C208.364 10.6408 209.305 12.7324 210.351 14.7734C211.517 16.7359 212.795 18.6698 214.188 20.5033C214.636 21.2363 215.392 23.7059 215.127 23.8686C214.934 23.942 213.381 22.2206 212.831 21.2779Z" fill="#C8BBB6"/>
<path d="M171.963 15.5104C166.304 17.7965 160.603 20.3764 154.827 22.4806C149.101 24.6897 143.416 27.1477 137.483 29.0095C131.584 31.0039 125.524 32.191 119.645 33.9914C113.744 35.7035 108.007 37.9625 102.541 40.8119C97.0581 43.5951 91.7104 46.7205 86.2222 49.5757L82.0739 51.684L77.8301 53.6049C74.9704 54.7676 72.0102 55.8147 69.122 56.8668C57.4337 60.733 46.6141 66.6858 35.2996 71.6345C31.1385 73.5104 22.8661 75.811 16.157 79.052C12.8466 80.6612 9.77591 82.4678 8.54587 84.5539C7.94476 85.6051 8.06891 86.6342 8.41127 87.2296C8.70941 87.8365 8.99969 88.1388 8.96119 88.1724C8.94479 88.2002 8.69945 87.9805 8.32501 87.5349C7.99479 87.0777 7.57254 86.1728 7.86841 85.0353C8.51579 82.7931 11.1201 80.8239 14.0418 79.0793C17.0297 77.3176 20.5783 75.7177 24.211 74.2611C27.8102 72.7661 31.5891 71.602 34.7126 70.1825C46.0236 65.4941 56.9879 59.6454 68.821 55.8834C71.7591 54.842 74.6423 53.8619 77.4856 52.727L81.6966 50.8618L85.8342 48.8033C91.306 45.976 96.6594 42.8726 102.159 40.0617C107.647 37.2065 113.466 34.9026 119.4 33.135C125.317 31.301 131.383 30.0418 137.182 28.026C143.037 26.1371 148.639 23.63 154.386 21.3211C160.184 19.117 165.669 16.5221 171.354 14.0642C175.654 12.2703 184.107 8.93279 191.784 6.97461C195.614 6.00943 199.303 5.41084 202.002 5.72799C203.355 5.85055 204.411 6.3796 204.908 6.93511C205.209 7.18755 205.283 7.47496 205.351 7.64611C205.419 7.81726 205.447 7.92781 205.447 7.92781C205.387 7.96704 205.29 7.59119 204.821 7.14622C204.391 6.66772 203.474 6.31478 202.294 6.2186C199.9 5.98771 196.538 6.66688 192.93 7.66913C185.686 9.75137 177.345 13.2486 171.963 15.5104Z" fill="#C8BBB6"/>
<path d="M69.3392 93.9738C53.3458 91.7592 37.1934 89.7507 21.1402 88.4005C19.716 88.273 16.857 88.0678 14.3987 87.4054C13.1998 87.0547 11.9889 86.5655 11.5003 85.6777C11.0666 84.7285 11.5886 84.1929 11.5722 84.2207C11.6942 84.2364 11.4874 84.7142 11.7905 85.2491C12.0936 85.7839 13.0044 86.1148 14.0413 86.2951C16.1708 86.6886 18.9614 86.6285 21.2998 86.8265C37.3217 89.1517 53.4299 91.1716 69.5487 92.4105C72.5583 92.7419 81.2589 94.2924 81.2389 94.5805C81.2232 94.7025 79.2293 94.6512 76.7418 94.5152C74.2101 94.3906 71.2569 94.1862 69.3392 93.9738Z" fill="#C8BBB6"/>
<path d="M185.899 96.9917C185.022 98.2555 184.207 99.4801 183.502 100.77C182.864 102.043 182.559 103.513 182.05 105.012C181.591 106.522 180.551 108.064 179.14 108.9C177.768 109.796 176.171 110.279 174.61 110.446C168.246 110.91 162.374 108.535 156.424 107.501C150.398 106.628 144.286 106.154 138.188 105.276C136.664 105.127 135.16 104.784 133.63 104.519C132.132 104.198 130.575 104.01 129.104 103.612L120.242 101.254C118.101 100.722 114.032 99.4853 110.417 98.9093C106.785 98.267 103.658 98.4848 103.64 98.3243C103.623 98.258 104.253 98.1424 105.321 97.9847C106.393 97.755 107.889 97.7934 109.617 97.819C113.063 98.0141 117.305 98.8289 120.674 99.728L129.444 102.369C130.904 102.817 132.4 103.044 133.882 103.393C135.379 103.713 136.838 104.068 138.368 104.239C144.379 105.234 150.48 105.758 156.584 106.658C162.634 107.714 168.549 109.983 174.531 109.406C177.413 109.062 180.258 107.479 180.912 104.622C181.35 103.212 181.609 101.66 182.285 100.165C182.977 98.7363 183.808 97.3898 184.635 96.1153C185.259 95.1525 186.229 93.7939 187.058 92.165C187.92 90.4805 188.853 88.6127 189.748 86.8725C191.571 83.4307 192.649 80.2991 192.821 80.3255C192.871 80.3362 192.71 81.085 192.409 82.2946C192.158 83.5148 191.506 85.098 190.833 86.8752C190.099 88.5976 189.316 90.4975 188.576 92.2918C187.688 94.1482 186.714 95.7672 185.899 96.9917Z" fill="#C8BBB6"/>
<path d="M205.223 17.8418C202.83 32.2306 200.955 46.8868 198.434 61.2378C198.228 62.5407 197.727 65.0753 197.012 67.2405C196.699 68.3117 196.219 69.2845 195.854 69.9684C195.36 70.6146 195.047 70.9548 194.991 70.922C194.93 70.867 195.071 70.5005 195.327 69.9392C195.533 69.3673 195.737 68.5129 195.913 67.5479C196.302 65.5846 196.521 63.0522 196.865 61.0061C200.355 46.7584 202.21 32.2021 203.666 17.6544C203.999 14.9272 205.584 7.09025 205.878 7.13231C206.088 7.12516 205.651 14.383 205.223 17.8418Z" fill="#C8BBB6"/>
<path d="M208.357 164.529C205.213 157.465 201.902 150.396 199.061 143.136C196.149 135.965 192.949 128.868 188.477 122.594C188.134 121.999 187.618 121.095 187.034 120.114C186.412 119.166 185.718 118.119 185.084 117.127C183.818 115.143 182.786 113.429 182.879 113.334C182.995 113.233 184.1 114.41 185.536 116.044C186.971 117.677 188.743 119.79 189.81 121.731C193.948 128.351 196.933 135.621 199.851 142.814C202.702 150.025 206.189 156.954 209.774 163.81C211.085 166.419 213.954 174.427 213.694 174.517C213.468 174.646 209.988 167.834 208.357 164.529Z" fill="#C8BBB6"/>
<path d="M185.392 184.181L180.481 183.61L175.612 182.744C172.385 182.116 169.108 181.665 165.935 180.88C159.555 179.367 153.147 177.838 146.815 176.148C143.653 175.314 140.463 174.557 137.256 173.829C134.05 173.1 130.893 172.288 127.665 171.659L118.019 169.645L108.4 167.459C105.183 166.781 102.019 165.852 98.845 164.974C95.6814 164.046 92.4586 163.345 89.3869 162.134L80.0693 158.832L70.9321 155.225L61.7728 151.624L57.1792 149.815L54.8892 148.708L52.7903 147.246C50.1322 145.079 48.25 142.263 46.479 139.513L43.8172 135.414L40.9515 131.437C39.5963 129.476 37.6142 126.639 35.4246 123.455C33.2015 120.233 30.8984 116.701 28.482 113.552C26.1041 110.369 23.993 107.306 22.7726 104.862C21.5743 102.413 21.4501 100.653 21.4501 100.653C21.4722 100.647 21.602 100.967 21.8003 101.553C21.8966 101.834 22.0157 102.204 22.1684 102.613C22.3652 103.01 22.6013 103.468 22.8652 103.942C23.9158 105.911 25.7631 108.5 28.0276 111.334C30.3249 114.113 32.8811 117.439 35.2547 120.788C37.6561 124.153 40.0797 127.512 42.2515 130.536L45.0402 134.579L47.6528 138.762C49.3574 141.529 51.1448 144.251 53.5804 146.287C55.9389 148.39 59.1411 149.285 62.1692 150.602L71.2794 154.287L80.4173 157.988L89.6522 161.334C92.7017 162.551 95.9081 163.28 99.0439 164.192C102.196 165.076 105.338 166.01 108.549 166.666L118.14 168.836L127.802 170.822C131.03 171.451 134.232 172.251 137.427 172.936C140.627 173.642 143.839 174.393 147.019 175.199C153.377 176.812 159.768 178.275 166.147 179.694C169.332 180.428 172.591 180.813 175.785 181.403L180.609 182.186L185.475 182.675C187.924 182.938 191.542 183.16 195.605 183.644C197.628 183.805 199.779 184.193 201.914 184.609C203.029 184.816 204 185.014 205.097 185.155C206.146 185.379 207.188 185.582 208.237 185.806C210.25 186.206 212.285 186.601 213.983 186.233C215.708 185.882 216.732 184.368 217.393 183.184C218.037 181.933 218.571 180.898 218.931 180.192C219.319 179.503 219.605 179.146 219.632 179.163C219.66 179.179 219.469 179.535 219.17 180.202C218.898 180.885 218.49 181.863 217.979 183.079C217.406 184.241 216.677 185.891 214.889 186.73C213.051 187.464 211.027 187.208 209.026 186.947C206.986 186.625 205.006 186.263 202.811 185.981C200.716 185.72 198.635 185.243 196.558 185.143C192.446 184.742 188.495 184.418 185.392 184.181Z" fill="#C8BBB6"/>
<path d="M228.757 56.6641C230.54 60.9201 232.25 65.171 234.192 69.315C236.135 73.459 238.304 77.5681 239.822 81.9867C241.356 86.3774 242.145 91.0785 241.887 95.7433L241.026 102.639C240.7 104.939 240.541 107.244 240.015 109.502C238.352 118.586 236.144 127.574 234.026 136.539L232.46 143.263L230.678 149.972C229.627 154.487 227.96 158.809 226.471 163.178C226.178 163.961 225.814 164.928 225.413 166.022C224.95 167.061 224.505 168.26 224.055 169.532C223.133 172.081 222.153 174.951 221.054 177.546C219.983 180.157 218.716 182.465 217.504 183.98C216.923 184.743 216.334 185.296 215.927 185.637C215.492 185.961 215.255 186.14 215.222 186.102C215.155 186.025 215.92 185.427 216.835 184.129C217.75 182.832 218.726 180.859 219.622 178.482C220.545 176.121 221.366 173.362 222.23 170.592C223.045 167.812 224.187 165.018 225.027 162.608C226.605 158.309 228.389 154.076 229.507 149.637L231.406 143.016L233.093 136.308C235.306 127.342 237.575 118.409 239.245 109.348C239.77 107.09 239.935 104.807 240.245 102.534L241.073 95.6941C241.265 91.1406 240.494 86.6 238.922 82.3369C237.388 78.0403 235.17 74.0146 233.133 69.8713C231.069 65.7117 229.27 61.4835 227.389 57.3003C226.024 54.1155 223.49 47.8606 221.322 42.3837C220.259 39.6396 219.271 37.0887 218.559 35.2445C217.863 33.3725 217.461 32.1795 217.527 32.1623C217.55 32.1566 217.706 32.3991 217.92 32.8626C218.157 33.3205 218.472 33.9936 218.877 34.8323C219.665 36.5153 220.735 38.8329 221.934 41.3767C224.244 46.487 227.015 52.657 228.757 56.6641Z" fill="#C8BBB6"/>
<path d="M32.1808 119.294C28.7716 114.491 24.7233 110.136 21.9573 104.719C21.8446 104.465 21.7034 104.101 21.5893 103.659C21.5194 103.205 21.4601 102.702 21.4123 102.242C21.3388 101.318 21.3273 100.543 21.4379 100.515C21.5762 100.502 21.9292 101.048 22.3058 101.776C22.6824 102.504 23.0106 103.41 23.4093 104.132C25.1569 109.623 29.2508 114.155 33.3802 118.277C34.112 119.102 35.6626 122.003 35.4259 122.182C35.2497 122.322 33.1137 120.35 32.1808 119.294Z" fill="#C8BBB6"/>
<path d="M167.927 142.284C149.303 138.65 130.638 135.309 111.911 132.008L97.8926 129.496C93.2235 128.673 88.548 127.734 83.8533 127.178C74.4787 125.848 65.0622 124.813 55.6726 122.969C53.9967 122.505 51.5605 121.837 48.8469 121.099C46.1333 120.361 43.2449 119.22 40.5078 118.3C39.1363 117.829 37.8754 117.329 36.6495 117.056C35.4179 116.761 34.2918 116.509 33.3426 116.212C32.399 115.936 31.6488 115.588 31.1538 115.315C30.7081 114.958 30.4848 114.733 30.5012 114.705C30.5618 114.666 31.32 115.319 32.9282 115.611C34.4929 116.009 36.8142 116.141 39.3951 116.913C41.9205 117.652 44.7568 118.5 47.6373 119.336C50.5113 120.056 53.4132 120.793 56.0098 121.443C65.1462 123.494 74.5921 124.734 83.9951 126.174C88.707 126.797 93.3497 127.792 98.0244 128.636L112.055 131.193C130.774 134.378 149.494 137.563 168.17 140.759C169.545 140.97 171.392 141.366 173.521 141.665C175.65 141.965 178.022 142.295 180.417 142.62C182.813 143.039 185.217 143.126 187.4 143.27C189.588 143.436 191.511 143.576 192.957 143.698L192.979 143.693C194.674 143.774 195.723 143.998 195.684 144.032C195.652 144.087 194.743 144.039 192.922 144.108L192.944 144.103C191.554 144.108 189.737 144.105 187.661 144.099C185.595 144.043 183.248 144.177 180.903 143.863C178.553 143.62 176.159 143.389 173.909 143.168C171.687 142.964 169.64 142.525 167.927 142.284Z" fill="#C8BBB6"/>
<path d="M222.548 63.6677C220.33 74.1676 218.267 84.7218 215.9 95.1896L214.21 103.077L212.277 110.933C211.632 113.552 210.655 116.068 209.883 118.649C209.088 121.236 208.177 123.735 207.249 126.262C206.544 128.095 205.097 131.534 203.768 134.517C202.462 137.496 201.296 140.013 201.169 139.975C201.041 139.938 201.639 137.779 202.553 134.925C203.467 132.072 204.675 128.53 205.761 125.703C206.772 123.225 207.811 120.764 208.667 118.232C209.522 115.7 210.555 113.217 211.261 110.653L213.317 102.907L215.057 95.0299C217.419 84.54 219.237 73.9545 220.979 63.436C221.17 62.4433 221.475 60.9735 221.856 59.3424C222.264 57.7278 222.727 55.9577 223.146 54.2932C224.062 50.9912 224.45 48.1086 224.666 48.1236C224.716 48.1343 224.699 48.799 224.646 49.8737C224.599 50.9705 224.467 52.4667 224.202 54.0913C223.701 57.3569 222.994 61.1944 222.548 63.6677Z" fill="#C8BBB6"/>
<path d="M167.814 160.211C163.58 159.794 159.403 158.868 155.195 158.186L142.687 155.591L136.442 154.326L130.149 153.333C125.958 152.717 121.764 151.725 117.56 150.97C113.422 150.011 109.304 148.857 105.15 148.02C101.012 147.154 96.7864 146.406 92.6365 145.402C90.5562 144.925 88.5187 144.248 86.4597 143.671C84.4179 143.161 82.4089 142.595 80.34 142.162C76.1809 141.397 72.0018 140.919 67.762 140.481C64.7197 140.205 58.7355 139.038 53.8274 137.381C51.3791 136.575 49.1084 135.817 47.4488 135.325C45.7836 134.812 44.7509 134.466 44.7559 134.394C44.7609 134.322 45.6481 134.47 47.0844 134.736C48.5428 134.996 50.5674 135.44 52.8482 136.054C55.1453 136.64 57.7141 137.274 60.3043 137.808C61.6073 138.014 62.9159 138.242 64.1968 138.454C65.4719 138.643 66.7521 138.761 67.9495 138.923C72.1514 139.489 76.3812 140.071 80.591 140.942C82.6877 141.391 84.7416 142.04 86.8169 142.589C88.8316 143.177 90.8307 143.887 92.8946 144.392C97.006 145.429 101.171 146.217 105.348 147.143C109.536 148.019 113.631 149.179 117.77 150.138C121.951 150.898 126.045 151.869 130.297 152.446L136.629 153.405L142.901 154.592L155.423 156.972C159.631 157.56 163.774 158.353 168.002 158.653C169.581 158.835 171.92 159.127 174.559 159.483C175.856 159.667 177.253 159.873 178.623 160.061C180.015 160.339 181.401 160.594 182.721 160.866C185.405 161.305 187.842 162.068 189.59 162.63C191.361 163.187 192.444 163.544 192.417 163.622C192.4 163.65 192.156 163.618 191.685 163.528C191.214 163.437 190.543 163.304 189.7 163.144C188.036 162.819 185.771 162.178 183.183 161.926C178.049 161.129 171.855 160.7 167.814 160.211Z" fill="#C8BBB6"/>
<path d="M232.023 91.8769C231.368 94.6397 230.708 97.3804 229.976 100.116L227.635 108.313C226.071 113.763 224.662 119.268 223.02 124.691L218.3 141.024C217.945 142.389 217.518 143.749 217.041 145.099C216.536 146.432 216.248 147.874 215.587 149.152L213.818 153.076C213.212 154.293 212.746 155.592 212.219 156.931C211.805 157.887 211.235 159.331 210.122 160.774C209.557 161.509 208.676 162.114 207.754 162.47C206.826 162.803 205.913 162.921 205.022 163.033C203.262 163.157 201.667 163.098 200.538 163.2C199.398 163.259 198.792 163.651 198.741 163.546C198.713 163.53 198.829 163.429 199.049 163.278C199.264 163.105 199.639 162.914 200.131 162.81C201.109 162.487 202.498 162.388 204.041 162.155C205.54 161.933 207.371 161.625 208.448 160.593C209.497 159.449 210.177 157.788 210.775 156.361C211.341 155.083 211.89 153.738 212.595 152.448L214.454 148.69C215.126 147.456 215.459 146.096 215.991 144.78C216.48 143.475 216.935 142.131 217.34 140.777L222.232 124.47C223.874 119.047 225.211 113.537 226.675 108.066L228.778 99.8595C229.41 97.1024 229.97 94.3403 230.503 91.5618C230.728 90.5135 231.093 89.0044 231.522 87.2899C231.908 85.5869 232.337 83.6842 232.733 81.9312C233.448 78.3982 233.984 75.3594 234.15 75.3636C234.2 75.3743 234.189 76.0611 234.131 77.2079C234.046 78.3382 233.958 79.9172 233.794 81.6573C233.536 83.3981 233.268 85.283 232.999 87.0738C232.664 88.8816 232.317 90.5511 232.023 91.8769Z" fill="#C8BBB6"/>
<path d="M167.248 146.232C162.818 145.513 158.534 144.355 154.202 143.469C152.055 143.009 149.872 142.771 147.682 142.416L141.087 141.808C136.676 141.437 132.194 141.156 127.84 140.276C123.502 139.273 119.131 138.327 114.842 137.241L108.395 135.651C106.231 135.125 104.052 134.721 101.899 134.144C97.5711 133.092 93.3035 131.907 88.9931 130.921C84.6934 129.885 80.346 129.12 75.9793 128.739C73.8127 128.567 71.5855 128.434 69.3362 128.308C67.114 128.103 64.8861 127.876 62.6846 127.478C61.0821 127.208 58.78 126.694 56.2055 126.038C53.6252 125.36 50.9201 124.29 48.3884 123.434C45.8566 122.578 43.481 121.871 41.696 121.625C39.9216 121.328 38.7813 121.387 38.7806 121.292C38.7749 121.27 38.9959 121.213 39.4331 121.171C39.8539 121.157 40.4843 121.041 41.2545 121.102C42.7999 121.151 44.9786 121.461 47.3813 122.091C49.7783 122.698 52.4377 123.591 55.0957 124.296C57.7643 124.952 60.5207 125.49 62.9719 125.942C65.1185 126.402 67.2858 126.668 69.4752 126.928C71.6418 127.099 73.8583 127.282 76.0862 127.508C80.5477 127.984 84.918 128.836 89.2348 129.939L102.125 133.284C104.278 133.86 106.441 134.292 108.577 134.802L115.051 136.408C119.368 137.511 123.678 138.403 127.988 139.388C132.314 140.253 136.735 140.479 141.151 140.777L147.811 141.275C150.018 141.601 152.262 141.8 154.442 142.204C158.823 143.007 163.128 144.065 167.452 144.647C168.899 144.862 170.954 144.969 173.315 145.161C175.685 145.209 178.355 145.228 180.942 145.385C183.54 145.492 186.046 145.883 188.071 146.327C190.112 146.838 191.597 147.563 192.353 147.934C192.736 148.141 192.965 148.294 192.948 148.322C192.982 148.361 192.615 148.22 192.304 148.111L192.276 148.095C191.488 147.874 190.094 147.314 188.22 146.996C186.324 146.684 184.007 146.48 181.526 146.46C179.061 146.413 176.448 146.521 173.962 146.574C171.493 146.598 169.116 146.434 167.248 146.232Z" fill="#C8BBB6"/>
<path d="M102.745 137.699C94.3626 136.468 86.9027 132.05 78.7777 131.176C78.4118 131.129 77.8847 131.006 77.3135 130.894C76.7259 130.81 76.0662 130.721 75.4728 130.615C74.2704 130.524 73.1843 130.427 73.1558 130.317C73.1436 130.178 73.9666 129.895 75.1497 129.637C76.3335 129.473 77.8447 129.389 79.0371 129.624C83.2248 130.5 87.0368 132.204 90.9564 133.503C92.9161 134.153 94.871 134.874 96.8842 135.274C97.8827 135.488 98.8597 135.802 99.8738 135.894C100.888 135.986 101.864 136.111 102.927 136.12C103.691 136.158 105.223 136.517 106.527 136.912C107.805 137.478 108.795 138.024 108.735 138.157C108.691 138.263 107.666 138.127 106.474 137.892C105.188 137.847 103.704 137.758 102.745 137.699Z" fill="#C8BBB6"/>
<path d="M182.226 151.822C177.487 151.182 172.756 150.211 168.025 149.333C163.284 148.505 158.564 147.578 153.85 146.673L146.763 145.342C144.407 144.984 142.024 144.797 139.641 144.516C137.274 144.208 134.849 144.315 132.483 144.195C130.141 144.163 127.57 144.072 125.185 143.508C123.448 143.084 120.305 141.868 117.568 141.041C114.82 140.171 112.366 140.073 112.354 139.935C112.331 139.846 114.361 139.488 117.067 139.921C119.761 140.31 122.981 141.365 125.572 141.994C127.836 142.635 130.081 142.834 132.54 142.954C134.951 143.157 137.348 143.127 139.755 143.496C142.149 143.822 144.549 144.075 146.933 144.449L154.01 145.83C158.73 146.757 163.477 147.607 168.211 148.318C172.952 149.052 177.659 149.841 182.458 150.253C183.362 150.373 184.676 150.623 186.162 150.9C187.643 151.154 189.242 151.685 190.734 152.078C192.243 152.443 193.517 153.175 194.489 153.561C195.429 154.002 196.023 154.297 195.991 154.352C195.931 154.486 193.671 153.772 190.853 153.085C189.406 152.869 187.836 152.543 186.345 152.338C184.76 152.134 183.346 151.957 182.226 151.822Z" fill="#C8BBB6"/>
<path d="M190.213 157.73C174.576 155.069 158.627 153.669 142.961 150.804C141.531 150.56 138.856 149.788 136.557 149.014C134.242 148.268 132.315 147.562 132.337 147.463C132.445 147.152 138.878 148.415 143.299 149.278C158.684 153.064 174.66 154.482 190.45 156.183C193.455 156.586 201.881 158.538 201.845 158.853C201.851 158.97 199.801 158.792 197.385 158.566C194.941 158.325 192.064 157.959 190.213 157.73Z" fill="#C8BBB6"/>
<path d="M54.6931 131.781C64.1783 134.544 73.8888 136.352 83.6969 137.9C88.5985 138.71 93.5307 139.181 98.4016 140.329C103.267 141.455 107.975 143.069 112.725 144.295C114.434 144.797 117.709 145.791 120.621 146.384C123.522 147.026 126.071 147.217 126.073 147.405C126.079 147.521 124.014 147.654 121.217 147.503C118.44 147.253 114.98 146.637 112.271 145.827C107.509 144.369 102.899 142.587 98.1271 141.367C93.3774 140.141 88.4224 139.58 83.5265 138.793C73.7462 137.262 63.8767 135.659 54.2511 133.357C52.4104 133.078 48.9872 131.509 46.0924 130.252C43.2632 128.884 40.8505 127.667 40.8826 127.517C40.8933 127.468 41.5038 127.64 42.4309 127.943C43.3858 128.262 44.6795 128.707 46.1287 129.205C47.5501 129.687 49.1212 130.201 50.6145 130.688C51.3584 130.921 52.0473 131.214 52.7519 131.386C53.4615 131.486 54.1162 131.647 54.6931 131.781Z" fill="#C8BBB6"/>
<path d="M62.5066 130.991L58.883 130.747C57.6642 130.685 56.4597 130.312 55.2287 130.111L55.2009 130.094C51.6372 128.986 48.0578 128 44.3365 127.287C43.2432 126.979 40.3313 125.656 40.4126 125.423C40.5103 125.162 43.1198 125.314 44.7736 125.783C48.261 127.052 51.8754 128.265 55.5047 129.261L55.4769 129.245C56.6407 129.369 57.7725 129.643 58.9407 129.601C60.1309 129.553 61.277 129.516 62.4943 129.391C63.6617 129.254 67.0586 130.264 66.9609 130.525C66.891 130.802 63.9564 130.852 62.5066 130.991Z" fill="#C8BBB6"/>
<path d="M220.426 96.19C219.349 100.147 218.272 104.103 217.217 108.054L213.247 119.714C211.992 123.622 210.631 127.487 209.271 131.352C207.96 135.227 206.628 139.108 205.317 142.983C205.046 143.667 204.677 144.705 203.999 145.823C203.354 146.98 202.078 148.064 200.712 148.346C199.224 148.518 198.185 148.149 197.417 148.277C196.653 148.333 196.374 148.805 196.291 148.756C196.246 148.768 196.32 148.23 197.076 147.87C197.793 147.543 198.89 147.59 199.941 147.46C200.87 147.315 201.884 146.581 202.469 145.652C203.071 144.695 203.46 143.463 203.89 142.385C205.433 138.591 206.883 134.798 208.343 130.954C209.809 127.133 211.225 123.301 212.48 119.393L216.262 107.735C217.217 103.762 218.072 99.7687 218.934 95.7971C219.675 92.8232 222.379 84.2965 222.678 84.3607C222.778 84.3821 222.472 86.3946 222.004 88.8736C221.491 91.364 220.883 94.3036 220.426 96.19Z" fill="#C8BBB6"/>
<path d="M222.341 101.05C220.458 109.011 217.355 116.721 214.284 124.281C212.635 128.032 211.63 131.993 210.397 135.896C209.22 139.831 208.037 143.744 206.854 147.658C206.61 148.357 206.264 149.39 205.614 150.524C205.013 151.67 203.848 152.82 202.578 153.289C201.301 153.642 200.112 153.784 199.254 153.84C198.412 153.869 197.87 153.868 197.875 153.796C197.857 153.635 199.565 153.312 201.598 152.599C202.608 152.22 203.466 151.433 204.04 150.459C204.609 149.463 204.954 148.242 205.349 147.126C206.721 143.306 208.093 139.485 209.398 135.588C210.73 131.707 211.83 127.744 213.479 123.994C216.561 116.384 219.382 108.77 220.794 100.718C221.186 99.2254 221.989 96.3064 223.062 93.8837C224.006 91.4233 225.16 89.4984 225.238 89.5255C225.371 89.5854 224.688 91.5067 224.059 93.9094C223.412 96.2457 222.825 99.1796 222.341 101.05Z" fill="#C8BBB6"/>
<path d="M212.281 142.554C211.173 144.75 210.31 147.072 209.525 149.42L208.412 152.962C208.027 154.122 207.683 155.437 206.795 156.562C206.054 157.438 203.646 158.342 203.534 158.182C203.305 157.935 204.877 156.35 205.646 155.491C206.488 154.826 206.961 153.737 207.473 152.614C207.941 151.503 208.364 150.309 208.748 149.149C209.533 146.801 210.168 144.42 210.82 142.012C211.157 141.123 212.634 138.808 212.929 138.944C213.118 139.037 212.688 141.482 212.281 142.554Z" fill="#C8BBB6"/>
<path d="M230.866 81.8234C229.714 85.4927 228.74 89.1163 227.71 92.8012L226.235 98.3226C225.767 100.165 225.455 102.061 225.087 103.925L223.873 109.544C223.361 111.397 222.922 113.256 222.388 115.115C221.77 116.925 221.236 118.784 220.569 120.583L218.533 125.943C218.067 127.242 216.744 129.517 216.113 131.732C215.734 132.82 215.381 133.831 215.127 134.58C214.986 134.947 214.872 135.236 214.785 135.447C214.774 135.497 214.741 135.552 214.725 135.58L214.692 135.636C214.692 135.636 214.676 135.664 214.686 135.614C214.73 135.602 214.58 135.476 214.525 135.537C214.487 135.571 214.509 135.565 214.487 135.571L214.492 135.593C214.498 135.615 214.547 135.532 214.553 135.554C214.428 135.892 215.074 129.17 217.094 125.3L219.408 120.105C220.158 118.355 220.754 116.551 221.41 114.801C221.984 113.002 222.473 111.155 222.991 109.323L224.239 103.743C224.629 101.874 224.897 99.9886 225.359 98.1244L226.723 92.5374C227.602 88.8204 228.482 85.1034 229.362 81.3863C230.11 78.6228 232.869 70.7658 233.169 70.8299C233.268 70.8513 232.95 72.7255 232.459 75.0219C231.972 77.3404 231.356 80.0697 230.866 81.8234Z" fill="#C8BBB6"/>
<path d="M85.5162 108.592C84.2517 106.89 82.657 105.463 81.0844 104.029C79.4961 102.718 77.5205 101.459 75.7847 101.129C75.4574 101.049 74.7692 100.849 74.1195 100.616C73.4591 100.433 72.9013 99.9163 73.0169 99.8158C73.1937 99.7701 74.7355 99.3485 76.1162 99.5816C78.3834 100.6 79.9282 102.017 81.6442 103.366C83.2446 104.816 85.004 106.059 86.6651 107.47C87.2399 108.052 88.4631 110.142 88.2264 110.321C88.0281 110.466 86.2138 109.284 85.5162 108.592Z" fill="#C8BBB6"/>
<path d="M100.58 110.127C97.9767 110.823 95.1205 110.994 92.6037 109.922C90.1475 108.811 88.0479 107.255 85.9204 105.682C85.1352 105.106 83.6823 102.675 83.8862 102.552C84.1729 102.383 85.8604 103.622 86.9637 104.516C88.6668 106.364 90.6517 108.115 92.8967 109.139C95.1803 110.13 97.8354 109.727 100.037 108.664C100.479 108.55 101.352 108.277 102.181 108.11C102.971 107.883 103.712 107.738 103.791 107.86C103.908 108.042 101.845 109.73 100.58 110.127Z" fill="#C8BBB6"/>
<path d="M35.7738 94.5737C39.7989 95.1853 43.2928 97.3016 46.4223 99.5592C47.965 100.694 49.5953 101.711 51.334 102.418C53.0564 103.152 54.9199 103.52 56.6457 103.263C57.2711 103.22 58.4828 103.072 59.504 102.643C60.5309 102.237 61.3402 101.627 61.4408 101.743C61.5079 101.82 61.1428 102.598 60.2678 103.319C59.4263 104.078 58.0193 104.748 56.7906 104.829C54.659 104.884 52.677 104.241 50.9148 103.351C49.1361 102.49 47.505 101.378 45.9346 100.228C42.8607 98.0027 39.3305 96.2022 35.6085 96.1255C34.9153 95.9979 33.5796 95.8475 32.3658 95.7128C31.1584 95.6944 30.0779 95.6196 30.038 95.4648C30.0095 95.3543 30.9487 95.0647 32.1425 94.7565C33.3427 94.5646 34.8367 94.4147 35.7738 94.5737Z" fill="#C8BBB6"/>
<path d="M56.5613 100.927C53.9612 101.268 51.2433 100.697 49.0402 99.3789C46.9092 98.0661 44.8602 96.6143 42.6708 95.6232C41.9747 95.1191 39.8986 93.7449 39.9685 93.4675C40.0219 93.2179 42.2392 93.4945 43.4744 94.2603C45.5348 95.7563 47.4077 97.348 49.4888 98.65C51.547 99.8637 54.0466 100.138 56.2559 99.3791C57.1139 99.3227 59.7746 98.9424 59.9094 99.1905C60.0107 99.4002 57.8393 100.762 56.5613 100.927Z" fill="#C8BBB6"/>
<path d="M168.967 119.001C167.909 118.921 166.851 118.934 165.789 119.02L165.722 119.037C164.138 119.021 162.554 119.643 160.958 120.314C159.38 120.957 157.596 121.63 155.745 121.4C153.899 121.193 152.275 120.292 150.844 119.317C149.386 118.326 148.059 117.206 146.652 116.32C146.094 115.898 145.091 115.025 144.068 114.534C143.062 114.016 142.048 113.924 142.036 113.786C142.013 113.697 142.863 113.336 144.083 113.493C145.28 113.656 146.659 114.337 147.594 115.039C148.949 116.175 150.16 117.395 151.485 118.42C152.795 119.474 154.263 120.321 155.871 120.519C159.181 121.009 161.922 118.108 165.685 117.797L165.641 117.808C166.747 117.617 167.87 117.492 169.01 117.433C169.797 117.466 171.36 117.676 172.567 118.331C173.84 118.969 174.418 120.023 174.292 120.079C174.17 120.157 173.451 119.565 172.37 119.302C171.26 119.022 169.876 119.049 168.967 119.001Z" fill="#C8BBB6"/>
<path d="M167.176 115.808C165.529 115.549 163.721 115.851 162.03 116.335C160.345 116.84 158.695 117.667 156.844 118.168C156.501 118.21 155.787 118.182 155.153 117.921C154.837 117.791 154.563 117.555 154.418 117.356C154.305 117.102 154.315 116.958 154.359 116.947C154.514 116.907 154.814 117.065 155.207 116.941C155.61 116.86 156.135 116.701 156.611 116.625C158.311 116.634 160.029 116.073 161.78 115.55C163.538 115.049 165.255 114.488 167.197 114.246C167.568 114.221 168.268 114.465 168.835 114.743C169.397 115.093 169.793 115.439 169.733 115.572C169.689 115.678 169.23 115.726 168.709 115.719C168.178 115.761 167.575 115.799 167.176 115.808Z" fill="#C8BBB6"/>
<path d="M203.931 77.5988C202.132 80.5863 201.778 84.3325 202.243 87.8676C202.489 89.6433 202.863 91.4569 203.016 93.3275C203.141 95.1817 203.095 97.1977 202.063 99.0442C201.663 99.6896 200.525 100.667 199.37 101.036C198.255 101.466 197.258 101.44 197.235 101.352C197.195 101.197 197.907 100.848 198.677 100.272C199.482 99.734 200.284 98.9138 200.733 98.1849C201.703 96.9204 202 95.1461 201.97 93.3853C201.956 91.5967 201.638 89.816 201.402 87.9903C200.931 84.339 200.996 80.4787 202.508 76.9285C202.78 76.2453 203.674 75.142 204.487 74.2719C205.411 73.4674 206.226 72.8797 206.321 72.9731C206.41 73.0444 205.935 73.851 205.344 74.7582C204.836 75.7146 204.23 76.8378 203.931 77.5988Z" fill="#C8BBB6"/>
<path d="M197.048 89.2095C196.708 85.3356 195.696 81.2344 197.565 77.2384C197.734 76.8883 198.334 76.3797 198.857 76.0324C199.436 75.7178 199.928 75.5203 199.995 75.5973C200.152 75.8397 199.36 77.2469 198.89 78.0756C197.704 79.4193 197.265 81.3719 197.323 83.2432C197.415 85.153 197.9 87.0322 198.579 88.8378C198.739 89.551 198.651 91.7667 198.358 91.8188C198.142 91.898 197.265 90.1437 197.048 89.2095Z" fill="#C8BBB6"/>
<path d="M214.237 25.5368C215.283 30.5017 215.428 35.6285 213.349 40.4567C213.131 40.8904 212.483 41.5765 211.877 42.0629C211.216 42.5165 210.609 42.8147 210.537 42.7155C210.442 42.6221 210.681 42.0887 211.009 41.5324C211.298 40.9155 211.686 40.2258 211.986 39.6531C214.71 35.8611 214.678 30.2571 212.763 26.0354C212.59 25.1839 211.889 22.653 212.104 22.4797C212.258 22.3456 213.929 24.343 214.237 25.5368Z" fill="#C8BBB6"/>
<path d="M209.104 33.5116C209.741 32.0503 209.734 30.378 209.533 28.7791C209.211 27.1645 208.667 25.6071 207.908 24.1287C207.716 23.5654 207.652 21.7661 207.889 21.6812C208.155 21.6127 209.105 22.7351 209.411 23.6465C209.99 26.9869 210.973 30.2467 210.657 33.8652C210.58 34.5691 209.235 36.1189 209.007 35.9656C208.762 35.8401 209.004 34.2212 209.104 33.5116Z" fill="#C8BBB6"/>
<path d="M102.963 43.8151C98.0396 45.9349 93.3537 48.7009 88.5501 51.285L81.4309 55.2214L77.7348 57.0717C77.145 57.4361 76.4875 57.6294 75.8079 57.8285L73.8468 58.4526C71.8742 59.0325 66.4307 59.7775 66.3074 59.5735C66.1668 59.3033 70.5519 57.7468 73.4309 56.9329L75.3713 56.5027C76.0182 56.3593 76.6928 56.2323 77.2718 55.9178L80.9366 54.3115C83.3698 53.141 85.7631 51.8158 88.1399 50.5184C92.905 47.9678 97.4676 44.9979 102.265 42.3917C104.08 41.381 109.922 39.8965 109.962 40.1454C110.037 40.4328 105.208 42.646 102.963 43.8151Z" fill="#C8BBB6"/>
<path d="M177.382 17.3187C168.784 19.8211 160.589 23.5166 152.112 26.6715C147.922 28.3427 143.501 29.4841 139.287 30.9728C135.106 32.4058 130.827 34.0999 126.646 35.627C125.122 36.115 122.206 37.2448 119.515 37.9632C118.166 38.3113 116.866 38.4818 115.936 38.5332C114.984 38.4962 114.407 38.4563 114.412 38.3843C114.417 38.2181 116.271 38.0932 118.562 37.1952C120.876 36.3856 123.645 34.9633 126.142 34.1302C130.468 32.8012 134.621 31.3518 138.986 29.9894C143.294 28.5941 147.623 27.5476 151.813 25.8763C160.223 22.7385 168.383 18.8163 176.877 15.8219C178.502 15.3553 181.506 14.2026 184.295 13.3174C185.693 12.8859 187.026 12.6597 188.017 12.569C188.997 12.5283 189.606 12.6067 189.623 12.673C189.613 12.723 189.076 12.8378 188.225 13.0104C187.368 13.2551 186.208 13.6018 184.955 14.1375C182.471 15.2031 179.459 16.6881 177.382 17.3187Z" fill="#C8BBB6"/>
<path d="M100.258 92.7133C95.7467 92.2273 91.3208 91.3419 86.8051 91.022C82.3164 90.6244 77.8157 90.8194 73.2408 90.7271C71.5735 90.6623 66.9842 89.4182 67.0491 89.2128C67.1354 88.9075 70.8516 88.9622 73.3784 89.1588C77.8185 89.734 82.3542 89.7658 86.8927 90.1741C91.4084 90.4939 95.9099 91.124 100.396 91.1451C102.074 91.2541 106.922 92.2193 106.924 92.5017C106.937 92.7342 102.441 92.8572 100.258 92.7133Z" fill="#C8BBB6"/>
<path d="M195.857 50.0664C195.329 52.0419 194.874 54.0223 194.274 55.9928L193.289 58.9354C192.947 59.896 192.506 60.8353 192.136 61.7795L189.743 67.3965L187.477 73.0513L182.912 84.4165L177.736 95.515C176.842 97.3493 176.12 99.3041 174.654 100.932C173.05 102.573 170.721 102.867 168.734 103.027L162.577 103.201L156.427 102.855C154.394 102.649 152.358 102.255 150.323 101.955C148.305 101.627 146.345 100.883 144.353 100.383C142.35 99.8393 140.512 99.2055 138.554 98.8383C136.58 98.499 134.59 98.1875 132.573 98.0479C131.115 97.8818 128.948 97.616 126.564 97.3352C125.372 97.1007 124.102 96.839 122.832 96.5774C121.578 96.2879 120.346 95.8987 119.152 95.57C117.959 95.2413 116.816 94.9233 115.773 94.6267C115.24 94.4813 114.757 94.3465 114.274 94.2118C113.803 94.1212 113.359 94.0471 112.944 93.9894C111.313 93.7028 110.271 93.5003 110.281 93.4504C110.286 93.3784 111.117 93.3997 112.552 93.4774C113.992 93.483 115.95 93.8501 118.19 94.3092C120.409 94.774 122.884 95.4085 125.389 95.705C127.857 96.1291 130.46 96.1646 132.782 96.4846C134.816 96.6906 136.846 97.0627 138.881 97.4569C140.878 97.8847 142.916 98.6554 144.826 99.2001C146.757 99.7391 148.629 100.506 150.631 100.861C152.621 101.173 154.596 101.606 156.613 101.84L162.686 102.253L168.76 102.124C170.747 101.965 172.816 101.666 174.14 100.31C175.425 98.8941 176.202 96.972 177.074 95.1434C178.785 91.4477 180.551 87.7849 182.206 84.0564L186.627 72.6812L188.803 66.9551L191.092 61.2947C192.702 57.5776 193.558 53.678 194.442 49.7007C195.183 46.7267 196.679 41.0114 198.208 35.9714C198.931 33.4739 199.605 31.154 200.091 29.4723C200.598 27.7849 200.933 26.7081 201.011 26.7351C201.061 26.7458 200.913 27.7272 200.605 29.3632C200.285 30.9549 199.887 33.2506 199.324 35.6362C198.054 40.4914 196.725 46.3051 195.857 50.0664Z" fill="#C8BBB6"/>
<path d="M185.046 64.3639C181.732 74.2742 176.769 83.5491 172.44 93.085C171.823 94.2582 171.29 95.4806 170.328 96.5069C169.395 97.5496 168.01 98.2136 166.604 98.3407C165.192 98.3515 163.901 98.1897 162.615 98.05L158.713 97.6424C156.125 97.3908 153.504 97.1008 150.95 96.9819C148.346 96.8523 145.722 96.9166 143.055 96.4497C141.026 96.2659 137.681 94.7243 134.684 93.8944C133.174 93.4352 131.766 93.1858 130.735 93.1217C129.71 93.0797 129.03 93.1846 129.007 93.0961C128.99 93.0298 129.487 92.8543 130.421 92.6367C130.886 92.611 131.44 92.5625 132.077 92.5632C132.681 92.6195 133.412 92.6194 134.133 92.7634C137.082 93.134 140.57 94.4973 143.364 94.9079C145.816 95.454 148.447 95.5058 151.051 95.7296C153.7 95.9419 156.272 96.3154 158.877 96.6332L162.774 97.1129C164.088 97.269 165.379 97.4308 166.587 97.4492C167.81 97.3457 168.902 96.8279 169.731 95.93C170.561 95.0321 171.128 93.8482 171.706 92.7085C176.019 83.2004 180.754 73.8663 183.607 63.8156C184.174 61.9007 186.147 58.491 187.664 55.5997C188.439 54.1263 188.999 52.7321 189.406 51.6602C189.741 50.5833 189.941 49.8951 190.013 49.9001C190.063 49.9108 190.018 50.559 189.893 51.6288C189.691 52.6714 189.309 54.1141 188.733 55.6303C187.51 58.6578 185.808 62.0211 185.046 64.3639Z" fill="#C8BBB6"/>
<path d="M175.97 71.6832C174.586 74.6343 173.236 77.7181 171.925 80.7684C170.58 83.7801 169.231 86.8639 167.158 89.6154C166.133 90.9412 164.692 92.2093 162.95 92.5881C161.237 92.9833 159.554 93.0405 157.881 93.0478C156.198 93.0108 154.542 92.9903 152.919 93.0082C151.263 92.9877 149.575 93.1169 147.885 92.9637C147.281 92.9074 146.383 92.809 145.396 92.6393C144.414 92.3977 143.354 92.1289 142.344 91.8708C140.39 91.1492 138.871 90.2914 138.92 90.208C138.986 90.0967 140.372 90.3519 142.087 90.7818C143.91 90.9949 146.133 91.2936 147.995 91.379C149.614 91.6214 151.242 91.6255 152.893 91.7181L157.89 91.9845C159.529 92.0328 161.174 92.0092 162.716 91.6817C164.243 91.3821 165.48 90.3315 166.473 89.0613C168.425 86.4824 169.725 83.3879 170.964 80.3327L174.509 71.0464C175.037 69.896 176.006 67.6182 177.155 65.8595C177.774 64.9687 178.172 64.135 178.521 63.4788C178.854 62.8505 179.106 62.4554 179.178 62.4604C179.228 62.4711 179.148 62.8926 178.987 63.5473C178.804 64.2077 178.601 65.1562 178.154 66.0733C177.271 67.9518 176.618 70.2661 175.97 71.6832Z" fill="#C8BBB6"/>
<path d="M169.468 73.7148C168.561 75.4108 167.81 77.161 166.86 78.8683L165.517 81.4315C165.081 82.2987 164.45 83.0511 163.93 83.8692C163.36 84.6765 162.912 85.4995 162.271 86.3019C161.607 87.1099 160.72 87.6926 159.787 88.0985C157.921 88.9102 155.885 89.1528 153.881 89.1515C153.16 89.1017 151.768 88.8244 150.646 88.3124C149.512 87.8504 148.699 87.1644 148.77 87.0752C148.852 86.9362 149.618 87.1629 150.643 87.299C151.675 87.4572 152.943 87.5306 153.974 87.5947C155.781 87.8356 157.675 87.7713 159.375 87.1436C160.22 86.8547 160.992 86.3726 161.58 85.7257C162.156 85.0346 162.67 84.1945 163.201 83.4207C163.699 82.6083 164.314 81.8837 164.7 81.0058L165.899 78.4326C166.733 76.7317 167.317 74.8832 167.99 73.1059C168.567 71.778 170.904 68.227 171.177 68.3689C171.393 68.478 170.197 72.0646 169.468 73.7148Z" fill="#C8BBB6"/>
<path d="M24.1029 86.1737C22.5503 85.9143 20.9821 85.7767 19.386 85.6228C17.8006 85.419 16.2224 85.4255 14.4987 84.5028C14.2091 84.2946 13.7776 83.6278 13.7783 82.991C13.7846 82.3762 14.0527 81.9533 14.1305 81.9804C14.2745 81.9904 14.4821 82.3377 14.6782 82.6407C14.9628 82.921 15.2189 83.0907 15.4863 83.3046C16.3186 84.2452 17.9611 84.6701 19.4573 84.8027C20.9813 84.9516 22.5367 84.8567 24.102 84.6176C24.6889 84.6076 26.4163 85.27 26.3578 85.5916C26.3593 85.7799 24.8502 86.1459 24.1029 86.1737Z" fill="#C8BBB6"/>
<path d="M54.4762 89.6517C51.0552 89.0964 47.607 88.6189 44.1603 88.3296C40.7029 88.0902 37.2256 88.1389 33.6848 87.8504C32.3882 87.7606 28.9707 86.214 29.0691 86.0472C29.1996 85.7305 32.0208 86.0633 33.9221 86.3035C37.2505 87.0478 40.7464 87.2537 44.2038 87.493C47.6726 87.7766 51.1521 88.0102 54.6415 88.0998C55.9495 88.2338 59.6394 89.1913 59.5974 89.4851C59.5767 89.6791 56.1165 89.7942 54.4762 89.6517Z" fill="#C8BBB6"/>
<path d="M225.036 186.304C223.859 188.046 222.532 189.756 220.77 191.06C219.9 191.709 218.879 192.232 217.846 192.522C217.315 192.659 216.813 192.813 216.282 192.95L214.689 193.172C210.444 193.537 206.313 192.788 202.256 192.326C194.01 191.625 185.757 190.619 177.675 188.909C176.189 188.632 173.425 187.79 171.032 187.016C168.639 186.242 166.618 185.538 166.656 185.41C166.742 185.105 173.458 186.366 178.029 187.356C185.948 189.532 194.114 190.749 202.343 191.478C206.472 191.945 210.581 192.606 214.587 192.138L216.058 191.899C216.544 191.774 216.997 191.61 217.478 191.462C218.417 191.172 219.261 190.695 219.998 190.08C221.495 188.845 222.679 187.219 223.695 185.494C224.51 184.176 226.091 181.622 227.447 179.385C228.842 177.115 230.33 175.387 230.452 175.497C230.542 175.568 229.503 177.299 228.446 179.599C227.4 181.85 226.109 184.612 225.036 186.304Z" fill="#C8BBB6"/>
<path d="M226.515 197.147C225.52 198.135 224.336 198.936 223.067 199.593C222.365 199.798 221.72 200.13 221.012 200.218C220.293 200.356 219.59 200.373 218.903 200.361C216.122 200.278 213.509 199.655 210.856 199.609C205.5 199.412 200.113 199.647 194.699 199.135C194.206 199.05 193.49 198.928 192.714 198.751C191.942 198.502 191.093 198.226 190.299 197.983C188.743 197.347 187.542 196.62 187.585 196.514C187.645 196.381 188.782 196.583 190.169 196.932C191.632 197.12 193.429 197.411 194.931 197.566C200.133 198.534 205.538 198.553 210.894 198.75C213.625 198.824 216.293 199.385 218.895 199.326C220.219 199.338 221.395 198.964 222.51 198.44C223.568 197.79 224.57 197.012 225.393 195.998C226.097 195.345 227.404 193.922 228.618 192.689C229.827 191.434 231.011 190.539 231.106 190.632C231.201 190.726 230.405 191.756 229.513 193.142C228.605 194.556 227.499 196.209 226.515 197.147Z" fill="#C8BBB6"/>
<path d="M36.8117 137.506C31.4752 129.074 24.1377 121.843 19.8517 112.456C19.6933 112.025 19.5 111.368 19.2839 110.622C19.134 109.859 19.0113 109.018 18.9114 108.265C18.8108 106.688 18.9169 105.364 19.0168 105.385C19.1551 105.373 19.4675 106.4 19.7878 107.733C20.2408 109.03 20.7737 110.638 21.2929 111.919C22.8016 116.575 25.6253 120.846 28.5909 124.843C31.6064 128.852 34.9414 132.636 38.0675 136.616C38.6216 137.393 39.5588 139.014 40.2293 140.515C40.8998 142.016 41.2864 143.331 41.1652 143.409C41.0604 143.46 40.3493 142.441 39.4813 141.179C38.5854 139.902 37.4999 138.437 36.8117 137.506Z" fill="#C8BBB6"/>
<path d="M23.6301 128.646C22.0887 125.507 20.1551 122.492 18.3321 119.449C16.5475 116.373 14.6853 113.27 13.81 109.605C13.7686 109.262 13.7592 108.769 13.7549 108.204C13.7784 107.656 13.9232 107.029 14.0408 106.48C14.3923 105.375 14.89 104.563 14.9734 104.612C15.1068 104.672 15.0962 105.453 15.0256 106.367C15.0791 106.848 15.122 107.38 15.137 107.894C15.2241 108.414 15.3332 108.929 15.3589 109.393C15.6558 112.736 17.2593 116.024 19.0488 119.029C20.8718 122.072 22.9701 124.902 24.9864 127.871C25.3067 128.472 25.8366 129.703 26.1277 130.831C26.4409 131.953 26.493 132.977 26.3604 133.011C26.2498 133.039 25.8397 132.273 25.2734 131.358C24.7513 130.432 24.0288 129.368 23.6301 128.646Z" fill="#C8BBB6"/>
<path d="M180.33 32.7578C180.33 32.7578 180.485 32.7179 180.733 32.5831C180.975 32.4261 181.323 32.2186 181.719 31.9276C182.484 31.3292 183.497 30.5019 184.442 29.5975C186.367 27.8273 188.169 25.9473 188.169 25.9473" stroke="#C8BBB6" stroke-width="0.7763" stroke-miterlimit="10" stroke-linecap="round"/>
<path d="M167.216 45.811C167.216 45.811 167.584 46.0464 168.14 46.3744C168.696 46.7024 169.414 47.2008 170.198 47.588C171.749 48.3902 173.295 49.1703 173.295 49.1703" stroke="#C8BBB6" stroke-width="0.7763" stroke-miterlimit="10" stroke-linecap="round"/>
<path d="M158.045 37.779C158.045 37.779 158.281 37.4117 158.637 36.8719C158.795 36.5716 159.114 36.3477 159.361 36.0246C159.641 35.74 159.932 35.4055 160.251 35.0874C161.521 33.8871 162.797 32.7089 162.797 32.7089" stroke="#C8BBB6" stroke-width="0.7763" stroke-miterlimit="10" stroke-linecap="round"/>
<path d="M140.582 43.3012C140.582 43.3012 140.619 43.7162 140.662 44.3417C140.706 44.9671 140.939 45.7794 141.1 46.5867C141.539 48.1948 142 49.7972 142 49.7972" stroke="#C8BBB6" stroke-width="0.7763" stroke-miterlimit="10" stroke-linecap="round"/>
<path d="M154.086 55.2371C154.086 55.2371 154.218 55.7455 154.434 56.4915C154.531 56.8673 154.756 57.2809 154.942 57.728C155.15 58.1695 155.325 58.6665 155.562 59.1244C156.517 60.9999 157.467 62.8533 157.467 62.8533" stroke="#C8BBB6" stroke-width="0.7763" stroke-miterlimit="10" stroke-linecap="round"/>
<path d="M140.946 71.928C140.946 71.928 143.015 71.6297 145.067 71.3593C147.131 71.133 149.217 70.9011 149.217 70.9011" stroke="#C8BBB6" stroke-width="0.7763" stroke-miterlimit="10" stroke-linecap="round"/>
<path d="M124.831 74.9083C124.809 74.914 124.99 75.4332 125.389 76.1556C125.788 76.878 126.382 77.8093 126.954 78.7464C127.526 79.6834 128.12 80.6147 128.497 81.3428C128.918 82.0595 129.099 82.5787 129.099 82.5787" stroke="#C8BBB6" stroke-width="0.7763" stroke-miterlimit="10" stroke-linecap="round"/>
<path d="M102.834 71.1784C102.834 71.1784 103.169 70.7384 103.679 70.0644C104.133 69.3576 104.718 68.4284 105.332 67.5155C106.491 65.6127 107.801 63.8361 107.801 63.8361" stroke="#C8BBB6" stroke-width="0.7763" stroke-miterlimit="10" stroke-linecap="round"/>
<path d="M120.909 63.0935C120.909 63.0935 121.036 63.0371 121.184 62.8809C121.327 62.7026 121.574 62.4737 121.804 62.1784C122.281 61.5601 122.884 60.6971 123.431 59.8013C123.984 58.9277 124.553 58.0262 124.974 57.3751C125.395 56.7239 125.68 56.2732 125.68 56.2732" stroke="#C8BBB6" stroke-width="0.7763" stroke-miterlimit="10" stroke-linecap="round"/>
<path d="M106.676 50.709L112.889 51.2983" stroke="#C8BBB6" stroke-width="0.7763" stroke-miterlimit="10" stroke-linecap="round"/>
<path d="M84.5075 64.3085L91.668 62.1771" stroke="#C8BBB6" stroke-width="0.7763" stroke-miterlimit="10" stroke-linecap="round"/>
<path d="M71.0049 74.3018L77.5079 80.3103" stroke="#C8BBB6" stroke-width="0.7763" stroke-miterlimit="10" stroke-linecap="round"/>
<path d="M90.1191 75.4517C90.1191 75.4517 90.7604 76.7481 91.4016 78.0446C92.0428 79.3411 92.7832 80.5648 92.7832 80.5648" stroke="#C8BBB6" stroke-width="0.7763" stroke-miterlimit="10" stroke-linecap="round"/>
<path d="M109.273 84.7025C109.036 84.8815 108.766 85.022 108.574 85.2838L109.994 83.4787C110.416 82.8275 110.815 82.1821 111.214 81.5367C111.586 80.8748 111.896 80.1581 112.24 79.4798C112.556 78.7852 112.816 78.0578 113.104 77.3467" stroke="#C8BBB6" stroke-width="0.7763" stroke-miterlimit="10" stroke-linecap="round"/>
<path d="M55.028 72.6964C55.028 72.6964 56.6803 71.5152 58.3269 70.312C59.8786 69.0154 61.4581 67.7352 61.4581 67.7352" stroke="#C8BBB6" stroke-width="0.7763" stroke-miterlimit="10" stroke-linecap="round"/>
<path d="M39.2305 75.0768C39.1863 75.0882 39.3945 75.5296 39.8417 76.0745C40.2889 76.6193 40.9144 77.3067 41.5841 77.9827C42.9178 79.3127 44.2351 80.6704 44.2351 80.6704" stroke="#C8BBB6" stroke-width="0.7763" stroke-miterlimit="10" stroke-linecap="round"/>
<path d="M56.7305 78.1055L58.2347 80.7355" stroke="#C8BBB6" stroke-width="0.7763" stroke-miterlimit="10" stroke-linecap="round"/>
<path d="M128.808 43.9119L131.75 40.4172" stroke="#C8BBB6" stroke-width="0.7763" stroke-miterlimit="10" stroke-linecap="round"/>
</svg>
