<svg width="24" height="23" viewBox="0 0 24 23" fill="none" xmlns="http://www.w3.org/2000/svg">
<path d="M9.74001 4.40997C10.6 5.01997 11.53 5.61 12.47 5.75C13.46 5.89 14.51 5.66 15.55 5.37C16.08 5.23 16.6 5.05999 17.15 4.92999C17.42 4.85999 17.69 4.77999 17.98 4.73999L18.4 4.65997L18.62 4.62C18.72 4.60999 18.85 4.6 18.96 4.59L19.66 4.53998L20.01 4.51999C20.06 4.51999 20.14 4.49999 20.17 4.51999L20.09 4.67999L19.5 5.91998L18.78 7.40997C18.54 7.90997 18.31 8.40999 18.03 8.89999C17.74 9.37999 17.53 9.89998 17.17 10.35L16.76 10.92L16.66 11.05C16.69 11.08 16.76 11.09 16.81 11.12C16.84 11.14 17.22 11.26 17.45 11.39L18.21 11.78C19.19 12.34 20.09 12.99 20.99 13.64L21.66 14.13L22.57 14.77L23.57 15.46L23.7 15.55C23.75 15.58 23.8 15.61 23.72 15.61L23.41 15.64L22.79 15.69C22.38 15.73 21.96 15.76 21.55 15.76C21.22 15.76 20.97 15.77 20.68 15.76L19.02 15.69C17.92 15.63 16.82 15.57 15.75 15.67C15.21 15.69 14.7 15.83 14.18 15.95C13.7 16.1 13.28 16.38 12.91 16.74C12.17 17.47 11.64 18.43 11.07 19.38C10.5 20.32 9.91001 21.32 8.99001 22.09C8.83001 22.25 8.35 22.54 7.95 22.75C7.69 23.01 7.67001 22.61 7.57001 22.43C7.48001 22.22 7.42 21.98 7.34 21.76C7.2 21.18 7.16001 20.6 7.15001 20.03C7.13001 18.9 7.22001 17.8 7.13 16.76C7.08 16.25 6.98 15.74 6.78 15.36C6.63 15.03 6.23 14.83 5.75 14.69C5.07 14.46 3.93001 14.31 2.62001 14.1C2.29001 14.05 1.95 13.99 1.61 13.9C1.31 13.83 1.02001 13.74 0.76001 13.63C0.51001 13.53 0.19 13.42 0 13.3C0.43 12.94 0.859999 12.58 1.28 12.23C1.53 12.01 1.78 11.79 2.02 11.56C2.97 10.64 3.9 9.75999 4.69 9.26999C4.89 9.14999 5.08001 9.04999 5.24001 8.95999C5.41001 8.88999 5.57 8.83999 5.69 8.79999C5.94 8.71999 6.08 8.67998 6.08 8.69998C6.09 8.71998 5.99 8.78999 5.81 8.89999C5.63 9.00999 5.36001 9.12997 5.07001 9.37997C4.46001 9.80997 3.75 10.59 2.95 11.52C2.75 11.75 2.53001 11.99 2.32001 12.23C2.11001 12.45 1.9 12.67 1.69 12.89L1.62001 12.97C1.59001 12.99 1.58 13.01 1.64 13.02C1.68 13.03 1.71001 13.03 1.74001 13.03H1.78L2.01001 13.07C3.34001 13.28 4.75001 13.29 6.07001 13.7C6.36001 13.8 6.65001 13.93 6.93001 14.11C7.07001 14.22 7.21 14.32 7.33 14.45C7.45 14.6 7.58 14.75 7.63 14.9C7.92 15.51 8 16.11 8.03 16.69C8.09 17.85 7.96 18.95 7.95 20.02C7.95 20.55 7.97 21.08 8.08 21.57C8.1 21.61 8.1 21.75 8.16 21.72C8.24 21.68 8.23001 21.7 8.49001 21.5C9.29001 20.87 9.88001 19.94 10.46 19.02C11.04 18.09 11.6 17.1 12.45 16.28C12.88 15.88 13.4 15.54 13.98 15.37C14.54 15.24 15.11 15.1 15.67 15.08C16.8 14.99 17.92 15.06 19.02 15.12L20.67 15.2H21.46C21.59 15.2 21.72 15.2 21.84 15.18L22.03 15.16L22.13 15.15C22.17 15.15 22.1 15.12 22.08 15.11L21.76 14.9L20.63 14.1C19.73 13.46 18.84 12.82 17.89 12.29L17.17 11.93C16.91 11.79 16.75 11.76 16.28 11.57C16.09 11.49 15.83 11.43 15.71 11.33L16.09 10.79L16.64 10.01C16.97 9.58998 17.18 9.06998 17.45 8.59998C17.71 8.12998 17.94 7.61997 18.17 7.12997L18.86 5.62997L18.97 5.37997C18.97 5.32997 18.83 5.37997 18.77 5.37997L18.7 5.38998L18.52 5.42999L18.13 5.50998C17.87 5.54998 17.61 5.63999 17.35 5.70999C16.83 5.84999 16.31 6.03 15.77 6.19C14.71 6.51 13.56 6.82 12.34 6.69C11.07 6.53 10.08 5.89 9.13 5.28C8.63 4.93 8 4.43 7.33 3.81C7 3.5 6.65 3.15998 6.31 2.78998C6.26 2.73998 6.22001 2.69999 6.23001 2.70999L6.21001 2.67999L6.17 2.62L6.05 2.44C6.01 2.42 6 2.57999 6 2.70999C5.99 2.71999 6.01001 3.01998 6.04001 3.22998C6.07001 3.45998 6.09001 3.67999 6.12001 3.89999C6.23001 4.78999 6.36 5.63997 6.41 6.37997C6.47 7.11997 6.46 7.74999 6.41 8.17999C6.35 8.60999 6.3 8.85999 6.27 8.85999C6.21 8.84999 6.28001 7.88998 6.01001 6.47998C5.89001 5.76998 5.69 4.95 5.5 4.06C5.46 3.84 5.41 3.60997 5.36 3.37997C5.31 3.11997 5.29001 2.99999 5.24001 2.51999C5.14001 1.72999 5.11001 0.8 5.07001 0L5.97 1.09C6.28 1.46 6.59 1.77999 6.89 2.10999C7.22 2.42999 7.54001 2.72998 7.87001 3.00998C8.56001 3.53998 9.19001 4.01997 9.74001 4.40997Z" fill="#C8BBB6"/>
</svg>
