<svg width="25" height="18" viewBox="0 0 25 18" fill="none" xmlns="http://www.w3.org/2000/svg">
<path d="M21.9642 17.4951H2.45259C1.09003 17.4951 0 16.405 0 15.0425V2.45259C0 1.09003 1.09003 0 2.45259 0H21.9097C23.2723 0 24.3623 1.09003 24.3623 2.45259V15.0425C24.4167 16.405 23.2723 17.4951 21.9642 17.4951ZM2.45259 1.63508C2.01656 1.63508 1.63508 2.01661 1.63508 2.45259V15.0425C1.63508 15.4785 2.01661 15.86 2.45259 15.86H21.9097C22.3457 15.86 22.7272 15.4784 22.7272 15.0425V2.45259C22.7272 2.01656 22.3457 1.63508 21.9097 1.63508H2.45259Z" fill="#47152B"/>
<path d="M12.2084 11.7723C11.9904 11.7723 11.8268 11.7178 11.6634 11.5543L0.762986 1.90753C0.435961 1.635 0.381456 1.09001 0.708482 0.762986C0.981003 0.435961 1.526 0.381456 1.85302 0.708482L12.2083 9.86479L22.5636 0.708482C22.8906 0.435961 23.4356 0.435961 23.7082 0.762986C23.9807 1.09001 23.9807 1.635 23.6537 1.90753L12.7533 11.5543C12.5899 11.6633 12.3719 11.7723 12.2084 11.7723Z" fill="#47152B"/>
<path d="M0.981013 16.732C0.762996 16.732 0.544979 16.623 0.381517 16.4595C0.0544911 16.1324 0.108995 15.5874 0.436021 15.3149L8.17527 8.0117C8.5023 7.68468 9.04729 7.73918 9.31981 8.06621C9.64684 8.39323 9.59233 8.93823 9.26531 9.21075L1.58051 16.514C1.41705 16.623 1.19903 16.732 0.981013 16.732Z" fill="#47152B"/>
<path d="M23.3812 16.732C23.1632 16.732 22.9997 16.6775 22.8362 16.514L15.097 9.21081C14.7699 8.88378 14.7699 8.39329 15.0425 8.06627C15.3695 7.73924 15.86 7.73924 16.187 8.01176L23.9263 15.315C24.2533 15.642 24.2533 16.1325 23.9808 16.4595C23.8172 16.623 23.5992 16.732 23.3812 16.732Z" fill="#47152B"/>
</svg>
