<svg width="34" height="33" viewBox="0 0 34 33" fill="none" xmlns="http://www.w3.org/2000/svg">
<g opacity="0.6">
<circle cx="17.2483" cy="16.5" r="16.5" fill="#A3C6AA"/>
<path d="M24.4485 19.884C24.4302 19.8448 24.4133 19.8122 24.3975 19.7861C24.1365 19.316 23.6377 18.739 22.9014 18.0549L22.8859 18.0392L22.8781 18.0316L22.8702 18.0237H22.8623C22.5281 17.7051 22.3165 17.491 22.2279 17.3813C22.0658 17.1724 22.0295 16.961 22.1181 16.7467C22.1807 16.5849 22.4158 16.243 22.823 15.7208C23.0372 15.444 23.2068 15.2221 23.3321 15.055C24.2356 13.8539 24.6273 13.0864 24.5071 12.7521L24.4604 12.674C24.4291 12.627 24.3481 12.584 24.2177 12.5448C24.087 12.5056 23.92 12.4991 23.7163 12.5252L21.4605 12.5408C21.4239 12.5279 21.3718 12.5291 21.3038 12.5448C21.2359 12.5605 21.2019 12.5683 21.2019 12.5683L21.1627 12.588L21.1315 12.6115C21.1054 12.6271 21.0766 12.6545 21.0453 12.6937C21.0141 12.7327 20.988 12.7785 20.9672 12.8307C20.7216 13.4626 20.4423 14.0501 20.1289 14.5931C19.9357 14.9169 19.7583 15.1975 19.5962 15.4352C19.4344 15.6727 19.2986 15.8477 19.189 15.9599C19.0793 16.0722 18.9802 16.1621 18.8913 16.2301C18.8025 16.2981 18.7347 16.3268 18.6878 16.3163C18.6407 16.3058 18.5964 16.2954 18.5545 16.2849C18.4814 16.2379 18.4226 16.174 18.3783 16.093C18.3338 16.0121 18.3039 15.9102 18.2882 15.7875C18.2726 15.6647 18.2634 15.5591 18.2608 15.4703C18.2583 15.3816 18.2594 15.2561 18.2647 15.0943C18.2702 14.9323 18.2726 14.8227 18.2726 14.7653C18.2726 14.5668 18.2765 14.3514 18.2842 14.1191C18.2922 13.8867 18.2985 13.7026 18.3039 13.5669C18.3092 13.4312 18.3117 13.2875 18.3117 13.1361C18.3117 12.9846 18.3025 12.8659 18.2842 12.7797C18.2663 12.6936 18.2386 12.61 18.2022 12.529C18.1656 12.4481 18.112 12.3855 18.0416 12.341C17.9712 12.2966 17.8835 12.2614 17.7793 12.2352C17.5025 12.1726 17.15 12.1387 16.7217 12.1334C15.7505 12.123 15.1265 12.1857 14.8497 12.3215C14.74 12.3789 14.6408 12.4573 14.5521 12.5564C14.4581 12.6713 14.4449 12.734 14.5128 12.7444C14.8262 12.7913 15.048 12.9036 15.1786 13.0811L15.2256 13.1752C15.2622 13.2431 15.2988 13.3632 15.3353 13.5355C15.3719 13.7078 15.3954 13.8984 15.4058 14.1072C15.4319 14.4884 15.4319 14.8148 15.4058 15.0863C15.3796 15.3579 15.355 15.5693 15.3314 15.7208C15.3078 15.8722 15.2726 15.9949 15.2256 16.0889C15.1786 16.1829 15.1473 16.2403 15.1316 16.2612C15.1159 16.282 15.1029 16.2952 15.0925 16.3003C15.0246 16.3264 14.954 16.3396 14.881 16.3396C14.8078 16.3396 14.7191 16.303 14.6147 16.2299C14.5103 16.1567 14.4019 16.0563 14.2896 15.9283C14.1773 15.8003 14.0507 15.6215 13.9097 15.3917C13.7687 15.162 13.6225 14.8905 13.4711 14.5772L13.3458 14.3499C13.2674 14.2038 13.1604 13.9909 13.0247 13.7116C12.8888 13.4322 12.7687 13.1619 12.6643 12.9008C12.6226 12.7912 12.5599 12.7077 12.4764 12.6502L12.4372 12.6267C12.4111 12.6058 12.3693 12.5837 12.3119 12.5601C12.2544 12.5365 12.1944 12.5196 12.1317 12.5092L9.98553 12.5248C9.76622 12.5248 9.61741 12.5745 9.53906 12.6737L9.5077 12.7207C9.49203 12.7468 9.48413 12.7886 9.48413 12.846C9.48413 12.9035 9.4998 12.974 9.53115 13.0575C9.84446 13.7938 10.1852 14.504 10.5533 15.188C10.9214 15.8721 11.2413 16.4231 11.5128 16.8406C11.7843 17.2584 12.0611 17.6527 12.3431 18.0234C12.6251 18.3942 12.8117 18.6318 12.9031 18.7362C12.9945 18.8408 13.0663 18.9189 13.1185 18.9711L13.3144 19.1591C13.4397 19.2845 13.6237 19.4346 13.8666 19.6095C14.1094 19.7845 14.3783 19.9568 14.6734 20.1266C14.9685 20.2962 15.3117 20.4346 15.7034 20.5416C16.0951 20.6487 16.4762 20.6917 16.847 20.671H17.7478C17.9305 20.6552 18.0689 20.5978 18.163 20.4986L18.1942 20.4593C18.2151 20.4282 18.2347 20.3798 18.2528 20.3146C18.2712 20.2493 18.2803 20.1774 18.2803 20.0992C18.2749 19.8747 18.292 19.6724 18.3311 19.4922C18.3701 19.3122 18.4146 19.1764 18.4644 19.0849C18.5141 18.9936 18.5703 18.9165 18.6327 18.854C18.6953 18.7914 18.7399 18.7534 18.7661 18.7404C18.7921 18.7272 18.8129 18.7183 18.8286 18.713C18.9539 18.6712 19.1014 18.7116 19.2712 18.8345C19.441 18.9572 19.6002 19.1087 19.7491 19.2888C19.8979 19.469 20.0768 19.6713 20.2856 19.8958C20.4946 20.1203 20.6773 20.2873 20.8339 20.3971L20.9905 20.4911C21.0951 20.5538 21.2308 20.6113 21.398 20.6635C21.5648 20.7156 21.711 20.7287 21.8365 20.7026L23.8416 20.6713C24.0399 20.6713 24.1942 20.6385 24.3037 20.5733C24.4134 20.5081 24.4786 20.4362 24.4996 20.3579C24.5205 20.2796 24.5217 20.1908 24.5035 20.0915C24.485 19.9924 24.4667 19.9232 24.4485 19.884Z" fill="#F4F3EE"/>
</g>
</svg>
