<svg width="140" height="156" viewBox="0 0 140 156" fill="none" xmlns="http://www.w3.org/2000/svg">
<path d="M67.3476 94.0987C63.8783 84.186 51.5937 82.3734 44.7799 75.6455C44.7568 75.6238 44.7177 75.6609 44.7499 75.6867C51.6453 82.7162 62.2863 85.1605 67.229 94.1653C67.2627 94.2358 67.368 94.1741 67.3476 94.0987Z" fill="#896C61"/>
<path d="M105.043 94.6852C100.759 98.9571 94.0834 101.393 88.2577 99.1025C83.0485 97.0511 77.5946 94.5022 74.3234 89.7646C74.2765 89.699 74.1803 89.7648 74.223 89.8395C77.499 95.2616 83.8523 98.8949 89.8418 100.589C94.9052 102.024 102.433 99.3626 105.283 94.9055C105.402 94.7181 105.19 94.5327 105.043 94.6852Z" fill="#896C61"/>
<path d="M112.268 71.12C112.194 70.8988 111.823 70.9155 111.796 71.167C111.575 74.1141 112.267 77.04 111.397 79.9415C110.296 83.5844 106.9 86.4264 102.977 84.7127C100.162 83.4859 97.9379 80.9017 95.536 79.0392C93.0243 77.1043 90.571 75.7134 87.5665 74.7077C87.4128 74.6591 87.3035 74.873 87.4622 74.9348C92.2094 76.8181 95.6868 80.484 99.555 83.6582C101.712 85.4303 104.336 86.9543 107.207 86.1164C113.23 84.3598 113.973 76.1065 112.268 71.12Z" fill="#896C61"/>
<path d="M112.53 90.531C115.517 88.7005 117.631 85.5117 118.363 81.9526C119.712 75.375 116.702 69.0849 112.862 63.932C112.811 63.8532 112.733 63.8066 112.669 63.755C112.753 63.4524 112.818 63.1415 112.852 62.8048C112.986 61.4356 112.698 60.1923 112.194 59.0143C112.189 59.001 112.184 58.9877 112.179 58.9744C110.947 56.0978 108.382 53.6322 107.114 50.8597C105.189 46.6413 105.445 42.6101 106.326 38.4151C107.021 36.9737 107.634 35.4946 108.18 33.9955C108.975 31.8079 109.956 29.3861 110.106 27.023C110.131 26.9685 110.174 26.9223 110.203 26.8587C110.261 26.7314 110.209 26.6303 110.117 26.5662C110.123 26.4586 110.132 26.342 110.124 26.2393C110.122 26.0291 109.84 26.0205 109.746 26.1757C109.573 26.4813 109.405 26.8001 109.259 27.1181C105.757 30.8361 101.225 32.8923 96.0396 32.8985C89.6189 32.9097 83.7686 30.1457 77.8128 28.1145C74.0655 26.8336 69.952 25.8467 66.0647 27.0985C62.7045 28.1852 59.4757 31.214 58.9823 34.8279C57.1685 33.6977 55.0797 33.0465 52.5781 33.1741C46.383 33.5089 41.5778 39.2031 42.1306 45.3552C42.1456 45.5382 42.1788 45.7295 42.207 45.9076C41.9965 45.7669 41.7561 45.6674 41.5073 45.5862C40.0025 43.5195 34.8327 45.7669 33.5772 47.039C31.4726 49.1536 30.4694 53.1826 31.4746 56.2412C31.5077 56.4325 31.5235 56.6378 31.5699 56.8242C28.053 55.8802 26.6268 60.7824 27.5059 63.6841C26.4452 63.406 25.2246 63.5717 24.276 64.2474C22.5058 65.5142 22.4203 67.6649 22.8502 69.7C21.0511 70.5023 20.1474 72.8053 20.7025 74.5678C20.6777 74.7655 20.662 74.9674 20.677 75.1504C20.7627 76.5212 21.6222 77.8844 22.8519 78.5372C23.4056 84.8549 23.7918 90.8425 22.6952 97.1835C22.0498 100.937 21.1522 104.64 20.2141 108.336C19.7055 109.731 19.1695 111.113 18.751 112.528C18.4708 112.85 18.2808 113.192 18.1404 113.546C18.0154 113.554 17.9024 113.657 17.9572 113.825C17.9719 113.865 17.9867 113.904 18.0014 113.944C17.254 116.913 20.7181 120.584 22.5524 122.604C26.5871 127.021 31.5873 130.462 37.0242 132.904C43.1336 135.655 49.6969 137.25 56.2914 138.298C60.2093 138.92 64.1914 139.45 68.1139 139.128C69.6198 139.203 71.1341 139.261 72.6379 139.269C72.9019 139.269 73.0455 139.148 73.1248 138.975C73.2638 138.984 73.4006 138.926 73.4898 138.78C73.8023 138.219 74.0785 137.642 74.3365 137.056C74.3449 137.038 74.3574 137.011 74.3657 136.992C75.9029 135.035 77.3196 132.957 78.8665 131.026C80.9897 128.392 83.2186 125.84 85.5587 123.404C90.2689 118.491 95.7226 114.548 100.653 109.923C100.696 109.877 100.726 109.836 100.747 109.791C100.796 109.78 100.835 109.765 100.884 109.755C101.994 109.879 103.234 109.238 104.28 108.255C104.685 107.924 105.03 107.532 105.306 107.076C105.965 106.168 106.437 105.163 106.572 104.224C108.742 103.834 110.94 101.014 111.81 99.4548C113.317 96.8455 113.72 93.3554 112.53 90.531ZM61.5147 32.1175C61.2891 32.8722 61.1858 33.6721 61.2265 34.4941C61.1407 34.2016 61.0591 33.9 61.0264 33.5879C61.0038 33.4455 61.0217 33.3106 61.0173 33.1765C61.031 33.0508 61.0406 32.9341 61.0634 32.8126C61.2075 32.5706 61.3656 32.3461 61.5147 32.1175ZM45.927 37.7122C48.5323 34.7712 52.467 33.8713 55.9987 34.8551C52.5339 34.5403 48.3895 36.1362 46.2979 38.1027C43.933 40.3288 43.2245 43.9319 43.7608 47.2924C43.7461 47.2527 43.7313 47.2129 43.6901 47.1829C43.681 47.1788 43.6719 47.1746 43.667 47.1613C42.6899 44.1375 43.1056 40.8842 45.927 37.7122ZM23.2262 73.218C23.1633 72.8039 23.1541 72.3925 23.2434 71.9824C23.2692 71.9502 23.2817 71.923 23.3033 71.8999C23.4552 72.839 23.7299 73.7024 24.1009 74.5001C23.8005 74.076 23.5092 73.656 23.2262 73.218ZM24.8807 81.8349C25.0155 81.8529 25.1553 81.884 25.2909 81.9243C26.7415 83.0307 28.0422 83.9362 28.6761 85.6469C28.7815 85.9924 28.8736 86.3429 28.9483 86.7073C28.7914 88.3189 28.8196 89.9825 28.6745 91.5445C28.3709 94.6733 27.9283 97.7933 27.3418 100.891C27.2387 101.427 27.1083 101.951 27.0003 102.473C25.5816 107.599 23.8345 112.673 22.4845 117.984C21.9394 117.062 21.4557 116.103 20.9329 115.18C23.7133 104.958 26.9054 92.7127 24.8807 81.8349ZM79.3183 103.855C72.9504 101.811 66.2685 101.097 59.9207 98.9848C56.9128 97.6033 53.9759 96.0673 51.0723 94.4586C47.116 91.5961 43.5972 88.1643 39.1232 86.0214C35.7042 84.3851 32.2863 83.0574 29.3497 80.5862C28.5488 79.9102 27.8316 79.1957 27.1492 78.4531C30.5456 81.4326 35.4247 83.2443 39.1216 85.1623C47.1389 89.3178 54.0006 95.8696 62.375 99.3197C66.3626 100.964 70.5265 99.4212 74.4665 100.978C77.6991 102.253 80.557 104.105 83.7381 105.445C82.2934 104.925 80.8515 104.35 79.3183 103.855ZM82.2119 106.516C78.6306 105.927 75.1466 104.624 71.7131 103.499C71.2651 103.348 70.8171 103.197 70.3691 103.046C74.3589 103.943 78.3235 104.895 82.0987 106.475C82.135 106.491 82.1714 106.508 82.2119 106.516ZM34.1337 105.606C35.2555 101.918 36.7432 97.7923 37.5221 93.7483C37.543 93.7029 37.5506 93.6624 37.5714 93.617C38.0927 93.0091 38.7373 92.6118 39.4673 93.0351C40.2881 93.5002 40.7289 94.6489 40.9854 95.504C41.2827 96.5099 41.2698 97.4724 41.2081 98.4454C40.1295 102.088 39.1012 105.764 37.9814 109.376C36.3435 114.643 34.7099 119.901 33.0721 125.169C32.9567 125.468 32.8371 125.776 32.7218 126.075C32.6891 126.17 32.6871 126.246 32.7075 126.322C32.6145 126.62 32.5173 126.928 32.4242 127.226C31.4335 126.628 30.451 126.012 29.5152 125.318C28.841 124.821 28.1926 124.292 27.5525 123.745C30.4258 118.088 32.2892 111.659 34.1337 105.606ZM37.6429 88.4778C36.071 87.4917 34.5291 86.4644 33.0428 85.3636C32.74 85.1365 32.4728 84.9037 32.1964 84.6667C32.8294 85.1335 33.4756 85.5954 34.1211 86.0349C35.2973 86.8282 36.4868 87.6166 37.6937 88.3911C37.6763 88.4051 37.6589 88.4191 37.6505 88.4372C37.6513 88.4596 37.6471 88.4687 37.6429 88.4778ZM34.2048 89.7818C34.8897 90.7346 35.1642 91.8621 35.3004 93.0031C35.1043 95.3229 34.7593 97.6074 34.4381 99.9359C33.8539 102.022 33.2606 104.105 32.6219 106.166C31.979 108.237 31.2502 110.279 30.494 112.309C30.2021 113.088 29.9012 113.863 29.6184 114.647C28.5772 117.393 27.5402 120.13 26.6346 122.916C25.5544 121.914 24.5439 120.856 23.6464 119.695C23.5434 119.56 23.4579 119.41 23.3592 119.266C25.2193 114.497 26.6944 109.584 27.8131 104.585C28.1766 103.266 28.531 101.944 28.8771 100.639C29.8383 96.9649 30.6706 93.0445 30.7123 89.1681C31.6023 87.8052 33.3043 88.5319 34.2048 89.7818ZM27.9458 126.027C26.2378 124.715 22.8942 121.98 20.7655 119.043C22.4528 121.216 24.5607 123.119 26.6081 124.819C26.6725 124.87 26.7278 124.918 26.7921 124.969C27.0363 125.18 27.2755 125.378 27.5007 125.559C27.6756 125.705 27.863 125.824 28.0511 125.966C28.2211 126.099 28.3952 126.223 28.5603 126.343C28.8813 126.578 29.2073 126.827 29.5324 127.053C31.0634 128.153 32.6625 129.151 34.3 130.09C32.0907 128.91 29.9475 127.563 27.9458 126.027ZM38.7189 130.436C36.9616 129.662 35.2335 128.824 33.5514 127.887C34.1651 125.88 34.7829 123.863 35.3966 121.856C36.9788 117.884 38.4479 113.871 39.8896 109.846C41.3356 105.811 42.9399 101.695 44.0902 97.5133C44.442 97.0586 44.8359 96.6563 45.3663 96.4598C45.7202 96.3362 46.0498 96.2895 46.3509 96.3287C46.7795 96.5696 47.208 96.8105 47.6408 97.0422C47.9284 97.3504 48.1471 97.7369 48.2994 98.148C48.4721 98.6345 48.5925 99.163 48.6906 99.6922C48.6718 100.476 48.5795 101.204 48.5155 101.703C48.3136 103.172 47.7553 104.556 47.4947 106.01C47.4864 106.028 47.5178 106.031 47.5185 106.054C46.3998 108.753 45.3041 111.474 44.2986 114.214C43.0296 117.648 41.8921 121.131 40.8181 124.644C40.1516 126.406 39.5661 128.184 39.1734 129.974C39.1616 130.023 39.1764 130.063 39.1911 130.103C39.1425 130.257 39.1072 130.405 39.0586 130.559C38.9454 130.518 38.8279 130.486 38.7189 130.436ZM52.6108 116.602C50.1395 121.695 47.2749 126.806 45.2579 132.108C45.1195 132.385 44.9761 132.65 44.8376 132.927C43.389 132.152 41.7739 131.619 40.2154 131.035C41.1326 128.871 41.8771 126.627 42.5672 124.358C44.0748 120.835 45.353 117.142 46.8148 113.72C47.9156 111.155 49.0305 108.608 50.1586 106.056C50.6329 104.975 51.1694 103.879 51.6877 102.774C51.7901 102.623 51.8883 102.481 51.9865 102.339C52.4665 101.702 53.0495 101.199 53.6325 100.696C53.8041 100.61 53.9996 100.568 54.1811 100.508C54.6413 100.489 55.1303 100.526 55.59 100.627C55.9206 100.746 56.247 100.874 56.5867 100.997C56.7692 101.103 56.9433 101.227 57.0826 101.379C58.4927 102.885 57.7223 104.754 57.0373 106.365C56.2564 108.185 55.3573 109.951 54.8301 111.866C54.0906 113.452 53.3693 115.046 52.6108 116.602ZM51.6233 135.428C49.8506 134.999 48.098 134.502 46.3523 133.942C46.3284 133.898 46.3228 133.862 46.2766 133.819C46.1941 133.759 46.0983 133.704 46.0158 133.644C46.0457 133.603 46.0806 133.575 46.1106 133.534C49.0117 128.176 51.8121 122.749 54.5992 117.328C56.5924 113.467 59.0017 109.204 60.79 105.238C60.9253 105.135 61.0557 105.019 61.2001 104.92C63.0767 103.35 64.5059 104.216 65.4786 107.513C65.2697 108.231 65.0203 108.942 64.7255 109.632C63.6089 112.398 61.9926 114.935 60.6712 117.597C60.667 117.606 60.6761 117.61 60.6761 117.61C60.2786 118.308 59.8762 118.992 59.4912 119.663C56.6723 124.53 53.2719 129.945 51.6233 135.428ZM52.3542 135.609C55.1093 130.976 57.0796 125.752 59.7704 121.067C61.4711 118.107 63.2586 115.198 65.151 112.347C66.4805 110.339 68.0184 108.404 69.2151 106.302C69.3651 106.239 69.497 106.167 69.661 106.121C69.8474 106.075 70.0304 106.06 70.2141 106.067C71.1801 106.456 72.1502 106.836 73.1378 107.201C73.5252 108.226 73.3348 109.096 72.7357 110.329C72.3628 111.093 71.9989 111.861 71.6574 112.628C69.3961 115.419 67.3575 118.445 65.4204 121.296C62.4762 125.622 58.5018 130.73 57.2486 135.854C57.1938 136.093 57.5153 136.208 57.6575 136.042C59.4026 134.016 60.4762 131.438 61.8318 129.134C63.344 126.56 64.952 124.041 66.6285 121.565C68.8636 118.256 71.4645 115.181 73.8968 112.017C74.8705 111.287 75.8854 110.587 76.9721 110.162C77.9303 109.776 79.2972 109.436 80.3363 109.737C81.597 110.107 81.4708 110.621 81.6463 111.461C81.5439 111.612 81.4499 111.745 81.3907 111.85C80.9166 112.666 80.3118 113.456 79.8153 114.274C77.2933 116.89 74.9195 119.662 72.6912 122.501C69.2735 126.852 64.9256 132.029 62.8109 137.353C59.2677 136.969 55.7815 136.413 52.3542 135.609ZM63.7316 137.456C65.1737 135.467 66.3436 133.231 67.6898 131.186C69.5098 128.446 71.4436 125.768 73.4789 123.182C76.9998 118.703 80.9279 114.63 84.8091 110.493C84.8397 110.474 84.8663 110.464 84.897 110.445C85.4819 110.274 86.0718 110.115 86.6897 109.992C86.8587 109.959 87.5549 109.905 88.3231 109.862C88.6431 109.932 88.9472 110.06 89.0401 110.433C89.1484 110.868 88.8298 111.514 88.6545 111.896C88.2955 112.677 87.674 113.503 87.0906 114.127C87.0516 114.164 87.0928 114.194 87.1334 114.201C84.1518 116.859 81.3341 119.736 78.6652 122.648C74.368 127.332 70.1692 132.281 66.8184 137.708C65.7916 137.643 64.7599 137.566 63.7316 137.456ZM84.6654 122.642C80.6035 126.861 75.9832 131.65 73.0246 136.894C72.989 136.899 72.9708 136.891 72.931 136.906C71.4261 137.403 69.9048 137.673 68.3748 137.817C68.1191 137.799 67.8551 137.799 67.5994 137.78C71.5058 132.917 75.2247 127.934 79.4529 123.329C83.4949 118.913 87.9399 114.913 92.1905 110.714C94.2595 110.09 97.1458 109.556 96.9869 111.244C96.9759 111.316 96.9914 111.378 96.9978 111.436C92.4988 114.619 88.3899 118.773 84.6654 122.642ZM104.277 101.145C102.119 102.707 99.581 103.775 96.8732 104.16C89.6805 105.181 82.6747 101.842 77.5043 97.0468C72.1773 92.1132 67.7174 86.6095 61.7421 82.3685C58.9881 80.4104 56.0899 78.6941 53.0935 77.1198C49.3595 75.1628 45.1803 73.4084 42.3269 70.2051C42.2758 70.1486 42.1795 70.2144 42.2265 70.28C47.4813 76.9521 56.0748 79.5895 62.6789 84.7135C69.3655 89.8974 74.2496 97.4007 81.4705 101.829C87.079 105.263 94.2291 106.874 100.58 104.619L100.593 104.614C100.396 104.876 100.194 105.124 99.9869 105.359C99.8774 105.43 99.7728 105.514 99.6675 105.575C99.5682 105.552 99.4739 105.542 99.3769 105.585C98.1046 106.079 96.8173 106.39 95.5164 106.563C92.16 106.683 88.4711 105.682 85.5625 104.731C81.8075 103.491 78.6025 101.293 74.97 99.8334C71.6731 98.5062 68.5746 99.5261 65.2245 98.8897C60.8836 98.0625 56.6526 94.7437 53.0701 92.361C49.9177 90.2639 46.8028 88.085 43.5654 86.1249C41.6433 84.967 39.5252 83.9722 37.4113 82.9683C34.8338 80.9371 31.6606 79.6998 29.1248 77.5778C27.7489 76.4286 26.6568 75.0687 25.8611 73.4708C24.8117 71.3712 23.4519 66.521 26.3683 65.2745C27.494 65.8905 28.4936 66.7567 29.439 67.7412C31.1527 70.575 33.5463 73.27 36.1118 75.2076C39.4483 78.2696 42.9113 81.3677 46.7187 83.7877C46.7781 83.826 46.843 83.7567 46.7919 83.7003C44.1384 80.996 41.218 78.6093 38.4224 76.0708C36.3326 73.7684 34.0309 71.6879 32.123 69.205C31.2906 68.1184 30.5013 66.9856 29.8091 65.8094C29.6924 65.3926 29.4878 65.0235 29.2225 64.7146C28.9048 64.0405 28.6191 63.249 28.436 62.4496C28.4148 61.9447 28.483 61.4368 28.7092 60.9685C29.3716 59.6221 30.5902 59.5325 31.8511 59.6384C32.7463 60.3247 33.5225 61.1984 34.4266 62.1529C34.6352 62.3697 34.8528 62.5907 35.0746 62.8026C38.3362 66.1714 43.0914 68.5644 46.8411 70.7268C55.5718 75.7491 62.3283 83.5841 71.9961 87.045C76.0623 88.4944 80.2224 88.9965 84.5216 88.8363C88.7985 88.6768 93.0565 88.4866 97.325 88.3453C97.3147 88.4396 97.345 88.5415 97.454 88.5916C98.0587 88.8803 98.717 89.4357 99.4048 89.3995C99.5655 89.3852 99.6614 89.1762 99.5634 89.0542C99.2596 88.6615 98.7256 88.4823 98.2322 88.3107C98.4648 88.3075 98.6924 88.291 98.9159 88.2836C99.2861 88.6517 99.6605 89.0107 100.061 89.3599C102.04 91.1379 104.389 92.228 107.081 92.1657C107.537 92.1551 107.973 92.0914 108.401 92.0236C107.77 93.7806 107.488 95.6872 106.673 97.4145C106.061 98.795 105.146 99.9485 104.277 101.145ZM34.5393 60.0147C35.708 61.2558 36.9884 62.4931 38.3644 63.6423C37.6356 63.1205 36.886 62.6442 36.1956 62.063C35.626 61.4822 35.0822 60.8693 34.6039 60.2095C34.5884 60.1474 34.5639 60.081 34.5393 60.0147ZM39.5689 64.6137C41.3223 65.9472 43.2081 67.0884 45.1756 67.86C45.6148 68.1498 46.0407 68.4444 46.4624 68.7482C44.1566 67.4911 41.8042 66.3116 39.6259 64.8489C39.646 64.7812 39.643 64.6918 39.5689 64.6137ZM101.4 88.5772C99.3568 86.8685 97.8412 84.6098 95.832 82.8507C93.8921 81.1564 91.6944 79.7839 89.4341 78.5477C84.143 75.6443 78.6268 73.3749 73.9379 69.4717C73.8183 69.3727 73.6356 69.5309 73.7427 69.6571C77.7618 74.6832 83.8249 76.9838 89.2882 80.0873C89.9563 80.6692 90.6676 81.205 91.3656 81.7457C92.6078 83.4496 93.4701 85.5734 92.4047 86.5036C92.3091 86.5917 92.2541 86.6875 92.2355 86.8C87.6602 86.8665 82.9118 87.7888 78.5246 87.1824C70.2314 86.0475 63.3889 81.1551 57.023 76.0635C56.853 75.9304 56.683 75.7973 56.5222 75.6684C52.9553 71.1911 47.9493 67.9785 43.0759 65.124C40.1281 63.396 37.1004 61.1471 35.1228 58.313C33.8077 56.4325 32.411 52.7648 34.4844 50.79C34.9397 50.3498 35.3994 50.0438 35.8662 49.818C37.6671 49.6107 39.44 49.7757 41.102 50.374C41.5117 50.5841 41.9172 50.8034 42.3234 51.045C45.9476 56.3079 51.2093 59.5389 57.4964 61.7112C61.7239 63.1687 66.1152 64.0301 70.4495 65.0634C75.9471 66.3669 80.9107 68.1624 85.8892 70.8121C87.9966 72.4293 90.2687 74.023 92.52 75.2551C94.6392 77.2298 96.9534 78.8759 100.11 79.2144C100.415 79.2446 100.567 78.8189 100.276 78.6854C96.9593 77.1619 94.2676 75.7386 91.8374 72.8838C90.3101 71.0819 88.9429 69.3865 86.892 68.1255C82.0778 65.1661 76.1048 64.7777 70.728 63.4746C64.3498 61.9318 57.2267 59.7826 51.7427 56.0534C49.4035 54.4618 47.2884 52.0709 46.0913 49.4302C45.6945 48.2576 45.32 47.0842 45.116 45.9231C44.8612 43.3631 45.6443 40.7956 48.0792 38.6567C48.1399 38.5965 48.074 38.5003 48.0085 38.5472C47.6018 38.8336 47.2455 39.1542 46.9116 39.474C46.9938 39.3907 47.0579 39.2991 47.1402 39.2158C50.0724 36.2818 54.4666 35.747 58.2451 36.8882C60.0843 38.5143 61.9073 40.0558 63.4978 42.0078C65.154 44.056 66.5522 46.2828 68.0293 48.4578C70.2675 51.7307 72.6475 54.9586 75.8471 57.2644C79.6582 61.2817 84.0152 64.7574 89.1564 66.6455C89.6638 66.8345 89.9943 66.139 89.507 65.8822C88.9966 65.6037 88.5127 65.3155 88.0198 65.023C91.344 66.3628 94.8672 67.6288 98.4768 67.3168C98.7401 67.2947 98.715 66.942 98.4893 66.8824C95.0651 65.904 91.6337 65.1092 88.2893 63.8373C86.7985 63.2736 85.1297 62.7383 83.5416 62.0749C79.1382 58.82 75.391 54.9751 71.9369 50.6597C70.2642 47.3054 68.149 44.1 66.1784 40.9391C64.8082 38.7472 63.3752 36.5484 63.4742 33.8648C63.5582 31.6695 64.5113 30.0495 65.8166 28.5251C68.2635 27.5582 70.9736 27.6474 73.5421 28.1888C78.5392 29.2405 83.1569 31.6694 88.0867 32.9873C93.4638 34.4335 100.621 34.7604 105.645 31.775C105.355 32.071 105.069 32.3579 104.756 32.6322C104.739 32.6462 104.753 32.6637 104.744 32.6819C99.422 35.8605 92.8387 37.0405 86.7352 37.4395C79.4039 37.9238 72.2426 36.2413 67.8734 29.965C67.7747 29.8206 67.5416 29.9447 67.6006 30.1038C69.8727 36.5615 78.8082 38.3105 84.749 38.2659C88.9542 38.2386 93.186 37.5302 97.2791 36.549C100.222 35.843 103.01 34.9005 105.298 32.9141C102.773 35.848 100.267 38.6694 97.0121 40.9161C92.9914 43.6802 88.4353 45.4061 83.6717 46.4095C83.574 46.4307 83.5792 46.5871 83.6909 46.5834C92.685 45.6413 102.936 39.9726 106.757 31.4384C106.761 31.4293 106.752 31.4251 106.756 31.416C107.143 31.0766 107.546 30.6784 107.714 30.2164C107.931 30.0079 108.157 29.8035 108.36 29.5776C107.961 30.9018 107.625 32.2553 107.158 33.5371C106.755 34.6288 106.317 35.7038 105.842 36.7621C105.618 37.1767 105.409 37.6087 105.24 38.0484C104.817 38.9215 104.362 39.7912 103.876 40.6351C101.195 45.2253 97.5947 48.5125 93.2693 51.5329C93.0154 51.7024 93.2306 52.1203 93.5223 52.0122C95.8325 51.1035 97.8733 49.6309 99.6769 47.8842C101.157 47.5847 102.364 47.5447 103.603 49.0161C103.859 49.3208 104.099 49.6619 104.325 50.0079C104.523 50.5831 104.752 51.1616 105.031 51.7296C106.323 54.4253 110.136 57.4089 109.822 60.4888C104.85 65.4681 94.8572 63.0023 89.403 60.3102C83.1757 57.241 77.6304 52.8785 71.5674 49.4995C71.5583 49.4954 71.5499 49.5135 71.559 49.5177C78.1248 54.7012 85.6721 60.7425 93.7862 63.2258C99.075 64.8405 106.745 65.392 110.875 61.0715C110.923 61.0386 110.966 60.9924 111 60.942C111.126 60.8126 111.251 60.6832 111.368 60.5496C112.437 64.7382 109.153 66.7843 105.839 68.1783C101.674 69.9405 97.418 70.3409 92.9712 70.7745C92.6591 70.8072 92.6432 71.2731 92.9492 71.3256C97.0894 72.0387 101.496 71.1903 105.38 69.7059C106.502 69.275 107.702 68.7699 108.805 68.1428C109.202 67.973 109.6 67.8256 110.017 67.7312C111.552 67.8639 113.105 68.5552 114.166 69.5045C115.162 70.4023 115.572 71.57 116.185 72.6549C117.188 75.3825 117.62 78.2767 117.078 81.2523C115.785 88.4052 107.815 93.9447 101.4 88.5772ZM106.174 101.4C108.416 99.5135 110.157 97.0888 111.135 94.3359C111.111 95.0839 111.019 95.8342 110.736 96.5954C109.921 98.7522 108.318 100.613 106.174 101.4Z" fill="#896C61"/>
<path d="M55.9883 38.9989C55.5902 39.0031 55.5969 39.6115 55.9617 39.6799C56.5157 39.7914 56.7903 40.2476 57.2428 40.5324C57.3798 40.6174 57.5409 40.4823 57.577 40.3558C57.7932 39.4537 56.7126 38.9794 55.9883 38.9989Z" fill="#896C61"/>
<path d="M60.7863 43.5026C60.4776 43.0967 60.0785 42.9354 59.5951 42.9335C58.378 42.6606 57.1689 42.6335 55.938 42.4863C55.6551 42.4554 55.4874 42.7965 55.7085 42.9861C56.1877 43.4043 56.9876 43.9148 57.632 43.7816C57.8275 43.7393 57.911 43.5575 57.8157 43.3817C57.7253 43.2191 57.5735 43.0944 57.4175 42.9787C58.0811 43.0194 58.7511 43.118 59.3911 43.2579C59.41 43.2886 59.438 43.3235 59.4785 43.3311C59.8224 43.445 60.0953 43.7134 60.2139 44.054C60.3122 44.3192 60.2742 44.5219 60.4952 44.7114C60.5918 44.7888 60.7217 44.7934 60.8312 44.7227C61.2518 44.4537 61.0349 43.8479 60.7863 43.5026Z" fill="#896C61"/>
<path d="M64.2406 48.6324C63.9446 47.9352 62.9619 47.5829 62.1367 47.391C62.0038 47.2969 61.8361 47.2309 61.6593 47.1607C61.1833 46.9751 60.8786 47.6385 61.3254 47.8877C61.6533 48.0603 61.9448 48.2162 62.3028 48.0835C62.3294 48.0737 62.3286 48.0513 62.3461 48.0373C62.5634 48.1152 62.7766 48.2021 62.9731 48.3253C63.3248 48.5419 63.5844 48.8152 63.9904 48.9136C64.1574 48.9573 64.2947 48.7782 64.2406 48.6324Z" fill="#896C61"/>
<path d="M65.6299 52.3407C65.456 51.9527 65.2011 51.9566 64.8076 51.8309C64.4638 51.717 64.2676 52.1441 64.5781 52.3307C64.9298 52.5473 65.0887 52.7523 65.5005 52.6224C65.6025 52.5921 65.6734 52.4377 65.6299 52.3407Z" fill="#896C61"/>
<path d="M63.6563 44.6336C63.4898 44.4691 63.3024 44.35 63.0634 44.2953C62.9146 44.2599 62.8566 44.2663 62.7142 44.2889C62.6835 44.3079 62.6528 44.3268 62.6172 44.3324C62.5489 44.4331 62.5266 44.4339 62.5459 44.3437C62.2282 44.3408 62.2395 44.8192 62.519 44.8816C62.6269 45.0301 62.7953 45.1185 62.9297 45.2573C63.1151 45.4525 63.2267 45.7128 63.4511 45.8709C63.5749 45.9608 63.7496 45.964 63.8527 45.8352C64.1586 45.4806 63.9754 44.9452 63.6563 44.6336Z" fill="#896C61"/>
<path d="M57.6886 47.3727C57.4813 47.0574 57.1362 47.042 56.8811 47.3099C56.6999 47.5128 56.9114 47.819 57.1516 47.7753C57.1607 47.7794 57.1656 47.7927 57.2019 47.8094C57.4748 48.0778 57.891 47.6747 57.6886 47.3727Z" fill="#896C61"/>
<path d="M67.5699 51.0638C67.5347 50.5414 66.9504 50.3281 66.4931 50.4372C66.4443 50.4478 66.4332 50.5197 66.4703 50.5588C66.7508 50.7866 66.9498 51.1201 67.2637 51.2752C67.414 51.3553 67.5842 51.2244 67.5699 51.0638Z" fill="#896C61"/>
<path d="M70.1551 55.4975C70.075 55.2406 69.8114 55.1196 69.762 54.8438C69.6738 54.3411 68.8798 54.4166 68.968 54.9193C69.0464 55.3955 69.4228 56.0855 70.0006 55.8337C70.1374 55.7755 70.2 55.6392 70.1551 55.4975Z" fill="#896C61"/>
<path d="M73.9347 58.2898C73.6795 58.1505 73.3578 57.8927 73.2944 57.5995C73.2027 57.1282 72.4576 57.1932 72.5451 57.6735C72.6699 58.3361 73.2088 58.9358 73.9235 58.6257C74.0644 58.5584 74.0668 58.3615 73.9347 58.2898Z" fill="#896C61"/>
<path d="M76.3306 61.0518C76.3053 60.9631 76.2842 60.8654 76.2589 60.7767C76.2019 60.5415 75.804 60.6889 75.9008 60.9094C75.9394 60.9932 75.9871 61.0811 76.0256 61.1648C76.13 61.3448 76.382 61.2515 76.3306 61.0518Z" fill="#896C61"/>
<path d="M86.9937 40.9255C86.4057 40.6004 85.5378 40.741 84.9066 40.8693C84.6043 40.9286 84.5563 41.3686 84.8937 41.4246C85.5644 41.5456 86.4272 41.6557 87.0377 41.3089C87.1779 41.2192 87.1258 40.9972 86.9937 40.9255Z" fill="#896C61"/>
<path d="M91.2979 39.7003C90.9072 39.5208 90.6143 40.1345 91.0141 40.3182C91.414 40.5018 91.6978 39.8839 91.2979 39.7003Z" fill="#896C61"/>
<path d="M94.2008 38.9866C94.2536 38.8238 94.0446 38.7278 93.9554 38.8739C93.9171 38.9334 93.883 38.9837 93.8538 39.0473C93.748 39.2298 94.0751 39.3801 94.1446 39.1809C94.1647 39.1131 94.1848 39.0453 94.2008 38.9866Z" fill="#896C61"/>
<path d="M95.7331 38.5018C95.463 38.5868 95.1978 38.6851 94.9326 38.7834C94.7734 38.8424 94.8668 39.0943 95.0259 39.0354C95.2911 38.9371 95.5564 38.8388 95.8167 38.7273C95.9394 38.6516 95.8748 38.4569 95.7331 38.5018Z" fill="#896C61"/>
<path d="M89.8978 41.7422C89.8907 41.6619 89.8207 41.5748 89.7355 41.5686C89.3491 41.5233 89.078 41.8499 88.7143 41.947C88.3862 42.0384 88.5116 42.5801 88.8453 42.5243C89.2859 42.4516 89.9156 42.2786 89.8978 41.7422Z" fill="#896C61"/>
<path d="M82.928 42.5905C82.6743 42.496 82.552 42.4508 82.3007 42.5665C82.173 42.6289 82.1055 42.752 82.1505 42.8937C82.2264 43.1596 82.3404 43.223 82.5774 43.3538C83.0514 43.6156 83.4312 42.7886 82.928 42.5905Z" fill="#896C61"/>
<path d="M77.7008 41.4883C77.4876 41.4014 77.4876 41.4014 77.2634 41.3864C77.1782 41.3803 77.1217 41.4314 77.0925 41.495L76.994 41.4938C76.7921 41.4781 76.7347 41.7708 76.9373 41.8089C77.0812 41.831 77.2251 41.853 77.369 41.8751C77.4054 41.8918 77.4418 41.9085 77.4921 41.9426C77.7829 42.0762 77.9999 41.6036 77.7008 41.4883Z" fill="#896C61"/>
<path d="M94.028 46.5991C93.4083 46.5346 92.8494 46.8171 92.3885 47.2217C92.1535 47.4219 92.2417 47.9246 92.6244 47.8582C93.2248 47.7489 93.8299 47.5096 94.1704 46.9837C94.2596 46.8376 94.2166 46.6197 94.028 46.5991Z" fill="#896C61"/>
<path d="M96.2252 44.8574C96.041 44.9708 95.8973 45.0919 95.7321 45.2361C95.3841 45.5385 95.8837 46.0321 96.1499 45.6921C96.2913 45.504 96.4244 45.334 96.5337 45.1201C96.6346 44.9243 96.3919 44.7579 96.2252 44.8574Z" fill="#896C61"/>
<path d="M98.9784 42.8645C98.6972 43.0215 98.4614 43.1993 98.2453 43.4302C98.1373 43.5456 98.2989 43.6969 98.4217 43.6212C98.6938 43.4601 98.9246 43.269 99.1407 43.0381C99.2313 42.9367 99.0837 42.8028 98.9784 42.8645Z" fill="#896C61"/>
<path d="M101.264 41.339C101.321 41.1895 101.112 41.0935 101.036 41.2347C100.935 41.4081 100.851 41.5898 100.768 41.7716C100.689 41.9442 100.961 42.0694 101.04 41.8968C101.115 41.7109 101.194 41.5382 101.264 41.339Z" fill="#896C61"/>
<path d="M102.834 38.759C102.776 38.7654 102.722 38.7627 102.664 38.7691C102.561 38.7769 102.499 38.9132 102.56 38.9962C102.593 39.0444 102.63 39.0834 102.663 39.1315C102.971 39.5374 103.343 38.7287 102.834 38.759Z" fill="#896C61"/>
<path d="M82.8102 33.3588C82.4911 33.0472 82.12 32.9208 81.7209 32.7595C81.435 32.6392 81.243 33.0572 81.5164 33.2047C81.8988 33.4024 82.2456 33.6057 82.6808 33.6405C82.8422 33.6486 82.9215 33.4759 82.8102 33.3588Z" fill="#896C61"/>
<path d="M86.8345 35.0422C86.6206 34.933 86.4354 34.8809 86.193 34.8576C85.9143 34.8176 85.8439 35.2585 86.1177 35.2852C86.3734 35.3036 86.5745 35.2969 86.823 35.235C86.9208 35.2139 86.9072 35.0756 86.8345 35.0422Z" fill="#896C61"/>
<path d="M89.7934 35.3337C89.5173 35.2399 89.2393 35.2223 88.9522 35.2004C88.8355 35.1909 88.8184 35.348 88.9267 35.3758C89.2111 35.4514 89.4648 35.5459 89.7602 35.5495C89.8678 35.5549 89.8933 35.3796 89.7934 35.3337Z" fill="#896C61"/>
<path d="M91.4005 35.4997C90.9771 35.4152 90.6274 35.5297 90.1959 35.6066C89.969 35.6455 89.9933 35.9758 90.2259 35.9726C90.6415 35.9543 91.0319 35.9906 91.429 35.8209C91.5832 35.7487 91.5626 35.5301 91.4005 35.4997Z" fill="#896C61"/>
<path d="M83.9881 35.1544C83.4866 35.1442 83.0305 35.1548 82.5401 35.0726C82.2432 35.0243 82.0023 35.4528 82.2813 35.636C82.8715 36.0281 83.6692 36.0644 84.1934 35.5458C84.367 35.3835 84.1718 35.1618 83.9881 35.1544Z" fill="#896C61"/>
<path d="M93.8119 34.9455C93.4804 35.0684 93.2908 35.2894 93.035 35.535C92.8962 35.6694 93.1048 35.8862 93.2624 35.7825C93.5603 35.5892 93.8017 35.447 93.9974 35.1407C94.0698 35.0309 93.918 34.9062 93.8119 34.9455Z" fill="#896C61"/>
<path d="M101.66 50.0827C101.371 49.5866 100.718 49.738 100.248 49.8744C99.8366 50.0043 100.076 50.6094 100.479 50.4976C100.856 50.3957 101.168 50.6046 101.535 50.4761C101.707 50.4122 101.741 50.2187 101.66 50.0827Z" fill="#896C61"/>
<path d="M102.656 52.73C102.47 52.5125 102.033 52.6746 102.168 52.9789C102.25 53.1596 102.33 53.4165 102.372 53.612C102.399 53.7453 102.544 53.7898 102.644 53.6925C102.956 53.3958 102.949 53.0515 102.656 52.73Z" fill="#896C61"/>
<path d="M101.93 54.9824C101.923 55.0453 101.916 55.1082 101.909 55.171C101.871 55.4945 102.262 55.674 102.482 55.434C102.525 55.3878 102.568 55.3416 102.611 55.2955C103.065 54.8106 102.011 54.3265 101.93 54.9824Z" fill="#896C61"/>
<path d="M99.8793 51.9718C99.7708 51.8009 99.7386 51.7751 99.5777 51.6462C99.114 51.2902 98.7084 52.1493 99.2897 52.2732C99.4923 52.3113 99.5329 52.3189 99.7332 52.2899C99.8848 52.2715 99.9641 52.0988 99.8793 51.9718Z" fill="#896C61"/>
<path d="M104.159 53.244C103.996 53.0481 103.63 53.1989 103.737 53.4683C103.868 53.7817 103.943 54.0253 104.266 54.1623C104.366 54.2082 104.502 54.1499 104.516 54.0242C104.545 53.6742 104.391 53.5048 104.159 53.244Z" fill="#896C61"/>
<path d="M105.438 57.0006C105.64 56.7747 105.277 56.4645 105.079 56.7038C104.855 56.9752 104.756 57.3588 105.064 57.5992C105.155 57.6633 105.302 57.6316 105.316 57.5058C105.328 57.3354 105.33 57.1161 105.438 57.0006Z" fill="#896C61"/>
<path d="M107.525 58.6856C106.934 58.5351 106.349 58.5634 105.806 58.8096C105.761 58.7887 105.725 58.772 105.679 58.7511C105.397 58.6217 105.193 59.067 105.475 59.1964L105.484 59.2006C105.531 59.2661 105.603 59.2995 105.693 59.2966C105.938 59.4092 106.188 59.5129 106.461 59.5396C106.6 59.5484 106.671 59.3939 106.574 59.2942C106.491 59.212 106.395 59.157 106.294 59.0887C106.68 58.9909 107.093 59.0041 107.452 59.1802C107.857 59.3771 108.099 59.8076 108.516 59.9548C108.611 59.9875 108.761 59.9467 108.766 59.8168C108.807 59.1532 108.08 58.8193 107.525 58.6856Z" fill="#896C61"/>
<path d="M108.117 61.0151C108.088 61.0787 108.072 61.1374 108.043 61.201C108.022 61.2465 108.085 61.2757 108.115 61.2344C108.144 61.1708 108.179 61.1205 108.208 61.0569C108.233 61.0023 108.142 60.9606 108.117 61.0151Z" fill="#896C61"/>
<path d="M44.0826 56.3429C43.7724 55.8923 43.3836 55.6367 42.9095 55.375C42.8138 55.32 42.6932 55.4627 42.7632 55.5498C43.1083 55.9724 43.4323 56.2973 43.9363 56.5178C44.0453 56.5679 44.1575 56.4433 44.0826 56.3429Z" fill="#896C61"/>
<path d="M47.7134 59.771C47.3904 59.6116 47.1174 59.6073 46.8779 59.2662C46.831 59.2006 46.7214 59.2714 46.7683 59.3369C46.9813 59.6878 47.2424 60.0058 47.672 60.0051C47.811 60.0139 47.8225 59.8211 47.7134 59.771Z" fill="#896C61"/>
<path d="M53.7585 62.0631C53.2464 61.5968 52.3298 61.484 51.6785 61.2729C51.6645 61.2555 51.6372 61.2429 51.6289 61.2611L51.6247 61.2702C51.4046 61.2462 51.2536 61.5509 51.4983 61.6413C52.1552 61.888 52.9768 62.3754 53.6912 62.3294C53.8162 62.3208 53.8508 62.1496 53.7585 62.0631Z" fill="#896C61"/>
<path d="M55.6099 63.1116C55.3655 62.7573 55.0435 62.7634 54.6314 62.7502C54.2508 62.7405 53.9655 63.3137 54.4093 63.4735C54.8076 63.6125 55.1662 63.7661 55.538 63.5077C55.6691 63.4139 55.6946 63.2386 55.6099 63.1116Z" fill="#896C61"/>
<path d="M59.224 64.2984C58.9865 63.8812 58.5211 63.7445 58.0692 63.746C57.859 63.7485 57.7254 64.0393 57.8605 64.2004C58.1538 64.5442 58.574 64.8032 59.032 64.7165C59.2366 64.6784 59.3284 64.4784 59.224 64.2984Z" fill="#896C61"/>
<path d="M60.0889 66.4892C60.205 66.2124 59.8052 66.0288 59.6709 66.2972C59.5957 66.4608 59.5066 66.607 59.4084 66.7489C59.1346 67.1294 59.8071 67.4382 59.9082 66.9785C59.961 66.8157 60.0179 66.6437 60.0889 66.4892Z" fill="#896C61"/>
<path d="M61.1701 66.9859C60.9527 66.9081 60.7319 66.8617 60.5779 66.6699C60.3819 66.4258 60.001 66.6801 60.1754 66.9472C60.3919 67.2667 60.6947 67.4939 61.0947 67.4135C61.2861 67.3803 61.3965 67.0679 61.1701 66.9859Z" fill="#896C61"/>
<path d="M62.4564 65.0237C62.1015 65.3889 62.6947 65.8704 63.0593 65.5317C63.2545 65.3463 63.5321 65.4847 63.7312 65.5542C63.8354 65.591 63.9771 65.5461 63.9908 65.4203C64.0249 64.5556 62.9283 64.5472 62.4564 65.0237Z" fill="#896C61"/>
<path d="M65.3896 65.8976C64.9799 65.6874 64.6767 66.3955 65.1016 66.5246C65.3231 66.5933 65.3946 66.7252 65.4948 66.9143C65.5425 67.0022 65.6857 67.002 65.7414 66.9285C66.0501 66.5201 65.7993 66.1077 65.3896 65.8976Z" fill="#896C61"/>
<path d="M67.1388 69.133C67.0526 68.9614 67.0049 68.8734 66.8963 68.7025C66.717 68.4221 66.2853 68.763 66.5359 69.0321C66.629 69.1409 66.7353 69.2448 66.8591 69.3347C66.992 69.4287 67.2201 69.2914 67.1388 69.133Z" fill="#896C61"/>
<path d="M68.9943 69.9083C68.9174 69.884 68.8364 69.8688 68.7512 69.8626C67.9827 69.7628 68.4545 71.0358 68.9723 70.4594C69.033 70.3992 69.0845 70.3348 69.127 70.2663C69.2252 70.1244 69.1655 69.9429 68.9943 69.9083Z" fill="#896C61"/>
<path d="M70.23 66.404C70.0161 66.2947 69.9665 66.283 69.7241 66.2597C69.0598 66.1967 69.0764 67.2387 69.695 67.1377C69.9442 67.0981 70.0594 67.0629 70.2743 66.9305C70.4892 66.7981 70.4167 66.5007 70.23 66.404Z" fill="#896C61"/>
<path d="M69.918 68.7367C69.8585 68.2912 69.8361 67.8848 69.9554 67.4334C70.0109 67.2168 69.6553 67.1525 69.618 67.3774C69.5218 67.8504 69.524 68.3247 69.696 68.7888C69.7361 68.9173 69.9406 68.8791 69.918 68.7367Z" fill="#896C61"/>
<path d="M72.8099 72.167C72.6924 71.7279 72.4439 71.7898 72.1241 71.4558C72.0268 71.3562 71.8797 71.5087 71.9547 71.6091C72.2229 72.0074 72.1087 72.2081 72.5233 72.4315C72.7009 72.5241 72.8556 72.331 72.8099 72.167Z" fill="#896C61"/>
<path d="M75.8292 67.9413C75.603 67.5953 75.2677 67.6064 74.8674 67.5436C74.3504 67.4712 74.2241 68.2495 74.7376 68.3533C75.1296 68.4343 75.4378 68.5539 75.7649 68.2969C75.8828 68.208 75.909 68.055 75.8292 67.9413Z" fill="#896C61"/>
<path d="M78.3973 70.0891C78.2373 69.7186 78.0362 69.7252 77.697 69.4814C77.4907 69.3316 77.2537 69.6079 77.4343 69.7899C77.7344 70.0708 77.7683 70.2845 78.1694 70.3696C78.3091 70.4008 78.4513 70.235 78.3973 70.0891Z" fill="#896C61"/>
<path d="M80.6607 71.822C80.5776 71.4757 80.3573 71.3085 80.1382 71.0428C79.9282 70.7813 79.495 71.0775 79.705 71.3391C79.9381 71.6222 80.0678 71.8909 80.3999 72.0544C80.5684 72.1428 80.7015 71.9728 80.6607 71.822Z" fill="#896C61"/>
<path d="M82.5379 73.6526C82.4652 73.6192 82.4151 73.7283 82.4878 73.7616C82.5605 73.795 82.6106 73.686 82.5379 73.6526Z" fill="#896C61"/>
<path d="M84.5748 72.7395C84.0533 72.1258 83.2133 72.5653 82.9805 73.2397C82.8826 73.5249 83.3146 73.7343 83.4167 73.4401C83.5557 73.0417 84.0576 72.9311 84.4432 72.9542C84.5508 72.9595 84.663 72.835 84.5748 72.7395Z" fill="#896C61"/>
<path d="M86.1471 74.2759C86.1179 74.3395 86.1019 74.3982 86.0727 74.4618C86.0435 74.5254 86.1435 74.5713 86.1727 74.5077C86.2019 74.4441 86.236 74.3938 86.2652 74.3302C86.3028 74.2484 86.1756 74.1899 86.1471 74.2759Z" fill="#896C61"/>
<path d="M104.254 72.6114C103.851 72.316 103.483 72.3014 103.013 72.4154C102.529 72.5343 102.661 73.2772 103.102 73.3476C103.543 73.418 103.899 73.3615 104.234 73.0641C104.364 72.9479 104.41 72.7271 104.254 72.6114Z" fill="#896C61"/>
<path d="M107.259 71.3172C107.062 71.4579 106.915 71.6105 106.755 71.7903C106.535 72.0302 106.921 72.3396 107.137 72.1087C107.306 71.9331 107.44 71.7855 107.571 71.5708C107.677 71.3883 107.42 71.2044 107.259 71.3172Z" fill="#896C61"/>
<path d="M109.254 69.6806C109.072 69.5971 108.987 69.6133 108.798 69.6912C108.454 69.8413 108.64 70.3452 108.999 70.2349C109.19 70.1794 109.259 70.1234 109.352 69.9458C109.394 69.8549 109.354 69.7265 109.254 69.6806Z" fill="#896C61"/>
<path d="M109.493 73.8071C109.474 73.6332 109.305 73.5225 109.133 73.5864C108.885 73.6706 108.672 73.8701 108.4 73.8881C108.092 73.9117 107.795 73.7425 107.539 73.5586C107.487 73.3366 107.301 73.1414 107.057 73.1942C107.008 73.2048 106.972 73.2105 106.924 73.221C106.239 73.369 106.501 74.2597 107.071 74.1468C107.511 74.4813 107.999 74.7604 108.57 74.6923C109.042 74.6454 109.561 74.3552 109.493 73.8071Z" fill="#896C61"/>
<path d="M104.749 75.6556C104.179 75.3389 103.716 76.3476 104.332 76.5644C104.635 76.6707 105.143 76.8821 105.331 76.4731C105.519 76.0642 105.031 75.8074 104.749 75.6556Z" fill="#896C61"/>
<path d="M108.237 76.3993C108.263 76.1031 107.936 75.9528 107.728 76.1655C107.585 76.309 107.538 76.3866 107.437 76.56C107.178 76.9803 107.982 77.3608 108.137 76.8814C108.193 76.6871 108.221 76.6011 108.237 76.3993Z" fill="#896C61"/>
<path d="M115.381 73.5182C115.117 73.2316 114.674 73.5237 114.878 73.8704C115.062 74.1641 114.94 74.5262 115.111 74.8248C115.183 74.9567 115.366 74.964 115.476 74.8932C116.014 74.5353 115.721 73.9052 115.381 73.5182Z" fill="#896C61"/>
<path d="M115.181 77.4759C115.099 77.7024 115.021 77.8974 114.992 78.1265C114.957 78.3962 115.293 78.5506 115.474 78.3477C115.634 78.1679 115.73 77.9813 115.844 77.7806C116.09 77.3653 115.345 77.023 115.181 77.4759Z" fill="#896C61"/>
<path d="M87.2353 92.2724C87.1357 91.6984 86.6178 91.4605 86.1479 91.1897C85.6962 90.9273 85.2589 91.6398 85.6632 91.9575C86.0493 92.2669 86.4566 92.674 86.9858 92.576C87.1282 92.5533 87.2719 92.4322 87.2353 92.2724Z" fill="#896C61"/>
<path d="M91.1734 91.7482C90.6994 91.4865 90.0633 91.6015 89.5353 91.6011C89.1372 91.6053 89.2061 92.1982 89.5958 92.2121C90.1378 92.23 90.7142 92.3406 91.1977 92.0785C91.3429 92.0021 91.2874 91.8116 91.1734 91.7482Z" fill="#896C61"/>
<path d="M92.2423 93.3506C92.0691 92.985 91.5387 93.1815 91.6588 93.5668C91.7143 93.7574 91.7752 93.8404 91.957 93.9238C92.066 93.9739 92.2077 93.9289 92.262 93.8108C92.3364 93.6249 92.3243 93.5314 92.2423 93.3506Z" fill="#896C61"/>
<path d="M90.3371 95.4137C90.1288 94.9329 89.7059 94.7276 89.2184 94.7348C89.222 94.4394 88.832 94.2823 88.6677 94.592C88.5752 94.7696 88.5489 94.9226 88.5151 95.1161C88.4778 95.341 88.6423 95.5817 88.8806 95.6141C89.3256 95.6754 89.7176 95.7564 90.1589 95.706C90.2881 95.6883 90.3862 95.5463 90.3371 95.4137Z" fill="#896C61"/>
<path d="M92.4768 96.1215C92.1843 96.2073 91.9827 96.3348 91.6494 96.2697C91.2351 96.1895 91.1308 96.8239 91.541 96.9132C91.9875 97.0192 92.5049 96.9707 92.7961 96.5763C92.9808 96.342 92.7693 96.0358 92.4768 96.1215Z" fill="#896C61"/>
<path d="M96.0099 92.4069C95.4566 91.9107 94.6233 92.2873 94.1079 92.6668C93.6539 93.0084 94.1567 93.7346 94.6198 93.3971C95.0481 93.0876 95.5844 93.0698 95.9903 92.7611C96.1082 92.6722 96.1205 92.5017 96.0099 92.4069Z" fill="#896C61"/>
<path d="M97.225 93.1633C96.9229 92.9585 96.5912 93.3453 96.8592 93.6005C97.0859 93.8256 97.1808 94.1223 97.3328 94.3902C97.4471 94.5967 97.7521 94.4837 97.7901 94.2811C97.8863 93.8081 97.6188 93.4321 97.225 93.1633Z" fill="#896C61"/>
<path d="M97.9967 95.7955C97.6028 95.7907 97.2308 95.9059 96.8407 95.7488C96.4053 95.5708 96.0915 96.23 96.5319 96.4213C97.1086 96.6751 97.8706 96.717 98.2124 96.0927C98.2924 95.9424 98.1399 95.7953 97.9967 95.7955Z" fill="#896C61"/>
<path d="M102.812 92.1639C102.206 92.0945 101.547 92.4742 100.967 92.7798C100.922 92.7813 100.886 92.7646 100.842 92.7884C100.71 92.8599 100.653 92.911 100.584 92.9894C100.484 93.0643 100.42 93.1559 100.405 93.2593C100.401 93.2684 100.406 93.2816 100.398 93.2998C100.372 93.596 100.611 93.9147 100.964 93.7688C101.595 93.4973 102.594 93.2853 103.009 92.7167C103.15 92.5062 103.082 92.1997 102.812 92.1639Z" fill="#896C61"/>
<path d="M106.514 79.6467C106.146 79.3457 105.715 79.4226 105.327 79.1893C105.016 79.0027 104.706 79.5097 104.991 79.7285C105.45 80.0712 105.965 80.4837 106.499 80.0141C106.608 79.921 106.643 79.7499 106.514 79.6467Z" fill="#896C61"/>
<path d="M109.304 78.6281C109.31 78.3997 108.992 78.3968 108.904 78.5653C108.785 78.7751 108.648 78.9541 108.442 79.0907C108.206 79.2462 108.408 79.6691 108.685 79.5435C109.073 79.3473 109.3 79.0668 109.304 78.6281Z" fill="#896C61"/>
<path d="M110.46 76.2541C110.426 76.0404 110.411 75.9783 110.35 75.7745C110.291 75.593 110.046 75.6458 110.007 75.8037C109.962 75.9484 109.931 76.0882 109.931 76.2314C109.887 76.64 110.508 76.6284 110.46 76.2541Z" fill="#896C61"/>
<path d="M101.946 75.3368C101.7 74.9377 101.25 74.8632 100.945 74.5466C100.857 74.4511 100.74 74.4415 100.642 74.4627C100.505 74.2346 100.056 74.3255 99.9303 74.0477C99.6562 73.4707 98.7279 73.8146 99.0021 74.3917C99.2671 74.9646 99.7775 75.243 100.394 75.075C100.394 75.075 100.398 75.0659 100.407 75.07C100.759 75.5506 101.272 76.0616 101.895 75.6651C102.004 75.5944 102.008 75.4421 101.946 75.3368Z" fill="#896C61"/>
<path d="M103.104 76.529C102.904 76.558 102.829 76.6007 102.682 76.7309C102.551 76.8471 102.654 77.1032 102.824 77.1155C103.03 77.1221 103.101 77.1108 103.276 76.9931C103.491 76.8607 103.354 76.4894 103.104 76.529Z" fill="#896C61"/>
<path d="M62.5846 70.5188C62.1591 69.6961 61.092 69.3601 60.2403 69.1779C59.8211 69.0844 59.5456 69.6842 59.8897 69.9413C60.5919 70.4729 61.5372 71.0501 62.4343 70.8459C62.5586 70.8149 62.6421 70.6332 62.5846 70.5188Z" fill="#896C61"/>
<path d="M65.3776 71.6255C65.2326 71.0307 64.5204 70.7366 63.9744 70.4638C64.0051 70.4449 64.0366 70.4483 64.0665 70.4071C64.481 69.8161 65.0661 70.8662 65.3299 71.1304C65.4412 71.2475 65.6114 71.1166 65.6202 70.9776C65.6066 70.4321 65.3555 69.8766 64.8034 69.6891C64.3778 69.5376 63.88 69.6391 63.6244 70.028C63.5603 70.1196 63.5724 70.2131 63.5977 70.3018C63.1799 70.253 62.9563 70.9315 63.3905 71.208C63.9478 71.552 64.5398 72.132 65.2274 71.9526C65.3691 71.9077 65.3995 71.7456 65.3776 71.6255Z" fill="#896C61"/>
<path d="M69.881 74.5191C69.5948 74.2556 69.1759 74.3053 68.9447 73.946C68.7185 73.6 68.1065 73.9022 68.2937 74.2853C68.558 74.8358 69.5036 75.5563 69.9296 74.7725C69.9895 74.69 69.9502 74.5839 69.881 74.5191Z" fill="#896C61"/>
<path d="M72.0069 73.3167C72.0165 73.2 72.0128 73.0883 71.9909 72.9682C71.9781 72.8523 71.8418 72.7897 71.7365 72.8513C71.6311 72.913 71.5439 72.983 71.4617 73.0662C70.9492 73.5351 71.9852 74.0109 72.0069 73.3167Z" fill="#896C61"/>
<path d="M73.8573 74.4635C73.4808 74.0375 72.9397 73.778 72.4023 73.6302C72.3436 73.6142 72.3068 73.7184 72.3655 73.7343C72.9043 73.9268 73.2681 74.2369 73.6879 74.6168C73.7893 74.7074 73.9413 74.5681 73.8573 74.4635Z" fill="#896C61"/>
<path d="M77.2809 75.5628C77.2912 75.4685 77.2791 75.3749 77.2538 75.2863C77.2093 75.0237 76.9878 74.955 76.8154 75.0189L76.7269 74.7802C76.722 74.7669 76.7088 74.7718 76.7137 74.7851C76.7432 74.8647 76.7726 74.9442 76.7972 75.0105C76.6248 75.0744 76.5015 75.2709 76.6389 75.499C76.6774 75.5828 76.7335 75.6525 76.7985 75.7264C76.9847 75.944 77.2897 75.831 77.2809 75.5628Z" fill="#896C61"/>
<path d="M76.693 73.4881C76.5227 73.2118 76.2557 73.1222 75.9556 73.2485C75.7923 73.3166 75.6607 73.5312 75.7428 73.7119C75.8003 73.8264 75.8487 73.9367 75.9194 74.0462C75.9853 74.1424 76.1436 74.0611 76.1043 73.955C76.1225 73.9634 76.1316 73.9676 76.1589 73.9801C76.2407 74.0176 76.2868 74.0609 76.3853 74.0621C76.4705 74.0682 76.5277 74.0394 76.6115 74.0009C76.7873 73.9056 76.7875 73.6416 76.693 73.4881Z" fill="#896C61"/>
<path d="M75.1234 72.3051C74.7972 71.9132 74.5391 71.6845 74.0665 71.4675C73.4759 71.1962 73.0585 72.105 73.6492 72.3762C74.1217 72.5933 74.4592 72.6492 74.9732 72.6322C75.1213 72.6452 75.2214 72.4271 75.1234 72.3051Z" fill="#896C61"/>
<path d="M79.5064 77.2342C79.3548 76.8454 78.9341 76.7072 78.7553 76.3059C78.5617 75.8649 77.8414 76.1393 78.0524 76.5664C78.2782 77.0332 78.7992 77.7677 79.3895 77.4886C79.4865 77.4451 79.5457 77.3402 79.5064 77.2342Z" fill="#896C61"/>
<path d="M81.9921 78.3869C81.8108 78.1826 81.6745 78.12 81.4117 78.0213C81.1447 77.9317 80.9903 78.268 81.2322 78.4121C81.4741 78.5562 81.6104 78.6188 81.8877 78.6141C81.9953 78.6195 82.0621 78.4741 81.9921 78.3869Z" fill="#896C61"/>
<path d="M51.1462 64.6599C51.2345 64.0843 50.7136 63.757 50.2961 63.4442C49.7589 63.0324 49.1395 62.7039 48.6239 62.269C48.3707 62.0537 48.0655 62.4307 48.3013 62.66C48.81 63.1578 49.1973 63.7759 49.6935 64.3009C50.0553 64.6871 50.3675 65.0616 50.9225 64.9313C51.0426 64.9095 51.1276 64.7724 51.1462 64.6599Z" fill="#896C61"/>
<path d="M54.6901 67.3661C54.5198 67.0898 54.217 66.8627 54.0956 66.5758C53.9652 66.2848 53.4352 66.3605 53.5183 66.7068C53.6394 67.2576 53.9254 67.7851 54.5607 67.6478C54.694 67.621 54.7657 67.4888 54.6901 67.3661Z" fill="#896C61"/>
<path d="M58.8829 68.5875C58.864 68.5568 58.8409 68.5352 58.8352 68.4995C58.7858 68.2238 58.6053 68.0418 58.3835 67.8299C58.0414 67.4967 57.6909 67.1816 57.3487 66.8484C57.0577 66.5717 56.5668 67.0175 56.8321 67.3264C57.1393 67.6876 57.4424 68.0579 57.7497 68.4192C57.9359 68.6367 58.085 68.8152 58.3115 68.8972C58.3345 68.9188 58.3444 68.9454 58.3716 68.9579C58.6018 69.1516 59.019 68.9141 58.8829 68.5875Z" fill="#896C61"/>
<path d="M48.4486 59.0083C48.1851 58.48 47.7433 58.6513 47.2393 58.4308C47.0484 58.3432 46.9149 58.634 47.1016 58.7307C47.5972 58.9693 47.7593 59.407 48.3276 59.2718C48.4246 59.2283 48.4872 59.092 48.4486 59.0083Z" fill="#896C61"/>
<path d="M44.4956 60.0207C44.2706 59.5762 43.8729 59.4596 43.4124 59.3361C43.0784 59.2487 42.8405 59.7667 43.1244 59.9631C43.5182 60.232 43.8657 60.4577 44.3495 60.3387C44.4647 60.3036 44.5481 60.1218 44.4956 60.0207Z" fill="#896C61"/>
<path d="M42.229 55.4915C42.2182 55.2994 41.9637 55.1825 41.811 55.2995C41.5362 55.5144 41.436 55.7325 41.5058 56.0837C41.5424 56.2435 41.6879 56.3103 41.833 56.2339C42.1449 56.058 42.245 55.8399 42.229 55.4915Z" fill="#896C61"/>
<path d="M39.7854 55.6125C39.7169 55.57 39.6491 55.5499 39.5764 55.5165L39.5715 55.5033C39.4415 55.0914 38.8497 55.3258 38.9482 55.7342C39.0305 56.0581 39.0379 56.2816 39.4223 56.4031C39.9513 56.5691 40.2735 55.8917 39.7854 55.6125Z" fill="#896C61"/>
<path d="M40.7129 53.2103C40.5706 52.9689 40.4189 52.8442 40.1519 52.7546C39.7221 52.6122 39.4675 53.1665 39.8597 53.3907C40.1016 53.5348 40.3043 53.5729 40.571 53.5193C40.7225 53.5008 40.7935 53.3464 40.7129 53.2103Z" fill="#896C61"/>
<path d="M39.9203 52.2521C39.6577 51.8894 39.5879 51.5382 39.1122 51.4958C38.9732 51.487 38.828 51.5634 38.8018 51.7164C38.7328 52.202 39.0138 52.309 39.3344 52.6653C39.6276 53.0091 40.1927 52.6414 39.9203 52.2521Z" fill="#896C61"/>
</svg>
