<svg width="84" height="83" viewBox="0 0 84 83" fill="none" xmlns="http://www.w3.org/2000/svg">
<path d="M59.6606 32.5475C58.9106 28.6775 56.6307 24.4675 52.5907 23.2575C50.7107 22.6975 48.9307 23.0075 47.2307 23.7175C45.9907 24.0075 44.6307 24.6575 43.9307 24.9475C39.6407 26.7575 36.1907 29.7875 34.8107 34.3375C32.3107 42.5875 38.4707 51.7375 47.3407 51.6275C57.4107 51.4975 61.3306 41.1675 59.6606 32.5475ZM56.2807 34.4975C56.1107 34.3075 55.9407 34.1175 55.7607 33.9375C55.7807 32.8375 55.6806 31.5975 55.4606 30.3675C55.6206 30.6475 55.7906 30.9275 55.9406 31.2075C55.9806 31.2875 56.0106 31.3675 56.0506 31.4475C56.1506 32.4675 56.2107 33.4875 56.2807 34.4975ZM54.4106 29.7175C54.6706 30.8675 54.7706 32.0375 54.9406 33.1975C54.7306 33.0175 54.5206 32.8575 54.3006 32.6975C54.1706 30.9475 53.8407 29.1075 53.1807 27.4375C53.4607 27.7075 53.7306 27.9875 53.9906 28.2875C54.1506 28.7575 54.3006 29.2275 54.4106 29.7175ZM45.0407 27.4975C44.8307 27.2175 44.5907 26.9275 44.3107 26.6775C44.5207 26.5775 44.7407 26.4675 44.9507 26.3575C45.1907 26.9375 45.5707 27.4375 45.9507 27.9375C46.3607 28.4675 46.7206 28.9875 47.3006 29.3475C47.4306 29.4275 47.6007 29.2975 47.5607 29.1475C47.3507 28.4475 46.8906 27.9075 46.4406 27.3275C46.1106 26.9075 45.7606 26.4975 45.3506 26.1675C45.6006 26.0475 45.8506 25.9175 46.1006 25.8075C46.3106 26.0975 46.5407 26.3975 46.5707 26.4475C46.9207 26.9475 47.1906 27.4775 47.4606 28.0175C47.7506 28.6075 48.0007 29.2475 48.3107 29.8575C48.2807 29.8575 48.2607 29.8475 48.2307 29.8375C47.4807 29.7175 46.7306 29.6775 45.9906 29.6975C45.9906 29.6875 46.0007 29.6875 46.0007 29.6775C46.1107 28.9075 45.4807 28.0775 45.0407 27.4975ZM38.0007 33.1375C37.1007 33.9975 36.3206 34.9875 35.7106 36.0875C35.7206 36.0075 35.7606 35.9275 35.7706 35.8475C36.2706 34.8375 36.9807 33.8175 37.7007 32.8775C37.8007 32.9675 37.9007 33.0575 38.0007 33.1375ZM38.7207 31.5875C38.9307 31.7375 39.1306 31.8775 39.3506 32.0175C39.0106 32.2575 38.6807 32.5175 38.3707 32.7975C38.2907 32.6575 38.1906 32.5375 38.0707 32.4175C38.2906 32.1275 38.5107 31.8475 38.7207 31.5875ZM39.2307 30.9575C39.3207 30.8475 39.4106 30.7375 39.4906 30.6375C39.6106 30.4875 39.7407 30.3475 39.8607 30.2075C40.2207 30.4975 40.5107 30.8675 40.9207 31.0575C40.5507 31.2475 40.1906 31.4575 39.8506 31.6875C39.6906 31.3975 39.4707 31.1675 39.2307 30.9575ZM40.3407 29.6375C40.4107 29.5575 40.4907 29.4775 40.5707 29.3975C40.7007 29.4975 40.8206 29.5975 40.9406 29.6975C41.2806 29.9975 41.6007 30.2975 41.9707 30.5575C41.8607 30.6075 41.7507 30.6575 41.6507 30.7175C41.5207 30.7775 41.3906 30.8275 41.2706 30.8875C41.2206 30.4475 40.8307 29.9675 40.3407 29.6375ZM40.9406 29.0175C41.1206 28.8375 41.2907 28.6675 41.4807 28.4975C41.9307 28.9175 42.3907 29.4375 42.9307 29.5875C43.1107 29.6375 43.2707 29.4975 43.2807 29.3275C43.2907 29.1975 43.2607 29.0675 43.2207 28.9475C43.5107 29.2275 43.8007 29.5175 44.1207 29.7375C44.2707 29.8475 44.4306 29.6675 44.4106 29.5175C44.2806 28.6475 43.6706 27.8675 42.9406 27.3175C43.1606 27.2175 43.3907 27.1275 43.6107 27.0275C43.9207 27.3675 44.2507 27.7075 44.5107 28.0875C44.8707 28.6075 45.0906 29.2875 45.5206 29.7475C44.9806 29.7875 44.4507 29.8675 43.9207 29.9775C43.8807 29.9875 43.8406 29.9975 43.8006 30.0075C43.3806 30.1075 42.9606 30.2275 42.5506 30.3675C42.4606 30.3975 42.3707 30.4075 42.2907 30.4475C42.0207 29.8975 41.5106 29.3875 40.9406 29.0175ZM48.2907 27.1175C48.0007 26.5575 47.6507 25.9975 47.2207 25.5075C47.4907 25.4675 47.7607 25.4475 48.0407 25.4375C48.5007 26.0875 48.9606 26.7275 49.3506 27.4275C49.9306 28.4575 50.3907 29.5475 50.8307 30.6375C50.3507 30.4275 49.8706 30.2575 49.4106 30.1175C49.2306 29.0775 48.7507 28.0075 48.2907 27.1175ZM48.7406 25.4575C49.0706 25.4775 49.4107 25.4975 49.7207 25.5575C50.2907 26.5175 50.8006 27.4775 51.2106 28.5675C51.5306 29.4275 51.7607 30.3075 51.9807 31.1975C51.7307 31.0675 51.4807 30.9375 51.2307 30.8275C50.9507 28.9275 50.0606 26.9475 48.7406 25.4575ZM50.9406 25.9375C51.2406 26.0675 51.5307 26.2175 51.8107 26.3875C52.5907 28.2675 53.0607 30.1675 53.5607 32.1575C53.2907 31.9775 53.0207 31.7975 52.7507 31.6275C52.5607 29.8075 51.9706 27.5875 50.9406 25.9375ZM50.8907 49.1875C44.0807 51.7975 36.4007 46.8875 35.5707 39.7175C35.5307 39.3575 35.5207 39.0075 35.5107 38.6475C35.5307 38.6375 35.5507 38.6475 35.5807 38.6275C35.6207 38.5975 35.6407 38.5675 35.6707 38.5475C35.7507 38.5075 35.8206 38.4575 35.8806 38.3675C35.8806 38.3675 35.8807 38.3575 35.8907 38.3575C36.5607 37.7775 36.9407 37.0875 37.3707 36.3275C39.9807 33.1175 43.4706 30.7175 47.9106 31.5475C53.0706 33.3075 55.8607 39.1175 56.6407 44.1175C55.4207 46.3475 53.5407 48.1675 50.8907 49.1875Z" fill="#896C61"/>
<path d="M83.1807 33.3175C82.3507 25.1475 79.9107 17.6874 74.1907 11.6174C67.8407 4.86744 59.0307 1.07745 49.8707 0.217445C46.0807 -0.132555 41.9807 -0.0925693 38.0107 0.577431C34.6907 0.687431 31.2007 1.35743 28.2407 2.79743C26.6607 3.56743 25.0007 4.37744 23.3507 5.24744C22.2407 5.71744 21.1907 6.36745 20.1707 7.03745C13.8207 9.16745 8.36067 16.6775 5.50067 21.7875C1.16067 29.5675 -0.769327 38.7374 0.280673 47.5975C0.340673 48.1274 0.450675 48.6374 0.540675 49.1674C0.470675 49.1774 0.400676 49.2274 0.400676 49.3074C0.420676 49.8474 0.580679 50.3475 0.810679 50.8475C2.45068 58.9174 6.62067 66.4774 13.0707 71.6874C20.6907 77.8474 30.6007 80.6574 40.1607 81.9474C52.2907 83.5874 62.2507 79.1674 71.3807 71.3674C71.5107 71.2574 71.5807 71.1274 71.6207 70.9974C74.8107 68.3474 77.5007 65.0374 79.4507 61.0174C83.6107 52.4474 84.1307 42.6375 83.1807 33.3175ZM17.3707 11.5975C17.0607 12.0175 16.7407 12.4374 16.4307 12.8674C16.4607 12.4574 16.5107 12.0474 16.5607 11.6374C16.8107 11.4274 17.0607 11.2275 17.3207 11.0375C17.3207 11.2275 17.3407 11.4174 17.3707 11.5975ZM14.2607 16.0174C14.0107 16.3974 13.7607 16.7774 13.5207 17.1574C13.5707 16.3374 13.6407 15.5274 13.7507 14.7174C13.8807 14.5374 14.0107 14.3674 14.1507 14.1874C14.1107 14.8174 14.1507 15.4474 14.2607 16.0174ZM13.0907 17.8475C12.7907 18.3274 12.5107 18.8174 12.2307 19.3074C12.1907 18.9074 12.1707 18.4974 12.1607 18.0874C12.1607 17.8274 12.1507 17.4874 12.1607 17.1174C12.4807 16.5874 12.8107 16.0674 13.1607 15.5474C13.0507 16.3174 13.0207 17.0774 13.0907 17.8475ZM11.6407 20.3374C11.4107 20.7674 11.1907 21.1974 10.9707 21.6274C10.9307 21.1174 10.9007 20.6175 10.9107 20.0975C10.9107 19.9275 10.9107 19.6574 10.9107 19.3274C11.1107 18.9574 11.3207 18.5774 11.5307 18.2074C11.5107 18.9274 11.5407 19.6374 11.6407 20.3374ZM10.3807 22.8274C10.1307 23.3574 9.90067 23.8874 9.68067 24.4174C9.64067 23.6074 9.58068 22.7874 9.55068 21.9774C9.67068 21.7274 9.79068 21.4774 9.91068 21.2374C10.0307 20.9974 10.1607 20.7474 10.2907 20.4974C10.2707 21.2774 10.2907 22.0574 10.3807 22.8274ZM49.4807 79.2674C48.7007 79.3674 47.9107 79.4374 47.1207 79.4774C47.3507 79.2874 47.5707 79.0874 47.7707 78.8874C48.5407 78.8974 49.3107 78.8574 50.0707 78.8274C49.8807 78.9774 49.6807 79.1174 49.4807 79.2674ZM46.0707 79.2875C45.9307 79.3675 45.7907 79.4474 45.6507 79.5274C44.7307 79.5374 43.8107 79.4874 42.8907 79.4074C43.1107 79.2674 43.3107 79.1274 43.4907 78.9774C43.6207 78.8674 43.4807 78.6774 43.3307 78.7074C42.6907 78.8474 42.0807 79.0474 41.4607 79.2474C40.8007 79.1674 40.1407 79.0574 39.4907 78.9274C39.5007 78.8474 39.4407 78.7574 39.3407 78.7774C39.2507 78.7974 39.1707 78.8175 39.0807 78.8475C38.3307 78.6874 37.5807 78.5174 36.8507 78.3074C36.4607 78.1974 36.0707 78.0674 35.6707 77.9374C35.7907 77.8574 35.7007 77.6974 35.5707 77.7174C35.4207 77.7374 35.2607 77.7375 35.1107 77.7575C34.2807 77.4775 33.4407 77.1474 32.5907 76.8074C32.8507 76.7074 33.1207 76.6174 33.3707 76.4874C33.4607 76.4474 33.4807 76.3675 33.4707 76.2875C34.7107 76.7475 35.9807 77.1675 37.3007 77.5075C40.3607 78.3075 43.5107 78.7374 46.6707 78.8475C46.4807 79.0075 46.2807 79.1575 46.0707 79.2875ZM31.0007 76.1274C30.7007 75.9975 30.4107 75.8574 30.1107 75.7174C30.2707 75.6774 30.4307 75.6474 30.5807 75.6074C30.8407 75.7074 31.0907 75.8274 31.3607 75.9174C31.6307 76.0074 31.8207 75.8774 31.9107 75.6874C32.2507 75.8174 32.5907 75.9574 32.9407 76.0874C32.2907 76.0674 31.6407 76.0975 31.0007 76.1274ZM24.2307 72.4774C23.4307 71.9774 22.6507 71.4474 21.8807 70.9074C21.9107 70.8974 21.9507 70.8974 21.9807 70.8974C22.1007 70.8774 22.1107 70.6674 21.9807 70.6474C21.7807 70.6174 21.5807 70.5975 21.3907 70.5675C20.6807 70.0574 19.9907 69.5474 19.3207 69.0174C19.4707 68.9674 19.4907 68.7574 19.3207 68.6974C19.1007 68.6174 18.8807 68.5574 18.6607 68.4874C17.8607 67.8374 17.0907 67.1774 16.3507 66.4974C16.4907 66.4774 16.6307 66.4774 16.7707 66.4474C16.9807 66.4074 16.9707 66.0875 16.7707 66.0375C16.3507 65.9375 15.9407 65.8374 15.5307 65.7374C14.7007 64.9474 13.9207 64.1375 13.1907 63.3175C13.2307 63.3175 13.2707 63.3274 13.3107 63.3175C13.5007 63.3075 13.5807 63.0474 13.4107 62.9574C13.1107 62.7974 12.8107 62.6374 12.5007 62.4974C11.9507 61.8374 11.4307 61.1674 10.9407 60.4674C11.6007 60.6574 12.2607 60.7974 12.9507 60.8674C13.1307 60.8874 13.1907 60.6175 13.0407 60.5375C11.9907 59.9875 10.9607 59.4674 9.94068 58.9374C9.78068 58.6874 9.64068 58.4174 9.49068 58.1674C10.4307 58.6174 11.4107 58.9674 12.4107 59.1374C15.4807 64.4474 19.6807 69.2075 24.6607 72.5375C24.5107 72.4975 24.3707 72.4874 24.2307 72.4774ZM7.50067 26.7774C7.59067 27.6874 7.73068 28.5974 7.98068 29.4774C7.98068 29.4874 7.99068 29.4874 7.99068 29.4874C7.75068 30.4374 7.54068 31.4074 7.38068 32.3774C7.09068 31.2974 6.89068 30.2374 6.72068 29.1874C6.96068 28.3674 7.22067 27.5674 7.50067 26.7774ZM7.23068 33.3475C7.14068 33.9575 7.07068 34.5674 7.01068 35.1774C6.58068 34.2774 6.21068 33.3474 5.88068 32.4174C5.98068 31.9374 6.10068 31.4674 6.22068 30.9874C6.49068 31.7974 6.82068 32.5975 7.23068 33.3475ZM6.91068 36.4474C6.86068 37.2674 6.83068 38.0774 6.83068 38.8974C6.25068 38.0674 5.70068 37.2274 5.22068 36.3374C5.31068 35.5174 5.44068 34.6974 5.59068 33.8774C5.94068 34.7674 6.37068 35.6374 6.91068 36.4474ZM6.85067 39.6474C6.86067 40.3674 6.89068 41.0774 6.95068 41.7974C6.29068 40.8874 5.62068 40.0274 5.02068 39.1574C5.04068 38.6174 5.07068 38.0775 5.12068 37.5375C5.61068 38.3075 6.17067 39.0274 6.85067 39.6474ZM7.07067 43.1874C7.19067 44.2674 7.34068 45.3474 7.54068 46.4174C7.79068 47.6974 8.13068 48.9874 8.52068 50.2674C7.61068 49.2974 6.56067 48.4375 5.60067 47.5075C5.47067 46.7975 5.35068 46.0774 5.26068 45.3574C5.96068 46.0574 6.69068 46.6774 7.38068 47.1874C7.51068 47.2874 7.62068 47.0874 7.54068 46.9774C6.75068 45.9874 5.92068 45.0274 5.13068 44.0574C5.04068 43.0274 4.99068 41.9974 4.98068 40.9674C5.67068 41.8074 6.39067 42.5674 7.07067 43.1874ZM8.55068 56.3974C8.31068 55.9174 8.08068 55.4174 7.87068 54.9274C8.98068 55.6474 10.1107 56.3274 11.2207 56.9274C11.4607 57.3974 11.7007 57.8674 11.9607 58.3274C10.8507 57.6374 9.68068 57.0374 8.55068 56.3974ZM7.13068 53.0975C6.98068 52.6974 6.84067 52.2974 6.71067 51.8874C7.71067 52.7274 8.78068 53.5174 9.91068 54.1074C10.0907 54.5374 10.2607 54.9575 10.4607 55.3774C9.47067 54.4874 8.26068 53.7874 7.13068 53.0975ZM6.13068 49.8574C6.11068 49.7574 6.08068 49.6674 6.06068 49.5675C6.95068 50.3175 7.91068 50.9674 8.91068 51.4474C9.00068 51.7174 9.10068 51.9774 9.20068 52.2474C8.19068 51.4474 7.14068 50.6674 6.13068 49.8574ZM9.16068 25.7474C8.82068 26.6774 8.51067 27.6074 8.25067 28.5574C8.17067 27.5474 8.06068 26.5374 7.99068 25.5274C8.29068 24.7674 8.60068 24.0275 8.94068 23.2875C8.96068 24.1175 9.01068 24.9474 9.16068 25.7474ZM14.9407 13.5075C14.9607 13.3775 15.0107 13.2474 15.0507 13.1274C15.3307 12.8174 15.6207 12.5074 15.9207 12.2174C15.8507 12.7074 15.8207 13.1974 15.8607 13.6874C15.5207 14.1674 15.1707 14.6574 14.8407 15.1474C14.8307 14.5974 14.8407 14.0475 14.9407 13.5075ZM10.6607 16.7074C10.6107 17.0574 10.5807 17.3874 10.5607 17.6674C10.1907 18.2774 9.84068 18.8874 9.49068 19.5174C9.49068 19.0374 9.51068 18.5574 9.58068 18.1174C9.93068 17.6374 10.2807 17.1674 10.6607 16.7074ZM7.88068 20.6774C8.26068 20.0674 8.64068 19.4475 9.05068 18.8475C9.04068 18.9974 9.04067 19.1474 9.03067 19.2774C9.00067 19.6674 8.98067 20.0774 8.96067 20.4774C8.56067 21.2474 8.17068 22.0275 7.81068 22.8175C7.79068 22.0975 7.79068 21.3374 7.88068 20.6774ZM7.43067 21.3774C7.39067 22.0874 7.44068 22.7975 7.42068 23.2875C7.42068 23.4175 7.42068 23.5474 7.41068 23.6774C7.04068 24.5074 6.71067 25.3474 6.39067 26.1974C6.34067 25.2574 6.31068 24.3074 6.34068 23.3374C6.69068 22.6774 7.05067 22.0174 7.43067 21.3774ZM5.54068 24.9674C5.42068 26.1174 5.46068 27.2874 5.62068 28.4374C5.46068 28.9374 5.31068 29.4274 5.17068 29.9274C4.95068 28.9174 4.77068 27.8974 4.73068 26.8374C4.99068 26.2074 5.24067 25.5774 5.54068 24.9674ZM4.46067 27.4274C4.45067 28.7074 4.57068 29.9774 4.81068 31.2074C4.80068 31.2474 4.79067 31.2875 4.78067 31.3175C4.56067 32.1975 4.38067 33.0974 4.21067 33.9974C3.85067 32.9374 3.47068 31.5975 3.40068 30.3475C3.71068 29.3675 4.07067 28.3974 4.46067 27.4274ZM3.03067 31.6374C3.13067 32.2874 3.27067 32.8874 3.36067 33.2974C3.51067 33.9974 3.73068 34.6775 3.99068 35.3475C3.91068 35.9174 3.83068 36.4974 3.77068 37.0774C3.19068 35.9274 2.77067 34.6774 2.64067 33.1674C2.76067 32.6574 2.88067 32.1474 3.03067 31.6374ZM2.18067 35.3475C2.33067 36.5875 2.88067 37.8574 3.61067 39.0474C3.56067 40.0274 3.55068 41.0074 3.56068 41.9874C2.78068 40.8374 2.13068 39.6274 1.76068 38.2774C1.87068 37.2974 2.00067 36.3175 2.18067 35.3475ZM1.62068 40.1474C2.08068 41.3274 2.79067 42.4674 3.61067 43.5174C3.64067 44.1674 3.70068 44.8074 3.76068 45.4474C2.85068 44.2474 2.09068 42.9374 1.58068 41.5274C1.59068 41.0674 1.59068 40.6074 1.62068 40.1474ZM1.55068 43.3274C2.12068 44.8374 2.99068 46.2675 4.04068 47.5375C4.07068 47.7075 4.10068 47.8774 4.13068 48.0474C2.96068 46.8374 2.01067 45.4574 1.57067 43.6774C1.56067 43.5574 1.55068 43.4474 1.55068 43.3274ZM1.63068 45.2974C2.14068 47.0074 3.18067 48.4374 4.46067 49.7774C4.60067 50.3974 4.75068 51.0074 4.92068 51.6174C3.86068 50.8374 2.86068 49.9674 2.04068 48.9574C1.85068 47.7474 1.71068 46.5274 1.63068 45.2974ZM2.34068 50.6474C2.79068 51.1474 3.29067 51.6175 3.86067 52.0675C4.36067 52.4575 4.88068 52.8574 5.41068 53.2474C5.57068 53.7474 5.74067 54.2474 5.93067 54.7374C4.95067 54.0674 3.74068 53.2075 2.73068 52.2575C2.59068 51.7175 2.45068 51.1874 2.34068 50.6474ZM3.06068 53.6174C3.71068 54.1974 4.38068 54.7274 4.95068 55.1774C5.48068 55.5974 6.03067 56.0174 6.61067 56.4274C6.74067 56.7374 6.90068 57.0374 7.04068 57.3374C5.82067 56.6274 4.63067 55.8874 3.50067 54.9974C3.35067 54.5374 3.19068 54.0774 3.06068 53.6174ZM3.81068 55.9274C5.05068 57.2174 6.47067 58.3674 8.03067 59.2474C8.36067 59.8374 8.70067 60.4174 9.07067 60.9774C7.65067 60.3774 6.25067 59.7274 5.00067 58.8374C4.55067 57.8874 4.16068 56.9174 3.81068 55.9274ZM5.74068 60.2875C6.14068 60.5575 6.54068 60.7974 6.91068 61.0274C7.91068 61.6374 9.05067 62.2674 10.2507 62.7174C10.7307 63.3674 11.2207 64.0174 11.7607 64.6474C11.0407 64.3774 10.3307 64.0574 9.62068 63.6274C8.42068 62.9174 7.33068 61.9974 6.20068 61.1674C6.04068 60.8774 5.89068 60.5875 5.74068 60.2875ZM7.75067 63.7174C9.42067 64.9474 11.3607 65.9174 13.2807 66.3374C13.5107 66.5874 13.7507 66.8275 14.0007 67.0675C12.0807 66.4675 10.2007 65.7775 8.45068 64.6574C8.21068 64.3475 7.97067 64.0474 7.75067 63.7174ZM11.4607 68.1074C10.9407 67.5874 10.4307 67.0575 9.94068 66.5075C11.6707 67.6275 13.8007 68.4375 15.8207 68.8175C16.2407 69.1974 16.6607 69.5574 17.0907 69.9274C16.5707 69.8274 16.0507 69.6974 15.5307 69.5474C14.3707 69.1974 12.8207 68.7574 11.4607 68.1074ZM18.4407 71.0174C18.7707 71.2774 19.1107 71.5474 19.4507 71.7974C17.4707 71.3974 15.5407 70.8374 13.5907 69.9874C15.1507 70.5674 16.8507 70.8974 18.4407 71.0174ZM15.9307 71.8074C17.7107 72.5774 19.5907 73.0775 21.5007 73.2575C21.7307 73.4175 21.9707 73.5774 22.2007 73.7274C20.4907 73.4574 18.8007 73.0674 17.0907 72.5474C16.7007 72.3074 16.3107 72.0674 15.9307 71.8074ZM79.6807 55.4274C77.2007 63.2674 72.0907 69.9274 64.5807 73.4974C59.7207 75.8074 54.3307 76.9575 48.9207 77.0975C48.9207 77.0375 48.8607 76.9774 48.8107 77.0174C48.7807 77.0474 48.7507 77.0675 48.7107 77.0975C46.1807 77.1574 43.6607 77.0074 41.1807 76.6274C35.2107 75.7075 29.8007 73.5474 25.1907 70.4074C23.1307 68.8774 21.1607 67.2474 19.3307 65.3974C19.1107 65.1574 18.8707 64.9374 18.6607 64.6874C18.5507 64.5674 18.4407 64.4474 18.3407 64.3274C14.0107 59.3474 11.0307 53.1374 9.83068 46.0474C7.38068 31.5574 12.5107 17.9874 23.0207 9.09745C23.1507 9.13745 23.3007 9.12745 23.4507 9.00745C36.2307 -1.74255 57.7107 -0.502563 70.2207 10.1774C75.9907 15.1074 79.5307 21.6574 80.7807 29.1174C82.2107 37.6974 82.3307 47.0774 79.6807 55.4274Z" fill="#896C61"/>
<path d="M36.8008 33.4575C36.8108 33.4575 36.8108 33.4375 36.8008 33.4375V33.4575Z" fill="#896C61"/>
<path d="M32.4605 71.8874C24.8305 68.0474 18.7605 63.1574 14.6305 55.5474C14.6205 55.5174 14.5805 55.5474 14.5905 55.5674C17.8305 63.1374 24.3205 69.8074 32.3805 72.0774C32.4905 72.1174 32.5705 71.9474 32.4605 71.8874Z" fill="#896C61"/>
<path d="M30.7806 68.8874C28.4206 67.3474 25.9906 65.9374 23.6506 64.3574C23.6006 64.3274 23.5406 64.3974 23.5906 64.4374C25.7006 66.2674 28.0906 67.9574 30.6706 69.0674C30.8006 69.1174 30.9006 68.9674 30.7806 68.8874Z" fill="#896C61"/>
<path d="M62.7808 8.37741C62.7308 8.35741 62.6907 8.41739 62.7407 8.44739C71.7207 13.2174 74.9908 22.8174 77.6108 31.9374C77.6508 32.0774 77.8808 32.0574 77.8708 31.9074C76.9308 21.9474 71.9908 12.6974 62.7808 8.37741Z" fill="#896C61"/>
<path d="M69.4607 16.6174C69.4007 16.5374 69.2807 16.6374 69.3307 16.7174C70.1807 18.2574 71.0707 19.7774 71.9607 21.2974C72.0207 21.3974 72.1907 21.3274 72.1507 21.2174C71.4707 19.5274 70.6107 18.0174 69.4607 16.6174Z" fill="#896C61"/>
<path d="M74.8505 17.3874C74.8105 17.3274 74.7305 17.3775 74.7605 17.4375C80.0605 26.2775 80.5005 35.2974 79.2805 45.2374C79.2605 45.4274 79.5405 45.4374 79.5905 45.2774C82.6805 36.0774 79.8705 25.3174 74.8505 17.3874Z" fill="#896C61"/>
<path d="M29.8807 7.54737C21.1907 10.7174 15.4007 18.3874 13.7607 27.3474C13.7507 27.3874 13.8207 27.4074 13.8307 27.3674C15.8407 18.5674 21.9507 11.6174 29.9207 7.62739C29.9707 7.60739 29.9307 7.52737 29.8807 7.54737Z" fill="#896C61"/>
<path d="M26.5206 11.1774C25.0406 11.9874 23.7706 13.2074 22.6106 14.4074C21.4806 15.5774 20.2106 16.9574 19.5506 18.4574C19.4906 18.5974 19.6506 18.7574 19.7706 18.6274C20.9506 17.4574 21.8906 16.0374 23.0406 14.8374C24.2006 13.6174 25.5306 12.6074 26.7206 11.4374C26.8506 11.3074 26.6806 11.0874 26.5206 11.1774Z" fill="#896C61"/>
<path d="M40.4809 24.6174C34.9209 27.4374 31.1109 34.3074 32.5809 40.5574C32.6109 40.6674 32.7809 40.6474 32.7809 40.5274C32.7709 33.9774 35.0409 28.5474 40.5709 24.7674C40.6609 24.7074 40.5809 24.5674 40.4809 24.6174Z" fill="#896C61"/>
<path d="M34.2809 27.4074C33.0309 28.7474 32.1609 30.5274 31.8409 32.3274C31.8209 32.4674 32.0009 32.5174 32.0509 32.3874C32.6809 30.6474 33.4309 29.0774 34.3709 27.4774C34.4009 27.4174 34.3309 27.3574 34.2809 27.4074Z" fill="#896C61"/>
<path d="M61.4806 44.8575C60.3606 46.7175 59.0206 48.6675 57.4706 50.1875C55.3706 52.2475 51.9406 52.8475 49.1206 53.2175C48.9206 53.2475 48.9106 53.5575 49.1206 53.5375C51.7806 53.2775 54.9306 53.0475 57.0906 51.3075C59.0506 49.7375 60.7106 47.2275 61.6406 44.9275C61.6706 44.8375 61.5206 44.7775 61.4806 44.8575Z" fill="#896C61"/>
<path d="M62.5808 35.3974C62.5708 35.2574 62.3507 35.2074 62.3207 35.3674C61.5007 39.8174 60.4907 43.8374 57.8907 47.6474C57.8107 47.7674 58.0007 47.9274 58.1007 47.8074C60.9307 44.3474 62.9608 39.9574 62.5808 35.3974Z" fill="#896C61"/>
<path d="M12.0905 48.8574L11.9305 49.0774C11.8105 49.2474 12.1305 49.4074 12.2005 49.1874C12.2305 49.1074 12.2605 49.0174 12.2805 48.9374C12.3305 48.8174 12.1505 48.7574 12.0905 48.8574Z" fill="#896C61"/>
<path d="M12.1706 51.4375C12.1806 51.4675 12.2006 51.4975 12.2106 51.5375C12.2506 51.6175 12.3806 51.6175 12.4206 51.5375C12.4306 51.5075 12.4506 51.4775 12.4606 51.4375C12.6106 51.1175 12.0206 51.1175 12.1706 51.4375Z" fill="#896C61"/>
<path d="M36.6808 72.3274C36.2308 72.3274 36.2308 73.0274 36.6808 73.0274C37.1308 73.0174 37.1308 72.3274 36.6808 72.3274Z" fill="#896C61"/>
<path d="M75.7904 57.2474C74.1404 60.4374 72.9404 63.7574 70.5704 66.5274C70.5504 66.5574 70.5804 66.5874 70.6104 66.5674C73.4704 64.2974 75.1004 60.8274 76.0404 57.3474C76.0804 57.1974 75.8704 57.0974 75.7904 57.2474Z" fill="#896C61"/>
<path d="M11.9209 31.6074C11.4209 33.2374 11.1109 34.9074 11.1509 36.6074C11.1509 36.6774 11.2609 36.6774 11.2609 36.6074C11.3409 34.9174 11.5409 33.2575 11.9909 31.6275C12.0109 31.5775 11.9309 31.5574 11.9209 31.6074Z" fill="#896C61"/>
<path d="M59.0509 24.7175C58.1109 23.5375 56.5209 21.8475 54.8409 22.1275C54.8109 22.1375 54.8209 22.1875 54.8509 22.1875C55.4409 22.1275 56.3609 22.6775 56.7909 23.0675C57.1409 23.3875 57.4409 23.8175 57.7309 24.1975C58.2309 24.8475 58.7209 25.5175 59.1609 26.2175C59.9609 27.4875 60.5209 28.8775 61.1409 30.2475C61.2009 30.3775 61.4209 30.3175 61.4109 30.1775C61.2109 28.1575 60.3009 26.2875 59.0509 24.7175Z" fill="#896C61"/>
<path d="M35.0805 48.0375C31.7605 43.0575 28.4705 38.3074 30.0105 31.9774C30.0305 31.9074 29.9205 31.8774 29.9005 31.9474C28.0105 37.8374 30.5205 44.0175 34.8005 48.2475C34.9405 48.3875 35.1905 48.2075 35.0805 48.0375Z" fill="#896C61"/>
<path d="M33.1108 48.8874C31.0308 45.7174 28.6008 43.0174 27.9208 39.1474C27.9108 39.1074 27.8408 39.1174 27.8408 39.1574C28.2908 42.8874 30.2908 46.3774 32.9308 49.0174C33.0208 49.0974 33.1808 48.9874 33.1108 48.8874Z" fill="#896C61"/>
<path d="M12.7906 36.3674C12.7906 36.3474 12.7606 36.3474 12.7606 36.3674C11.4707 40.8974 11.9506 46.0074 13.8506 50.2974C13.8806 50.3674 14.0007 50.3174 13.9807 50.2474C12.5707 45.5374 12.2706 41.2174 12.7906 36.3674Z" fill="#896C61"/>
<path d="M59.1306 63.3675C58.7906 62.9375 58.2906 62.8675 57.8706 63.0075C57.8006 62.9775 57.7306 62.9375 57.6406 62.9175C57.2306 62.8475 56.8406 62.8175 56.4806 62.8675C56.1806 62.7475 55.8406 62.6675 55.4506 62.6675C52.0006 62.6675 51.9906 68.0375 55.4506 68.0375C57.2406 68.0375 58.0906 66.5975 58.0306 65.2175C59.0206 65.3975 59.7806 64.1775 59.1306 63.3675Z" fill="#896C61"/>
<path d="M28.4105 58.1575C28.3405 58.0975 28.2805 58.0475 28.2105 57.9875C28.0105 57.8075 27.7705 57.8175 27.5905 57.9175C27.8205 57.7575 28.0105 57.5275 28.0605 57.2375C28.0705 57.1775 28.0805 57.1175 28.0905 57.0575C28.2305 56.2575 27.8305 55.4875 26.9705 55.3775C26.2305 55.2775 25.3705 55.8775 25.4405 56.6975C25.4505 56.7575 25.4505 56.8275 25.4605 56.8875C25.5105 57.5375 25.9205 58.1075 26.6105 58.1875C26.9005 58.2175 27.2205 58.1475 27.4805 57.9975C27.3305 58.1475 27.2605 58.3775 27.3805 58.6275C27.4205 58.7075 27.4605 58.7775 27.4905 58.8575C27.6105 59.0875 27.9105 59.1875 28.1505 59.1275C28.3305 59.0875 28.4105 59.0175 28.5005 58.8575C28.6205 58.6475 28.6105 58.3275 28.4105 58.1575Z" fill="#896C61"/>
<path d="M39.6007 53.7474C37.7507 53.7474 37.7407 56.6274 39.6007 56.6274C41.4607 56.6274 41.4607 53.7474 39.6007 53.7474Z" fill="#896C61"/>
<path d="M41.4604 56.1374C41.4204 56.1274 41.3804 56.1274 41.3404 56.1174C41.1604 56.0874 41.1504 56.3774 41.3404 56.3374C41.3804 56.3274 41.4204 56.3274 41.4604 56.3174C41.5404 56.2974 41.5404 56.1574 41.4604 56.1374Z" fill="#896C61"/>
<path d="M43.2607 57.4474C42.7907 57.4474 42.7907 58.1774 43.2607 58.1774C43.7307 58.1774 43.7307 57.4474 43.2607 57.4474Z" fill="#896C61"/>
<path d="M67.4508 48.7674C67.3608 48.6074 67.1808 48.4975 67.0008 48.5075C65.9808 48.5375 65.3608 49.9775 65.3208 50.8475C65.3008 51.3375 65.9308 51.7375 66.3508 51.4375C67.0608 50.9375 67.9808 49.6374 67.4508 48.7674Z" fill="#896C61"/>
<path d="M68.3807 47.3475C68.3307 47.3075 68.2807 47.3075 68.2307 47.2975C68.2107 47.2375 68.1907 47.1675 68.1707 47.1075C67.8907 45.9475 66.1107 47.0075 66.9907 47.7975C67.1107 47.8975 67.2207 48.0075 67.3107 48.1275C67.3207 48.1475 67.3408 48.1475 67.3608 48.1675C67.4708 48.5475 68.0507 48.7975 68.3007 48.3175C68.4407 48.0475 68.7207 47.6075 68.3807 47.3475Z" fill="#896C61"/>
<path d="M68.2308 49.7474C67.5708 49.7474 67.5708 50.7774 68.2308 50.7774C68.9008 50.7674 68.9008 49.7474 68.2308 49.7474Z" fill="#896C61"/>
<path d="M72.6505 40.6174C72.6605 40.6974 72.6705 40.7774 72.6805 40.8474C72.7905 41.6274 74.1505 41.6374 74.2605 40.8474C74.2705 40.7674 74.2805 40.6874 74.2905 40.6174C74.5005 39.2374 72.4505 39.2274 72.6505 40.6174Z" fill="#896C61"/>
<path d="M74.7906 42.7274C74.7806 42.6774 74.7806 42.6274 74.7706 42.5874C74.7106 41.8574 73.6806 41.8474 73.6306 42.5874C73.6206 42.6374 73.6206 42.6874 73.6106 42.7274C73.1506 43.2574 73.4406 44.1474 74.2006 44.1474C74.9606 44.1474 75.2506 43.2574 74.7906 42.7274Z" fill="#896C61"/>
<path d="M51.1707 67.1974C51.1307 67.2174 51.1207 67.2374 51.1007 67.2674C50.5007 67.0374 49.7607 67.3874 49.7607 68.1274C49.7607 68.9974 50.8007 69.3474 51.4107 68.8074C51.7207 68.5374 52.0007 68.3774 52.2107 67.9974C52.5607 67.3574 51.7007 66.6174 51.1707 67.1974Z" fill="#896C61"/>
<path d="M70.2705 61.6275C70.2205 61.1875 70.0005 60.7974 69.5405 60.6674C69.1505 60.5574 68.5905 60.7275 68.4205 61.1275C68.3005 61.3975 68.2005 61.6275 68.1405 61.9075C67.7705 63.4475 70.1905 63.8174 70.2905 62.1974C70.3105 61.9974 70.3105 61.8075 70.2705 61.6275Z" fill="#896C61"/>
<path d="M63.6007 21.6774C63.4407 21.4374 63.2707 21.2074 63.1107 20.9674C62.6507 20.3174 61.7607 20.5774 61.5607 21.1474C61.2207 20.4774 60.3707 20.0974 59.6007 20.4174C58.9707 20.6774 58.7907 21.3074 59.2207 21.8474C59.5807 22.2974 59.9407 22.7174 60.5607 22.8074C61.0407 22.8774 61.5007 22.6974 61.6507 22.1874C61.6807 22.0974 61.6807 22.0074 61.6907 21.9074C61.8207 22.1274 61.9507 22.3474 62.0807 22.5574C62.6907 23.5074 64.2207 22.6074 63.6007 21.6774Z" fill="#896C61"/>
<path d="M62.5905 23.8975C61.0505 23.8975 61.0505 26.2975 62.5905 26.2975C64.1405 26.2875 64.1405 23.8975 62.5905 23.8975Z" fill="#896C61"/>
<path d="M65.9907 17.5975C65.6807 16.1775 63.3907 17.2075 64.2207 18.3475C64.4007 18.5975 64.5707 18.8375 64.7607 19.0775C65.3407 19.7875 66.2507 18.9875 66.1307 18.2775C66.0907 18.0475 66.0407 17.8275 65.9907 17.5975Z" fill="#896C61"/>
<path d="M48.0508 10.7175C47.3208 10.3775 46.6908 10.5575 45.9908 10.8975C45.0308 11.3675 45.7308 12.7475 46.6908 12.5475C47.0608 12.4675 47.4308 12.5875 47.8208 12.4975C48.6008 12.3275 48.8108 11.0775 48.0508 10.7175Z" fill="#896C61"/>
<path d="M50.9607 12.2575C50.1707 11.5475 48.8907 11.4575 48.2207 12.3775C48.0307 12.6375 48.1207 13.0575 48.3407 13.2775C48.8107 13.7475 49.6107 13.9475 50.2507 13.9775C51.1107 14.0275 51.6007 12.8275 50.9607 12.2575Z" fill="#896C61"/>
<path d="M51.3805 10.5275C50.8905 9.67748 49.8905 9.61747 49.0105 9.76747C48.0905 9.91747 48.3305 11.3575 49.2305 11.3575C49.7605 11.3575 50.2205 11.6275 50.7505 11.6375C51.3105 11.6475 51.6605 11.0075 51.3805 10.5275Z" fill="#896C61"/>
<path d="M50.2108 7.24744C49.9108 7.04744 49.5808 6.95744 49.2508 6.80744C48.7408 6.57744 48.1108 7.20743 48.6008 7.64743C48.9108 7.92743 49.1708 8.21742 49.5108 8.44742C50.2508 8.93742 50.9608 7.73744 50.2108 7.24744Z" fill="#896C61"/>
<path d="M39.2607 20.4474C38.4907 20.2574 37.8507 20.5374 37.2607 21.0074C36.5407 21.5774 37.1307 22.9374 38.0307 22.8574C38.7907 22.7974 39.4307 22.5274 39.8507 21.8774C40.1907 21.3574 39.8607 20.5974 39.2607 20.4474Z" fill="#896C61"/>
<path d="M43.1209 19.3574C42.8009 18.6974 42.0709 18.6374 41.4209 18.7474C40.1609 18.9574 40.7409 21.0274 42.0309 20.5974C42.0709 20.6074 42.1309 20.6074 42.2409 20.6174C42.3709 20.6074 42.5009 20.5874 42.6309 20.5574C43.1909 20.4674 43.3409 19.7874 43.1209 19.3574Z" fill="#896C61"/>
<path d="M42.2907 21.5875C42.1307 21.6375 41.9707 21.6975 41.8007 21.7475C40.5507 22.1575 41.2807 24.0175 42.5107 23.4375C42.6607 23.3675 42.8207 23.2975 42.9707 23.2175C43.9007 22.7875 43.2507 21.2775 42.2907 21.5875Z" fill="#896C61"/>
<path d="M39.0608 17.5474C37.8808 17.5474 37.8808 19.3874 39.0608 19.3874C40.2408 19.3774 40.2408 17.5474 39.0608 17.5474Z" fill="#896C61"/>
<path d="M21.5405 25.1474C21.1305 25.9074 20.5505 26.7274 21.0605 27.5774C21.1605 27.7474 21.3705 27.8374 21.5605 27.7774C22.5105 27.5274 22.6705 26.5474 22.9105 25.7274C23.1505 24.9174 21.9505 24.3874 21.5405 25.1474Z" fill="#896C61"/>
<path d="M19.4109 29.4974C18.1209 29.4974 18.1209 31.4974 19.4109 31.4974C20.7009 31.4974 20.7009 29.4974 19.4109 29.4974Z" fill="#896C61"/>
<path d="M17.3906 29.5074C17.0806 29.0774 16.7406 28.8874 16.1906 29.0174C15.6706 29.1374 15.4306 29.6974 15.5306 30.1774C15.5406 30.2274 15.5506 30.2874 15.5606 30.3374C15.7506 31.2274 16.8206 31.0973 17.2006 30.4773C17.4906 30.2473 17.6406 29.8574 17.3906 29.5074Z" fill="#896C61"/>
<path d="M19.0604 38.3974C19.0204 38.3474 18.9904 38.3074 18.9504 38.2574C18.3104 37.4374 17.0104 38.7374 17.9904 39.4974L18.1204 39.5974C18.8904 40.1774 19.5404 39.0074 19.0604 38.3974Z" fill="#896C61"/>
<path d="M26.6509 21.9675C26.2909 22.3075 26.1109 22.6775 25.9609 23.1475C25.5309 24.4075 27.2909 24.9375 27.9709 23.9975C28.2009 23.6775 28.3509 23.3875 28.4109 22.9975C28.5509 21.9975 27.4709 21.1875 26.6509 21.9675Z" fill="#896C61"/>
<path d="M27.3009 11.4375C26.7709 11.9075 26.4009 12.4775 26.4709 13.2075C26.5009 13.5375 26.7109 13.7575 27.0409 13.7775C27.7709 13.8275 28.3309 13.4675 28.8009 12.9275C29.6809 11.9075 28.3309 10.5275 27.3009 11.4375Z" fill="#896C61"/>
<path d="M34.0109 6.19744C33.5809 6.24744 33.2508 6.29746 32.9108 6.58746C32.6708 6.79746 32.5509 7.06745 32.3409 7.29745C31.4509 8.24745 32.7609 9.45746 33.7309 8.68746C33.4509 8.90746 33.8208 8.75745 34.0208 8.70745C34.2508 8.64745 34.4309 8.56746 34.6209 8.43746C35.5209 7.84746 35.2909 6.04744 34.0109 6.19744Z" fill="#896C61"/>
<path d="M41.3309 4.29736C40.9209 4.17736 40.5809 4.20737 40.1709 4.27737C38.7009 4.50737 39.6009 7.09737 40.9909 6.21737C41.1709 6.10737 41.3509 6.02735 41.5409 5.94735C42.3009 5.62735 42.0009 4.49736 41.3309 4.29736Z" fill="#896C61"/>
<path d="M38.9505 68.9774C37.9805 68.5574 37.1205 69.8874 38.1005 70.4374C38.6705 70.7574 39.7905 71.6874 40.3505 70.8074C40.9405 69.8874 39.5805 69.2474 38.9505 68.9774Z" fill="#896C61"/>
<path d="M43.1507 71.6675C43.0907 71.6275 43.0307 71.5775 42.9707 71.5375C42.0607 70.8375 41.0206 72.4875 42.0506 73.1175C42.1106 73.1575 42.1707 73.1975 42.2407 73.2275C43.2607 73.8475 44.0507 72.3575 43.1507 71.6675Z" fill="#896C61"/>
<path d="M46.8505 72.6174C46.5905 72.4874 46.3205 72.4174 46.0505 72.3174C45.0105 71.9074 44.5105 73.6374 45.5805 74.0174C45.9605 74.1474 46.2805 74.1974 46.6605 74.0574C47.2405 73.8474 47.5005 72.9374 46.8505 72.6174Z" fill="#896C61"/>
</svg>
