<svg width="164" height="131" viewBox="0 0 164 131" fill="none" xmlns="http://www.w3.org/2000/svg">
<path d="M151.28 17.2794C147.917 12.0111 141.867 8.3753 135.573 10.1134C129.462 11.7996 124.564 17.869 124.803 24.2663C123.436 25.103 122.037 25.8338 120.279 26.1485C116.598 26.7999 113.304 25.7247 110.425 23.45C108.599 22.0043 104.841 17.3132 101.965 17.7405C101.894 17.7256 101.833 17.707 101.751 17.7181C96.9339 18.2742 92.1261 21.6045 87.7778 23.6855L41.1885 45.9396C31.0244 50.7951 20.8602 55.6506 10.6998 60.5154C5.62149 62.9524 0.532022 65.3616 -4.5352 67.8265C-8.61053 69.8092 -13.1889 71.5297 -17.0195 74.0715C-22.2173 74.3488 -18.0417 85.129 -15.9796 89.9156C-16.2947 92.0658 -18.0949 93.4091 -19.9209 94.4182C-21.0503 95.0415 -22.3132 95.3304 -23.5001 95.7828C-29.0054 91.8113 -36.3009 91.0419 -42.2027 94.7338C-47.3521 97.9637 -51.3746 104.825 -49.4414 110.987C-47.3785 117.582 -39.3504 119.836 -33.2179 118.475C-26.3723 116.958 -21.424 111.579 -19.1213 105.157C-17.7466 104.232 -16.0917 103.603 -14.8103 103.414C-13.2299 103.193 -11.5885 103.42 -10.2279 104.32C-9.30533 104.931 -9.28878 105.215 -8.38094 105.574C-8.27698 105.619 -8.1804 105.591 -8.09495 105.535C-7.59963 106.371 -7.1136 107.211 -6.59043 108.036C-5.53483 109.735 -4.29382 111.9 -2.50607 112.736C-2.61964 113.234 -2.12791 113.845 -1.56333 113.749C3.32839 112.894 8.05023 110.373 12.625 108.482C17.7849 106.357 22.9114 104.148 28.0175 101.915C38.5232 97.3218 48.9546 92.5426 59.2971 87.5943C79.7107 77.8276 99.7683 67.331 119.486 56.2269C120.094 55.8875 120.252 55.2859 120.145 54.7473C120.399 54.3334 120.554 53.8302 120.656 53.3048C121.69 50.7706 121.191 47.7937 121.37 45.0622C121.796 38.7117 125.958 36.8126 130.277 34.2265C140.814 39.85 159.336 29.9021 151.28 17.2794ZM-15.9402 101.744C-17.8661 102.234 -23.3571 105.201 -22.0625 107.904C-22.0477 107.941 -22.005 107.967 -21.9845 107.991C-23.9046 111.084 -26.3666 113.736 -29.7195 115.506C-35.4908 118.553 -45.622 117.882 -47.781 110.453C-49.4803 104.607 -45.4748 98.2155 -40.2182 95.6857C-34.8965 93.13 -28.9604 94.2161 -24.4241 97.7563C-23.7671 98.2692 -23.0556 97.8128 -22.8454 97.1797C-19.8591 96.7302 -16.1587 94.3481 -15.2434 91.5706C-15.1711 91.7248 -15.1192 91.8548 -15.0691 91.9532C-13.5558 95.4192 -11.8699 98.8054 -10.039 102.123C-11.942 101.375 -14.5826 101.396 -15.9402 101.744ZM-0.886082 111.508C-5.80556 109.058 -8.95933 100.755 -11.2091 96.1727C-12.4128 93.7245 -13.5274 91.2299 -14.5676 88.7057C-15.1499 87.3015 -15.7006 85.8955 -16.2178 84.4653C-16.4255 83.8914 -16.6294 83.3268 -16.8463 82.7566C-18.2451 80.4401 -18.1323 78.1338 -16.5581 75.847C-16.4244 75.8043 -16.2833 75.7803 -16.1495 75.7377C-16.1087 75.7321 -16.0771 75.7303 -16.0437 75.7062L-16.0344 75.7025C-16.0251 75.6988 -16.0158 75.695 -16.0065 75.6913C-14.5764 75.2279 -13.1796 74.6271 -11.794 73.9984C-11.707 74.5129 -11.5476 75.0737 -11.3957 75.7238C-10.4621 79.6258 -9.21467 83.4778 -7.80189 87.2316C-4.85952 95.0585 -0.982801 102.34 3.48459 109.375C1.95966 110.005 0.488548 110.69 -0.886082 111.508ZM5.19528 108.616C1.53098 103.242 -1.62802 97.5153 -4.26139 91.5678C-5.49091 88.7853 -6.60527 85.9677 -7.6119 83.0963C-8.42388 80.7932 -10.3118 76.5508 -10.555 73.4068C-9.09133 72.7039 -7.65731 71.9805 -6.22518 71.2794C-3.30771 83.5203 1.60154 97.001 9.37257 106.97C7.99439 107.51 6.59391 108.047 5.19528 108.616ZM107.34 59.839C91.1624 68.7001 74.7661 77.1748 58.1286 85.1536C48.0704 89.9776 37.9268 94.6418 27.7165 99.1389C22.6048 101.385 17.4839 103.58 12.3499 105.77C11.8429 105.984 11.3098 106.186 10.7934 106.403C7.8739 100.817 4.45097 95.5617 1.84908 89.7739C-0.928976 83.5718 -3.02913 77.153 -4.81722 70.5987C-4.66305 70.5264 -4.50334 70.4411 -4.34917 70.3688C0.747719 67.9782 5.82612 65.5411 10.9082 63.1134C21.3565 58.1336 31.8103 53.1409 42.2549 48.1519L87.9935 26.3021C88.8869 25.8699 89.8453 25.4657 90.8186 25.0447C93.573 30.4594 97.1874 35.466 99.8972 40.9308C102.867 46.884 105.814 53.3201 107.34 59.839ZM113.639 56.3869C112.175 57.1975 110.704 57.9896 109.227 58.7946C104.614 47.1878 100.679 33.9639 92.2154 24.4439C93.4673 23.9117 94.7378 23.3721 95.9804 22.7897C100.511 26.8814 103.663 34.0214 106.318 39.1853C109.198 44.7542 111.005 50.7625 113.639 56.3869ZM118.699 53.688C118.58 53.7139 118.457 53.7306 118.325 53.8048C117.289 54.391 116.232 54.953 115.192 55.5299C113.529 47.9135 109.303 40.1898 105.474 33.5675C104.068 31.1248 101.036 24.3674 97.6633 21.9347C99.1289 21.1556 100.507 20.2929 101.67 19.2686C106.34 22.9815 109.287 29.7407 112.094 34.8546C113.507 37.4236 114.919 40.0149 116.12 42.7007C116.936 44.5285 119.696 50.7917 118.699 53.688ZM144.499 32.6825C140.262 34.719 135.889 34.5808 131.555 33.4362C132.196 33.0188 132.839 32.579 133.463 32.0929C133.799 31.8294 133.499 31.3464 133.127 31.3871C128.303 31.9246 122.787 35.4514 120.809 40.0425C119.879 42.1904 119.776 44.493 119.769 46.8216C118.343 42.5776 115.85 38.1678 114.904 36.3919C112.328 31.5846 109.588 26.8533 106.604 22.2946C106.167 21.6296 105.723 20.9237 105.224 20.2939C106.959 21.8083 108.654 23.8668 109.624 24.6529C111.623 26.2882 113.773 27.4649 116.352 27.8564C120.535 28.4902 126.33 27.1455 128.215 22.9685C128.347 22.6789 127.974 22.3648 127.71 22.5132C127.348 22.7117 126.99 22.9195 126.644 23.1328C127.82 18.6898 129.8 14.7227 134.318 12.6604C140.221 9.96945 147.11 13.0115 150.139 18.5748C153.216 24.2589 149.9 30.0841 144.499 32.6825Z" fill="#896C61"/>
<path d="M145.386 16.4886C145.114 16.3715 144.941 16.7205 145.089 16.9304C147.384 20.1703 149.092 23.5584 146.227 27.2223C143.909 30.1828 140.166 30.5148 136.804 31.5341C136.745 31.5471 136.746 31.6325 136.813 31.6381C141.147 32.2981 146.488 30.682 148.456 26.44C150.021 23.026 149.099 18.0209 145.386 16.4886Z" fill="#896C61"/>
<path d="M-7.25877 101.347C-7.30701 101.28 -7.41845 101.324 -7.37579 101.404C-5.39834 104.9 -3.10506 108.162 0.330858 110.376C0.501636 110.48 0.726443 110.261 0.577979 110.105C-2.21324 107.322 -5.09552 104.661 -7.25877 101.347Z" fill="#896C61"/>
<path d="M6.4911 93.1748C6.45398 93.1358 6.38709 93.184 6.42791 93.2323C9.3132 97.0872 12.8895 100.569 17.1517 102.884C17.2464 102.932 17.3282 102.813 17.2391 102.752C13.1907 99.9752 9.57879 97.0242 6.4911 93.1748Z" fill="#896C61"/>
<path d="M15.3002 97.141C13.2213 95.6022 11.4249 93.746 9.50025 92.0272C9.47055 92.0067 9.41483 92.029 9.43895 92.0624C11.9862 95.9877 16.5559 99.6114 21.0099 101.085C21.1491 101.137 21.2607 100.931 21.1326 100.853C19.2058 99.587 17.1638 98.5181 15.3002 97.141Z" fill="#896C61"/>
<path d="M14.3467 92.5147C14.1945 92.4032 14.0495 92.6333 14.1924 92.7486C17.266 95.3223 20.8263 97.6047 24.6881 98.7546C24.8199 98.7881 24.8701 98.6173 24.7588 98.5541C21.1239 96.7321 17.6172 94.9344 14.3467 92.5147Z" fill="#896C61"/>
<path d="M22.1524 93.9955C20.5653 93.0141 19.1157 91.8378 17.5806 90.771C17.5045 90.7152 17.419 90.8248 17.4766 90.8879C19.7627 93.7007 23.4177 96.0315 26.9509 96.871C27.0698 96.899 27.1868 96.7338 27.0588 96.6557C25.4289 95.756 23.7358 94.9676 22.1524 93.9955Z" fill="#896C61"/>
<path d="M21.5347 89.6444C21.4066 89.5663 21.2839 89.7445 21.3971 89.8393C24.1552 92.1082 27.2737 94.1472 30.6266 95.4249C30.7659 95.477 30.8681 95.2746 30.7493 95.1928C27.7589 93.232 24.6124 91.4734 21.5347 89.6444Z" fill="#896C61"/>
<path d="M36.4197 93.2408C34.8771 92.3169 33.2416 91.5918 31.6154 90.809C29.8295 89.95 28.1125 88.9129 26.2206 88.3008C26.1723 88.2878 26.1444 88.3527 26.1778 88.3825C28.8579 90.6718 32.9161 92.5293 36.2915 93.4858C36.4363 93.5249 36.5608 93.3244 36.4197 93.2408Z" fill="#896C61"/>
<path d="M41.0389 91.7301C37.7754 89.9213 34.1831 88.4485 30.782 86.8885C30.7134 86.8514 30.6725 86.9646 30.7226 87.0092C33.5847 89.2689 37.3252 91.3287 40.9217 92.0569C41.0944 92.0848 41.1893 91.81 41.0389 91.7301Z" fill="#896C61"/>
<path d="M45.0695 89.8514C43.449 88.8941 41.6871 88.2302 39.9903 87.4325C38.1209 86.5531 36.3091 85.5753 34.4118 84.7608C34.2948 84.7106 34.213 84.8832 34.3188 84.9594C37.3034 87.2564 41.2667 89.3887 44.9616 90.1745C45.1213 90.1969 45.2106 89.9351 45.0695 89.8514Z" fill="#896C61"/>
<path d="M48.8537 87.0589C45.4341 85.614 41.9327 84.1264 38.4387 82.8727C38.2995 82.8206 38.2158 83.0156 38.3216 83.0918C41.2951 85.2532 45.1772 86.7503 48.7886 87.3541C48.965 87.3913 49.0097 87.1258 48.8537 87.0589Z" fill="#896C61"/>
<path d="M52.6621 84.8922C51.2048 84.1281 49.636 83.624 48.1452 82.9379C46.5245 82.196 44.9969 81.2016 43.3167 80.5804C43.2684 80.5674 43.2275 80.6268 43.2646 80.6658C44.4357 81.8456 45.9542 82.6283 47.4282 83.3534C49.0581 84.1454 50.7512 84.9338 52.556 85.193C52.7157 85.2153 52.8124 84.9721 52.6621 84.8922Z" fill="#896C61"/>
<path d="M47.0359 77.7062C46.9376 77.6486 46.8502 77.7803 46.9337 77.8547C49.5527 79.91 52.6824 81.8152 55.9799 82.5228C56.0987 82.5508 56.1695 82.3502 56.0618 82.2963C53.1065 80.666 49.9745 79.3755 47.0359 77.7062Z" fill="#896C61"/>
<path d="M61.4927 79.9877C60.1247 79.0157 58.5616 78.337 57.0356 77.6434C55.3406 76.8774 53.6457 76.0574 51.828 75.6311C51.7351 75.6143 51.6626 75.7295 51.7517 75.7908C53.1513 76.7071 54.7183 77.3412 56.2387 78.0478C57.9188 78.8305 59.5709 79.7321 61.3421 80.2847C61.5166 80.3442 61.6449 80.0992 61.4927 79.9877Z" fill="#896C61"/>
<path d="M65.6592 77.7209C64.254 76.9253 62.7966 76.269 61.3375 75.5811C59.7447 74.828 58.2095 73.9228 56.5628 73.2774C56.2936 73.1696 56.1318 73.5465 56.3471 73.7082C58.8992 75.704 62.3857 77.2622 65.5291 77.9883C65.6795 78.0144 65.8133 77.8102 65.6592 77.7209Z" fill="#896C61"/>
<path d="M65.8771 73.8437C64.1468 73.124 62.4575 72.2373 60.6751 71.6568C60.5006 71.5973 60.3724 71.8424 60.5301 71.9409C63.3516 73.8831 67.1388 75.4396 70.4828 76.1286C70.6332 76.1547 70.7206 75.9152 70.5833 75.8408C69.0592 75.0712 67.4514 74.4964 65.8771 73.8437Z" fill="#896C61"/>
<path d="M69.5345 71.4356C68.3686 70.9428 67.1953 70.4314 65.9439 70.2097C65.851 70.193 65.8027 70.3415 65.8843 70.3842C66.9257 70.9698 68.0731 71.3623 69.1684 71.8402C70.3807 72.3683 71.5558 73.0189 72.7997 73.4375C72.9612 73.4914 73.0691 73.276 72.9336 73.1794C71.9145 72.4342 70.7004 71.9284 69.5345 71.4356Z" fill="#896C61"/>
<path d="M79.0776 71.2537C76.1499 69.9353 73.2946 68.8789 70.6737 66.9536C70.4621 66.8012 70.1611 67.126 70.3615 67.3043C72.7001 69.3855 75.8093 71.3204 79.0217 71.5452C79.187 71.5545 79.2242 71.3243 79.0776 71.2537Z" fill="#896C61"/>
<path d="M83.9928 68.8388C82.231 68.121 80.3725 67.6464 78.6051 66.9416C76.8414 66.246 75.1613 65.3555 73.4311 64.582C73.2491 64.5039 73.1469 64.7601 73.2861 64.8661C76.1667 67.1184 80.2621 68.9072 83.9443 69.0951C84.0873 69.1026 84.1358 68.9002 83.9928 68.8388Z" fill="#896C61"/>
<path d="M88.6018 65.3615C87.1798 64.6588 85.5979 64.2567 84.1368 63.6449C82.6758 63.0331 81.2668 62.2821 79.7834 61.7223C79.5699 61.646 79.4657 61.9245 79.6216 62.0453C81.8526 63.9649 85.5692 65.6142 88.531 65.7236C88.7538 65.7423 88.7912 65.4582 88.6018 65.3615Z" fill="#896C61"/>
<path d="M94.8828 63.6179C93.2325 62.8555 91.411 62.4738 89.7439 61.7505C88.0768 61.0271 86.5621 59.9845 84.8913 59.3057C84.739 59.248 84.6052 59.4522 84.7165 59.5693C85.9228 60.8643 87.6307 61.6898 89.231 62.4075C90.9612 63.181 92.8957 63.9807 94.8176 63.967C95.0108 63.9652 95.0685 63.7053 94.8828 63.6179Z" fill="#896C61"/>
<path d="M98.7871 62.1235C95.5754 60.7141 92.5233 59.4347 89.715 57.2826C89.5164 57.1358 89.2303 57.4439 89.427 57.613C91.9938 59.9153 95.2627 61.9264 98.7405 62.3575C98.8742 62.3687 98.9041 62.1737 98.7871 62.1235Z" fill="#896C61"/>
<path d="M98.3311 57.7186C97.0242 57.1421 95.7749 56.3596 94.4177 55.9002C94.3565 55.8815 94.2914 55.9614 94.3415 56.006C96.2086 57.8232 99.3238 59.0989 101.855 59.5312C101.957 59.5442 102.014 59.392 101.92 59.3437C100.754 58.7432 99.5341 58.2504 98.3311 57.7186Z" fill="#896C61"/>
<path d="M99.1526 53.5465C98.9577 53.4628 98.8108 53.7691 98.9908 53.8695C100.771 54.903 102.598 56.1334 104.612 56.675C104.792 56.7215 104.909 56.5025 104.757 56.391C103.12 55.0957 101.041 54.3647 99.1526 53.5465Z" fill="#896C61"/>
</svg>
