<svg width="35" height="35" viewBox="0 0 35 35" fill="none" xmlns="http://www.w3.org/2000/svg">
<path d="M32.808 18.4242H31.5292V6.57629C31.5292 4.67707 29.9867 3.13187 28.0907 3.13187H27.3993C26.9709 1.91501 25.225 1.09828 25.0014 0.997995C24.8602 0.93469 24.6988 0.93469 24.5576 0.997995C24.334 1.09828 22.5881 1.91501 22.1597 3.13187H21.0158C20.5477 1.39668 17.9673 0.191057 17.6471 0.0474787C17.506 -0.0158262 17.3445 -0.0158262 17.2034 0.0474787C16.8833 0.191057 14.3029 1.39668 13.8347 3.13187H12.6908C12.2624 1.91501 10.5165 1.09828 10.2929 0.997995C10.1518 0.93469 9.99035 0.93469 9.84919 0.997995C9.62558 1.09828 7.87969 1.91501 7.45129 3.13187H6.75983C4.86388 3.13187 3.32134 4.67707 3.32134 6.57629V18.4242H2.04258C1.14444 18.4242 0.413818 19.1562 0.413818 20.0558C0.413818 20.9554 1.14444 21.6874 2.04258 21.6874H11.8911C12.1433 22.9271 13.2401 23.8628 14.551 23.8628H15.5082V26.5197C14.2962 27.1488 13.478 28.3245 13.303 29.6721H11.4368C10.4271 29.6721 9.31488 30.3961 8.9048 31.3204L8.18836 32.9353H7.0934C6.79356 32.9353 6.55048 33.1787 6.55048 33.4791C6.55048 33.7796 6.79356 34.023 7.0934 34.023H8.53815C8.54285 34.023 26.3078 34.023 26.3078 34.023C26.3125 34.023 27.7572 34.023 27.7572 34.023C28.0571 34.023 28.3001 33.7796 28.3001 33.4791C28.3001 33.1787 28.0571 32.9353 27.7572 32.9353H26.6623L25.9458 31.3204C25.5357 30.3961 24.4235 29.6721 23.4139 29.6721H21.5477C21.3726 28.3245 20.5544 27.1488 19.3424 26.5196V23.8628H20.2996C21.6106 23.8628 22.7073 22.9271 22.9595 21.6874H32.808C33.7062 21.6874 34.4368 20.9554 34.4368 20.0558C34.4368 19.1562 33.7062 18.4242 32.808 18.4242ZM24.7795 2.09818C25.2704 2.35125 25.843 2.74327 26.1618 3.13187H23.3974C23.7161 2.74319 24.2887 2.35111 24.7795 2.09818ZM17.4257 1.14629C18.1309 1.49979 19.4254 2.29165 19.8575 3.13187H14.9938C15.4269 2.29339 16.7211 1.50045 17.4257 1.14629ZM10.0711 2.09818C10.562 2.35125 11.1345 2.74327 11.4533 3.13187H8.68893C9.00766 2.74319 9.58033 2.35111 10.0711 2.09818ZM6.7599 4.21958H28.0907C29.3879 4.21958 30.4434 5.27677 30.4434 6.57629V8.24412C29.4616 8.37602 28.889 8.85621 28.3763 9.28847C27.8295 9.74944 27.3976 10.1136 26.4655 10.1136C25.5334 10.1136 25.1015 9.74951 24.5547 9.28847C23.954 8.78196 23.273 8.20786 21.9447 8.20786C20.6166 8.20786 19.9358 8.78196 19.335 9.28854C18.7883 9.74944 18.3565 10.1136 17.4246 10.1136C16.4926 10.1136 16.0608 9.74951 15.514 9.28847C14.9133 8.78196 14.2324 8.20786 12.9042 8.20786C11.5761 8.20786 10.8953 8.78196 10.2946 9.28847C9.97348 9.55931 9.67017 9.81514 9.27739 9.96445C9.06652 10.0446 8.92717 10.247 8.92717 10.4729V13.4667C8.92717 13.7666 8.68365 14.0105 8.38425 14.0105C8.08492 14.0105 7.84133 13.7666 7.84133 13.4667C7.84133 12.4753 7.84133 10.6067 7.84154 10.4817C7.84531 10.256 7.70791 10.0469 7.49132 9.96452C7.09847 9.81514 6.79508 9.55931 6.47396 9.28854C5.96138 8.85621 5.38892 8.3761 4.40725 8.24412V6.57629C4.40725 5.27677 5.46269 4.21958 6.7599 4.21958ZM4.40725 9.34547C4.98868 9.4596 5.34708 9.76003 5.77468 10.1206C6.0549 10.3569 6.36437 10.6178 6.7557 10.8232L6.75556 13.4666C6.75556 14.3662 7.48618 15.0982 8.38432 15.0982C9.28245 15.0982 10.0131 14.3662 10.0131 13.4666V10.8232C10.4043 10.6178 10.7138 10.3568 10.994 10.1206C11.5407 9.65967 11.9725 9.2955 12.9044 9.2955C13.8364 9.2955 14.2682 9.6596 14.8149 10.1206C15.4156 10.6272 16.0965 11.2012 17.4247 11.2012C18.7528 11.2012 19.4336 10.6272 20.0344 10.1206C20.5811 9.65967 21.0129 9.2955 21.9448 9.2955C22.877 9.2955 23.3088 9.6596 23.8556 10.1206C24.4563 10.6272 25.1373 11.2012 26.4656 11.2012C27.7939 11.2012 28.4748 10.6272 29.0756 10.1206C29.5033 9.76003 29.8618 9.45953 30.4434 9.34539V18.4241H4.40725V9.34547ZM18.593 27.3692C19.5791 27.7757 20.2675 28.6477 20.4492 29.6721H17.4298C17.13 29.6721 16.8869 29.9155 16.8869 30.2159C16.8869 30.5163 17.13 30.7598 17.4298 30.7598H23.4139C23.9972 30.7598 24.7167 31.2281 24.9537 31.7621L25.4741 32.9352H9.37656L9.89704 31.7621C10.134 31.2281 10.8534 30.7598 11.4368 30.7598H15.2581C15.558 30.7598 15.801 30.5163 15.801 30.2159C15.801 29.9155 15.558 29.6721 15.2581 29.6721H14.4015C14.5832 28.6478 15.2716 27.7757 16.2577 27.3692C16.4613 27.2854 16.5941 27.0867 16.5941 26.8663V23.8627H18.2566V26.8663C18.2566 27.0868 18.3894 27.2854 18.593 27.3692ZM20.2996 22.7751H14.551C13.8433 22.7751 13.2398 22.3204 13.0156 21.6874H21.835C21.6109 22.3204 21.0074 22.7751 20.2996 22.7751ZM32.808 20.5997H2.04258C1.74318 20.5997 1.49966 20.3557 1.49966 20.0558C1.49966 19.7559 1.74318 19.512 2.04258 19.512H32.808C33.1074 19.512 33.351 19.7559 33.351 20.0558C33.351 20.3557 33.1074 20.5997 32.808 20.5997Z" fill="#896C61"/>
<path d="M24.895 16.6964C25.1948 16.6964 25.4379 16.4529 25.4379 16.1525C25.4379 15.8521 25.1948 15.6086 24.895 15.6086C24.5951 15.6086 24.3521 15.8521 24.3521 16.1525C24.3521 16.4529 24.5951 16.6964 24.895 16.6964Z" fill="#896C61"/>
<path d="M27.0664 14.5211C27.3662 14.5211 27.6093 14.2776 27.6093 13.9772C27.6093 13.6768 27.3662 13.4333 27.0664 13.4333C26.7665 13.4333 26.5234 13.6768 26.5234 13.9772C26.5234 14.2776 26.7665 14.5211 27.0664 14.5211Z" fill="#896C61"/>
</svg>
