<svg width="33" height="33" viewBox="0 0 33 33" fill="none" xmlns="http://www.w3.org/2000/svg">
<g opacity="0.6">
<path d="M16.5 33C25.6127 33 33 25.6127 33 16.5C33 7.3873 25.6127 0 16.5 0C7.3873 0 0 7.3873 0 16.5C0 25.6127 7.3873 33 16.5 33Z" fill="#A3C6AA"/>
<path d="M21.4498 8.4563H11.5498C9.83105 8.4563 8.45605 9.83129 8.45605 11.5501V21.4501C8.45605 23.1688 9.83105 24.5438 11.5498 24.5438H21.4498C23.1686 24.5438 24.5436 23.1688 24.5436 21.4501V11.55C24.5436 9.8313 23.1686 8.4563 21.4498 8.4563ZM22.3436 10.3125H22.6873V13.0625H19.9373V10.3125H22.3436ZM14.2311 14.8501C14.7123 14.1626 15.6061 13.6813 16.4998 13.6813C17.3936 13.6813 18.2873 14.1626 18.7686 14.8501C19.1123 15.3313 19.3186 15.8813 19.3186 16.5001C19.3186 18.0813 18.0123 19.3188 16.4998 19.3188C14.9873 19.3188 13.6811 18.0813 13.6811 16.5001C13.6811 15.8813 13.8873 15.3313 14.2311 14.8501ZM22.9623 21.4501C22.9623 22.2751 22.2748 22.9626 21.4498 22.9626H11.5498C10.7248 22.9626 10.0373 22.2751 10.0373 21.4501V14.8501H12.4436C12.2373 15.3313 12.0998 15.9501 12.0998 16.5001C12.0998 18.9063 14.0936 20.9001 16.4998 20.9001C18.9061 20.9001 20.8998 18.9063 20.8998 16.5001C20.8998 15.9501 20.7623 15.3313 20.5561 14.8501H22.9623L22.9623 21.4501Z" fill="#F4F3EE"/>
</g>
</svg>
