<svg width="26" height="26" viewBox="0 0 26 26" fill="none" xmlns="http://www.w3.org/2000/svg">
<path d="M10.911 0.872359C8.59086 2.6235 8.4453 5.55676 9.19074 8.13274C8.41883 7.7534 7.51459 7.73575 6.66328 7.86367C4.58133 7.45787 2.04505 9.57952 0.999657 11.0616C0.00719967 12.4775 -0.200114 13.9728 0.174814 15.3711C0.157171 15.3799 0.139527 15.3975 0.143938 15.4196C0.655605 19.857 6.39863 22.8785 10.2538 23.7386C15.1411 24.8281 20.2842 23.1122 25.0436 24.9339C25.0789 25.053 25.2377 25.1016 25.3038 24.9825C25.5288 24.9692 25.7405 24.7707 25.6832 24.5325C25.6391 24.3517 25.5906 24.1664 25.542 23.9856C25.6964 23.0461 25.6964 22.0183 25.5112 21.0612C25.8508 18.1632 25.3435 15.0314 24.6995 12.3055C23.8571 8.75027 22.3221 5.29652 19.5785 2.79552C17.3995 0.819429 13.659 -1.20077 10.911 0.872359ZM6.52654 21.7052C7.5587 22.0624 8.61732 22.3094 9.62742 22.4506C12.2916 22.8255 14.9867 22.6756 17.6641 22.7417C18.8639 22.7726 20.0593 22.8388 21.2458 23.0064C22.45 23.174 23.5748 23.571 24.7437 23.84C24.7525 23.8841 24.7613 23.9283 24.7657 23.9768C20.915 22.6359 16.7996 23.6018 12.8077 23.3725C10.7037 23.249 8.51587 22.68 6.52654 21.7052ZM21.2546 6.09489C24.3158 10.7705 24.9774 16.6458 24.554 22.1021C22.0133 21.2773 19.0447 21.5905 16.4247 21.6125C13.2841 21.6346 10.0862 21.5684 7.07791 20.5627C4.32991 19.6452 0.598263 17.431 0.646783 14.1051C0.673249 12.3011 1.9039 10.7175 3.30657 9.67656C4.58574 8.72821 5.81639 8.48561 7.29404 8.6003C8.09683 8.87378 8.90403 9.1252 9.72005 9.35457C9.97147 9.42514 10.1788 9.20459 10.0906 8.95758C9.12899 6.14341 9.04959 1.3311 13.0062 0.815019C16.3056 0.387159 19.6182 3.5939 21.2546 6.09489Z" fill="#896C61"/>
<path d="M9.2749 15.0624C9.1955 15.058 9.10728 15.0889 9.06317 15.1595C9.05876 15.1683 9.05435 15.1815 9.04994 15.1948C9.03229 15.1948 9.01465 15.1903 8.99701 15.1948C8.81616 15.23 8.64413 15.3712 8.56915 15.5432C8.45887 15.605 8.37066 15.702 8.36625 15.8343C8.36183 16.1299 8.78087 16.496 8.98378 16.6636C9.08082 16.743 9.22196 16.7033 9.29695 16.6151C9.36753 16.5269 9.44692 16.4475 9.5175 16.3636C9.53073 16.3548 9.54396 16.3592 9.5572 16.3504C10.0203 15.9975 9.91889 15.1065 9.2749 15.0624Z" fill="#896C61"/>
<path d="M12.3973 12.0937C12.3885 12.1246 12.3841 12.1599 12.3797 12.1952C12.2827 12.2305 12.1944 12.3054 12.1547 12.4069C12.0533 12.6671 12.2518 12.8965 12.4679 13.0156C13.0149 13.3244 13.4868 12.7906 13.3545 12.2349C13.2354 11.7364 12.5914 11.5203 12.3973 12.0937Z" fill="#896C61"/>
<path d="M16.2656 7.80182C15.5863 7.84152 15.5687 9.13833 16.1509 9.03688C16.1465 9.12069 16.1642 9.20449 16.2303 9.28389C16.3097 9.37652 16.4112 9.38975 16.5214 9.35446C17.3639 9.08981 17.1654 7.74889 16.2656 7.80182Z" fill="#896C61"/>
<path d="M14.3958 17.1134C14.0077 16.8399 13.399 17.0296 13.3328 17.506C13.3284 17.5236 13.3284 17.5457 13.3284 17.5633C13.3284 17.5898 13.3196 17.6118 13.324 17.6427C13.3284 17.6692 13.3416 17.6912 13.346 17.7177C13.3549 17.7574 13.3637 17.7927 13.3769 17.8324C13.3813 17.8412 13.3857 17.85 13.3902 17.8588C13.3505 18.0397 13.3857 18.2426 13.4784 18.3926C13.7033 18.7587 14.2326 18.8204 14.5679 18.5734C14.9163 18.3176 14.9693 17.8103 14.7355 17.4619C14.6826 17.3825 14.6208 17.3207 14.5502 17.2678C14.5061 17.2104 14.4532 17.1575 14.3958 17.1134Z" fill="#896C61"/>
<path d="M17.8405 13.8008C17.7611 14.0258 17.7788 14.2948 17.9111 14.4977C17.9993 14.6301 18.1537 14.7491 18.3081 14.7227C18.3302 14.7315 18.3478 14.7447 18.3743 14.7536C18.9124 14.8903 19.2873 14.3125 19.0183 13.8581C18.7624 13.4347 18.0434 13.2362 17.8405 13.8008Z" fill="#896C61"/>
<path d="M4.70953 14.8946C4.5331 14.8504 4.36107 14.9078 4.23757 15.0401C4.10083 15.0136 3.93762 15.1283 4.02143 15.2739C4.16258 15.5121 4.35225 15.6709 4.60808 15.7811C4.62132 15.7856 4.63896 15.79 4.65219 15.79C4.68307 15.8032 4.70953 15.8253 4.74482 15.8385C4.85509 15.8826 4.98742 15.8164 5.02712 15.7106C5.11975 15.4724 5.11975 14.7843 4.70953 14.8946Z" fill="#896C61"/>
<path d="M19.1283 18.2251C18.9078 18.2427 18.7049 18.3794 18.6299 18.6044C18.449 19.1558 19.1063 19.6277 19.5473 19.3454C19.7679 19.5175 20.1693 19.2881 20.0281 18.9705C19.9796 18.8602 19.9135 18.7455 19.8385 18.6353C19.8252 18.5206 19.7899 18.4059 19.7238 18.3133C19.5562 18.0883 19.3136 18.0751 19.1283 18.2251Z" fill="#896C61"/>
<path d="M20.1873 10.1485C20.1608 10.1662 20.152 10.1882 20.1388 10.2103C19.9447 10.1662 19.733 10.2015 19.5477 10.3206C19.1948 10.5499 19.1463 10.9998 19.336 11.3571C19.7727 12.1776 20.9283 11.6571 20.8313 10.8366C21.0474 10.4529 20.624 9.87946 20.1873 10.1485ZM19.733 11.1983C19.3492 10.8013 19.9667 10.3955 20.3284 10.6778C20.3108 10.7219 20.2976 10.7705 20.3108 10.8146C20.3946 11.141 20.0064 11.4806 19.733 11.1983Z" fill="#896C61"/>
<path d="M15.4718 3.5719C15.3792 3.56749 15.2601 3.60277 15.2116 3.69099C15.1983 3.71305 15.1895 3.73951 15.1763 3.76598C15.1542 3.77921 15.1322 3.78803 15.1101 3.80568C15.044 3.86302 15.0307 3.94683 15.0484 4.02181C14.9822 4.0174 14.9249 4.06151 14.8852 4.12767L14.8675 4.11444C14.5543 4.61729 15.3527 5.02309 15.7585 4.78931C16.279 4.48055 16.0673 3.6116 15.4718 3.5719Z" fill="#896C61"/>
<path d="M20.1123 10.8102C20.1079 10.8102 20.099 10.8058 20.0946 10.8058C19.8608 10.7396 19.7065 11.0219 19.8961 11.1763L19.9226 11.1983C20.0373 11.2954 20.2225 11.1983 20.2314 11.0572C20.2358 10.9734 20.2137 10.8411 20.1123 10.8102Z" fill="#896C61"/>
<path d="M22.2295 15.9048C22.1501 15.9974 22.1721 16.1385 22.2383 16.2312C22.3398 16.3723 22.4677 16.4208 22.6353 16.4032C22.7191 16.3944 22.772 16.3503 22.8029 16.2973C22.9088 16.2356 22.9705 16.1121 22.922 15.9797C22.7985 15.6666 22.4192 15.6754 22.2295 15.9048Z" fill="#896C61"/>
<path d="M12.2033 6.15219C12.0842 6.16101 12.018 6.27128 11.996 6.37273C11.9739 6.46536 11.9783 6.56681 11.996 6.67268C11.9739 6.69914 11.9607 6.72561 11.9563 6.7653C11.921 6.99467 12.093 7.127 12.2871 7.15346C12.3886 7.21963 12.5121 7.2461 12.6532 7.19316C12.8561 7.12259 12.9443 6.88881 12.8914 6.69032C12.8738 6.61533 12.8385 6.55358 12.7944 6.50506C12.6929 6.29775 12.4459 6.13454 12.2033 6.15219Z" fill="#896C61"/>
<path d="M18.8461 5.44213C18.5859 5.47741 18.3874 5.78177 18.5197 6.02437C18.5903 6.14787 18.7094 6.18316 18.8241 6.16552V6.16993C18.9079 6.44782 19.3313 6.34195 19.3534 6.08612C19.3842 5.78177 19.2078 5.39361 18.8461 5.44213Z" fill="#896C61"/>
<path d="M7.28952 11.0617C7.20571 10.9999 7.05574 10.9911 6.97635 11.0705C6.80873 11.2381 6.70728 11.4719 6.74698 11.7013C6.66758 11.7675 6.6764 11.891 6.72933 11.9704C6.85725 12.16 7.09544 12.2041 7.29393 12.1336C7.37774 12.1291 7.45713 12.1071 7.53212 12.063C7.82765 11.8777 7.74826 11.5734 7.56741 11.4058C7.50566 11.2646 7.40862 11.1455 7.28952 11.0617Z" fill="#896C61"/>
<path d="M5.88725 18.0573C5.73728 18.0926 5.74169 18.269 5.86079 18.3264C5.85637 18.344 5.84755 18.3573 5.84314 18.3749C5.8255 18.419 5.85196 18.4631 5.89166 18.4808C6.18278 18.6263 6.30188 17.9603 5.88725 18.0573Z" fill="#896C61"/>
<path d="M4.59491 10.7483C3.02903 10.5189 1.96599 12.0892 2.15566 13.5007C2.16449 13.558 2.24829 13.5536 2.25712 13.4963C2.40268 12.0804 3.37308 11.357 4.62578 10.9335C4.71841 10.8983 4.67871 10.7615 4.59491 10.7483Z" fill="#896C61"/>
<path d="M12.8255 1.77673C11.9301 2.01051 10.9244 2.75155 11.0567 3.77488C11.0611 3.80135 11.1008 3.81458 11.1185 3.78811C11.7051 2.83094 12.4329 2.18254 13.6106 2.10314C14.5855 2.03698 15.4588 2.42514 16.4028 2.5707C16.4777 2.58393 16.5307 2.46484 16.4601 2.42514C15.4324 1.85172 13.9856 1.47238 12.8255 1.77673Z" fill="#896C61"/>
<path d="M15.8601 20.6464C13.3767 20.2715 10.7964 20.2759 8.29095 20.1039C8.22037 20.0995 8.21155 20.2009 8.28212 20.2142C10.7522 20.5935 13.3635 20.964 15.8645 20.7479C15.9218 20.7391 15.913 20.6553 15.8601 20.6464Z" fill="#896C61"/>
<path d="M18.3832 20.704C18.3214 20.7128 18.3214 20.8099 18.3876 20.8143C19.2654 20.8628 20.1431 20.8672 21.0165 20.951C21.8943 21.0304 22.75 21.251 23.6278 21.3171C23.7204 21.3259 23.7469 21.198 23.6631 21.1627C22.1016 20.5055 20.0329 20.4261 18.3832 20.704Z" fill="#896C61"/>
</svg>
