<svg width="244" height="84" viewBox="0 0 244 84" fill="none" xmlns="http://www.w3.org/2000/svg">
<g opacity="0.5">
<circle cx="122" cy="42" r="41.25" fill="white" stroke="#6A374D" stroke-width="1.5"/>
<path d="M133.546 43.8198C133.276 43.5289 133.098 43.1608 133.045 42.7479C133.033 42.6656 133.021 42.5862 133.021 42.5025C133.021 42.116 133.137 41.7553 133.334 41.4511C133.503 41.1918 133.734 40.9802 134.004 40.8266C134.061 40.7951 134.114 40.7613 134.172 40.7348C134.412 40.629 134.675 40.5666 134.953 40.5666C135.026 40.5666 135.094 40.5805 135.167 40.5871C135.6 40.6349 135.989 40.82 136.288 41.1073C136.656 41.46 136.885 41.9522 136.885 42.5003C136.885 42.5774 136.869 42.6538 136.864 42.7288C136.748 43.6861 135.941 44.4333 134.952 44.4333C134.396 44.4347 133.897 44.1982 133.546 43.8198ZM109.997 40.8289C109.941 40.7973 109.887 40.7635 109.828 40.737C109.589 40.6298 109.327 40.5688 109.049 40.5688C108.975 40.5688 108.906 40.5827 108.835 40.5901C108.402 40.6378 108.011 40.823 107.713 41.1095C107.346 41.4622 107.115 41.9544 107.115 42.5025C107.115 42.5804 107.131 42.656 107.139 42.7324C107.254 43.6883 108.061 44.434 109.05 44.434C109.606 44.434 110.104 44.1945 110.456 43.8161C110.727 43.5266 110.904 43.1571 110.957 42.7449C110.968 42.6649 110.983 42.5826 110.983 42.4995C110.983 42.1153 110.865 41.7531 110.669 41.4497C110.498 41.1933 110.266 40.9824 109.997 40.8289ZM104.993 41.4585C104.749 41.0573 104.6 40.5908 104.6 40.0868C104.6 38.6409 105.758 37.4691 107.195 37.4346C107.348 37.2935 107.508 37.1554 107.673 37.0209V30.9105C107.673 29.1237 109.501 27.7249 111.834 27.7249H132.165C134.499 27.7249 136.325 29.1237 136.325 30.9105V37.0202C136.49 37.1561 136.651 37.292 136.803 37.4338C138.24 37.4684 139.398 38.6409 139.398 40.0861C139.398 40.5901 139.248 41.0559 139.005 41.457C139.024 41.6319 139.05 41.806 139.05 41.9831V46.3684C139.05 46.5815 138.878 46.7534 138.666 46.7534H131.267V46.3684V45.9805V44.0057V42.8449V41.687V38.829C131.267 37.3111 129.426 36.1224 127.075 36.1224H116.924C114.572 36.1224 112.731 37.3111 112.731 38.829V41.687V42.8449V44.0042V45.9798V46.367V46.7512H105.333C105.118 46.7512 104.946 46.58 104.946 46.367V41.9816C104.948 41.806 104.975 41.6326 104.993 41.4585ZM132.684 43.9667C133.165 44.7132 134 45.2091 134.952 45.2091C136.42 45.2091 137.612 44.0314 137.651 42.573C137.651 42.5502 137.66 42.526 137.66 42.501C137.66 41.5129 137.121 40.6555 136.327 40.1838C135.98 39.9788 135.587 39.8517 135.167 39.8186C135.096 39.812 135.028 39.7973 134.953 39.7973C134.653 39.7973 134.369 39.8576 134.096 39.9487C134.067 39.9597 134.035 39.9656 134.004 39.9766C133.237 40.2653 132.644 40.8906 132.389 41.6745C132.304 41.9368 132.245 42.2123 132.245 42.5018C132.245 42.6171 132.267 42.728 132.28 42.839C132.331 43.2497 132.467 43.6361 132.684 43.9667ZM111.61 41.673C111.355 40.8906 110.761 40.2653 109.994 39.9759C109.964 39.9649 109.933 39.9575 109.903 39.9472C109.631 39.8569 109.347 39.7966 109.047 39.7966C108.973 39.7966 108.904 39.812 108.833 39.8172C108.412 39.8502 108.02 39.9773 107.673 40.1823C106.879 40.6547 106.34 41.5129 106.34 42.5003C106.34 42.5245 106.347 42.5458 106.347 42.5738C106.386 44.0321 107.579 45.2069 109.047 45.2069C109.998 45.2069 110.833 44.7102 111.315 43.966C111.531 43.6346 111.666 43.2497 111.717 42.839C111.733 42.7266 111.752 42.6171 111.752 42.5018C111.753 42.2123 111.695 41.9368 111.61 41.673ZM108.834 32.7722C108.834 33.4195 109.294 33.9903 109.994 34.3613C110.473 34.6148 111.065 34.7728 111.715 34.7897C113.874 33.9955 116.408 33.5297 119.126 33.5297H124.873C127.59 33.5297 130.124 33.9955 132.283 34.7897C132.933 34.7728 133.524 34.6148 134.004 34.3613C134.706 33.9896 135.164 33.4195 135.164 32.7722V30.9105C135.164 29.7915 133.822 28.8842 132.165 28.8842H111.834C110.178 28.8842 108.834 29.7908 108.834 30.9105V32.7722ZM113.505 41.687V42.8449V44.0042V45.9798V46.367V46.7512V46.8497H114.414V46.7512V46.367V45.9798V44.0042V42.8449V41.687V37.5418C113.857 37.8871 113.505 38.3382 113.505 38.829V41.687ZM129.586 41.687V42.8449V44.0042V45.9798V46.367V46.7512V46.8497H130.493V46.7512V46.367V45.9798V44.0042V42.8449V41.687V38.829C130.493 38.3382 130.141 37.8871 129.586 37.5418V41.687ZM122.386 42.8471V44.0064V45.9813V46.367V46.7542V46.8497H123.411V46.7542V46.367V45.9813V44.0064V42.8471V41.687V36.896H122.386V41.687V42.8471ZM124.187 42.8471V44.0064V45.9813V46.367V46.7542V46.8497H125.213V46.7542V46.367V45.9813V44.0064V42.8471V41.687V36.896H124.187V41.687V42.8471ZM125.986 42.8471V44.0064V45.9813V46.367V46.7542V46.8497H127.012V46.7542V46.367V45.9813V44.0064V42.8471V41.687V36.896H125.986V41.687V42.8471ZM127.786 42.8471V44.0064V45.9813V46.367V46.7542V46.8497H128.811V46.7542V46.367V45.9813V44.0064V42.8471V41.687V37.1826C128.495 37.0731 128.153 36.9871 127.786 36.9431V41.687V42.8471ZM116.986 42.8471V44.0064V45.9813V46.367V46.7542V46.8497H118.014V46.7542V46.367V45.9813V44.0064V42.8471V41.687V36.896H116.986V41.687V42.8471ZM120.586 42.8471V44.0064V45.9813V46.367V46.7542V46.8497H121.612V46.7542V46.367V45.9813V44.0064V42.8471V41.687V36.896H120.586V41.687V42.8471ZM118.786 42.8471V44.0064V45.9813V46.367V46.7542V46.8497H119.813V46.7542V46.367V45.9813V44.0064V42.8471V41.687V36.896H118.786V41.687V42.8471ZM115.187 42.8471V44.0064V45.9813V46.367V46.7542V46.8497H116.214V46.7542V46.367V45.9813V44.0064V42.8471V41.687V36.9431C115.845 36.9893 115.503 37.0731 115.187 37.1826V41.687V42.8471ZM139.614 47.4323H104.386C104.173 47.4323 104 47.6042 104 47.818V49.3645C104 49.5776 104.173 49.7488 104.386 49.7488H139.613C139.827 49.7488 139.999 49.5761 139.999 49.3645V47.818C140 47.6042 139.828 47.4323 139.614 47.4323ZM111.415 50.3813H106.002C105.788 50.3813 105.616 50.5525 105.616 50.7656V54.3413C105.616 55.4044 106.483 56.2743 107.549 56.2743H109.869C110.936 56.2743 111.803 55.4089 111.803 54.3413V50.7656C111.803 50.5533 111.629 50.3813 111.415 50.3813ZM137.996 50.3813H132.585C132.371 50.3813 132.198 50.5525 132.198 50.7656V54.3413C132.198 55.4044 133.065 56.2743 134.133 56.2743H136.451C137.516 56.2743 138.386 55.4089 138.386 54.3413V50.7656C138.384 50.5533 138.21 50.3813 137.996 50.3813Z" fill="#6A374D"/>
<rect y="42" width="80" height="1.5" fill="#6A374D"/>
<rect x="164" y="42" width="80" height="1.5" fill="#6A374D"/>
</g>
</svg>
