<svg width="35" height="34" viewBox="0 0 35 34" fill="none" xmlns="http://www.w3.org/2000/svg">
<path d="M29.8414 12.7986C28.8534 14.6045 26.9354 15.8322 24.7357 15.8322C22.3265 15.8322 20.2552 14.3596 19.3736 12.2676L2.29126 17.8448H34.5014L29.8414 12.7986Z" fill="#896C61"/>
<path d="M0.750732 31.5603C0.750732 32.9078 1.84296 34 3.19044 34H32.431C33.7785 34 34.8707 32.9078 34.8707 31.5603V28.0361H0.750732V31.5603Z" fill="#896C61"/>
<path d="M34.8707 19.7832H0.750732V25.4699H34.8707V19.7832Z" fill="#896C61"/>
<path d="M24.7359 13.8935C26.8772 13.8935 28.6132 12.1576 28.6132 10.0163C28.6132 8.46278 27.6993 7.12345 26.3801 6.50476C26.5899 5.93364 26.8581 5.32685 27.1963 4.7481C28.0729 3.24825 29.4228 1.93863 31.4652 1.93863C32.0006 1.93863 32.4345 1.50477 32.4345 0.969317C32.4345 0.433866 32.0006 0 31.4652 0C28.8474 0 26.71 1.45953 25.2643 4.22545C24.9386 4.84749 24.6699 5.49254 24.4445 6.15116C22.4393 6.3003 20.8586 7.97321 20.8586 10.0163C20.8586 12.1576 22.5946 13.8935 24.7359 13.8935ZM22.4074 8.91487C22.683 8.36482 23.1134 7.91609 23.6517 7.61767C24.1121 7.3619 24.707 7.52203 24.9695 7.99518C25.2291 8.4633 25.0601 9.05342 24.5919 9.31294C24.408 9.41504 24.2553 9.57284 24.1559 9.75792C24.1511 9.76658 24.1449 9.77459 24.1405 9.78338C23.9705 10.1226 23.6284 10.3187 23.2731 10.3187C22.5574 10.3188 22.0835 9.56121 22.4074 8.91487Z" fill="#896C61"/>
</svg>
