<svg width="60" height="60" viewBox="0 0 60 60" fill="none" xmlns="http://www.w3.org/2000/svg">
<path fill-rule="evenodd" clip-rule="evenodd" d="M30 60C46.5685 60 60 46.5685 60 30C60 13.4315 46.5685 0 30 0C13.4315 0 0 13.4315 0 30C0 46.5685 13.4315 60 30 60ZM26.2275 29.9109L17.0691 39.0692C15.9708 40.1676 15.9708 41.9483 17.0691 43.0467C18.1675 44.145 19.9483 44.145 21.0466 43.0467L30.205 33.8884L39.5399 43.2233C40.6382 44.3216 42.419 44.3216 43.5173 43.2233C44.6157 42.1249 44.6157 40.3442 43.5173 39.2458L34.1824 29.9109L43.3466 20.7468C44.445 19.6485 44.445 17.8677 43.3466 16.7693C42.2482 15.671 40.4675 15.671 39.3691 16.7693L30.205 25.9334L20.9915 16.7199C19.8931 15.6216 18.1124 15.6216 17.014 16.7199C15.9157 17.8183 15.9157 19.599 17.014 20.6974L26.2275 29.9109Z" fill="#C8BBB6"/>
</svg>
