<svg width="13" height="13" viewBox="0 0 13 13" fill="none" xmlns="http://www.w3.org/2000/svg">
<path d="M6.07718 9.14673C5.8417 9.14673 5.65075 9.33764 5.65075 9.57312V10.9803C5.65075 11.2158 5.8417 11.4067 6.07718 11.4067C6.31266 11.4067 6.50361 11.2158 6.50361 10.9803V9.57312C6.50361 9.33764 6.31266 9.14673 6.07718 9.14673Z" fill="#896C61"/>
<path d="M4.19706 9.51531C4.16526 9.28199 3.95071 9.11864 3.71691 9.15044C3.48359 9.18224 3.32025 9.39722 3.35205 9.63054L3.54395 11.0377C3.57307 11.2515 3.75596 11.4066 3.9659 11.4066C3.98505 11.4066 4.00451 11.4053 4.02405 11.4026C4.25738 11.3708 4.42072 11.1558 4.38892 10.9224L4.19706 9.51531Z" fill="#896C61"/>
<path d="M8.43745 9.15046C8.20387 9.11857 7.9891 9.28205 7.9573 9.51532L7.76544 10.9225C7.73364 11.1558 7.89698 11.3708 8.13031 11.4026C8.14985 11.4053 8.16926 11.4066 8.18846 11.4066C8.3984 11.4066 8.58129 11.2515 8.61041 11.0377L8.80231 9.63056C8.83411 9.39724 8.67077 9.18226 8.43745 9.15046Z" fill="#896C61"/>
<path d="M12.1544 6.75864C12.1544 5.44871 11.5026 4.07997 10.3661 3.00341C9.64046 2.31587 8.7923 1.81726 7.88538 1.53143C7.74085 0.66368 6.98527 0 6.07718 0C5.16909 0 4.41347 0.66368 4.26898 1.53143C3.36206 1.81726 2.5139 2.31591 1.78822 3.00341C0.651729 4.07997 0 5.44871 0 6.75864C0 7.57543 0.543482 8.26897 1.29181 8.50535L1.62868 11.254C1.73412 12.1141 2.52477 12.8137 3.3911 12.8137H8.76327C9.62959 12.8137 10.4202 12.1141 10.5257 11.2541L10.8619 8.51066C11.6096 8.27919 12.1544 7.58143 12.1544 6.75864ZM6.07718 0.852822C6.61799 0.852822 7.05792 1.29276 7.05792 1.83357C7.05792 2.37437 6.61799 2.81431 6.07718 2.81431C5.53637 2.81431 5.09644 2.37437 5.09644 1.83357C5.09644 1.29276 5.53637 0.852822 6.07718 0.852822ZM9.67921 11.1503C9.62532 11.5897 9.20583 11.9609 8.76327 11.9609H3.3911C2.94848 11.9609 2.52904 11.5897 2.47516 11.1503L2.15857 8.56696C2.60088 8.49314 2.99012 8.26056 3.26538 7.92982C3.60608 8.33429 4.11923 8.5922 4.69214 8.5922C5.25344 8.5922 5.75623 8.33567 6.09081 7.93292C6.42945 8.33567 6.93833 8.5922 7.50649 8.5922C8.06779 8.5922 8.57059 8.33567 8.90517 7.93292C9.17779 8.25715 9.56086 8.48628 9.99623 8.56347L9.67921 11.1503ZM10.3208 7.73938C9.77391 7.73938 9.32897 7.29944 9.32897 6.75868C9.32897 6.52316 9.13806 6.33225 8.90258 6.33225C8.6671 6.33225 8.47614 6.52316 8.47614 6.75868C8.47614 7.29944 8.04117 7.73938 7.50645 7.73938C6.95956 7.73938 6.51466 7.29944 6.51466 6.75868C6.51466 6.52316 6.3237 6.33225 6.08823 6.33225C5.85275 6.33225 5.66179 6.52316 5.66179 6.75868C5.66179 7.29944 5.22682 7.73938 4.6921 7.73938C4.14844 7.73938 3.68922 7.2903 3.68922 6.75868C3.68922 6.52316 3.49827 6.33225 3.26279 6.33225C3.02731 6.33225 2.83635 6.52316 2.83635 6.75868C2.83635 7.29944 2.39642 7.73938 1.85565 7.73938C1.312 7.73938 0.852736 7.2903 0.852736 6.75868C0.852736 5.69769 1.42172 4.5253 2.37467 3.62261C2.95435 3.07339 3.62274 2.66339 4.33638 2.40846C4.57815 3.13866 5.26686 3.66717 6.07714 3.66717C6.88742 3.66717 7.57612 3.13866 7.8179 2.40846C8.53158 2.66335 9.19988 3.07334 9.7796 3.62261C10.7326 4.52535 11.3015 5.69773 11.3015 6.75868C11.3016 7.29944 10.8616 7.73938 10.3208 7.73938Z" fill="#896C61"/>
</svg>
