<svg width="66" height="14" viewBox="0 0 66 14" fill="none" xmlns="http://www.w3.org/2000/svg">
<path fill-rule="evenodd" clip-rule="evenodd" d="M0.0338135 0H3.9492C7.32834 0 10.4819 2.75768 10.4742 6.749C10.4742 10.507 7.5713 13.499 3.9492 13.499H0.0338135V0ZM8.6467 6.75C8.6467 4.12951 6.59753 1.89052 3.9492 1.89052H1.86035V11.6105H3.9492C6.5985 11.6095 8.6467 9.3705 8.6467 6.75ZM19.0861 0C22.6898 0 25.6111 3.02203 25.6111 6.75C25.6111 10.478 22.6898 13.5 19.0861 13.5C15.4824 13.5 12.5611 10.478 12.5611 6.75C12.5611 3.02203 15.4824 0 19.0861 0ZM19.0861 1.89052C21.6812 1.89052 23.7836 4.06642 23.7836 6.751C23.7836 9.43558 21.6802 11.6105 19.0861 11.6105C16.491 11.6105 14.3877 9.43458 14.3877 6.751C14.3877 4.06742 16.491 1.89052 19.0861 1.89052ZM27.9613 13.5V0H29.7879V11.6095H36.6391V13.499H27.9613V13.5ZM44.1427 0C47.2924 0 49.1509 1.69025 50.1459 4.10147H48.0832C47.245 2.76969 46.2664 1.88952 44.1427 1.88952C42.0199 1.88952 39.4452 4.06542 39.4452 6.75C39.4452 9.43458 42.0209 11.6095 44.1427 11.6095C46.2654 11.6095 47.245 10.7283 48.0832 9.39653H50.1459C49.1509 11.8077 47.2924 13.499 44.1427 13.499C40.9929 13.499 37.6186 10.477 37.6186 6.749C37.6186 3.02203 40.9939 0 44.1427 0ZM58.7588 0C62.2725 0 65.1357 2.87183 65.278 6.46963L65.2838 6.749V7.28872H54.0894C54.3488 9.71896 56.3399 11.6095 58.7579 11.6095C60.4092 11.6095 61.8602 10.7283 62.6984 9.39653H64.7621C63.767 11.8087 61.4536 13.499 58.7588 13.499C55.1551 13.499 52.2348 10.477 52.2348 6.749C52.2338 3.02203 55.1551 0 58.7588 0ZM63.2724 5.4002C62.7061 3.3735 60.9009 1.89052 58.7579 1.89052C56.6167 1.89052 54.8096 3.3735 54.2443 5.4002H63.2724Z" fill="#896C61"/>
</svg>
