<svg width="84" height="84" viewBox="0 0 84 84" fill="none" xmlns="http://www.w3.org/2000/svg">
<circle cx="42" cy="42" r="41.25" fill="white" stroke="#6A374D" stroke-width="1.5"/>
<path d="M47.9809 47.2049C50.0874 47.2049 51.8009 45.4912 51.8009 43.3849V31.8203C51.8009 29.7139 50.0874 28 47.9809 28H26.8194C24.7133 28 23 29.7139 23 31.8203V43.3849C23 45.4912 24.7133 47.2049 26.8194 47.2049H29.5991V51.2034C29.5991 51.6897 29.892 52.1279 30.3411 52.314C30.4899 52.3754 30.646 52.4052 30.8007 52.4052C31.1134 52.4052 31.4209 52.2832 31.6509 52.0532L36.4983 47.2049H47.9809Z" fill="#6A374D"/>
<path d="M55.6563 38.001H53.7237V43.385C53.7237 46.5516 51.1476 49.1277 47.9809 49.1277H37.2948L35.0479 51.3752C35.3186 52.9494 36.6923 54.1512 38.3425 54.1512H47.647L51.5489 58.0538C51.7787 58.2837 52.0863 58.4059 52.3991 58.4059C52.5537 58.4059 52.7099 58.3757 52.8587 58.3142C53.3078 58.1282 53.6005 57.6901 53.6005 57.2039V54.1511H55.6564C57.5001 54.1511 59 52.6507 59 50.8068V41.3448C58.9999 39.5011 57.5 38.001 55.6563 38.001Z" fill="#6A374D"/>
</svg>
