<svg width="244" height="84" viewBox="0 0 244 84" fill="none" xmlns="http://www.w3.org/2000/svg">
<g opacity="0.5">
<circle cx="122" cy="42" r="41.25" fill="white" stroke="#6A374D" stroke-width="1.5"/>
<path d="M131.233 48.9069C130.981 48.6855 130.742 48.4763 130.627 48.2688C130.617 48.252 130.607 48.2351 130.593 48.2117C130.152 47.505 129.986 45.7415 129.887 44.6881C129.872 44.5299 129.858 44.3786 129.844 44.237C129.842 44.2227 129.841 44.2085 129.838 44.1869C129.611 42.6002 129.047 40.3122 127.652 38.4231C126.686 37.116 125.487 36.2333 124.081 35.7947C123.937 34.7755 123.058 33.9893 122 33.9893C120.941 33.9893 120.063 34.7757 119.918 35.7949C118.513 36.2332 117.314 37.1159 116.348 38.4232C114.953 40.312 114.389 42.6001 114.162 44.1868L114.161 44.1995C114.159 44.2131 114.157 44.2264 114.156 44.2362C114.142 44.3786 114.128 44.5296 114.113 44.6877C114.014 45.7416 113.848 47.5054 113.403 48.2183C113.395 48.2313 113.387 48.2443 113.376 48.2639C113.258 48.4762 113.019 48.6856 112.767 48.9071C112.146 49.4512 110.854 50.5838 111.918 52.5605C112.124 52.9431 112.522 53.1807 112.957 53.1807H131.043C131.477 53.1807 131.875 52.9432 132.082 52.5606C133.146 50.5842 131.854 49.4515 131.233 48.9069Z" fill="#6A374D"/>
<path d="M124.054 55.1558H119.87C119.699 55.1558 119.537 55.231 119.427 55.3619C119.221 55.6076 119.279 55.9351 119.313 56.1307L119.316 56.1465C119.543 57.4513 120.671 58.3983 121.997 58.3983C123.348 58.3983 124.507 57.3907 124.693 56.0562L124.697 56.0344C124.72 55.9132 124.774 55.6295 124.574 55.3874C124.502 55.3009 124.339 55.1558 124.054 55.1558Z" fill="#6A374D"/>
<path d="M114.574 26.1771C114.435 25.3265 113.633 24.7493 112.782 24.8892C110.43 25.2742 108.258 26.4637 106.666 28.2384C105.068 30.0198 104.147 32.2241 104.003 34.613C103.951 35.4733 104.606 36.2129 105.467 36.2649C105.499 36.2668 105.53 36.2678 105.562 36.2678C106.381 36.2678 107.068 35.6295 107.118 34.8011C107.22 33.1227 107.867 31.574 108.989 30.3226C110.124 29.0575 111.61 28.2438 113.286 27.9693C114.137 27.83 114.713 27.0277 114.574 26.1771Z" fill="#6A374D"/>
<path d="M112.649 36.9793C112.703 36.0855 113.048 35.2607 113.646 34.5942C114.25 33.9205 115.041 33.4872 115.934 33.341C116.784 33.2017 117.361 32.3993 117.222 31.5487C117.083 30.6981 116.281 30.1209 115.429 30.2608C113.85 30.5193 112.391 31.3181 111.322 32.51C110.264 33.6893 109.629 35.2095 109.534 36.791C109.482 37.6513 110.137 38.3909 110.997 38.4429C111.029 38.4448 111.061 38.4458 111.093 38.4458C111.912 38.4459 112.599 37.8076 112.649 36.9793Z" fill="#6A374D"/>
<path d="M139.997 34.6125C139.853 32.2236 138.932 30.0194 137.334 28.2379C135.742 26.4632 133.57 25.2738 131.218 24.8887C130.368 24.7487 129.565 25.326 129.426 26.1767C129.287 27.0272 129.863 27.8297 130.714 27.969C132.39 28.2436 133.876 29.0572 135.011 30.3221C136.133 31.5737 136.78 33.1223 136.881 34.8008C136.931 35.6291 137.619 36.2674 138.438 36.2674C138.469 36.2674 138.501 36.2664 138.533 36.2645C139.394 36.2125 140.049 35.4728 139.997 34.6125Z" fill="#6A374D"/>
<path d="M132.678 32.5101C131.609 31.3183 130.15 30.5194 128.57 30.2609C127.719 30.121 126.917 30.6982 126.778 31.5488C126.639 32.3995 127.215 33.2019 128.066 33.3412C128.959 33.4873 129.75 33.9207 130.354 34.5943C130.952 35.2608 131.297 36.0856 131.35 36.9793C131.4 37.8077 132.088 38.446 132.907 38.446C132.938 38.446 132.97 38.4451 133.002 38.4432C133.863 38.3913 134.518 37.6518 134.466 36.7914C134.371 35.2099 133.736 33.6895 132.678 32.5101Z" fill="#6A374D"/>
<rect y="42" width="80" height="1.5" fill="#6A374D"/>
<rect x="164" y="42" width="80" height="1.5" fill="#6A374D"/>
</g>
</svg>
