<svg width="244" height="84" viewBox="0 0 244 84" fill="none" xmlns="http://www.w3.org/2000/svg">
<g opacity="0.5">
<circle cx="122" cy="42" r="41.25" fill="white" stroke="#6A374D" stroke-width="1.5"/>
<path d="M104 42C104 51.9396 112.06 60 122 60C131.94 60 140 51.9396 140 42C140 32.0604 131.94 24 122 24C112.06 24 104 32.0562 104 42ZM116.01 27.8207C117.905 27.02 119.922 26.6094 122 26.6094C124.078 26.6094 126.09 27.0159 127.99 27.8207C129.824 28.5964 131.467 29.7041 132.881 31.1187C134.296 32.5333 135.404 34.1761 136.179 36.0097C136.98 37.9055 137.391 39.9216 137.391 42C137.391 44.0783 136.984 46.0903 136.179 47.9903C135.404 49.8239 134.296 51.4667 132.881 52.8812C131.467 54.2959 129.824 55.4035 127.99 56.1792C126.094 56.9799 124.078 57.3906 122 57.3906C119.922 57.3906 117.91 56.984 116.01 56.1792C114.176 55.4035 112.533 54.2959 111.119 52.8812C109.704 51.4666 108.596 49.8239 107.821 47.9903C107.02 46.0945 106.609 44.0783 106.609 42C106.609 39.9216 107.016 37.9096 107.821 36.0097C108.596 34.1761 109.704 32.5333 111.119 31.1187C112.533 29.7041 114.18 28.5964 116.01 27.8207Z" fill="#6A374D"/>
<path d="M122 56.142C125.779 56.142 129.33 54.6693 132.002 52.0018C134.673 49.3302 136.142 45.7792 136.142 42C136.142 38.2208 134.669 34.6697 132.002 31.9982C129.33 29.3266 125.779 27.858 122 27.858C118.221 27.858 114.67 29.3307 111.998 31.9982C109.327 34.6697 107.858 38.2208 107.858 42C107.858 45.7792 109.331 49.3302 111.998 52.0018C114.67 54.6693 118.221 56.142 122 56.142ZM121.067 39.8594V33.7197C121.067 33.2053 121.486 32.7864 122 32.7864C122.514 32.7864 122.933 33.2053 122.933 33.7197V39.8594C123.473 40.0958 123.904 40.5273 124.141 41.0666H132.147C132.661 41.0666 133.08 41.4856 133.08 42C133.08 42.5144 132.661 42.9334 132.147 42.9334H124.141C123.78 43.7589 122.958 44.3355 122 44.3355C120.71 44.3355 119.669 43.2901 119.669 42C119.669 41.0417 120.241 40.2203 121.067 39.8594Z" fill="#6A374D"/>
<rect y="42" width="80" height="1.5" fill="#6A374D"/>
<rect x="164" y="42" width="80" height="1.5" fill="#6A374D"/>
</g>
</svg>
