<svg width="29" height="34" viewBox="0 0 29 34" fill="none" xmlns="http://www.w3.org/2000/svg">
<path d="M29 21.0624C29 19.1492 27.5066 17.5803 25.6313 17.4744C25.6932 17.2077 25.7248 16.9327 25.7248 16.654C25.7248 14.6725 24.1228 13.0604 22.1538 13.0604H21.5386C21.5997 12.7953 21.6309 12.5223 21.6309 12.2456C21.6309 10.264 20.0289 8.65203 18.0598 8.65203H17.1265C17.3756 8.21046 17.5185 7.70075 17.5185 7.15778C17.5185 5.7728 16.5924 4.60228 15.331 4.23812C15.6339 2.70366 16.9817 1.54341 18.5939 1.54341C19.0174 1.54341 19.3608 1.19791 19.3608 0.771703C19.3608 0.345491 19.0174 0 18.5939 0C16.1444 0 14.1134 1.83318 13.7816 4.20763C12.463 4.53291 11.4814 5.73182 11.4814 7.1577C11.4814 7.70067 11.6244 8.21038 11.8734 8.65195H10.9402C8.97106 8.65195 7.36913 10.264 7.36913 12.2455C7.36913 12.5223 7.40034 12.7953 7.46138 13.0603H6.84622C4.87712 13.0603 3.27519 14.6725 3.27519 16.654C3.27519 16.9326 3.30686 17.2076 3.36874 17.4744C1.49343 17.5802 0 19.1491 0 21.0623C0 22.8271 1.27096 24.2977 2.93992 24.5986L4.82766 33.3912C4.90396 33.7464 5.21606 33.9999 5.57717 33.9999H10.0361C10.0366 33.9999 10.0371 34 10.0377 34C10.0381 34 10.0386 33.9999 10.039 33.9999H18.9611C18.9616 33.9999 18.962 34 18.9625 34C18.963 34 18.9636 33.9999 18.9641 33.9999H23.4229C23.784 33.9999 24.0962 33.7464 24.1724 33.3912L26.0602 24.5986C27.729 24.2977 29 22.8271 29 21.0624ZM13.0151 7.1577C13.0151 6.33375 13.6812 5.66345 14.4999 5.66345C15.3187 5.66345 15.9848 6.33383 15.9848 7.1577C15.9848 7.98165 15.3186 8.65195 14.4999 8.65195C13.6812 8.65195 13.0151 7.98165 13.0151 7.1577ZM4.52115 24.656H8.34693L9.18432 32.4566H6.19594L4.52115 24.656ZM19.1103 24.656L18.2729 32.4566H15.2668V24.656H19.1103ZM13.7332 32.4566H10.727L9.88959 24.656H13.7331V32.4566H13.7332ZM22.804 32.4566H19.8156L20.6529 24.656H24.4787L22.804 32.4566ZM25.429 23.1126H3.57096C2.44753 23.1126 1.53361 22.1929 1.53361 21.0624C1.53361 19.9319 2.44753 19.0121 3.57096 19.0121H21.1978C21.6212 19.0121 21.9646 18.6666 21.9646 18.2404C21.9646 17.8143 21.6212 17.4687 21.1978 17.4687H4.9775C4.8673 17.2133 4.80879 16.9375 4.80879 16.654C4.80879 15.5236 5.72272 14.6038 6.84614 14.6038H8.62092C8.90511 14.6038 9.16592 14.4457 9.29881 14.1929C9.43163 13.9401 9.41468 13.6341 9.25472 13.3977C9.02451 13.0574 8.90281 12.6591 8.90281 12.2456C8.90281 11.1151 9.81674 10.1954 10.9402 10.1954H18.0598C19.1831 10.1954 20.0971 11.1151 20.0971 12.2456C20.0971 12.5291 20.0386 12.8049 19.9284 13.0604H11.8961C11.4726 13.0604 11.1293 13.4059 11.1293 13.8321C11.1293 14.2582 11.4726 14.6038 11.8961 14.6038H20.379H22.1538C23.2771 14.6038 24.1911 15.5236 24.1911 16.654C24.1911 17.0674 24.0694 17.4658 23.8391 17.8061C23.6792 18.0425 23.6622 18.3484 23.7951 18.6012C23.9279 18.854 24.1888 19.0121 24.473 19.0121H25.429C26.5523 19.0121 27.4663 19.9319 27.4663 21.0624C27.4663 22.1929 26.5523 23.1126 25.429 23.1126Z" fill="#968E98"/>
</svg>
