<svg width="32" height="18" viewBox="0 0 32 18" fill="none" xmlns="http://www.w3.org/2000/svg">
<path d="M8.33884 7.38552C11.7688 7.13552 15.1588 7.65552 18.4788 8.29552C21.7988 8.96552 25.1288 9.74552 28.2188 11.2455C28.7788 11.5255 29.7888 12.1955 30.5288 12.9555C31.2888 13.7055 31.6688 14.5255 31.6288 14.5355C31.5588 14.5755 31.1388 14.0155 30.4288 13.4355C29.7188 12.8555 28.7188 12.2855 27.8888 11.8455C24.9988 10.2155 21.6888 9.31552 18.3988 8.65552C15.0988 8.02552 11.6988 7.61552 8.40885 8.06552C7.78885 8.13552 6.57885 8.23553 5.54885 8.50553C4.51885 8.75553 3.66884 9.12552 3.62884 9.05552C3.61884 9.03552 3.78885 8.91552 4.07885 8.73552C4.36885 8.53552 4.79884 8.34552 5.28884 8.13552C6.27884 7.73552 7.52884 7.47552 8.33884 7.38552Z" fill="#C8BBB6"/>
<path d="M8.7887 10.1455C7.3587 10.8455 5.89871 11.5355 4.32871 11.9455C3.54871 12.1355 2.7087 12.2755 1.8687 12.0655C1.0187 11.8855 0.348699 11.1355 0.128699 10.3355C-0.161301 9.53549 0.0487126 8.54549 0.658713 7.94549C1.22871 7.31549 1.99871 6.95549 2.74871 6.65549C4.27871 6.09549 5.90871 5.88549 7.52871 5.87549C8.11871 5.89549 9.25871 6.04549 10.1887 6.41549C11.1487 6.74549 11.7287 7.45549 11.6687 7.48549C11.6187 7.52549 11.1187 7.09549 10.2787 6.89549C9.45871 6.66549 8.37871 6.58549 7.49871 6.55549C5.95871 6.45549 4.3687 6.58549 2.8987 7.06549C2.1787 7.32549 1.44871 7.65549 0.938711 8.19549C0.398711 8.71549 0.22871 9.49549 0.46871 10.2055C0.67871 10.9355 1.21871 11.5155 1.94871 11.6755C2.66871 11.8455 3.45871 11.7055 4.19871 11.4955C5.68871 11.0555 7.0887 10.3055 8.4587 9.52549C8.9887 9.24549 10.0287 8.74549 10.9687 8.33549C11.8987 7.90549 12.7587 7.68549 12.7787 7.76549C12.7887 7.79549 12.6087 7.87549 12.3387 8.02549C12.0687 8.17549 11.6887 8.40549 11.2787 8.65549C10.4487 9.18549 9.4587 9.79549 8.7887 10.1455Z" fill="#C8BBB6"/>
<path d="M15.1688 6.91546C13.8888 6.23546 12.5988 5.52547 11.5388 4.46547C11.0388 3.93547 10.5488 3.22547 10.6488 2.39547C10.7588 1.57547 11.3188 0.975467 11.9188 0.535467C12.5388 0.095467 13.3588 -0.0945385 14.1088 0.0454615C14.8588 0.185461 15.5388 0.555464 16.1288 0.985464C16.7288 1.42546 17.2488 1.95546 17.7088 2.52546C18.1688 3.10546 18.5888 3.75547 18.8288 4.46547C19.0288 4.98547 19.1688 6.00546 19.2788 6.84546C19.3888 7.69546 19.5988 8.39547 19.5488 8.42547C19.5088 8.44547 19.1688 7.93546 18.9088 7.15546C18.6488 6.38546 18.4288 5.40546 18.1788 4.68546C18.0088 4.01546 17.6688 3.43546 17.2788 2.86546C16.8688 2.29546 16.3988 1.77546 15.8588 1.34546C15.3188 0.915464 14.6988 0.565461 14.0388 0.435461C13.3788 0.295461 12.6888 0.445465 12.1388 0.845465C11.5988 1.23546 11.1088 1.80546 11.0488 2.43546C10.9788 3.07546 11.3988 3.67546 11.8688 4.15546C12.8788 5.10546 14.1788 5.73546 15.4688 6.30546C16.4188 6.78546 19.2288 8.16546 19.1688 8.30546C19.1488 8.34546 18.4688 8.14546 17.6288 7.87546C16.7788 7.58546 15.7888 7.21546 15.1688 6.91546Z" fill="#C8BBB6"/>
<path d="M17.4685 11.8955C16.4985 13.1255 15.4985 14.3655 14.2685 15.3855C13.6485 15.8855 12.9585 16.3555 12.1385 16.5355C11.3085 16.7355 10.3885 16.4055 9.82854 15.7955C9.51854 15.5055 9.32853 15.0755 9.28853 14.6455C9.24853 14.2155 9.35854 13.7955 9.51854 13.4155C9.86854 12.6655 10.3885 12.0355 10.9585 11.4855C12.1085 10.3755 13.4485 9.49551 14.8985 8.81551C15.4285 8.59551 16.5285 8.24551 17.5385 8.27551C18.0385 8.28551 18.5085 8.40551 18.7985 8.59551C18.9485 8.68551 19.0485 8.7855 19.1085 8.8655C19.1685 8.9455 19.1985 8.98551 19.1885 8.99551C19.1385 9.04551 18.6285 8.59551 17.7885 8.70551C16.9685 8.75551 15.9685 9.12551 15.1685 9.45551C13.7585 10.0055 12.4085 10.7955 11.2685 11.8155C10.7085 12.3255 10.1985 12.9155 9.87852 13.5855C9.55852 14.2455 9.56852 15.0455 10.0985 15.5455C10.6085 16.0755 11.3485 16.3355 12.0585 16.1655C12.7685 15.9955 13.4085 15.5555 13.9785 15.0555C15.1185 14.0355 16.0385 12.7755 16.9085 11.4955C17.5885 10.5655 19.7385 7.86551 19.9185 8.03551C19.9385 8.06551 19.5085 8.67551 19.0185 9.50551C18.5085 10.3155 17.9085 11.2955 17.4685 11.8955Z" fill="#C8BBB6"/>
<path d="M27.3387 6.66547C27.2887 5.49547 26.9387 4.31547 26.3487 3.29547C25.7587 2.27547 24.7387 1.46548 23.5387 1.60548C22.9687 1.64548 22.3688 1.84547 22.1588 2.33547C21.9488 2.82547 22.0587 3.43547 22.2287 3.98547C22.5987 5.11547 23.2487 6.15548 23.9287 7.14548C24.3687 7.89548 25.6887 10.0655 25.5887 10.1355C25.4987 10.1955 24.0887 8.71547 23.3387 7.51547C22.7387 6.43547 22.1387 5.33547 21.7887 4.11547C21.6287 3.51547 21.5088 2.82548 21.7988 2.16548C22.1188 1.48548 22.8987 1.27547 23.5087 1.23547C24.1387 1.16547 24.8387 1.33547 25.3787 1.68547C25.9487 2.02547 26.3588 2.53547 26.7188 3.05547C27.3988 4.12547 27.8487 5.33548 28.0087 6.60548C28.0687 7.07548 28.0088 8.04548 27.7188 8.81548C27.4488 9.61548 26.8687 10.0555 26.8387 10.0055C26.7987 9.96548 27.1588 9.49548 27.2788 8.78548C27.4388 8.08548 27.4087 7.21548 27.3387 6.66547Z" fill="#C8BBB6"/>
<path d="M25.2088 13.8655C24.4388 14.7955 23.5888 15.6655 22.5988 16.3755C22.0988 16.7255 21.5488 17.0355 20.9088 17.1655C20.2688 17.3055 19.4988 16.9855 19.1888 16.4155C18.8588 15.8855 18.6188 15.2055 18.8388 14.5655C19.0288 13.9555 19.3888 13.4155 19.8288 12.9855C20.6888 12.0955 21.7688 11.4855 22.8688 10.9755C23.2788 10.7955 24.1188 10.5855 24.8688 10.5455C25.2388 10.5155 25.5988 10.5555 25.8488 10.6055C26.0988 10.6855 26.2388 10.7455 26.2288 10.7755C26.1988 10.8355 25.7188 10.7855 25.0988 10.9455C24.4788 11.0755 23.7188 11.3655 23.1188 11.6155C22.0388 11.9955 20.9688 12.5255 20.1388 13.3055C19.7088 13.6855 19.3888 14.1555 19.2088 14.6655C19.0188 15.1955 19.2088 15.7355 19.4888 16.1955C19.7688 16.6855 20.2988 16.8855 20.8288 16.7755C21.3588 16.6655 21.8688 16.3655 22.3188 16.0155C23.2288 15.3055 23.9888 14.4055 24.6488 13.4555C24.9088 13.1055 25.4588 12.4455 25.8688 11.8255C26.3088 11.2155 26.5188 10.6155 26.5688 10.6055C26.6288 10.6055 26.6088 11.2555 26.2988 11.9455C26.0188 12.6355 25.5588 13.4055 25.2088 13.8655Z" fill="#C8BBB6"/>
<path d="M25.2887 5.57549C25.5687 6.24549 25.9287 6.88548 26.2487 7.55548C26.5587 8.22548 26.8987 8.92549 26.8687 9.78549C26.8587 9.94549 26.7087 10.2155 26.5487 10.4055C26.3587 10.5855 26.1887 10.6955 26.1487 10.6555C26.0987 10.6155 26.1087 10.4355 26.1387 10.2455C26.1587 10.0655 26.1787 9.84549 26.1887 9.66549C26.4087 9.07549 26.2187 8.33549 25.9187 7.71549C25.6087 7.07549 25.1687 6.49549 24.6987 5.92549C24.5487 5.69549 24.3987 4.84548 24.5187 4.79548C24.6087 4.77548 25.0987 5.29549 25.2887 5.57549Z" fill="#C8BBB6"/>
<path d="M21.4086 14.0355C22.1086 13.7355 22.7186 13.2955 23.3386 12.8655C23.6286 12.6255 23.8986 12.3655 24.1686 12.1055C24.4486 11.8555 24.6886 11.5755 24.8886 11.2555C25.0686 11.0655 25.7486 10.6455 25.8386 10.7055C25.9386 10.7755 25.6886 11.4055 25.3886 11.7355C25.0986 11.9955 24.7886 12.2255 24.4686 12.4455C24.1586 12.6755 23.8586 12.9155 23.5686 13.1555C22.9386 13.5955 22.3786 14.1155 21.7886 14.6055C21.5386 14.7655 20.6986 14.9855 20.6386 14.8755C20.5886 14.7955 21.1086 14.2255 21.4086 14.0355Z" fill="#C8BBB6"/>
<path d="M15.5787 3.62545C16.1887 4.15545 16.6887 4.79545 17.2987 5.31545C17.5687 5.61545 17.8487 5.89545 18.1287 6.17545L18.5687 6.59545L18.9687 7.04545C19.1387 7.28545 19.4387 8.08545 19.3487 8.13545C19.2387 8.19545 18.6687 7.80545 18.4187 7.44545L18.1387 6.93545L17.7887 6.46546C17.5487 6.15546 17.2987 5.85545 17.0387 5.56545C16.4387 5.06545 15.8787 4.50545 15.1587 4.16545C14.9287 3.99545 14.3987 3.27545 14.4687 3.15545C14.5187 3.08545 15.2687 3.39545 15.5787 3.62545Z" fill="#C8BBB6"/>
<path d="M14.0988 12.4754C15.4288 11.3654 16.7588 10.2654 17.6688 8.84544C17.8588 8.61544 18.5788 8.08545 18.6788 8.14545C18.7788 8.21545 18.5188 8.90544 18.1988 9.29544C16.9288 10.4854 15.5988 11.5754 14.5988 12.9554C14.3888 13.1854 13.5688 13.6854 13.4588 13.6054C13.3888 13.5354 13.8188 12.7754 14.0988 12.4754Z" fill="#C8BBB6"/>
</svg>
