<svg width="174" height="206" viewBox="0 0 174 206" fill="none" xmlns="http://www.w3.org/2000/svg">
<path d="M7.47425 27.9963C7.7864 28.7887 8.11541 29.5161 8.48703 30.2037C8.43016 30.5123 8.5346 30.8581 8.87728 31.1224C8.96243 31.1861 9.04963 31.2595 9.13478 31.3231C9.43886 31.79 9.75067 32.245 10.1113 32.6895C8.26712 32.3364 6.47256 31.8808 4.66773 31.233C4.19295 31.0685 3.69933 31.5827 4.02858 32.0237C4.92712 33.1204 5.5546 34.3363 5.92072 35.6693C4.68272 35.3301 3.44472 34.9908 2.2032 34.683C2.13488 34.5545 2.06656 34.4259 1.99824 34.2973C1.78557 33.9235 1.20552 34.2721 1.34973 34.6606C1.38037 34.7563 1.42077 34.8499 1.4612 34.9436C1.27302 35.2598 1.30261 35.7341 1.72223 35.8797C1.76552 35.8909 1.80886 35.9021 1.84445 35.9252C7.11164 49.6893 14.2043 62.9515 20.6278 76.1928C27.4299 90.202 34.3704 104.141 41.4492 118.009C44.7481 124.463 48.0547 130.905 51.3732 137.355C53.1732 140.856 54.8955 147.636 58.8764 149.282C61.1636 150.225 64.7267 149.721 67.0365 149.668C70.5853 149.576 74.128 149.311 77.6492 148.897C84.8089 148.045 91.8282 146.486 98.7209 144.382C98.8264 144.349 98.9081 144.301 98.9899 144.253C99.3388 144.547 99.7402 144.799 100.13 145.043C99.8707 153.799 100.946 162.721 102.254 171.348C102.915 175.696 102.825 185.674 107.792 188.061C107.737 188.471 107.891 188.909 108.358 189.034C115.658 191.046 119.792 182.239 121.996 175.747C122.629 175.121 123.32 174.81 124.138 175.147C124.53 175.308 124.907 176.067 125.234 176.355C126.349 177.364 127.018 177.866 128.508 177.466C128.78 177.398 129.024 177.059 129.048 176.788C129.055 176.726 129.053 176.665 129.048 176.594C129.067 176.539 129.095 176.482 129.102 176.419C129.355 175.015 129.33 173.508 129.639 172.225C130.027 171.835 130.607 171.487 131.49 171.217C133.07 170.716 135.154 172.143 136.575 172.576C138.641 173.198 140.21 173.508 142.304 172.734C142.806 172.545 143.068 171.855 142.771 171.377C143.02 171.007 143.058 170.518 142.682 170.097C141.258 168.499 138.561 166.017 138.016 163.945C137.754 163.48 137.481 163.016 137.218 162.551C138.422 162.202 139.633 161.842 140.837 161.493C141.829 161.496 143.067 162.408 143.998 162.7C145.786 163.269 147.303 163.427 148.794 162.894C149.071 162.896 149.381 162.768 149.57 162.554C149.884 162.395 150.201 162.205 150.52 161.973C150.919 161.684 151.02 161.008 150.799 160.595C150.553 160.116 150.285 159.672 149.999 159.242C149.664 156.952 148.032 155.244 145.854 154.001C151.358 154.494 158.468 153.407 162.138 149.567C165.666 145.88 160.36 141.04 157.068 138.644C157.28 138.538 157.502 138.429 157.689 138.348C159.398 137.636 161.293 136.976 162.605 135.602C163.414 134.745 164.198 132.573 163.842 131.146C163.868 131.12 163.893 131.094 163.918 131.068C164.349 130.547 164.121 129.768 163.541 129.492C149.941 123.017 134.815 123.769 120.2 125.097C120.122 124.92 119.996 124.762 119.787 124.643C119.729 124.615 119.672 124.586 119.615 124.557C119.117 124.091 118.563 123.606 118.004 123.091C122.283 118.947 123.693 110.456 123.935 105.262C124.169 100.13 123.699 89.678 119.075 86.0732C119.228 85.6417 119.137 85.1192 118.614 84.8729C99.9001 75.8483 81.3474 66.4314 62.899 56.8797C44.4645 47.3456 26.4687 36.9918 8.03632 27.4675C7.70825 27.2716 7.34047 27.6568 7.47425 27.9963ZM142.94 128.979C146.263 129.313 149.599 129.757 152.883 130.386C154.314 130.622 155.732 130.943 157.125 131.341C157.43 132.34 157.737 133.348 158.033 134.348C157.464 135.707 153.145 137.129 151.779 137.676C150.817 138.055 150.889 139.686 151.906 139.95C154.081 140.508 157.594 141.64 158.822 143.802C161.426 148.389 156.249 149.524 153.515 149.985C149.333 150.703 145.093 151.198 140.894 151.787C139.852 151.938 139.557 153.432 140.433 153.992C142.193 155.099 145.94 156.846 146.847 158.8C147.261 159.683 147.236 160.189 146.964 160.452C146.64 160.418 146.265 160.335 145.774 160.143C144.946 160.238 143.963 160.09 142.956 159.875C142.113 159.564 141.363 159.264 140.954 159.167C139.919 158.917 138.971 158.833 138.104 158.937C137.043 158.805 135.846 158.754 135.105 159.454C133.326 161.132 134.867 164.279 136.87 167.104C135.065 166.548 133.194 166.405 131.278 167.11C128.454 168.153 127.709 169.886 127.388 171.979C127.237 172.42 127.256 172.795 127.236 173.228C127.229 173.342 127.211 173.448 127.195 173.564C125.89 172.288 124.345 171.422 122.378 170.921C121.805 170.777 121.125 170.994 120.941 171.616C120.649 172.598 120.296 173.819 119.852 175.141C118.707 177.011 118.09 179.392 117.187 181.486C116.231 183.234 115.092 184.796 113.736 185.873C113.353 186.138 112.964 186.375 112.562 186.552C110.47 187.479 107.453 186.037 106.182 184.202C104.807 182.215 104.812 178.021 104.404 175.675C102.919 167.086 102.323 158.491 101.637 149.854C103.307 148.721 104.832 147.291 106.274 145.757C106.527 147.758 106.938 149.736 107.407 151.691C107.945 153.928 108.39 157.933 110.249 159.551C111.04 160.241 112.093 160.671 113.104 160.138C114.906 159.191 114.259 156.446 114.319 154.951C114.324 154.735 114.047 154.682 113.991 154.898C113.932 155.054 113.906 155.223 113.857 155.376C113.795 155.42 113.757 155.48 113.754 155.562C111.401 156.851 110.216 156.235 110.196 153.693C109.981 152.829 109.826 151.962 109.731 151.083C109.438 148.896 109.479 146.689 109.378 144.491C109.37 144.309 109.362 144.127 109.361 143.933C111.625 147.928 116.55 151.223 120.686 152.059C124.202 152.771 130.667 151.586 129.808 146.698C129.715 146.166 129.051 146.215 128.852 146.626C126.415 151.501 121.123 150.994 116.996 148.664C116.125 148.032 115.353 147.286 114.591 146.498C113.027 144.868 111.653 143.076 110.226 141.325C110.835 140.632 111.458 139.958 112.08 139.324C112.769 138.625 113.484 137.951 114.199 137.277C115.546 138.605 117.322 139.647 118.833 140.45C121.137 141.666 123.836 142.859 126.478 142.449C126.903 142.379 127.064 141.741 126.668 141.519C124.634 140.368 122.303 139.843 120.164 138.878C119.459 138.159 118.501 137.648 117.657 137.143C117.118 136.818 116.565 136.527 115.996 136.26C115.862 136.155 115.719 136.063 115.577 135.971C118.19 133.552 120.85 131.165 123.228 128.551C129.806 128.426 136.334 128.302 142.94 128.979ZM31.0877 41.9166C40.5786 47.1519 50.1598 52.2351 59.7752 57.2393C79.016 67.2456 98.5324 76.7228 117.846 86.591C117.937 86.633 118.021 86.6456 118.106 86.6583C118.284 88.6448 119.366 90.3158 120.025 92.302C121.153 95.7219 121.76 99.3347 121.846 102.946C121.921 106.417 121.471 109.58 120.602 112.598C118.807 116.887 116.427 120.687 113.686 124.227C113.22 124.296 112.829 124.716 112.929 125.186C112.832 125.309 112.736 125.431 112.639 125.554C110.402 127.719 107.751 129.675 105.794 131.81C105.693 131.913 105.602 132.014 105.502 132.118C105.21 131.71 104.901 131.315 104.557 130.949C104.633 130.872 104.656 130.744 104.585 130.647C103.249 128.938 101.517 127.579 99.9464 126.063C98.2549 123.694 96.91 121.128 95.5358 118.569C95.5854 118.609 95.6252 118.652 95.6629 118.685C95.6719 118.775 95.6927 118.873 95.7527 118.962C97.1034 121.22 99.1411 123.055 100.853 125.042C102.553 127.021 104.112 129.152 106.167 130.779C106.462 131.013 106.81 130.632 106.675 130.334C106.289 129.434 105.794 128.599 105.252 127.784C105.286 127.706 105.299 127.621 105.259 127.527C103.818 124.512 101.313 121.876 98.6338 119.574C98.0735 119.009 97.4881 118.469 96.8487 118.012C96.7657 117.959 96.677 117.926 96.5904 117.904C95.8534 117.325 95.1088 116.758 94.3941 116.235C94.0179 115.958 93.4113 116.23 93.4884 116.735C93.546 117.101 93.6525 117.457 93.7297 117.819C93.5891 118.023 93.5414 118.278 93.6864 118.575C93.8997 118.999 94.1353 119.481 94.3751 119.982C94.8726 121.307 95.5321 122.578 96.3341 123.797C98.5004 127.722 101.419 131.864 104.944 132.717C103.979 133.751 103.011 134.776 102.036 135.812C101.933 135.568 101.672 135.399 101.393 135.53C101.346 135.55 101.313 135.588 101.267 135.608C99.8407 132.998 96.7766 131.576 94.3762 129.91C91.2081 127.713 87.1453 125.634 85.0664 122.264C86.3662 122.989 87.8673 124.274 88.4725 124.666C89.7659 125.505 91.0516 126.355 92.3373 127.206C95.3659 129.229 98.2783 131.521 101.526 133.181C102.124 133.493 102.574 132.63 102.118 132.216C97.6075 128.137 91.8195 125.21 86.6444 122.04C85.3872 121.275 82.1994 118.458 80.853 120.535C79.366 122.815 83.9873 126.697 85.3872 127.891C89.2381 131.18 93.8933 133.254 97.8288 136.413C93.2053 136.213 88.5849 135.787 83.9637 135.454C82.5502 135.347 80.5643 134.952 80.2895 136.78C80.2536 137.043 80.3917 137.259 80.6109 137.376C80.8301 137.493 81.043 137.58 81.2482 137.68C82.6665 140.158 85.8934 140.043 88.5153 140.015C91.5472 139.992 94.964 139.999 98.0238 139.244C98.248 139.289 98.4818 139.331 98.7018 139.355C98.1565 139.963 97.6112 140.57 97.0658 141.177C96.4856 141.669 95.8936 142.153 95.3253 142.652C95.2051 142.76 95.1952 142.905 95.2244 143.042C89.0898 144.77 82.8537 146.069 76.5162 146.797C73.2828 147.17 70.0398 147.402 66.7892 147.502C65.0619 147.553 62.1051 147.928 60.5151 147.521C57.8331 146.836 57.2966 144.752 56.1532 142.603C49.9956 130.992 43.9372 119.319 37.9822 107.604C31.7595 95.3521 25.6459 83.0365 19.6357 70.6784C17.2105 65.6844 14.8902 60.6068 12.5308 55.5374C15.7866 53.6876 18.7159 51.3143 21.3891 48.6991C23.7136 46.4139 26.9061 43.4527 28.0791 40.2271C29.0864 40.7791 30.0804 41.3646 31.0877 41.9166ZM91.5931 130.524C89.4327 129.216 82.9678 125.799 82.7852 123.17C82.7638 122.878 82.7863 122.648 82.827 122.455C82.8479 122.553 82.859 122.653 82.9211 122.752C84.7123 126.02 87.7738 127.862 90.7814 129.93C91.0467 130.119 91.3258 130.325 91.5931 130.524Z" fill="#896C61"/>
<path d="M106.67 111.756C105.958 110.528 103.902 107.121 101.985 107.868C100.089 108.61 101.763 112.24 102.083 113.501C103.345 118.508 105.124 123.446 107.805 127.864C108.075 128.317 108.804 127.896 108.599 127.418C107.569 124.938 106.438 122.511 105.492 119.993C104.588 117.578 102.63 113.62 102.738 111.061L102.422 109.625C103.412 109.762 104.13 110.202 104.59 110.973C105.505 111.902 106.023 113.326 106.525 114.527C107.815 117.606 108.18 120.851 108.82 124.089C108.88 124.373 109.31 124.424 109.355 124.108C109.995 119.963 108.769 115.368 106.67 111.756Z" fill="#896C61"/>
<path d="M71.6692 136.154C63.304 135.526 59.4084 129.199 55.5222 122.676C51.7002 116.262 47.911 109.811 44.1161 103.381C36.5767 90.6129 29.6667 77.0562 21.0999 64.9366C21.0239 64.8199 20.8213 64.9245 20.8798 65.0551C28.123 80.1257 37.7228 94.3562 46.17 108.792C50.2744 115.81 53.9549 123.43 58.7596 129.992C61.8336 134.193 66.1556 137.821 71.6547 136.71C71.9383 136.649 72.003 136.185 71.6692 136.154Z" fill="#896C61"/>
<path d="M63.4997 124.267C59.6607 118.061 54.3772 112.706 50.058 106.838C50.0001 106.758 49.8855 106.844 49.9434 106.923C54.0697 112.894 57.9335 119.503 63.2459 124.515C63.4008 124.666 63.5959 124.43 63.4997 124.267Z" fill="#896C61"/>
<path d="M104.043 84.5351C98.271 81.1548 92.2638 78.111 86.3882 74.9164C81.1722 72.0822 75.6526 68.9752 69.6895 68.1511C69.3634 68.1082 69.1757 68.6185 69.5164 68.7299C79.3541 72.0916 88.0302 77.102 97.0239 82.2592C101.801 85.003 106.789 87.6303 110.723 91.5459C114.97 95.7831 116.441 100.858 116.659 106.721C116.675 107.035 117.124 107.082 117.241 106.812C121.468 97.3418 111.206 88.7331 104.043 84.5351Z" fill="#896C61"/>
<path d="M29.0437 43.2627C26.9507 46.0098 25.0525 48.8073 22.591 51.2649C20.4182 53.4461 17.9023 55.1689 15.6437 57.2355C15.4305 57.4344 15.6586 57.7845 15.9276 57.6555C21.5293 55.0599 26.8319 49.0004 29.3417 43.4139C29.4257 43.2324 29.1556 43.1162 29.0437 43.2627Z" fill="#896C61"/>
<path d="M28.455 48.654C26.7145 50.8964 25.1206 53.2508 23.0709 55.2421C22.9681 55.3356 23.1056 55.5006 23.2181 55.405C25.4318 53.5116 27.4592 51.4636 28.7175 48.7821C28.7861 48.6243 28.5515 48.5312 28.455 48.654Z" fill="#896C61"/>
<path d="M114.787 115.393C114.197 116.94 113.418 118.466 113.027 120.083C112.978 120.288 113.235 120.438 113.37 120.255C114.311 118.961 114.883 117.376 115.49 115.908C116.1 114.407 116.628 112.904 116.869 111.298C116.888 111.151 116.656 111.068 116.593 111.204C115.857 112.547 115.33 113.958 114.787 115.393Z" fill="#896C61"/>
<path d="M115.704 88.9189C118.744 94.7327 121.288 99.8036 119.993 106.583C119.988 106.604 120.031 106.616 120.037 106.594C121.32 100.625 120.806 93.0863 115.945 88.755C115.832 88.6564 115.618 88.7533 115.704 88.9189Z" fill="#896C61"/>
<path d="M46.2524 117.23C49.4317 125.376 55.1856 136.245 62.8009 141.124C69.5758 145.466 79.8353 144.382 87.3747 143.152C87.4138 143.144 87.4034 143.095 87.3621 143.093C78.997 143.855 68.4313 145.229 61.6517 139.14C55.0983 133.247 51.3331 124.367 46.7087 117.02C46.5441 116.728 46.1347 116.918 46.2524 117.23Z" fill="#896C61"/>
<path d="M38.7767 51.0231C47.1714 54.4267 54.4882 59.5839 62.4638 63.8029C62.4973 63.8162 62.5281 63.7687 62.4946 63.7554C54.721 59.3808 48.0544 51.9991 38.8504 50.6495C38.6262 50.6053 38.5756 50.9433 38.7767 51.0231Z" fill="#896C61"/>
<path d="M124.387 131.975C128.904 132.586 133.513 132.574 138.058 132.883C142.592 133.194 147.18 133.851 151.732 133.811C151.824 133.812 151.875 133.668 151.767 133.64C143.356 131.405 133.026 130.674 124.37 131.508C124.09 131.537 124.134 131.937 124.387 131.975Z" fill="#896C61"/>
<path d="M105.477 101.131C111.372 105.518 111.349 110.922 110.634 117.639C110.624 117.733 110.761 117.755 110.793 117.666C112.794 112.137 112.495 102.875 105.605 100.869C105.442 100.822 105.342 101.027 105.477 101.131Z" fill="#896C61"/>
<path d="M74.2085 115.173C73.721 116.627 73.7656 118.274 74.3621 119.68C75.3433 122.027 77.9649 123.053 79.0216 125.322C79.0439 125.379 79.1299 125.35 79.1173 125.292C78.5059 122.712 76.1778 121.338 75.4678 118.872C74.3163 114.864 77.8247 111.753 81.6854 111.973C81.9229 111.984 82.0028 111.639 81.7703 111.556C78.634 110.466 75.3025 111.913 74.2085 115.173Z" fill="#896C61"/>
<path d="M92.2194 104.889C90.3009 107.016 90.0623 109.685 90.9315 112.322C90.9823 112.464 91.2205 112.383 91.1795 112.238C89.6518 106.562 94.8182 102.74 100.031 103.642C100.275 103.682 100.304 103.339 100.11 103.247C97.4422 101.955 94.2211 102.673 92.2194 104.889Z" fill="#896C61"/>
<path d="M109.038 178.419C108.753 178.858 108.75 179.226 108.88 179.741C109.042 180.401 110.154 180.44 110.144 179.675C110.134 179.146 110.09 178.747 109.692 178.371C109.494 178.209 109.192 178.181 109.038 178.419Z" fill="#896C61"/>
<path d="M112.684 173.122C112.294 173.788 112.678 174.391 113.185 174.896C113.6 175.309 114.269 174.992 114.204 174.403C114.122 173.684 113.888 173.018 113.118 172.906C112.963 172.898 112.768 172.991 112.684 173.122Z" fill="#896C61"/>
<path d="M107.562 171.116C107.121 171.875 107.704 172.548 108.173 173.163C108.524 173.61 109.331 173.223 109.192 172.67C109.012 171.921 108.846 171.046 107.97 170.916C107.82 170.887 107.635 170.978 107.562 171.116Z" fill="#896C61"/>
<path d="M122.343 164.722C122.318 164.747 122.283 164.775 122.258 164.801C122.111 164.925 122.043 165.133 122.082 165.319C122.15 165.683 122.261 165.823 122.545 166.049C122.691 166.161 122.943 166.189 123.106 166.093C123.148 166.094 123.189 166.096 123.22 166.099C123.609 166.149 123.714 165.585 123.384 165.43C123.301 165.09 123.027 164.811 122.719 164.662C122.593 164.597 122.429 164.642 122.343 164.722Z" fill="#896C61"/>
<path d="M140.436 142.642C141.417 143.649 143.598 143.613 144.876 143.279C145.447 143.127 145.427 142.313 144.828 142.237C144.103 142.146 143.368 142.149 142.643 142.059C141.992 141.983 141.31 141.801 140.667 141.999C140.399 142.087 140.211 142.403 140.436 142.642Z" fill="#896C61"/>
<path d="M130.224 138.726C130.115 138.841 130.066 138.995 130.139 139.143C130.421 139.696 130.958 139.674 131.523 139.737C132.287 139.819 132.361 138.679 131.618 138.551C131.089 138.47 130.615 138.305 130.224 138.726Z" fill="#896C61"/>
<path d="M151.989 145.801C151.74 145.977 151.827 146.337 152.035 146.497C152.425 146.792 152.602 146.805 153.083 146.713C153.603 146.612 153.763 145.73 153.173 145.6C152.636 145.479 152.449 145.468 151.989 145.801Z" fill="#896C61"/>
<path d="M65.3574 72.6233C65.4118 72.7344 65.5774 72.6479 65.5251 72.5466C65.4708 72.4355 65.3052 72.5219 65.3574 72.6233Z" fill="#896C61"/>
<path d="M49.9936 62.5772C50.0014 63.189 50.3027 63.5951 50.8207 63.9141C51.289 64.1925 51.6682 63.4776 51.1572 63.239C50.8256 63.0746 50.5891 62.8285 50.4358 62.4931C50.3277 62.3219 49.9903 62.3222 49.9936 62.5772Z" fill="#896C61"/>
<path d="M34.1465 56.4483C35.0862 56.7795 36.0631 56.9494 36.9343 57.4385C37.4914 57.7491 38.0635 56.9318 37.5023 56.6016C36.5062 56.0063 35.359 55.5659 34.1965 55.9161C33.9345 55.9822 33.8686 56.3439 34.1465 56.4483Z" fill="#896C61"/>
<path d="M80.4174 85.4641C80.6712 85.9826 81.0751 86.4383 81.4707 86.855C81.9082 87.324 82.6701 86.6298 82.2117 86.2061C81.7692 85.8097 81.2654 85.365 80.7209 85.1131C80.5177 85.0235 80.3268 85.2789 80.4174 85.4641Z" fill="#896C61"/>
<path d="M28.4012 61.3444C28.7016 61.9859 29.579 61.7374 29.6788 61.1026C29.6879 61.0495 29.6971 60.9964 29.7062 60.9434C29.728 60.8058 29.6395 60.6304 29.5229 60.5632C29.4775 60.5423 29.43 60.5115 29.3847 60.4905C28.8178 60.1819 28.091 60.7051 28.4012 61.3444Z" fill="#896C61"/>
<path d="M19.001 61.3762C19.0554 61.4873 19.221 61.4008 19.1687 61.2995C19.1143 61.1884 18.9466 61.2651 19.001 61.3762Z" fill="#896C61"/>
<path d="M40.2268 85.0491C41.2164 85.1346 41.072 83.4987 40.1631 83.7437C39.4652 83.9233 39.4453 84.9807 40.2268 85.0491Z" fill="#896C61"/>
<path d="M94.8166 91.8509C94.7888 92.4396 94.9756 92.7883 95.1672 93.3507C95.3831 93.9795 95.4802 94.6745 95.4063 95.3345C95.3358 95.963 96.2359 96.1084 96.4565 95.5604C96.9871 94.2611 96.995 91.8054 95.1989 91.5341C95.018 91.5011 94.83 91.6742 94.8166 91.8509Z" fill="#896C61"/>
<path d="M102.361 91.5095C102.624 91.9749 103.024 92.3189 103.243 92.8143C103.402 93.179 103.984 92.9833 103.903 92.6019C103.751 91.8879 103.415 91.2234 102.632 91.1039C102.432 91.0751 102.261 91.3264 102.361 91.5095Z" fill="#896C61"/>
<path d="M64.34 70.826C65.3835 71.5952 66.592 72.0839 67.7523 72.6339C68.435 72.9586 68.8713 71.792 68.1479 71.5168C66.9555 71.0554 65.784 70.5486 64.5179 70.3177C64.2309 70.2664 64.1341 70.6756 64.34 70.826Z" fill="#896C61"/>
<path d="M55.0395 68.8323C54.7953 69.2218 55.202 69.7383 55.6367 69.5229C56.0713 69.3075 55.9357 68.6718 55.4643 68.619C55.4113 68.6098 55.3603 68.6105 55.3072 68.6013C55.2345 68.5964 55.1507 68.6347 55.1123 68.694C55.0913 68.7394 55.0605 68.7869 55.0395 68.8323Z" fill="#896C61"/>
<path d="M40.6951 67.0657C40.7088 67.3695 40.7094 67.4205 40.7936 67.7195C40.9767 68.386 41.9438 67.9343 41.5365 67.3668C41.3488 67.1103 41.3111 67.0775 41.0752 66.8824C40.9384 66.7684 40.6869 66.8834 40.6951 67.0657Z" fill="#896C61"/>
<path d="M34.3173 47.5673C34.292 47.7363 34.4553 47.9264 34.6299 47.93C34.8869 47.9365 35.2362 47.8007 35.4687 47.884C36.0636 48.0843 36.3236 47.2416 35.779 46.9896C35.1968 46.7048 34.4102 46.8522 34.3173 47.5673Z" fill="#896C61"/>
<path d="M21.3452 61.2442C21.0976 61.6651 21.4412 61.6941 21.5456 62.0399C21.8033 62.8643 22.991 62.4883 22.6746 61.6764C22.5388 61.3271 22.3126 61.1299 21.9467 61.0443C21.7401 60.9862 21.4739 61.0327 21.3452 61.2442Z" fill="#896C61"/>
</svg>
