<svg width="14" height="16" viewBox="0 0 14 16" fill="none" xmlns="http://www.w3.org/2000/svg">
<path d="M7.68417 0.269494C5.67417 -0.550506 3.53417 0.589496 2.21417 2.4895C0.424171 3.5095 -0.225843 5.93951 0.294157 8.06951C0.0341574 8.67951 -0.0658426 9.38949 0.0441574 10.1095C0.294157 11.7095 1.57418 12.6795 3.03418 13.0095C3.64418 14.3295 4.88416 15.2695 6.86416 15.1995C7.70416 15.1695 8.44417 14.9095 9.08417 14.5095C9.96417 14.2695 10.7842 13.8295 11.4642 13.1195C13.0142 11.4895 13.4642 8.84949 12.4842 6.82949C12.9842 3.71949 11.1742 0.399494 7.68417 0.269494ZM6.65417 1.04949C7.26417 1.20949 7.88417 1.56949 8.46417 2.16949C8.85417 2.56949 9.12418 3.05949 9.34418 3.57949C8.61418 2.98949 7.75416 2.53951 6.86416 2.31951C6.46416 2.21951 6.06417 2.19949 5.68417 2.22949C5.37417 2.11949 5.04417 2.03951 4.68417 1.99951C4.47417 1.97951 4.27416 1.98951 4.07416 1.99951C4.80416 1.41951 5.66417 1.06949 6.65417 1.04949ZM6.66418 10.3695C6.35418 10.3595 6.01416 10.2895 5.64416 10.1295C5.02416 9.85951 4.55416 9.37949 4.23416 8.79949C4.22416 8.76949 4.21416 8.7395 4.20416 8.7095C4.52416 8.0395 4.95416 7.43949 5.45416 6.97949C5.99416 7.00949 6.54417 7.0295 7.08417 7.0595C7.25417 7.5495 7.35415 8.05949 7.38415 8.57949C7.27415 9.26949 7.02418 9.9195 6.66418 10.3695ZM6.77417 13.7695C6.01417 13.6795 5.27416 13.4495 4.60416 13.0995C4.73416 13.0895 4.85416 13.0895 4.98416 13.0595C5.41416 12.9795 5.81416 12.8395 6.17416 12.6495C7.22416 12.8395 8.31416 12.7795 9.26416 12.3895C8.68416 13.2095 7.81417 13.7395 6.77417 13.7695ZM10.9842 12.1595C11.2042 11.5895 11.3442 10.9895 11.3742 10.3595C11.5442 9.94949 11.5942 9.50949 11.5942 9.07949C11.7142 8.87949 11.8542 8.68949 11.9542 8.47949C12.1542 9.76949 11.7942 11.1295 10.9842 12.1595ZM11.6442 5.6195C11.4242 5.3895 11.1942 5.17948 10.9442 5.00948C10.8342 3.98948 10.4842 2.97951 9.81418 2.06951C11.0842 2.96951 11.6542 4.2695 11.6442 5.6195Z" fill="#896C61"/>
</svg>
