<svg width="93" height="121" viewBox="0 0 93 121" fill="none" xmlns="http://www.w3.org/2000/svg">
<path d="M148.984 19.7079C141.144 12.0579 128.534 4.10789 117.234 8.35789C117.824 -7.78211 109.574 -25.2321 94.474 -30.8021C75.194 -37.9221 45.234 -27.3521 42.984 -4.76211C36.894 -8.14211 28.884 -8.21213 22.074 -5.78213C9.65404 -1.35213 0.214028 8.64787 0.00402792 22.2179C-0.165972 33.6479 5.05402 44.9879 13.994 52.1379C16.904 54.4679 20.224 56.2479 23.724 57.5479C24.134 61.5779 24.694 65.3479 24.094 69.4779C23.424 74.0879 21.884 78.4979 20.314 82.8679C19.504 85.1379 18.374 87.5079 18.744 89.9179C18.734 89.9579 18.724 90.0079 18.714 90.0479C18.674 90.2479 18.754 90.3979 18.894 90.5179C18.934 90.6679 18.954 90.8179 19.004 90.9679C19.484 92.3579 20.464 93.6779 21.634 94.7479C21.844 94.9979 22.064 95.2479 22.284 95.4879C24.114 97.6179 26.474 99.3579 28.864 100.728C36.594 105.138 45.394 107.758 53.344 111.848C60.134 115.338 70.794 120.508 80.064 120.288C86.534 121.688 92.874 118.278 95.274 112.578C97.074 109.028 97.984 104.388 98.584 101.768C100.004 95.4579 101.204 88.8979 104.444 83.2179C107.424 78.0079 111.204 75.6979 115.984 73.2479C132.684 77.2679 152.024 70.1679 157.834 52.2979C161.804 40.0879 157.934 28.4279 148.984 19.7079ZM75.724 111.178C78.994 112.978 82.804 114.308 86.604 114.298C86.204 114.578 85.814 114.858 85.384 115.118C84.954 115.378 84.514 115.608 84.074 115.828C78.104 114.748 72.424 114.568 66.744 111.858C66.654 111.818 66.594 111.958 66.684 112.008C71.204 114.338 76.724 116.738 82.034 116.708C81.514 116.898 80.984 117.088 80.444 117.238C78.384 117.418 76.264 117.388 73.994 117.018C67.514 115.958 61.594 113.058 55.794 110.098C55.144 109.718 54.494 109.328 53.834 108.958C49.644 106.528 45.384 104.808 40.944 103.278C38.924 102.438 36.904 101.608 34.864 100.768C28.854 98.3079 24.754 95.1079 20.994 90.2579C21.364 89.5379 21.704 88.7979 22.034 88.0679C24.474 92.7879 29.614 95.6979 34.364 97.8179C34.524 97.8879 34.684 97.6379 34.524 97.5379C31.964 95.9079 29.124 94.6179 26.804 92.6479C24.894 91.0279 23.624 89.1279 22.474 87.0679C22.694 86.5379 22.924 86.0179 23.134 85.4779C27.774 94.9679 41.514 99.5079 50.574 102.328C63.564 106.368 77.394 110.758 91.174 110.198C89.934 111.498 88.684 112.748 87.254 113.848C83.274 113.368 79.534 112.768 75.784 111.088C75.704 111.058 75.664 111.148 75.724 111.178ZM91.984 113.308C90.594 114.208 89.154 114.978 87.674 115.598C87.494 115.608 87.304 115.608 87.124 115.608C89.474 114.118 91.544 112.198 93.134 110.058C93.384 110.038 93.634 110.028 93.874 110.008C93.354 111.258 92.734 112.388 91.984 113.308ZM107.354 74.5379C107.304 73.6479 107.134 72.7579 106.874 71.9779C106.454 70.7379 105.794 69.6179 104.994 68.5979C105.414 68.8579 105.844 69.0979 106.274 69.3379C106.924 70.4079 107.354 71.5479 107.534 72.7879C107.604 73.2979 107.584 73.7779 107.534 74.2479C107.474 74.3479 107.414 74.4479 107.354 74.5379ZM109.004 72.0379C108.994 71.9979 108.984 71.9379 108.964 71.8979C108.934 71.7879 108.874 71.6879 108.834 71.5879C108.794 71.2679 108.744 70.9479 108.694 70.6279C108.694 70.6179 108.684 70.6179 108.684 70.6079C109.004 70.7679 109.314 70.9279 109.634 71.0679C109.434 71.3979 109.214 71.7179 109.004 72.0379ZM154.534 52.6279C150.654 62.5079 141.164 69.3679 130.854 71.2379C126.444 72.0379 122.184 71.8679 118.104 71.0079C118.064 70.9879 118.034 70.9579 117.984 70.9479C117.894 70.9379 117.814 70.9379 117.724 70.9279C110.694 69.3779 104.154 65.7579 98.144 61.4079C96.784 59.8579 95.374 58.3679 93.684 57.2479C93.494 57.1179 93.274 57.3379 93.404 57.5379C94.394 59.0179 95.674 60.2879 97.014 61.4979C97.024 61.5579 97.024 61.6079 97.064 61.6679C97.764 62.5079 98.504 63.2979 99.264 64.0579C99.254 64.1579 99.274 64.2579 99.364 64.3379C101.484 66.3079 103.824 68.2679 105.124 70.9279C106.224 73.1879 106.134 75.1079 105.594 77.1979C105.524 77.3079 105.444 77.4179 105.374 77.5279C103.784 79.4079 102.454 81.4279 101.484 83.2479C99.254 87.4579 98.074 92.0779 97.014 96.6879C96.434 99.2079 95.914 103.718 94.684 107.708C94.464 107.728 94.244 107.738 94.014 107.768C93.844 107.668 93.624 107.668 93.424 107.818C80.054 108.958 66.854 104.828 54.164 101.058C43.584 97.9179 29.514 93.8279 23.884 83.4279C23.944 83.2579 23.994 83.0779 24.054 82.9079C26.364 85.6579 29.584 88.0079 32.814 88.8179C33.144 88.8979 33.324 88.3979 33.064 88.2179C31.254 86.9979 29.344 86.0279 27.654 84.6279C26.474 83.6579 25.484 82.5679 24.534 81.4379C24.684 80.9479 24.834 80.4579 24.974 79.9679C27.044 82.4479 30.414 84.3779 33.004 85.0879C33.344 85.1779 33.644 84.7779 33.324 84.5279C31.634 83.1979 29.574 82.4179 27.844 81.1179C26.864 80.3779 26.104 79.5079 25.374 78.6079C25.534 78.0479 25.674 77.4779 25.824 76.9079C26.594 77.5979 27.474 78.1979 28.074 78.6579C30.164 80.2579 32.404 81.5079 34.944 82.2479C35.194 82.3179 35.454 81.9779 35.194 81.8179C33.474 80.7579 31.744 79.7179 30.074 78.5679C29.204 77.9679 27.344 76.8479 26.114 75.6679C26.334 74.7179 26.524 73.7679 26.714 72.8179C27.284 73.3879 27.914 73.8979 28.494 74.3879C30.464 76.0579 32.724 77.8379 35.184 78.6979C35.494 78.8079 35.744 78.4079 35.474 78.1879C33.824 76.8679 31.934 75.8579 30.244 74.5779C29.254 73.8279 27.924 72.9579 26.894 71.9179C27.114 70.7679 27.314 69.6179 27.504 68.4579C27.524 68.3579 27.534 68.2579 27.544 68.1579C27.704 68.2679 27.844 68.3579 27.964 68.4479C30.094 70.0479 32.374 71.7379 34.884 72.6779C35.204 72.7979 35.434 72.3879 35.174 72.1679C33.724 70.9279 32.074 69.9679 30.484 68.9079C29.744 68.4179 29.014 67.9079 28.274 67.3979C28.114 67.2879 27.904 67.1679 27.674 67.0279C27.764 66.1979 27.854 65.3179 27.984 64.4579C29.774 65.8979 31.954 67.0479 33.944 67.4979C34.194 67.5579 34.334 67.1779 34.134 67.0379C32.784 66.1279 31.294 65.4179 29.924 64.5279C29.334 64.1379 28.774 63.7179 28.214 63.2879C28.374 62.5979 28.614 61.9479 28.914 61.3579C30.414 62.4679 32.144 63.4579 33.814 63.9779C34.074 64.0579 34.284 63.7379 34.054 63.5579C32.684 62.4279 31.074 61.4279 29.474 60.4979C29.804 60.0879 30.174 59.7179 30.664 59.4479C30.724 59.4579 30.784 59.4779 30.844 59.4879C35.084 60.1979 40.794 60.6079 45.344 59.1779C46.614 58.9579 47.814 58.5479 48.834 57.7579C48.964 57.6579 48.994 57.5079 48.974 57.3679C49.074 57.1879 48.984 56.9079 48.744 56.8979C45.914 56.8379 43.154 57.3379 40.364 57.6679C33.834 57.5279 27.034 55.7979 21.554 52.8879C14.504 49.1479 10.194 42.9579 5.31403 37.0679C3.83403 33.7579 2.83402 30.2379 2.43402 26.6279C0.96402 13.5779 7.64404 3.4879 19.264 -2.1621C29.904 -7.3321 43.014 -6.21212 49.584 4.62788C49.994 5.29787 50.994 4.61787 50.724 3.93787C49.374 0.627872 47.244 -1.87211 44.674 -3.70211C46.404 -14.4221 53.184 -22.9121 63.314 -27.1721C72.624 -31.0821 85.874 -32.4021 95.234 -27.9921C114.764 -18.7921 117.664 6.21787 111.784 24.4979C111.544 25.2579 112.544 25.5979 112.914 24.9379C115.344 20.5079 116.714 15.3979 117.124 10.0979C128.984 8.48788 138.464 13.0479 146.984 21.5079C155.454 29.8879 159.024 41.1979 154.534 52.6279ZM27.584 58.7679C27.964 58.8679 28.344 58.9579 28.734 59.0379C28.514 59.2379 28.314 59.4679 28.124 59.6979C27.994 59.6279 27.874 59.5479 27.744 59.4779C27.724 59.4679 27.714 59.4779 27.694 59.4679C27.654 59.2479 27.634 58.9979 27.584 58.7679Z" fill="#896C61"/>
<path d="M14.984 45.1579C9.71397 36.0279 4.78397 26.2179 9.98397 15.9579C14.674 6.69788 22.874 0.38786 32.254 -3.65214C32.334 -3.69214 32.304 -3.83214 32.204 -3.81214C22.004 -1.20214 13.494 6.12787 8.67397 15.4479C3.48397 25.4779 7.23396 37.2879 14.474 45.4579C14.694 45.7079 15.164 45.4679 14.984 45.1579Z" fill="#896C61"/>
</svg>
