<svg width="353" height="415" viewBox="0 0 353 415" fill="none" xmlns="http://www.w3.org/2000/svg">
<path d="M235.108 229.28C237.189 225.641 238.814 221.712 240.438 217.782C242.001 213.874 242.905 209.714 244.284 205.642C244.586 204.913 245.294 203.558 246.101 202.498C246.899 201.426 247.817 200.711 247.882 200.782C247.996 200.898 247.605 201.723 247.143 202.728C246.949 203.272 246.719 203.878 246.467 204.48C246.267 205.104 246.046 205.723 245.808 206.259C243.991 210.01 242.84 214.142 241.242 218.111L238.912 224.039L237.772 227.025L236.565 229.998C236.259 230.748 235.366 232.054 234.52 233.139C233.682 234.238 232.912 235.121 232.781 235.036C232.68 234.969 233.05 233.968 233.549 232.787C234.075 231.589 234.7 230.193 235.108 229.28Z" fill="#C8BBB6"/>
<path d="M283.239 222.907C280.554 221.474 277.919 219.971 275.401 218.239C272.86 216.561 270.484 214.641 268.34 212.437C266.2 210.211 264.686 207.519 262.615 205.457C262.109 204.915 261.518 204.504 260.971 204.046C260.344 203.696 259.801 203.273 259.094 202.976C257.734 202.348 256.382 201.732 255.007 201.284C254.036 200.932 252.135 200.144 250.482 200.315C249.661 200.396 248.945 200.694 248.462 201.029C248.001 201.369 247.703 201.639 247.642 201.603C247.549 201.607 247.958 200.143 249.784 199.423C250.651 199.065 251.727 198.969 252.74 199.066C253.761 199.176 254.728 199.435 255.571 199.738C257.016 200.35 258.366 201.08 259.682 201.814C260.357 202.15 261.005 202.676 261.662 203.1C262.239 203.634 262.86 204.119 263.366 204.718C265.479 207.019 266.914 209.706 268.958 211.843C271.028 213.963 273.409 215.803 275.968 217.337C278.492 218.932 281.191 220.242 283.917 221.42C285.899 222.477 291.724 225.462 291.643 225.743C291.583 225.971 285.818 224.238 283.239 222.907Z" fill="#C8BBB6"/>
<path d="M347.35 282.982C351.814 284.351 356.442 285.272 361.075 285.013C363.38 284.852 365.645 284.396 367.802 283.573C369.924 282.697 371.905 281.459 373.684 279.972C374.168 279.637 374.546 279.199 374.942 278.789C375.329 278.365 375.764 277.985 376.103 277.517L377.062 276.111C377.388 275.651 377.551 275.088 377.807 274.579C378.658 272.485 378.828 270.134 378.394 267.874C377.402 263.34 374.586 259.355 371.381 255.965C369.766 254.25 367.991 252.697 366.148 251.245C364.217 249.889 362.361 248.445 360.278 247.321C358.293 246.057 356.134 245.078 354.024 244.028C351.846 243.137 349.695 242.171 347.446 241.46C343 239.888 338.406 238.755 333.792 237.768C329.184 236.758 324.525 235.934 319.866 235.052C316.497 234.37 309.998 232.908 304.497 231.116C303.113 230.712 301.822 230.189 300.614 229.765C299.414 229.353 298.334 228.921 297.443 228.517C295.644 227.739 294.533 227.231 294.569 227.17C294.641 226.99 298.321 228.379 303.39 229.714C308.467 231.062 314.92 232.365 320.193 233.433C324.802 234.442 329.451 235.368 334.086 236.475C338.711 237.568 343.331 238.798 347.807 240.445C350.083 241.196 352.251 242.189 354.441 243.129C356.578 244.218 358.741 245.232 360.765 246.528C362.853 247.687 364.756 249.175 366.705 250.558C368.573 252.05 370.388 253.635 372.03 255.389C375.286 258.859 378.212 262.924 379.32 267.723C379.806 270.12 379.647 272.692 378.742 274.993C378.477 275.546 378.304 276.152 377.956 276.665L376.934 278.207C376.586 278.719 376.124 279.116 375.719 279.571C375.305 280.012 374.896 280.489 374.408 280.846C372.575 282.425 370.519 283.751 368.272 284.727C366.004 285.642 363.611 286.163 361.19 286.38C356.341 286.743 351.515 285.895 346.917 284.613C343.436 283.587 336.897 281.106 331.561 278.086C328.9 276.6 326.515 275.161 324.699 274.184C322.901 273.235 321.761 272.595 321.788 272.52C321.793 272.498 322.083 272.593 322.584 272.778C323.08 272.985 323.8 273.273 324.678 273.629C326.443 274.354 328.803 275.581 331.409 276.838C336.568 279.385 343.1 281.737 347.35 282.982Z" fill="#C8BBB6"/>
<path d="M248.089 239.98C250.598 240.769 253.17 241.421 255.802 241.731C258.433 242.154 261.046 242.058 263.786 242.183C269.236 242.244 274.627 243.52 279.631 245.599C289.703 249.793 298.226 256.67 307.168 262.475C308.776 263.569 311.779 265.78 314.513 267.522C315.858 268.446 317.147 269.197 318.094 269.774C319.04 270.351 319.614 270.734 319.578 270.796C319.533 270.901 317.416 270.16 314.709 268.837C312.002 267.514 308.745 265.582 306.218 263.837C297.5 257.562 289.189 250.546 279.263 246.428C274.341 244.39 269.047 243.203 263.741 243.276C261.102 243.217 258.325 243.383 255.627 243.06C252.911 242.825 250.236 242.277 247.595 241.576C246.605 241.311 245.205 240.709 243.633 240.105C242.11 239.373 240.407 238.627 238.912 237.764C237.386 236.94 236.019 236.126 235.037 235.496C234.056 234.867 233.456 234.443 233.491 234.381C233.563 234.259 235.963 235.403 239.001 236.681C240.502 237.35 242.184 237.977 243.765 238.595C245.378 239.115 246.889 239.626 248.089 239.98Z" fill="#C8BBB6"/>
<path d="M252.124 232.975C253.764 229.737 255.129 226.281 256.463 222.865C257.797 219.506 258.375 215.863 259.388 212.276C259.636 211.64 260.184 210.446 260.889 209.491C261.175 209 261.632 208.625 261.907 208.35C262.205 208.08 262.404 207.949 262.452 207.994C262.566 208.109 262.242 208.833 261.917 209.729C261.781 210.217 261.605 210.731 261.424 211.267C261.274 211.821 261.115 212.362 260.926 212.827C259.478 216.128 258.632 219.738 257.275 223.207C255.95 226.637 254.85 230.09 253.634 233.6C253.098 234.9 251.011 238.354 250.721 238.201C250.537 238.094 251.471 234.56 252.124 232.975Z" fill="#C8BBB6"/>
<path d="M303.663 256.624C298.235 252.07 292.74 247.501 286.382 244.428C283.232 242.863 279.881 241.715 276.442 240.927C273.026 240.086 269.523 239.607 266.039 239.418C265.396 239.364 264.476 239.263 263.459 239.131C262.42 239.052 261.271 238.949 260.21 238.865C258.079 238.741 256.242 238.689 256.239 238.54C256.222 238.398 257.67 238.116 259.668 237.834C261.657 237.653 264.165 237.569 266.207 237.789C269.759 238.256 273.283 238.912 276.737 239.898C280.192 240.827 283.588 242.042 286.799 243.643C293.271 246.774 298.956 251.199 304.687 255.346C305.742 256.175 307.706 257.871 309.384 259.392C311.108 260.866 312.559 262.156 312.461 262.296C312.394 262.397 310.855 261.524 308.984 260.376C307.139 259.152 304.985 257.658 303.663 256.624Z" fill="#C8BBB6"/>
<path d="M277.883 234.859C282.177 236.548 286.421 238.423 290.643 240.349L293.74 241.949C294.258 242.218 294.78 242.465 295.284 242.743L296.783 243.641C297.769 244.249 298.8 244.809 299.781 245.438L302.636 247.481C302.956 247.766 303.468 248.114 303.917 248.656C304.38 249.188 304.864 249.783 305.308 250.346C306.197 251.473 306.889 252.444 306.792 252.527C306.681 252.619 305.839 252.087 304.819 251.311C303.786 250.545 302.646 249.468 301.595 248.732L299.032 246.498C298.144 245.808 297.171 245.191 296.238 244.548L294.819 243.598C294.332 243.289 293.823 243.034 293.319 242.756L290.284 241.135C286.115 239.231 281.807 237.607 277.376 236.405C275.755 235.814 271.174 233.686 271.286 233.365C271.319 233.154 275.814 234.105 277.883 234.859Z" fill="#C8BBB6"/>
<path d="M286.166 233.882C289.587 235.745 293.237 237.002 296.857 238.791C297.532 239.127 298.746 240.953 298.568 241.088C298.315 241.311 296.84 240.681 295.942 240.149C293.099 237.661 289.339 236.324 285.58 235.424C284.886 235.175 283.158 233.781 283.283 233.509C283.378 233.277 285.305 233.553 286.166 233.882Z" fill="#C8BBB6"/>
<path d="M290.383 230.231C292.196 231.551 294.167 232.445 296.305 233.248C296.647 233.48 297.312 234.526 297.165 234.736C296.991 234.963 295.916 234.945 295.43 234.637C293.95 233.042 291.927 232.126 289.758 231.741C289.389 231.584 288.552 230.537 288.669 230.252C288.737 230.036 289.909 230.029 290.383 230.231Z" fill="#C8BBB6"/>
<path d="M344.729 242.762C350.256 244.594 354.938 247.834 359.652 250.919C364.29 254.149 368.749 257.687 372.403 262.168C372.99 263.037 374.045 264.796 374.551 266.496C375.078 268.202 375.095 269.709 374.99 269.721C374.813 269.741 374.484 268.628 373.755 267.282C373.049 265.941 371.974 264.385 371.077 263.131C368.032 258.592 363.725 254.823 359.157 251.642C358.005 250.839 356.813 250.119 355.621 249.399C354.411 248.71 353.263 247.885 351.995 247.31L348.212 245.59C347.589 245.276 346.93 245.081 346.279 244.899C345.629 244.717 344.987 244.491 344.314 244.362C343.307 244.129 341.37 243.517 339.634 242.982C337.912 242.381 336.503 241.708 336.566 241.572C336.603 241.453 337.98 241.672 339.656 241.942C341.355 242.102 343.397 242.437 344.729 242.762Z" fill="#C8BBB6"/>
<path d="M369.363 267.157C366.722 263.265 363.324 259.812 359.659 256.762C355.97 253.765 351.936 251.051 347.571 249.37C346.794 249.024 345.351 248.297 344.006 247.867C342.671 247.393 341.464 247.347 341.448 247.206C341.418 247.073 342.434 246.712 343.839 246.799C345.24 246.851 346.945 247.311 348.227 247.877C352.614 250.114 356.479 253.033 360.224 256.089C363.938 259.183 367.514 262.444 370.672 266.168C371.229 266.904 372.154 268.463 372.714 269.957C373.309 271.447 373.403 272.809 373.248 272.835C373.129 272.856 372.698 271.79 371.893 270.589C371.111 269.392 370.038 268.044 369.363 267.157Z" fill="#C8BBB6"/>
<path d="M356.362 259.412C360.378 262.708 365.036 265.185 368.755 269.187C369.078 269.564 369.489 270.453 369.751 271.231C369.982 272.048 370.09 272.737 369.966 272.78C369.829 272.831 369.397 272.431 368.934 271.898C368.437 271.37 367.883 270.726 367.433 270.184C366.161 268.036 364.211 266.275 362.14 264.763C360.034 263.256 357.767 262.024 355.442 260.792C354.596 260.283 352.637 258.072 352.851 257.818C353.011 257.656 355.323 258.782 356.362 259.412Z" fill="#C8BBB6"/>
<path d="M230.223 230.692C234.22 221.015 237.488 210.98 242.368 201.58C242.614 201.173 243.024 200.581 243.479 199.942C243.604 199.785 243.707 199.622 243.823 199.452C243.988 199.211 244.148 198.992 244.314 198.751L244.608 198.33C244.635 198.313 244.648 198.247 244.684 198.243L244.82 198.306L245.07 198.427C245.359 198.579 245.789 198.772 245.921 198.857C246.28 199.059 246.613 199.278 246.916 199.478C247.209 199.723 247.476 199.928 247.677 200.119C248.052 200.577 248.234 200.856 248.19 200.904C248.057 200.991 247.217 200.345 245.85 199.967C245.7 199.913 245.494 199.858 245.331 199.813C245.274 199.812 245.216 199.812 245.181 199.816C245.101 199.925 245.185 199.908 244.925 200.382C244.544 201.106 244.141 201.825 243.77 202.447C238.095 211.153 234.781 221.293 231.743 231.273C231.58 231.721 231.274 232.472 230.982 233.099C230.942 233.126 230.8 233.256 230.928 233.306L231.006 233.368C231.046 233.4 231.173 233.449 231.256 233.49L231.823 233.746C232.542 234.148 233.316 234.23 233.852 234.468C234.388 234.649 234.735 234.802 234.73 234.881C234.724 234.96 233.397 235.05 231.73 234.793C231.523 234.739 231.325 234.697 231.105 234.651L230.789 234.574L230.354 234.46L229.215 234.142C229.065 234.145 229.11 234.039 229.142 233.943L229.224 233.661L229.409 233.103C229.568 232.62 229.713 232.146 229.849 231.715C230.011 231.324 230.128 230.981 230.223 230.692Z" fill="#C8BBB6"/>
<path d="M226.187 189.063C230.934 191.995 235.653 195.001 240.85 196.764C241.732 197.213 244.191 198.622 244.123 198.894C244.046 199.154 241.646 198.939 240.194 198.257C235.291 195.522 230.594 192.52 225.47 190.52C224.575 190.023 222.083 188.274 222.205 187.967C222.268 187.773 225.021 188.44 226.187 189.063Z" fill="#C8BBB6"/>
<path d="M211.306 224.843C215.975 227.104 220.927 228.668 225.75 230.846C226.628 231.259 228.562 233.316 228.402 233.478C228.201 233.723 226.172 232.943 224.936 232.271C220.767 229.323 215.749 227.688 210.742 226.389C209.811 226.068 207.415 224.409 207.541 224.136C207.635 223.904 210.151 224.441 211.306 224.843Z" fill="#C8BBB6"/>
<path d="M208.855 218.341C210.891 214.199 212.879 210.013 214.652 205.759C216.473 201.549 217.68 197.097 219.058 192.645C219.307 191.837 220.069 190.389 220.798 189.153C221.513 187.926 222.161 186.913 222.275 186.972C222.398 187.043 222.217 188.015 221.867 189.251C221.539 190.49 220.989 191.97 220.59 193.218C218.761 197.414 217.308 201.839 215.465 206.101C213.687 210.377 211.945 214.649 210.374 218.98C209.686 220.569 207.132 224.935 206.825 224.814C206.609 224.746 207.996 220.365 208.855 218.341Z" fill="#C8BBB6"/>
<path d="M218.302 184.293L218.78 184.588C218.915 184.708 219.064 184.82 219.204 184.918C219.493 185.127 219.778 185.302 220.068 185.454C220.597 185.829 221.256 186.081 221.902 186.285C222.09 186.428 222.308 187.253 222.152 187.45C221.978 187.678 221.193 187.812 220.917 187.594C220.574 186.983 220.133 186.569 219.62 186.221C219.353 186.073 219.063 185.978 218.768 185.905C218.628 185.864 218.474 185.832 218.328 185.813C218.179 185.817 218.024 185.842 217.87 185.867C217.694 185.83 217.194 185.037 217.201 184.729C217.19 184.508 217.942 184.206 218.302 184.293Z" fill="#C8BBB6"/>
<path d="M200.799 221.637L202.769 217.975L204.602 214.479C205.834 212.155 206.754 209.673 207.81 207.255C209.892 202.4 211.54 197.374 213.279 192.401C213.987 190.61 216.474 185.736 216.707 185.83C216.971 185.943 215.902 190.23 214.808 192.996C212.603 197.779 210.718 202.733 208.622 207.597C207.575 210.029 206.685 212.528 205.563 214.933L203.932 218.562L203.127 220.38L202.732 221.284L202.534 221.736L202.439 221.969C202.417 222.021 202.448 221.982 202.435 221.991C202.492 221.991 202.167 221.843 203.034 222.472C203.696 222.874 204.414 223.391 205.169 223.733C205.542 223.925 205.906 224.105 206.226 224.275C206.564 224.415 206.88 224.55 207.144 224.662C207.67 224.887 207.999 225.07 207.994 225.15C207.98 225.216 207.65 225.204 207.109 225.16C206.554 225.124 205.819 225.016 205.01 224.767C204.175 224.592 203.341 224.188 202.524 223.868C202.327 223.77 202.134 223.649 201.95 223.542C201.704 223.399 201.481 223.26 201.257 223.122C200.955 222.921 200.591 222.741 200.359 222.532C200.525 222.234 200.668 221.931 200.799 221.637Z" fill="#C8BBB6"/>
<path d="M102.661 111.669C118.878 120.498 133.429 131.86 148.879 141.837L160.409 149.423C164.252 151.959 168.188 154.32 172.083 156.764C179.87 161.674 187.726 166.311 195.673 171.002C197.076 171.869 199.219 173.2 201.414 174.612C203.711 175.976 206.378 177.382 208.793 178.782C211.209 180.182 213.422 181.563 214.901 182.779C215.636 183.38 216.203 183.958 216.494 184.432C216.808 184.91 216.778 185.271 216.769 185.258C216.721 185.271 216.67 185.019 216.395 184.686C216.134 184.345 215.657 183.935 215.018 183.48C213.739 182.57 211.805 181.501 209.533 180.349C207.247 179.205 204.668 177.931 202.079 176.644C200.785 176.03 199.47 175.181 198.274 174.483C197.059 173.759 195.889 173.044 194.776 172.386C187.046 167.534 179.192 162.668 171.494 157.662C167.634 155.157 163.72 152.743 159.892 150.199L148.379 142.582C132.929 132.605 118.178 121.431 101.881 113.147C98.8642 111.495 92.8895 108.455 87.4489 106.32C86.1013 105.74 84.77 105.301 83.5533 104.863C82.3367 104.425 81.2254 104.032 80.2803 103.777C78.3819 103.196 77.1913 102.798 77.2051 102.732C77.2097 102.71 77.4915 102.735 78.0105 102.832C78.5163 102.938 79.2466 103.067 80.1615 103.247C81.0677 103.414 82.1539 103.652 83.3317 104.002C84.5095 104.351 85.8243 104.649 87.1597 105.123C92.5909 106.809 98.7926 109.586 102.661 111.669Z" fill="#C8BBB6"/>
<path d="M34.0604 161.179C32.1084 158.66 30.4007 155.904 29.1972 152.933C27.9937 149.962 27.2944 146.774 27.1811 143.583C26.9366 137.232 27.9568 130.87 30.097 124.914C32.2459 118.971 35.573 113.32 40.539 109.217C45.6345 105.428 51.3095 102.38 57.5961 100.963C59.9273 100.406 64.4076 100.493 68.1939 100.826C70.1045 101.019 71.8606 101.237 73.1401 101.539C73.7778 101.672 74.2877 101.813 74.6432 101.979C74.9945 102.11 75.1699 102.204 75.1521 102.235C75.1204 102.331 74.4919 102.154 73.4174 102.079C72.3476 101.981 70.8457 101.92 69.1008 101.922C65.6465 101.923 61.2537 101.911 57.8992 102.587C51.9107 103.676 46.1891 106.508 41.1969 110.078C36.3832 113.891 33.0263 119.41 30.927 125.225C28.8318 131.076 27.874 137.359 28.2565 143.544C28.5685 149.737 31.3426 155.516 35.3381 160.173C36.7587 161.996 39.7915 165.384 42.6932 168.136C45.5817 170.898 48.1305 173.198 48.0103 173.333C47.9659 173.381 47.3219 172.948 46.2928 172.217C45.277 171.477 43.8674 170.425 42.3535 169.213C39.3209 166.812 35.9475 163.57 34.0604 161.179Z" fill="#C8BBB6"/>
<path d="M176.012 213.839C158.74 209.23 141.572 204.459 124.042 200.703L117.489 199.219C115.304 198.75 113.164 198.062 110.997 197.506L98.0424 193.983L91.5587 192.226L85.1931 190.069C80.9089 188.714 76.7954 186.982 72.6058 185.395C69.5848 184.201 63.9283 181.561 58.9955 179.302C56.538 178.157 54.2739 177.076 52.6107 176.303C50.9521 175.509 49.9256 174.985 49.9614 174.923C49.9885 174.849 50.8804 175.138 52.3344 175.649C53.797 176.173 55.8305 176.931 58.136 177.814C62.7823 179.577 68.5467 181.976 73.2314 183.885C77.3407 185.581 81.4092 187.419 85.6223 188.839L91.9078 191.105L98.3378 192.954L111.22 196.6C113.383 197.178 115.501 197.862 117.682 198.352L124.221 199.845C141.672 203.597 159.058 208.149 176.356 212.247C177.987 212.68 180.391 213.423 183.054 214.244C185.667 215.192 188.548 216.23 191.236 217.205C192.58 217.693 193.858 218.167 195.044 218.587C196.24 218.963 197.329 219.294 198.243 219.588C200.085 220.168 201.24 220.57 201.226 220.636C201.221 220.658 200.953 220.625 200.456 220.533C199.959 220.44 199.255 220.293 198.375 220.109C197.496 219.925 196.445 219.683 195.279 219.439C194.123 219.152 192.875 218.753 191.565 218.376C188.915 217.604 186.059 216.72 183.335 215.864C180.609 215.122 178.029 214.399 176.012 213.839Z" fill="#C8BBB6"/>
<path d="M83.6288 118.006C93.3622 121.017 102.166 126.001 111.245 130.332C113.487 131.466 115.8 132.478 117.996 133.717L124.609 137.383L137.847 144.706C146.505 149.844 155.444 154.456 164.375 159.111C173.233 163.889 182.079 168.676 190.916 173.45C192.507 174.345 194.835 175.669 197.431 177.141C200.013 178.622 202.782 180.417 205.382 181.982C206.67 182.791 207.937 183.538 209.099 184.182C210.27 184.84 211.304 185.492 212.239 185.906C213.164 186.363 213.901 186.735 214.432 186.995C214.95 187.264 215.226 187.425 215.23 187.461C215.203 187.535 214.228 187.205 212.576 186.596C210.898 186.062 208.731 184.897 206.213 183.659C203.735 182.338 200.964 180.829 198.215 179.267C195.43 177.767 192.636 176.254 190.132 174.893C185.761 172.418 181.381 169.93 177.009 167.456C172.633 165.003 168.334 162.406 163.877 160.063C155.027 155.298 146.079 150.616 137.4 145.474C133.015 143.008 128.577 140.634 124.17 138.221L117.544 134.621C115.356 133.395 113.024 132.414 110.765 131.31C101.65 127.098 92.7432 122.276 83.1613 119.584C79.6064 118.474 72.4584 116.601 66.1215 117.216C62.969 117.475 60.0988 118.194 58.1 119.027C56.0537 119.759 54.7589 120.188 54.7287 120.113C54.7113 120.086 54.9946 119.939 55.4947 119.688C56.0035 119.45 56.7423 119.099 57.6581 118.671C59.4415 117.77 62.1731 116.78 65.2704 116.292C68.3723 115.781 71.8487 115.785 75.0924 116.188C78.3275 116.577 81.3259 117.33 83.6288 118.006Z" fill="#C8BBB6"/>
<path d="M53.2567 168.875C50.4088 166.524 47.7709 163.827 45.7937 160.659C43.7499 157.535 42.4767 153.964 41.7768 150.341C41.1208 146.726 40.7435 142.987 41.344 139.291C41.6156 137.443 42.1204 135.632 42.7919 133.902C43.1123 133.028 43.4941 132.189 43.8892 131.342C44.2669 130.469 44.8778 129.633 45.4084 128.906C46.2417 127.829 48.0244 125.998 49.5888 124.443C50.3711 123.666 51.0955 122.945 51.6287 122.426C52.1666 121.884 52.3808 121.573 52.438 121.573C52.7106 121.642 51.9403 123.076 50.741 124.696C49.5458 126.351 47.96 128.338 46.6994 129.922C46.1161 130.626 45.5864 131.238 45.1964 132.006C44.7798 132.791 44.35 133.585 44.0081 134.397C43.267 136.021 42.7279 137.721 42.4087 139.468C41.6998 142.969 42.0029 146.624 42.6507 150.168C43.325 153.694 44.6258 157.133 46.6889 160.055C48.6989 163.011 51.3607 165.484 54.2638 167.571C55.3139 168.422 57.3839 170.048 59.2354 171.456C61.087 172.865 62.6848 174.059 62.6086 174.204C62.5054 174.424 55.9952 171.146 53.2567 168.875Z" fill="#C8BBB6"/>
<path d="M86.9234 181.571C101.577 188.272 117.793 190.629 133.266 195.332C141.081 197.471 148.875 199.605 156.677 201.752L168.387 204.912C172.259 206.043 176.135 207.266 180.016 208.295C182.838 209.069 188.118 210.93 192.921 212.003C195.308 212.605 197.509 213.329 199.018 214.069C199.391 214.262 199.733 214.437 200.023 214.589C200.303 214.785 200.531 214.959 200.719 215.102C201.095 215.387 201.301 215.556 201.283 215.587C201.265 215.618 201.054 215.528 200.721 215.366C200.365 215.2 199.91 214.91 199.242 214.701C197.978 214.162 196.069 213.74 193.892 213.285C191.715 212.829 189.184 212.473 186.701 211.839C184.243 211.187 181.76 210.496 179.54 209.86C175.664 208.694 171.864 207.383 168.024 206.156C164.161 204.981 160.28 203.894 156.395 202.772C148.615 200.572 140.836 198.372 133.043 196.181C117.583 191.469 101.343 189.393 86.3066 183.094C83.5059 181.889 78.0454 179.52 73.4122 177.254C71.0913 176.115 68.9591 175.061 67.3884 174.285C65.8311 173.501 64.8532 172.964 64.8803 172.889C64.9028 172.836 65.8428 173.17 67.3622 173.752C68.8684 174.342 70.9673 175.171 73.2682 176.077C77.9002 177.963 83.4027 180.077 86.9234 181.571Z" fill="#C8BBB6"/>
<path d="M144.073 156.864C153.302 161.685 162.61 166.397 171.977 170.994C176.668 173.26 181.353 175.605 185.895 178.196C190.429 180.773 194.927 183.412 199.465 185.91C201.11 186.827 204.191 188.722 206.949 190.24C209.707 191.757 212.129 192.906 212.062 193.064C212.012 193.192 209.951 192.566 207.206 191.533C205.881 190.957 204.366 190.297 202.861 189.592C201.401 188.839 199.931 188.073 198.638 187.343C181.339 175.671 162.18 167.248 143.399 158.387C141.64 157.526 138.28 155.699 135.378 154.048C133.936 153.207 132.509 152.622 131.567 151.966C130.608 151.341 130.038 150.935 130.087 150.865C130.163 150.778 132.441 151.85 135.458 152.952C138.39 154.184 141.858 155.77 144.073 156.864Z" fill="#C8BBB6"/>
<path d="M92.9861 178.535C83.4348 175.367 73.5874 172.299 64.956 166.708C60.6577 163.939 56.8516 160.297 54.0604 155.973C51.3531 151.631 49.676 146.369 50.5758 141.186C50.9991 138.612 52.1174 136.172 53.673 134.111C54.017 133.563 54.4618 133.082 54.9152 132.615C55.3687 132.147 55.7521 131.63 56.2711 131.234L57.7405 129.969C58.2768 129.599 58.8393 129.269 59.3843 128.913C63.9452 126.308 69.3857 125.92 74.4291 126.607C79.5302 127.237 84.4291 128.835 89.1675 130.652C91.5344 131.571 93.8563 132.596 96.1557 133.673L103.059 136.826C106.363 138.423 112.716 141.519 118.249 144.202C121.004 145.569 123.54 146.834 125.4 147.762C126.321 148.241 127.075 148.64 127.593 148.909C128.119 149.191 128.395 149.352 128.378 149.383C128.35 149.457 127.358 149.101 125.738 148.452C124.104 147.812 121.843 146.881 119.235 145.796C114.02 143.627 107.545 140.782 102.368 138.323L95.5537 135.016C93.2854 133.899 91.008 132.826 88.681 131.881C84.0269 129.99 79.2385 128.358 74.2963 127.681C69.39 126.942 64.1745 127.297 59.8662 129.736C59.3478 130.075 58.8165 130.366 58.3068 130.719L56.8951 131.927C56.4028 132.306 56.024 132.8 55.5884 133.237C55.1615 133.687 54.7346 134.137 54.4085 134.655C52.9198 136.616 51.8644 138.92 51.46 141.348C50.6067 146.254 52.2019 151.304 54.8534 155.473C57.5842 159.647 61.3033 163.156 65.5454 165.81C74.0642 171.171 83.8471 174.054 93.4843 176.975C95.3075 177.585 97.9755 178.327 100.959 179.26C103.974 180.097 107.311 180.99 110.445 181.806C113.571 182.608 116.472 183.387 118.569 184.009C120.678 184.622 121.979 185.043 121.965 185.109C121.96 185.131 121.648 185.089 121.094 184.996C120.531 184.889 119.726 184.733 118.731 184.548C116.739 184.143 113.986 183.59 110.946 182.978C107.902 182.387 104.565 181.609 101.394 180.912C98.2603 180.039 95.2665 179.264 92.9861 178.535Z" fill="#C8BBB6"/>
<path d="M136.95 187.152C139.23 187.938 141.555 188.619 143.812 189.458L150.62 191.914L157.429 194.313C159.704 195.121 161.975 195.895 164.296 196.54C173.534 199.286 182.798 202.015 191.968 204.976C193.638 205.497 196.732 206.89 199.396 208.089C202.069 209.302 204.311 210.379 204.275 210.498C204.144 210.792 196.552 208.355 191.426 206.527C182.467 203.105 173.297 200.143 164.037 197.393C161.721 196.725 159.423 195.969 157.139 195.205L150.267 192.942L143.4 190.715C141.124 189.964 138.79 189.384 136.482 188.729C135.621 188.457 134.364 188.046 132.954 187.544C131.535 187.087 129.952 186.699 128.476 186.241C125.536 185.374 123.018 184.572 123.05 184.418C123.073 184.308 125.432 184.663 128.358 185.16C129.818 185.42 131.433 185.711 132.955 186.007C134.453 186.412 135.851 186.807 136.95 187.152Z" fill="#C8BBB6"/>
<path d="M98.0472 141.149C105.809 144.424 113.319 148.244 120.897 151.847C128.474 155.509 136.038 159.178 143.616 162.84C151.211 166.47 158.807 170.1 166.393 173.718C173.931 177.405 181.764 180.557 189.018 184.942C191.56 186.507 196.789 189.16 201.225 191.763C202.343 192.399 203.364 193.117 204.319 193.707C205.248 194.371 206.071 194.991 206.767 195.504C208.074 196.661 208.861 197.399 208.825 197.46C208.78 197.508 208.031 197.03 206.849 196.209C205.64 195.406 203.904 194.377 201.847 193.293C197.746 191.116 192.359 188.831 188.173 186.349C181.176 181.834 173.437 178.506 165.927 174.687C158.376 171.009 150.803 167.326 143.239 163.656C135.643 160.025 128.097 156.325 120.439 152.83C112.794 149.327 105.212 145.688 97.417 142.682C94.506 141.511 88.8429 139.122 83.7001 137.703C82.421 137.344 81.1865 136.936 80.0522 136.653C78.8954 136.423 77.8485 136.216 76.9689 136.032C75.1877 135.659 74.0621 135.39 74.0804 135.302C74.0809 135.244 75.1201 135.324 76.8148 135.506C77.6556 135.601 78.6635 135.72 79.786 135.84C80.9131 135.938 82.0996 136.301 83.3664 136.554C84.6372 136.843 85.97 137.11 87.2976 137.456C88.6114 137.869 89.9386 138.272 91.2217 138.667C93.8146 139.438 96.1677 140.424 98.0472 141.149Z" fill="#C8BBB6"/>
<path d="M177.867 195.521C172.861 194.05 167.847 192.566 162.832 191.081L147.87 186.404C142.883 184.845 137.873 183.339 132.863 181.833L125.357 179.587C122.852 178.833 120.347 178.08 117.815 177.459L102.653 173.521C97.6013 172.212 92.4739 171.049 87.4732 169.498C82.4547 167.979 77.4775 166.261 72.7528 163.885C71.5637 163.315 70.3746 162.745 69.2617 162.031C68.1355 161.325 66.9555 160.711 65.8917 159.926L62.7318 157.475C61.651 156.607 60.7752 155.471 60.0493 154.333C59.0021 152.645 57.8181 149.964 57.3745 146.762C57.168 145.169 57.1655 143.424 57.6473 141.723C57.748 141.297 57.9365 140.889 58.1031 140.476C58.2697 140.063 58.5775 139.634 58.871 139.328C59.4584 138.659 60.1369 138.159 60.8107 137.68C63.5405 135.875 66.3692 134.86 68.5358 134.486C69.6256 134.324 70.5639 134.336 71.1608 134.61C71.7929 134.88 71.8815 135.335 71.8595 135.33C71.8196 135.356 71.6856 135.064 71.2376 134.902C70.7809 134.726 70.0716 134.716 69.211 134.88C67.4765 135.217 65.111 136.157 62.7187 137.665C61.5488 138.431 60.2675 139.345 59.4951 140.515C58.846 141.699 58.5984 143.322 58.6821 144.843C58.8445 147.964 59.9984 151.063 61.458 153.468C62.1051 154.544 62.8192 155.52 63.7553 156.312L66.7259 158.735C67.7325 159.519 68.8772 160.137 69.9461 160.842C71.0105 161.57 72.1643 162.144 73.3181 162.718C77.8971 165.133 82.8032 166.915 87.7686 168.47C92.7335 170.082 97.799 171.267 102.854 172.61L118.051 176.602C120.593 177.236 123.102 177.968 125.607 178.721L133.131 180.936L148.179 185.367L163.2 189.816C168.229 191.177 173.266 192.551 178.282 193.921C180.163 194.475 182.954 195.288 186.056 196.2C187.612 196.663 189.278 197.092 190.917 197.652C192.542 198.222 194.185 198.817 195.758 199.364C198.871 200.612 201.742 201.751 203.787 202.73C205.841 203.664 207.122 204.287 207.095 204.362C207.091 204.384 206.765 204.293 206.207 204.108C205.663 203.914 204.85 203.629 203.866 203.285C201.899 202.541 199.153 201.623 196.135 200.579C190.072 198.566 182.635 196.977 177.867 195.521Z" fill="#C8BBB6"/>
<path d="M77.8433 153.038C76.6542 152.468 75.4431 151.893 74.2826 151.077C73.1747 150.283 71.9461 149.189 71.6742 147.525C71.5533 146.731 71.6308 145.921 71.9942 145.171C72.349 144.407 73.0458 143.818 73.7796 143.547C75.2604 142.996 76.6821 143.167 78.0112 143.342C78.6801 143.435 79.3398 143.573 79.9775 143.707C80.3161 143.789 80.5759 143.809 80.9845 143.94L81.9204 144.239L85.6906 145.417C88.195 146.228 90.7224 146.928 93.1952 147.835C103.136 151.279 112.915 155.171 122.622 159.185C127.459 161.241 132.23 163.454 137.045 165.563L144.261 168.758C146.661 169.845 149.004 170.989 151.387 172.107L165.64 178.804C170.343 181.119 175.104 183.376 179.758 185.761C183.113 187.552 189.578 190.992 195.196 193.98C198.057 195.393 200.676 196.698 202.611 197.653C203.576 198.142 204.352 198.545 204.892 198.818C205.427 199.114 205.725 199.279 205.707 199.31C205.68 199.385 204.656 199.01 202.957 198.356C201.271 197.694 198.9 196.739 196.2 195.601C190.872 193.202 184.255 189.994 178.992 187.23C174.387 184.718 169.724 182.378 165.07 179.994L150.929 173.09C148.573 171.955 146.226 170.775 143.83 169.666L136.658 166.423C131.861 164.284 127.104 162.062 122.275 160.019C112.568 156.005 102.785 152.192 92.8513 148.877C90.3826 148.005 87.846 147.348 85.3457 146.573C82.8096 145.859 80.3721 144.948 77.8366 144.671C76.5955 144.514 75.3006 144.45 74.3102 144.852C73.8193 145.059 73.4773 145.377 73.2841 145.808C73.0689 146.233 73.0286 146.81 73.1126 147.286C73.2714 148.284 74.1583 149.146 75.1572 149.803C76.1735 150.485 77.3365 151.015 78.5215 151.55C80.3688 152.43 82.9087 153.729 85.8126 155.209C87.2513 155.957 88.778 156.724 90.3088 157.526C91.8487 158.284 93.4378 158.972 94.9649 159.681C97.9973 161.095 100.815 162.384 102.864 163.398C103.873 163.896 104.733 164.225 105.362 164.345C105.996 164.443 106.361 164.508 106.365 164.543C106.369 164.578 106.034 164.589 105.418 164.574C105.091 164.598 104.74 164.524 104.318 164.402C103.887 164.323 103.425 164.169 102.929 163.962C100.966 163.196 98.266 162.115 95.2669 160.926C93.7741 160.327 92.1978 159.688 90.6083 159.057C89.0413 158.374 87.488 157.625 85.9609 156.915C82.9511 155.448 80.0901 154.093 77.8433 153.038Z" fill="#C8BBB6"/>
<path d="M183.335 190.502C178.259 188.431 173.175 186.347 168.086 184.285C162.935 182.358 157.733 180.56 152.537 178.739C142.194 174.913 131.482 172.467 120.871 169.537C118.964 168.944 115.268 167.85 112.191 166.484C109.087 165.192 106.489 164.064 106.525 163.945C106.588 163.809 108.799 164.374 111.731 165.228C113.207 165.629 114.819 166.207 116.486 166.635C118.161 167.077 119.835 167.519 121.325 167.968C131.738 171.35 142.461 174.074 152.804 177.9L168.434 183.279C173.612 185.187 178.769 187.091 183.925 188.996C184.891 189.37 186.305 189.964 187.872 190.647C189.443 191.308 191.082 192.305 192.648 193.103C195.749 194.795 198.353 196.281 198.277 196.425C198.254 196.478 197.604 196.239 196.572 195.851C195.558 195.432 194.14 194.861 192.59 194.204C191.036 193.569 189.364 192.784 187.731 192.144C186.11 191.552 184.542 190.984 183.335 190.502Z" fill="#C8BBB6"/>
<path d="M47.2731 180.042C39.8011 174.888 32.1326 169.521 26.6508 161.983C26.1899 161.278 25.4137 159.831 25.0028 158.448C24.5565 157.07 24.6068 155.841 24.6861 155.846C24.8007 155.847 24.9865 156.769 25.5232 157.88C26.0333 159.008 26.8723 160.319 27.5681 161.383C28.7278 163.301 30.1356 165.075 31.641 166.767C32.396 167.602 33.1996 168.424 34.0078 169.224C34.8292 170.016 35.7264 170.72 36.5836 171.45C37.4675 172.162 38.3023 172.945 39.2219 173.596L42.0472 175.507C43.913 176.792 45.9123 177.933 47.8451 179.117C49.291 180.051 53.1583 183.234 53.0336 183.392C52.9707 183.528 49.0913 181.225 47.2731 180.042Z" fill="#C8BBB6"/>
<path d="M37.5885 178.556C36.0412 177.12 34.2188 175.901 32.5166 174.547C30.8451 173.211 28.9998 172.102 27.2894 170.677C26.9922 170.397 26.5042 169.767 26.2059 169.108C25.8723 168.453 25.9529 167.793 26.0409 167.811C26.1421 167.821 26.3105 168.223 26.7079 168.628C27.0788 169.049 27.6256 169.508 28.0583 169.908C29.4281 171.48 31.206 172.747 32.9082 174.101C34.5885 175.45 36.4389 176.48 38.2699 177.712C38.9931 178.15 40.381 180.184 40.2347 180.28C40.0752 180.384 38.4252 179.11 37.5885 178.556Z" fill="#C8BBB6"/>
<path d="M32.6182 179.606C31.0765 178.033 29.2358 176.902 27.3393 175.599C27.1863 175.452 26.9515 175.093 26.8225 174.722C26.6716 174.346 26.741 173.959 26.829 173.978C27.009 174.05 27.6402 174.434 28.0995 174.817C29.4111 176.503 31.3173 177.704 33.2603 178.73C33.6019 178.962 34.2926 180.105 34.1019 180.249C34.0042 180.332 33.0386 179.9 32.6182 179.606Z" fill="#C8BBB6"/>
<path d="M299.197 225.452C295.591 224.147 292.201 222.36 288.824 220.564C285.532 218.636 282.284 216.603 279.198 214.351C278.072 213.531 275.33 210.674 275.424 210.556C275.57 210.403 278.172 212.174 279.87 213.493C282.713 215.981 285.853 218.141 289.115 220.051C292.461 221.829 295.897 223.454 299.55 224.424C300.858 224.973 304.75 226.337 304.699 226.579C304.686 226.645 303.748 226.518 302.587 226.31C301.417 226.088 300.045 225.79 299.197 225.452Z" fill="#C8BBB6"/>
<path d="M295.637 219.865C293.688 219.033 291.829 217.933 290.05 216.838C288.248 215.796 286.326 214.946 284.467 213.846C284.147 213.619 283.592 213.09 283.196 212.513C282.774 211.955 282.705 211.297 282.797 211.294C282.903 211.282 283.143 211.619 283.594 211.931C284.031 212.252 284.632 212.618 285.092 212.944C286.653 214.257 288.508 215.265 290.341 216.325C292.129 217.433 293.972 218.335 296.003 218.828C296.71 219.125 298.754 220.218 298.686 220.433C298.658 220.565 296.581 220.235 295.637 219.865Z" fill="#C8BBB6"/>
<path d="M294.836 216.174C292.806 215.016 290.698 214.288 288.531 213.124C288.356 212.972 288.051 212.621 287.914 212.18C287.737 211.707 288.027 211.308 288.092 211.379C288.184 211.433 288.24 211.663 288.468 211.779C288.678 211.926 288.968 212.079 289.204 212.266C290.741 213.804 293.016 214.669 295.202 215.138C295.606 215.291 296.63 216.102 296.567 216.295C296.534 216.449 295.359 216.364 294.836 216.174Z" fill="#C8BBB6"/>
<path d="M364.112 291.454C361.154 291.605 358.177 291.407 355.241 291.126C352.305 290.788 349.382 290.441 346.476 289.684C346.208 289.594 345.835 289.458 345.435 289.283C345.032 289.072 344.602 288.822 344.217 288.581C343.459 288.032 342.927 287.45 342.971 287.402C343.033 287.323 343.64 287.553 344.328 287.881C345.093 288.121 346.042 288.411 346.807 288.652C349.472 289.679 352.402 290.211 355.294 290.54C358.209 290.817 361.13 290.842 364.006 290.365C365.082 290.326 368.294 290.274 368.328 290.499C368.357 290.632 365.527 291.383 364.112 291.454Z" fill="#C8BBB6"/>
<path d="M361.215 295.703C357.414 295.551 353.654 295.201 349.972 294.041C349.278 293.85 347.747 292.498 347.827 292.388C347.957 292.209 349.429 292.688 350.391 293.027C351.969 293.931 353.807 294.361 355.624 294.672C357.455 294.86 359.327 294.907 361.145 294.61C361.841 294.629 363.876 294.779 363.909 295.004C363.952 295.128 362.123 295.698 361.215 295.703Z" fill="#C8BBB6"/>
<path d="M358.043 299.24C356.201 298.832 354.407 298.847 352.443 298.804C352.258 298.753 351.938 298.583 351.667 298.343C351.352 298.093 351.356 297.635 351.452 297.667C351.571 297.703 351.734 297.749 351.923 297.72C352.144 297.708 352.435 297.689 352.663 297.748C354.314 298.414 356.24 298.427 358.053 298.152C358.396 298.155 359.401 298.617 359.391 298.833C359.385 298.969 358.48 299.239 358.043 299.24Z" fill="#C8BBB6"/>
</svg>
