<svg width="320" height="160" viewBox="0 0 320 160" fill="none" xmlns="http://www.w3.org/2000/svg">
<rect x="3.95056" width="3.95064" height="160" fill="#F4F3EE"/>
<rect x="11.8519" width="3.95064" height="160" fill="#F4F3EE"/>
<rect x="19.7531" width="3.95064" height="160" fill="#F4F3EE"/>
<rect x="27.6544" width="3.95064" height="160" fill="#F4F3EE"/>
<rect x="35.5557" width="3.95064" height="160" fill="#F4F3EE"/>
<rect x="43.457" width="3.95064" height="160" fill="#F4F3EE"/>
<rect x="51.3582" width="3.95064" height="160" fill="#F4F3EE"/>
<rect x="59.2595" width="3.95064" height="160" fill="#F4F3EE"/>
<rect x="67.1605" width="3.95064" height="160" fill="#F4F3EE"/>
<rect x="75.0618" width="3.95064" height="160" fill="#F4F3EE"/>
<rect x="82.963" width="3.95064" height="160" fill="#F4F3EE"/>
<rect x="90.8642" width="3.95064" height="160" fill="#F4F3EE"/>
<rect x="98.7654" width="3.95064" height="160" fill="#F4F3EE"/>
<rect x="106.667" width="3.95064" height="160" fill="#F4F3EE"/>
<rect x="114.568" width="3.95064" height="160" fill="#F4F3EE"/>
<rect x="122.469" width="3.95064" height="160" fill="#F4F3EE"/>
<rect x="130.37" width="3.95064" height="160" fill="#F4F3EE"/>
<rect x="146.173" width="3.95064" height="160" fill="#F4F3EE"/>
<rect x="138.272" width="3.95064" height="160" fill="#F4F3EE"/>
<rect x="154.074" width="3.95064" height="160" fill="#F4F3EE"/>
<rect x="161.975" width="3.95064" height="160" fill="#F4F3EE"/>
<rect x="169.877" width="3.95064" height="160" fill="#F4F3EE"/>
<rect x="177.778" width="3.95064" height="160" fill="#F4F3EE"/>
<rect x="185.679" width="3.95064" height="160" fill="#F4F3EE"/>
<rect x="193.58" width="3.95064" height="160" fill="#F4F3EE"/>
<rect x="201.481" width="3.95064" height="160" fill="#F4F3EE"/>
<rect x="209.383" width="3.95064" height="160" fill="#F4F3EE"/>
<rect x="217.284" width="3.95064" height="160" fill="#F4F3EE"/>
<rect x="225.185" width="3.95064" height="160" fill="#F4F3EE"/>
<rect x="233.086" width="3.95064" height="160" fill="#F4F3EE"/>
<rect x="240.988" width="3.95064" height="160" fill="#F4F3EE"/>
<rect x="248.889" width="3.95064" height="160" fill="#F4F3EE"/>
<rect x="256.79" width="3.95064" height="160" fill="#F4F3EE"/>
<rect x="264.691" width="3.95064" height="160" fill="#F4F3EE"/>
<rect x="272.593" width="3.95064" height="160" fill="#F4F3EE"/>
<rect x="288.395" width="3.95064" height="160" fill="#F4F3EE"/>
<rect x="280.494" width="3.95064" height="160" fill="#F4F3EE"/>
<rect x="296.296" width="3.95064" height="160" fill="#F4F3EE"/>
<rect x="304.197" width="3.95064" height="160" fill="#F4F3EE"/>
<rect x="312.099" width="3.95064" height="160" fill="#F4F3EE"/>
<rect width="3.95064" height="160" fill="#C8BBB6"/>
<rect x="7.90125" width="3.95064" height="160" fill="#C8BBB6"/>
<rect x="15.8025" width="3.95064" height="160" fill="#C8BBB6"/>
<rect x="23.7039" width="3.95064" height="160" fill="#C8BBB6"/>
<rect x="31.6051" width="3.95064" height="160" fill="#C8BBB6"/>
<rect x="39.5063" width="3.95064" height="160" fill="#C8BBB6"/>
<rect x="47.4077" width="3.95064" height="160" fill="#C8BBB6"/>
<rect x="55.3089" width="3.95064" height="160" fill="#C8BBB6"/>
<rect x="63.2101" width="3.95064" height="160" fill="#C8BBB6"/>
<rect x="71.1113" width="3.95064" height="160" fill="#C8BBB6"/>
<rect x="79.0123" width="3.95064" height="160" fill="#C8BBB6"/>
<rect x="86.9136" width="3.95064" height="160" fill="#C8BBB6"/>
<rect x="94.8148" width="3.95064" height="160" fill="#C8BBB6"/>
<rect x="102.716" width="3.95064" height="160" fill="#C8BBB6"/>
<rect x="110.617" width="3.95064" height="160" fill="#C8BBB6"/>
<rect x="118.518" width="3.95064" height="160" fill="#C8BBB6"/>
<rect x="126.42" width="3.95064" height="160" fill="#C8BBB6"/>
<rect x="134.321" width="3.95064" height="160" fill="#C8BBB6"/>
<rect x="142.222" width="3.95064" height="160" fill="#C8BBB6"/>
<rect x="150.123" width="3.95064" height="160" fill="#C8BBB6"/>
<rect x="158.025" width="3.95064" height="160" fill="#C8BBB6"/>
<rect x="165.926" width="3.95064" height="160" fill="#C8BBB6"/>
<rect x="173.827" width="3.95064" height="160" fill="#C8BBB6"/>
<rect x="181.728" width="3.95064" height="160" fill="#C8BBB6"/>
<rect x="189.63" width="3.95064" height="160" fill="#C8BBB6"/>
<rect x="197.531" width="3.95064" height="160" fill="#C8BBB6"/>
<rect x="205.432" width="3.95064" height="160" fill="#C8BBB6"/>
<rect x="213.333" width="3.95064" height="160" fill="#C8BBB6"/>
<rect x="221.234" width="3.95064" height="160" fill="#C8BBB6"/>
<rect x="229.136" width="3.95064" height="160" fill="#C8BBB6"/>
<rect x="237.037" width="3.95064" height="160" fill="#C8BBB6"/>
<rect x="244.938" width="3.95064" height="160" fill="#C8BBB6"/>
<rect x="252.839" width="3.95064" height="160" fill="#C8BBB6"/>
<rect x="260.741" width="3.95064" height="160" fill="#C8BBB6"/>
<rect x="268.642" width="3.95064" height="160" fill="#C8BBB6"/>
<rect x="276.543" width="3.95064" height="160" fill="#C8BBB6"/>
<rect x="284.444" width="3.95064" height="160" fill="#C8BBB6"/>
<rect x="292.346" width="3.95064" height="160" fill="#C8BBB6"/>
<rect x="300.247" width="3.95064" height="160" fill="#C8BBB6"/>
<rect x="308.148" width="3.95064" height="160" fill="#C8BBB6"/>
<rect x="316.049" width="3.95064" height="160" fill="#C8BBB6"/>
</svg>
